<?xml version="1.0" standalone="no"?>
<!DOCTYPE svg PUBLIC "-//W3C//DTD SVG 1.1//EN" "http://www.w3.org/Graphics/SVG/1.1/DTD/svg11.dtd" >
<svg xmlns="http://www.w3.org/2000/svg" xmlns:xlink="http://www.w3.org/1999/xlink" version="1.1">
<metadata>
Created by FontForge 20141024 at Mon Sep 28 14:09:25 2015
 By Jimmy Warting
Copyright (c) 2014 by S-Core Co., Ltd.. All rights reserved.
</metadata>
<defs>
<font id="CoreRhino35Light" horiz-adv-x="395" >
  <font-face 
    font-family="Core Rhino 35 Light"
    font-weight="400"
    font-stretch="normal"
    units-per-em="1000"
    panose-1="2 1 3 3 3 3 2 2 2 4"
    ascent="800"
    descent="-200"
    x-height="534"
    cap-height="700"
    bbox="-404 -248 1187 980"
    underline-thickness="24"
    underline-position="-183"
    stemh="57"
    stemv="66"
    unicode-range="U+0008-FB04"
  />
<missing-glyph horiz-adv-x="500" 
d="M430 0h-360v750h360v-750zM145 65h210v620h-210v-620z" />
    <glyph glyph-name="f_i" unicode="fi" horiz-adv-x="639" 
d="M500 649c-23 0 -43 18 -43 46c0 25 17 42 40 42s44 -18 44 -46c0 -26 -17 -42 -41 -42zM211 534h301c14 0 20 -7 20 -25v-406c0 -42 14 -56 38 -56h18c2 -7 4 -15 4 -24c0 -14 -19 -30 -52 -30c-43 0 -74 32 -74 103v381h-255v-477h-42c-18 0 -24 5 -24 19v458h-95
c-11 0 -17 6 -17 19s2 27 5 38h107v36c0 109 59 172 152 172c65 0 111 -23 111 -39c0 -11 -4 -24 -10 -32c-20 8 -55 13 -87 13c-62 0 -100 -36 -100 -109v-41z" />
    <glyph glyph-name="f_l" unicode="fl" horiz-adv-x="683" 
d="M473 130v531c-38 15 -90 23 -137 23c-92 0 -125 -36 -125 -112v-38h170c14 0 20 -7 20 -25v-32h-190v-477h-42c-18 0 -24 5 -24 19v458h-95c-11 0 -17 6 -17 19s2 27 5 38h107v33c0 112 58 175 178 175c55 0 112 -14 150 -32v18c15 4 31 7 46 7c14 0 20 -6 20 -17v-590
c0 -56 24 -79 66 -79c19 0 42 4 58 11c6 -8 9 -20 9 -28c0 -15 -33 -39 -83 -39c-72 0 -116 45 -116 137z" />
    <glyph glyph-name="f_f" unicode="ff" horiz-adv-x="754" 
d="M543 575v-41h169c15 0 20 -7 20 -25v-32h-189v-477h-42c-18 0 -24 5 -24 19v458h-266v-477h-42c-18 0 -24 5 -24 19v458h-95c-11 0 -17 6 -17 19s2 27 5 38h107v36c0 111 59 172 162 172c74 0 124 -32 124 -46c0 -11 -5 -23 -10 -30c-28 11 -64 18 -105 18
c-70 0 -105 -34 -105 -109v-41h266v36c0 111 60 172 156 172c64 0 116 -27 116 -43c0 -11 -5 -23 -10 -31c-22 10 -58 16 -93 16c-71 0 -103 -38 -103 -109z" />
    <glyph glyph-name="f_f_i" unicode="ffi" horiz-adv-x="971" 
d="M543 534h301c14 0 20 -7 20 -25v-406c0 -42 14 -56 38 -56h18c2 -7 4 -15 4 -24c0 -14 -19 -30 -52 -30c-43 0 -74 32 -74 103v381h-255v-477h-42c-18 0 -24 5 -24 19v458h-266v-477h-42c-18 0 -24 5 -24 19v458h-95c-11 0 -17 6 -17 19s2 27 5 38h107v36
c0 111 60 172 158 172c69 0 122 -30 122 -45c0 -11 -4 -23 -10 -31c-25 11 -64 18 -101 18c-69 0 -103 -38 -103 -109v-41h266v36c0 109 59 172 152 172c65 0 111 -23 111 -39c0 -11 -4 -24 -10 -32c-20 8 -55 13 -87 13c-62 0 -100 -36 -100 -109v-41zM832 649
c-23 0 -43 18 -43 46c0 25 17 42 40 42s44 -18 44 -46c0 -26 -17 -42 -41 -42z" />
    <glyph glyph-name="f_f_l" unicode="ffl" horiz-adv-x="1014" 
d="M804 130l1 531c-39 15 -91 23 -137 23c-93 0 -126 -36 -126 -112v-38h170c15 0 20 -7 20 -25v-32h-190v-477h-41c-18 0 -24 5 -24 19v458h-266v-477h-42c-18 0 -24 5 -24 19v458h-95c-11 0 -17 6 -17 19s2 27 5 38h107v36c0 111 59 172 160 172c73 0 124 -31 124 -46
c0 -11 -5 -23 -10 -30c-28 11 -65 18 -105 18c-68 0 -103 -34 -103 -109v-41h266v33c0 113 57 175 177 175c58 0 112 -13 151 -32v18c14 4 30 7 45 7c14 0 20 -6 20 -17v-590c0 -56 24 -79 66 -79c19 0 42 4 58 11c6 -8 9 -20 9 -28c0 -15 -33 -39 -83 -39
c-72 0 -116 45 -116 137z" />
    <glyph glyph-name=".notdef" horiz-adv-x="500" 
d="M430 0h-360v750h360v-750zM145 65h210v620h-210v-620z" />
    <glyph glyph-name="quotesingle" unicode="'" horiz-adv-x="276" 
d="M166 417h-33c-17 0 -23 5 -23 18l-8 262c14 5 32 8 50 8c16 0 22 -6 22 -18z" />
    <glyph glyph-name="parenleft" unicode="(" horiz-adv-x="380" 
d="M113 310c0 187 61 332 146 420c22 24 36 27 45 23c8 -3 15 -13 19 -25c-92 -102 -143 -243 -143 -418s51 -316 143 -418c-4 -12 -11 -22 -19 -25c-9 -4 -23 -1 -45 23c-85 88 -146 233 -146 420z" />
    <glyph glyph-name="parenright" unicode=")" horiz-adv-x="380" 
d="M267 310c0 -187 -62 -332 -146 -420c-22 -24 -36 -27 -45 -23c-8 3 -15 13 -19 25c92 102 143 243 143 418s-51 316 -143 418c4 12 11 22 19 25c9 4 23 1 45 -23c84 -88 146 -233 146 -420z" />
    <glyph glyph-name="asterisk" unicode="*" horiz-adv-x="615" 
d="M280 355l-9 201c14 5 32 8 48 8c15 0 21 -6 21 -17l-8 -193l190 72c9 -12 17 -28 22 -43s2 -23 -9 -26l-187 -52l128 -159c-8 -11 -20 -24 -34 -33c-13 -9 -21 -8 -28 1l-109 162l-112 -168c-14 5 -30 13 -43 22c-12 9 -14 17 -7 26l119 150l-194 53c0 17 3 33 8 48
s12 19 23 16z" />
    <glyph glyph-name="plus" unicode="+" horiz-adv-x="659" 
d="M362 90h-42c-17 0 -24 5 -24 19v194h-190c-11 0 -16 6 -16 19c0 12 2 28 5 38h201v206c13 5 30 8 45 8s21 -6 21 -17v-197h186c15 0 20 -6 20 -24v-33h-206v-213z" />
    <glyph glyph-name="comma" unicode="," horiz-adv-x="329" 
d="M163 80c24 0 45 -17 45 -51c0 -49 -18 -92 -46 -124c-21 -24 -41 -33 -46 -31c-6 3 -11 11 -13 18c28 27 48 62 52 97c-19 4 -35 21 -35 47s19 44 43 44z" />
    <glyph glyph-name="hyphen" unicode="-" horiz-adv-x="478" 
d="M102 362h260c15 0 20 -7 20 -25v-35h-269c-11 0 -17 8 -17 20c0 13 3 28 6 40z" />
    <glyph glyph-name="period" unicode="." horiz-adv-x="329" 
d="M208 32c0 -27 -18 -44 -42 -44s-46 18 -46 48c0 26 19 44 43 44s45 -18 45 -48z" />
    <glyph glyph-name="slash" unicode="/" horiz-adv-x="473" 
d="M415 753h42c13 0 20 -5 20 -13c0 -3 -1 -6 -3 -10l-417 -840h-42c-13 0 -20 5 -20 13c0 3 1 6 3 10z" />
    <glyph glyph-name="zero" unicode="0" horiz-adv-x="657" 
d="M591 350c0 -229 -99 -362 -262 -362s-263 133 -263 362s100 362 263 362c162 0 262 -133 262 -362zM135 356c0 -191 72 -308 199 -308c120 0 189 110 189 296c0 191 -73 308 -200 308c-119 0 -188 -110 -188 -296z" />
    <glyph glyph-name="one" unicode="1" horiz-adv-x="657" 
d="M352 700h38c17 0 24 -6 24 -20v-680h-44c-18 0 -24 5 -24 19v605l-181 -118c-11 6 -21 15 -29 26c-4 6 -6 10 -6 16s4 12 12 17z" />
    <glyph glyph-name="two" unicode="2" horiz-adv-x="657" 
d="M557 477c0 -172 -141 -309 -322 -418h307c14 0 19 -6 19 -24v-35h-422c-12 0 -20 3 -26 12c-5 8 -10 23 -12 36c216 118 387 260 387 430c0 107 -66 174 -170 174c-81 0 -142 -49 -172 -136c-16 1 -36 7 -46 14c-9 6 -13 12 -13 19c0 5 1 11 4 17c42 88 118 146 229 146
c140 0 237 -94 237 -235z" />
    <glyph glyph-name="three" unicode="3" horiz-adv-x="657" 
d="M269 357c-13 1 -20 4 -26 13c-6 8 -11 24 -13 37l212 234h-325c-11 0 -16 6 -16 19s2 29 5 40h384c13 0 20 -3 26 -12s11 -24 13 -36l-220 -245c146 -20 246 -85 246 -212c0 -130 -111 -207 -259 -207c-120 0 -209 47 -209 73c0 10 4 23 10 31c55 -29 118 -44 192 -44
c115 0 198 52 198 144c0 100 -74 154 -218 165z" />
    <glyph glyph-name="four" unicode="4" horiz-adv-x="657" 
d="M447 204v432c-133 -84 -265 -269 -310 -432h310zM447 145h-348c-12 0 -20 3 -26 12c-5 8 -10 23 -12 36c52 183 210 419 379 507c14 4 30 7 47 7c21 0 28 -6 28 -24v-479h75c15 0 20 -7 20 -24v-35h-95v-145h-44c-17 0 -24 5 -24 19v126z" />
    <glyph glyph-name="five" unicode="5" horiz-adv-x="657" 
d="M491 214c0 101 -73 166 -202 166c-35 0 -84 -6 -119 -14c-9 -2 -16 -3 -22 -3s-11 3 -17 8l-10 8l44 321h349c14 0 20 -6 20 -24v-35h-314l-30 -219c28 9 72 17 113 17c157 0 256 -85 256 -225c0 -130 -96 -226 -262 -226c-120 0 -208 47 -208 73c0 10 4 23 10 31
c55 -30 118 -44 189 -44c129 0 203 64 203 166z" />
    <glyph glyph-name="six" unicode="6" horiz-adv-x="657" 
d="M368 652c-123 0 -219 -99 -225 -283c49 43 124 74 207 74c132 0 243 -89 243 -234c0 -124 -94 -221 -235 -221c-170 0 -283 129 -283 342v14c0 232 123 368 290 368c96 0 171 -44 203 -118c3 -7 5 -14 5 -21c0 -8 -5 -14 -14 -20c-12 -7 -30 -11 -46 -13
c-20 77 -78 112 -145 112zM339 383c-77 0 -144 -29 -196 -77c6 -162 95 -258 216 -258c93 0 166 66 166 159c0 113 -84 176 -186 176z" />
    <glyph glyph-name="seven" unicode="7" horiz-adv-x="657" 
d="M227 22c57 218 148 435 260 619h-385c-11 0 -16 6 -16 19s2 29 5 40h437c13 0 20 -3 26 -12s11 -23 13 -35c-130 -202 -220 -425 -274 -653h-44c-20 0 -25 9 -22 22z" />
    <glyph glyph-name="eight" unicode="8" horiz-adv-x="657" 
d="M69 179c0 85 53 151 161 189c-95 41 -134 91 -134 164c0 101 91 180 228 180c141 0 228 -82 228 -180c0 -72 -50 -133 -122 -172c107 -44 157 -100 157 -179c0 -111 -100 -193 -259 -193c-152 0 -259 78 -259 191zM137 178c0 -81 88 -131 191 -131c111 0 190 56 190 132
c0 77 -57 118 -221 165c-117 -41 -160 -97 -160 -166zM483 533c0 71 -67 119 -159 119c-91 0 -160 -48 -160 -118c0 -71 53 -102 205 -152c73 40 114 91 114 151z" />
    <glyph glyph-name="nine" unicode="9" horiz-adv-x="657" 
d="M284 48c125 0 232 84 239 283c-49 -44 -125 -74 -207 -74c-132 0 -243 89 -243 234c0 124 94 221 235 221c170 0 283 -129 283 -342v-14c0 -245 -128 -368 -298 -368c-95 0 -178 44 -178 70c0 11 4 23 10 32c46 -28 102 -42 159 -42zM327 317c76 0 143 29 196 77
c-7 162 -95 258 -216 258c-93 0 -166 -66 -166 -159c0 -113 84 -176 186 -176z" />
    <glyph glyph-name="colon" unicode=":" horiz-adv-x="329" 
d="M208 32c0 -27 -18 -44 -42 -44s-46 18 -46 48c0 26 19 44 43 44s45 -18 45 -48zM208 498c0 -26 -18 -44 -42 -44s-46 18 -46 48c0 27 19 44 43 44s45 -18 45 -48z" />
    <glyph glyph-name="semicolon" unicode=";" horiz-adv-x="329" 
d="M208 498c0 -26 -18 -44 -42 -44s-46 18 -46 48c0 27 19 44 43 44s45 -18 45 -48zM163 80c24 0 45 -17 45 -51c0 -49 -18 -92 -46 -124c-21 -24 -41 -33 -46 -31c-6 3 -11 11 -13 18c28 27 48 62 52 97c-19 4 -35 21 -35 47s19 44 43 44z" />
    <glyph glyph-name="less" unicode="&#x3c;" horiz-adv-x="659" 
d="M568 94l-458 197c-14 6 -20 12 -20 29v44l453 195c4 1 7 2 10 2c9 0 15 -7 15 -22c0 -14 -1 -27 -4 -38l-401 -169l384 -162c14 -6 21 -12 21 -29v-47z" />
    <glyph glyph-name="equal" unicode="=" horiz-adv-x="659" 
d="M568 412h-462c-11 0 -16 6 -16 19c0 12 2 27 5 38h453c15 0 20 -7 20 -24v-33zM568 194h-462c-11 0 -16 7 -16 20c0 11 2 27 5 37h453c15 0 20 -6 20 -24v-33z" />
    <glyph glyph-name="greater" unicode="&#x3e;" horiz-adv-x="659" 
d="M548 291l-458 -197v47c0 17 7 23 21 29l385 162l-402 169c-3 11 -4 24 -4 38c0 15 6 22 15 22c3 0 6 -1 10 -2l453 -195v-44c0 -16 -6 -24 -20 -29z" />
    <glyph glyph-name="question" unicode="?" horiz-adv-x="555" 
d="M266 -12c-23 0 -45 18 -45 48c0 26 18 43 43 43c23 0 45 -18 45 -47c0 -27 -18 -44 -43 -44zM280 712c122 0 207 -78 207 -191c0 -79 -35 -134 -112 -197c-63 -51 -76 -75 -76 -117v-32h-44c-18 0 -24 6 -24 20v16c0 56 21 97 96 156c65 52 92 94 92 154
c0 80 -61 131 -140 131c-76 0 -138 -45 -163 -136c-16 1 -35 7 -47 14c-9 5 -12 12 -12 18s1 12 4 18c38 89 109 146 219 146z" />
    <glyph glyph-name="at" unicode="@" horiz-adv-x="1021" 
d="M458 109c61 0 116 29 156 80l41 208c-26 31 -67 46 -115 46c-96 0 -193 -83 -193 -204c0 -80 44 -130 111 -130zM518 -112c91 0 170 23 242 79c9 -6 15 -14 16 -24c2 -21 -94 -105 -260 -105c-248 0 -437 189 -437 437c0 251 195 437 431 437c250 0 432 -179 432 -412
c0 -142 -80 -253 -192 -253c-62 0 -109 35 -123 93c-43 -53 -109 -88 -180 -88c-92 0 -164 73 -164 184c0 165 132 262 260 262c79 0 141 -35 179 -86l-41 -204c-13 -65 15 -111 72 -111c71 0 134 80 134 201c0 207 -155 364 -377 364c-202 0 -375 -162 -375 -387
c0 -215 163 -387 383 -387z" />
    <glyph glyph-name="A" unicode="A" horiz-adv-x="664" 
d="M92 0h-43c-14 0 -22 5 -22 14c0 3 1 6 2 9l259 669c17 8 39 13 59 13c18 0 25 -6 31 -22l264 -683h-49c-18 0 -25 5 -29 17l-65 174h-335zM477 250l-146 386l-146 -386h292z" />
    <glyph glyph-name="B" unicode="B" horiz-adv-x="651" 
d="M243 59h110c114 0 170 51 170 134c0 88 -60 133 -181 133h-175v-159c0 -83 20 -108 76 -108zM335 640h-168v-255h168c112 0 165 47 165 128c0 76 -61 127 -165 127zM99 700h240c150 0 230 -84 230 -184c0 -77 -40 -131 -110 -157c81 -21 133 -80 133 -167
c0 -111 -81 -192 -241 -192h-115c-89 0 -137 42 -137 160v540z" />
    <glyph glyph-name="C" unicode="C" horiz-adv-x="687" 
d="M637 565c3 -6 4 -11 4 -15c0 -7 -4 -12 -12 -18c-12 -8 -30 -15 -47 -17c-38 87 -114 137 -211 137c-123 0 -241 -99 -241 -277c0 -206 141 -328 311 -328c59 0 119 13 167 41c6 -9 9 -22 9 -32c0 -27 -81 -68 -184 -68c-210 0 -371 149 -371 384c0 218 149 340 312 340
c127 0 220 -62 263 -147z" />
    <glyph glyph-name="D" unicode="D" horiz-adv-x="723" 
d="M244 59h76c146 0 271 99 271 291s-125 291 -271 291h-152v-473c0 -84 19 -109 76 -109zM324 0h-88c-89 0 -136 41 -136 161v539h224c193 0 336 -133 336 -350s-143 -350 -336 -350z" />
    <glyph glyph-name="E" unicode="E" horiz-adv-x="570" 
d="M513 0h-277c-90 0 -137 41 -137 160v540h390c11 0 16 -7 16 -20s-2 -28 -5 -40h-333v-265h264c15 0 20 -7 20 -24v-35h-284v-149c0 -82 25 -108 76 -108h250c15 0 20 -7 20 -25v-34z" />
    <glyph glyph-name="F" unicode="F" horiz-adv-x="547" 
d="M169 0h-44c-17 0 -24 5 -24 19v681h390c11 0 16 -7 16 -20s-2 -28 -5 -40h-333v-267h264c15 0 20 -6 20 -24v-35h-284v-314z" />
    <glyph glyph-name="G" unicode="G" horiz-adv-x="749" 
d="M594 517c-38 90 -120 135 -214 135c-130 0 -250 -101 -250 -277c0 -205 140 -328 304 -328c110 0 162 42 162 102v135h-158c-11 0 -16 6 -16 19s2 29 5 40h217c14 0 20 -6 20 -24v-168c0 -101 -87 -163 -232 -163c-209 0 -370 151 -370 384c0 216 150 340 318 340
c127 0 223 -60 269 -145c3 -6 4 -11 4 -15c0 -7 -4 -12 -12 -18c-12 -8 -30 -15 -47 -17z" />
    <glyph glyph-name="H" unicode="H" horiz-adv-x="722" 
d="M169 0h-44c-17 0 -24 5 -24 19v678c14 5 31 8 47 8c15 0 21 -6 21 -17v-308h383v320h44c17 0 24 -6 24 -20v-680h-44c-18 0 -24 5 -24 19v302h-383v-321z" />
    <glyph glyph-name="I" unicode="I" horiz-adv-x="283" 
d="M175 0h-44c-18 0 -24 5 -24 19v678c14 5 31 8 47 8c15 0 21 -6 21 -17v-688z" />
    <glyph glyph-name="J" unicode="J" horiz-adv-x="411" 
d="M136 -12c-57 0 -119 25 -119 46c0 12 4 24 10 32c27 -12 63 -18 99 -18c74 0 119 43 119 134v516c14 4 30 7 47 7c15 0 21 -5 21 -16v-507c0 -121 -59 -194 -177 -194z" />
    <glyph glyph-name="K" unicode="K" horiz-adv-x="658" 
d="M585 647c-58 -90 -142 -181 -234 -259c75 -139 161 -267 223 -319c18 -15 32 -22 47 -22h16c2 -7 4 -18 4 -26c0 -16 -21 -33 -51 -33c-22 0 -42 10 -66 31c-71 62 -155 198 -223 330c-43 -34 -88 -66 -132 -93v-256h-44c-17 0 -24 5 -24 19v678c14 5 31 8 47 8
c15 0 21 -6 21 -17v-356c129 85 269 217 373 373c36 -11 50 -22 50 -37c0 -6 -2 -14 -7 -21z" />
    <glyph glyph-name="L" unicode="L" horiz-adv-x="545" 
d="M516 0h-280c-90 0 -137 41 -137 160v537c14 5 31 8 47 8c15 0 21 -6 21 -17v-521c0 -82 25 -108 76 -108h254c14 0 19 -7 19 -25v-34z" />
    <glyph glyph-name="M" unicode="M" horiz-adv-x="897" 
d="M749 20l-60 580l-204 -365c-5 -9 -12 -13 -28 -13h-40l-211 378l-63 -600h-45c-19 0 -24 5 -24 20l73 665c18 12 41 20 55 20c11 0 16 -3 23 -15l222 -396l227 406h49c18 0 23 -6 25 -20l75 -680h-48c-19 0 -25 5 -26 20z" />
    <glyph glyph-name="N" unicode="N" horiz-adv-x="718" 
d="M540 8l-370 583v-591h-44c-18 0 -24 5 -24 20v663c17 13 40 22 53 22c11 0 17 -4 23 -13l370 -583v591h44c18 0 24 -5 24 -20v-663c-17 -13 -40 -22 -53 -22c-11 0 -16 4 -23 13z" />
    <glyph glyph-name="O" unicode="O" horiz-adv-x="771" 
d="M62 350c0 240 149 362 324 362c174 0 323 -122 323 -362s-149 -362 -323 -362c-175 0 -324 122 -324 362zM132 358c0 -207 119 -310 261 -310c127 0 246 93 246 294c0 207 -118 310 -261 310c-127 0 -246 -93 -246 -294z" />
    <glyph glyph-name="P" unicode="P" horiz-adv-x="633" 
d="M170 0h-44c-18 0 -24 5 -24 20v680h208c163 0 272 -93 272 -254c0 -163 -119 -250 -265 -250c-48 0 -104 7 -147 22v-218zM170 641v-369c40 -11 89 -16 140 -16c120 0 204 68 204 192c0 128 -85 193 -206 193h-138z" />
    <glyph glyph-name="Q" unicode="Q" horiz-adv-x="771" 
d="M62 350c0 240 149 362 324 362c174 0 323 -122 323 -362c0 -160 -67 -269 -163 -322c48 -83 90 -110 130 -110h17c3 -7 4 -16 4 -25c0 -15 -18 -31 -53 -31c-53 0 -103 43 -151 143c-33 -11 -70 -17 -107 -17c-175 0 -324 122 -324 362zM132 358
c0 -207 121 -310 261 -310c127 0 246 93 246 294c0 207 -118 310 -261 310c-127 0 -246 -93 -246 -294z" />
    <glyph glyph-name="R" unicode="R" horiz-adv-x="654" 
d="M554 -12c-19 0 -37 7 -57 21c-57 41 -117 124 -164 208c-8 -1 -16 -1 -24 -1c-52 0 -96 6 -140 20v-236h-44c-17 0 -24 5 -24 19v681h198c163 0 272 -89 272 -242c0 -125 -72 -202 -173 -230c49 -78 98 -135 138 -164c18 -13 33 -19 48 -19h14c3 -8 4 -16 4 -24
c0 -17 -19 -33 -48 -33zM169 640v-349c39 -11 81 -16 129 -16c121 0 204 64 204 183c0 122 -85 182 -206 182h-127z" />
    <glyph glyph-name="S" unicode="S" horiz-adv-x="593" 
d="M289 712c110 0 192 -54 227 -117c5 -9 7 -16 7 -22c0 -7 -4 -13 -13 -18c-13 -7 -32 -11 -46 -12c-31 70 -93 109 -175 109c-90 0 -153 -49 -153 -124c0 -71 48 -113 175 -152c145 -45 219 -100 219 -205c0 -110 -90 -183 -234 -183c-112 0 -201 41 -201 71
c0 10 4 23 10 31c53 -27 118 -43 185 -43c117 0 172 52 172 121c0 71 -54 115 -175 149c-142 39 -220 103 -220 208c0 110 92 187 222 187z" />
    <glyph glyph-name="T" unicode="T" horiz-adv-x="607" 
d="M337 0h-44c-17 0 -24 5 -24 19v621h-208c-11 0 -16 7 -16 20s2 28 5 40h492c14 0 20 -7 20 -25v-35h-225v-640z" />
    <glyph glyph-name="U" unicode="U" horiz-adv-x="719" 
d="M96 292v405c14 5 30 8 47 8c14 0 21 -6 21 -17v-401c0 -145 77 -240 195 -240s196 95 196 240v413h44c17 0 24 -6 24 -20v-388c0 -187 -103 -304 -264 -304s-263 117 -263 304z" />
    <glyph glyph-name="V" unicode="V" horiz-adv-x="709" 
d="M658 679c-58 -231 -143 -456 -261 -661c-8 -13 -15 -18 -32 -18h-56l-264 683c18 13 38 21 53 21c11 0 15 -5 20 -17l234 -604c95 165 182 389 238 617h46c18 0 25 -7 22 -21z" />
    <glyph glyph-name="W" unicode="W" horiz-adv-x="1108" 
d="M1049 679c-47 -231 -116 -440 -224 -661c-7 -13 -15 -18 -32 -18h-59l-179 614c-43 -198 -112 -408 -202 -596c-6 -13 -15 -18 -32 -18h-57l-213 683c17 13 38 21 52 21c11 0 17 -4 21 -17l185 -606c80 167 147 370 198 619h63c18 0 27 -5 32 -20l177 -598
c87 179 157 389 202 618h47c18 0 24 -7 21 -21z" />
    <glyph glyph-name="X" unicode="X" horiz-adv-x="680" 
d="M387 355l246 -322c-18 -26 -34 -38 -47 -38c-9 0 -14 3 -20 11l-231 303c-90 -83 -162 -187 -213 -309h-48c-13 0 -20 4 -20 13c0 3 1 7 3 12c53 123 134 240 240 336l-231 304c18 26 34 38 47 38c9 0 14 -3 20 -11l216 -285c83 80 154 177 202 293h48c12 0 20 -5 20 -15
c0 -3 -1 -7 -3 -11c-50 -117 -131 -226 -229 -319z" />
    <glyph glyph-name="Y" unicode="Y" horiz-adv-x="656" 
d="M289 19v215l-249 439c20 20 38 30 52 30c9 0 14 -3 18 -10l216 -389c87 111 169 249 222 396h44c14 0 23 -5 23 -14c0 -5 -1 -9 -3 -15c-58 -152 -148 -304 -255 -434v-237h-44c-18 0 -24 5 -24 19z" />
    <glyph glyph-name="Z" unicode="Z" horiz-adv-x="606" 
d="M541 652l-393 -593h381c14 0 20 -7 20 -25v-34h-449c-12 0 -20 3 -26 12c-5 8 -10 23 -12 36l393 592h-361c-11 0 -17 7 -17 20s3 28 6 40h420c12 0 20 -3 26 -12c5 -8 10 -23 12 -36z" />
    <glyph glyph-name="bracketleft" unicode="[" horiz-adv-x="417" 
d="M201 693v-642c0 -96 25 -124 80 -124h84c14 0 20 -6 20 -24v-33h-109c-99 0 -141 50 -141 177v703h237c11 0 16 -7 16 -20c0 -12 -2 -26 -5 -37h-182z" />
    <glyph glyph-name="backslash" unicode="\" horiz-adv-x="473" 
d="M15 753h42l417 -840c2 -4 3 -7 3 -10c0 -8 -7 -13 -20 -13h-42l-417 840c-2 4 -3 7 -3 10c0 8 7 13 20 13z" />
    <glyph glyph-name="bracketright" unicode="]" horiz-adv-x="417" 
d="M215 51v642h-182c-3 11 -5 25 -5 37c0 13 5 20 16 20h213c17 0 24 -6 24 -20v-683c0 -127 -41 -177 -141 -177h-109v33c0 18 6 24 20 24h84c58 0 80 27 80 124z" />
    <glyph glyph-name="asciicircum" unicode="^" horiz-adv-x="620" 
d="M470 379l-163 261l-171 -275c-14 1 -31 6 -41 12c-6 4 -10 9 -10 15c0 5 1 8 5 14l183 294h47c16 0 25 -5 37 -24l178 -286l-32 -20c-5 -3 -10 -5 -15 -5c-7 0 -12 4 -18 14z" />
    <glyph glyph-name="underscore" unicode="_" horiz-adv-x="500" 
d="M4 -111h476c15 0 20 -7 20 -24v-26h-484c-11 0 -16 7 -16 20c0 10 2 21 4 30z" />
    <glyph glyph-name="grave" unicode="`" horiz-adv-x="413" 
d="M250 573l-133 113c5 11 13 23 21 31c5 5 11 7 17 7c5 0 11 -3 17 -9l125 -120l-21 -22c-4 -4 -8 -6 -12 -6c-5 0 -9 2 -14 6z" />
    <glyph glyph-name="a" unicode="a" horiz-adv-x="595" 
d="M248 45c69 0 137 34 180 111v85c-42 19 -106 30 -157 30c-94 0 -149 -44 -149 -113c0 -73 58 -113 126 -113zM531 47h18c2 -7 4 -15 4 -24c0 -14 -19 -30 -48 -30c-41 0 -72 33 -76 91c-38 -58 -104 -96 -190 -96c-111 0 -183 69 -183 168c0 109 83 173 209 173
c57 0 116 -13 163 -36v55c0 96 -66 140 -167 140c-56 0 -108 -11 -150 -34c-6 7 -10 20 -10 30c0 24 75 62 174 62c132 0 218 -68 218 -202v-241c0 -42 14 -56 38 -56z" />
    <glyph glyph-name="b" unicode="b" horiz-adv-x="636" 
d="M355 546c125 0 224 -96 224 -258c0 -166 -112 -300 -264 -300c-140 0 -226 95 -226 243v497c14 5 30 7 45 7c14 0 20 -5 20 -16v-270c49 60 121 97 201 97zM342 489c-67 0 -141 -41 -188 -108v-150c0 -127 75 -185 162 -185c108 0 197 105 197 241
c0 135 -76 202 -171 202z" />
    <glyph glyph-name="c" unicode="c" horiz-adv-x="551" 
d="M506 437c3 -6 4 -11 4 -15c0 -8 -4 -14 -12 -19c-12 -8 -29 -13 -45 -15c-22 58 -70 100 -147 100c-102 0 -183 -77 -183 -203c0 -160 119 -240 230 -240c49 0 93 10 132 32c6 -9 10 -21 10 -30c0 -24 -66 -59 -153 -59c-144 0 -286 107 -286 296c0 164 113 262 252 262
c96 0 168 -50 198 -109z" />
    <glyph glyph-name="d" unicode="d" horiz-adv-x="650" 
d="M320 546c62 0 119 -19 161 -58v242h42c17 0 24 -6 24 -20v-607c0 -42 14 -56 38 -56h18c2 -7 4 -15 4 -24c0 -14 -19 -30 -48 -30c-41 0 -77 37 -78 106c-36 -64 -107 -111 -198 -111c-130 0 -227 96 -227 257c0 170 113 301 264 301zM295 45c73 0 146 50 186 151v227
c-44 44 -98 65 -154 65c-117 0 -204 -105 -204 -242c0 -128 70 -201 172 -201z" />
    <glyph glyph-name="e" unicode="e" horiz-adv-x="574" 
d="M328 46c46 0 95 10 134 32c6 -8 10 -21 10 -30c0 -23 -62 -60 -153 -60c-150 0 -262 115 -262 282c0 170 120 276 256 276c124 0 210 -83 210 -197c0 -25 -5 -52 -13 -73c-12 -29 -27 -37 -59 -37h-327c11 -124 101 -193 204 -193zM309 488c-94 0 -177 -74 -185 -192h324
c6 14 10 32 10 51c0 85 -59 141 -149 141z" />
    <glyph glyph-name="f" unicode="f" horiz-adv-x="423" 
d="M211 477v-477h-42c-18 0 -24 5 -24 19v458h-95c-11 0 -17 6 -17 19s2 27 5 38h107v36c0 111 60 172 156 172c64 0 116 -27 116 -43c0 -11 -5 -23 -10 -31c-22 10 -58 16 -93 16c-71 0 -103 -38 -103 -109v-41h170c14 0 20 -7 20 -25v-32h-190z" />
    <glyph glyph-name="g" unicode="g" horiz-adv-x="638" 
d="M320 546c62 0 119 -19 161 -57v45h42c17 0 24 -6 24 -20v-502c0 -140 -106 -260 -293 -260c-105 0 -178 53 -178 133c0 50 26 99 90 134c-67 40 -110 118 -110 226c0 170 113 301 264 301zM481 9v90c-36 -64 -107 -111 -198 -111c-25 0 -48 4 -70 10
c-48 -31 -71 -64 -71 -108c0 -47 43 -81 112 -81c134 0 227 83 227 200zM327 488c-117 0 -204 -105 -204 -242c0 -128 70 -201 172 -201c73 0 146 50 186 151v227c-44 44 -98 65 -154 65z" />
    <glyph glyph-name="h" unicode="h" horiz-adv-x="641" 
d="M472 96v227c0 108 -43 165 -137 165c-60 0 -128 -25 -179 -74v-414h-42c-18 0 -24 5 -24 19v709c15 4 31 7 45 7c15 0 21 -6 21 -17v-245c55 45 121 73 193 73c125 0 189 -86 189 -224v-219c0 -42 14 -56 38 -56h18c2 -7 4 -15 4 -24c0 -14 -19 -30 -52 -30
c-43 0 -74 32 -74 103z" />
    <glyph glyph-name="i" unicode="i" horiz-adv-x="263" 
d="M90 96v436c15 4 31 7 45 7c15 0 21 -6 21 -17v-419c0 -42 14 -56 38 -56h18c2 -7 4 -15 4 -24c0 -14 -19 -30 -52 -30c-43 0 -74 32 -74 103zM123 649c-22 0 -43 18 -43 46c0 25 18 42 41 42s43 -18 43 -46c0 -26 -17 -42 -41 -42z" />
    <glyph glyph-name="j" unicode="j" horiz-adv-x="253" 
d="M114 -143c-32 -42 -65 -60 -81 -60c-10 0 -23 14 -26 26c56 51 88 115 88 186v523c15 4 31 7 45 7c15 0 21 -6 21 -17v-514c0 -62 -19 -114 -47 -151zM128 649c-22 0 -43 18 -43 46c0 25 18 42 41 42s43 -18 43 -46c0 -26 -17 -42 -41 -42z" />
    <glyph glyph-name="k" unicode="k" horiz-adv-x="575" 
d="M156 0h-42c-18 0 -24 5 -24 19v709c15 4 31 7 45 7c15 0 21 -6 21 -17v-455c106 64 224 163 306 276c35 -13 45 -23 45 -37c0 -5 -2 -11 -5 -16c-47 -64 -117 -132 -199 -193c55 -89 119 -169 166 -213c27 -25 42 -33 54 -33h20c2 -7 4 -15 4 -24c0 -14 -19 -30 -49 -30
c-20 0 -43 9 -71 37c-51 50 -119 133 -174 228c-31 -21 -65 -43 -97 -61v-197z" />
    <glyph glyph-name="l" unicode="l" horiz-adv-x="300" 
d="M288 32c0 -15 -33 -39 -83 -39c-72 0 -114 45 -114 137v598c14 5 30 7 45 7c14 0 20 -5 20 -16v-591c0 -56 23 -79 65 -79c19 0 42 4 58 11c6 -8 9 -20 9 -28z" />
    <glyph glyph-name="m" unicode="m" horiz-adv-x="918" 
d="M749 96v265c0 90 -45 127 -112 127c-51 0 -109 -26 -156 -81c2 -15 4 -31 4 -48v-359h-41c-18 0 -24 5 -24 19v341c0 90 -45 128 -112 128c-51 0 -106 -25 -152 -82v-406h-42c-18 0 -24 5 -24 19v513c15 4 31 7 45 7c15 0 21 -6 21 -17v-54c46 51 103 78 165 78
c65 0 118 -29 144 -86c52 52 116 86 184 86c96 0 166 -60 166 -186v-257c0 -42 14 -56 38 -56h18c2 -7 4 -15 4 -24c0 -14 -19 -30 -52 -30c-43 0 -74 32 -74 103z" />
    <glyph glyph-name="n" unicode="n" horiz-adv-x="641" 
d="M472 96v227c0 108 -43 165 -137 165c-60 0 -128 -25 -179 -74v-414h-42c-18 0 -24 5 -24 19v513c15 4 31 7 45 7c15 0 21 -6 21 -17v-49c55 45 121 73 193 73c125 0 189 -86 189 -224v-219c0 -42 14 -56 38 -56h18c2 -7 4 -15 4 -24c0 -14 -19 -30 -52 -30
c-43 0 -74 32 -74 103z" />
    <glyph glyph-name="o" unicode="o" horiz-adv-x="628" 
d="M314 546c139 0 257 -103 257 -279s-118 -279 -257 -279s-257 103 -257 279s118 279 257 279zM319 46c96 0 186 70 186 215c0 150 -94 227 -196 227c-97 0 -186 -70 -186 -215c0 -150 94 -227 196 -227z" />
    <glyph glyph-name="p" unicode="p" horiz-adv-x="638" 
d="M156 46v-259h-41c-18 0 -24 5 -24 20v725c14 5 30 7 45 7c14 0 20 -5 20 -16v-88c40 68 108 111 198 111c130 0 227 -96 227 -257c0 -170 -113 -301 -264 -301c-62 0 -119 19 -161 58zM342 489c-73 0 -146 -50 -186 -151v-227c44 -44 98 -65 154 -65
c117 0 204 105 204 242c0 128 -70 201 -172 201z" />
    <glyph glyph-name="q" unicode="q" horiz-adv-x="638" 
d="M481 488v46h42c17 0 24 -6 24 -20v-727h-42c-18 0 -24 6 -24 20v292c-40 -68 -108 -111 -198 -111c-130 0 -227 96 -227 257c0 170 113 301 264 301c62 0 119 -19 161 -58zM481 196v227c-44 44 -98 65 -154 65c-117 0 -204 -105 -204 -242c0 -128 70 -201 172 -201
c73 0 146 50 186 151z" />
    <glyph glyph-name="r" unicode="r" horiz-adv-x="441" 
d="M411 522c13 -7 18 -14 18 -23c0 -5 -2 -9 -5 -14c-8 -11 -19 -21 -31 -27c-26 20 -61 30 -98 30c-61 0 -112 -40 -139 -125v-363h-42c-18 0 -24 5 -24 19v513c15 4 31 7 45 7c15 0 21 -6 21 -17v-69c34 59 87 93 156 93c42 0 77 -11 99 -24z" />
    <glyph glyph-name="s" unicode="s" horiz-adv-x="498" 
d="M378 409c-22 51 -73 79 -132 79c-65 0 -113 -37 -113 -92c0 -54 40 -83 141 -109c117 -30 167 -76 167 -154c0 -89 -68 -145 -192 -145c-92 0 -166 37 -166 61c0 11 4 24 10 31c42 -21 93 -35 149 -35c87 0 133 28 133 84c0 47 -31 78 -123 100c-128 30 -185 84 -185 169
c0 87 73 148 181 148c83 0 149 -35 181 -88c3 -5 5 -11 5 -16c0 -8 -4 -13 -14 -19c-13 -7 -29 -12 -42 -14z" />
    <glyph glyph-name="t" unicode="t" horiz-adv-x="449" 
d="M305 46c30 0 63 5 89 18c6 -7 10 -20 10 -30c0 -18 -44 -46 -109 -46c-96 0 -159 63 -159 174v315h-86c-11 0 -16 6 -16 19s2 27 5 38h97v151c14 5 30 7 45 7c14 0 20 -5 20 -16v-142h180c15 0 20 -6 20 -24v-33h-200v-316c0 -81 43 -115 104 -115z" />
    <glyph glyph-name="u" unicode="u" horiz-adv-x="612" 
d="M530 514v-289c0 -147 -94 -237 -224 -237c-131 0 -225 90 -225 237v307c14 4 30 7 45 7c14 0 21 -6 21 -17v-301c0 -109 71 -176 159 -176s159 66 159 176v313h41c18 0 24 -6 24 -20z" />
    <glyph glyph-name="v" unicode="v" horiz-adv-x="586" 
d="M331 16c-7 -12 -15 -16 -29 -16h-55l-204 519c18 13 37 21 51 21c10 0 14 -4 18 -14l177 -455c73 119 146 293 188 463h41c17 0 25 -6 21 -21c-44 -174 -118 -351 -208 -497z" />
    <glyph glyph-name="w" unicode="w" horiz-adv-x="873" 
d="M757 534h42c16 0 24 -6 21 -22c-26 -164 -75 -327 -155 -495c-6 -12 -14 -17 -28 -17h-59l-137 447c-28 -144 -77 -293 -141 -431c-6 -13 -14 -16 -28 -16h-57l-167 519c18 13 38 22 52 22c9 0 15 -4 18 -16l140 -453c58 124 105 273 139 462h55c15 0 23 -6 28 -21
l141 -441c62 132 109 288 136 462z" />
    <glyph glyph-name="x" unicode="x" horiz-adv-x="559" 
d="M510 47h13c2 -7 4 -18 4 -24c0 -15 -18 -30 -49 -30c-27 0 -45 14 -80 60l-128 167c-65 -59 -124 -133 -160 -220h-46c-12 0 -19 5 -19 13c0 3 0 6 2 9c38 90 109 178 187 246l-178 233c16 24 31 36 43 36c15 0 25 -19 35 -32l147 -193c62 59 121 135 157 222h46
c11 0 18 -5 18 -14c0 -2 0 -6 -2 -9c-38 -90 -108 -179 -183 -247l143 -187c16 -21 32 -30 50 -30z" />
    <glyph glyph-name="y" unicode="y" horiz-adv-x="627" 
d="M88 212v320c14 5 31 7 46 7c14 0 20 -5 20 -16v-312c0 -108 43 -165 137 -165c60 0 129 25 179 73v415h42c18 0 24 -6 24 -20v-505c0 -143 -91 -257 -265 -257c-106 0 -176 54 -176 133c0 52 27 95 80 128c-58 35 -87 105 -87 199zM277 -12c-19 0 -36 2 -52 6
c-46 -31 -64 -65 -64 -104c0 -47 44 -81 110 -81c129 0 199 76 199 193v61c-52 -46 -121 -75 -193 -75z" />
    <glyph glyph-name="z" unicode="z" horiz-adv-x="503" 
d="M449 487l-309 -430h298c14 0 19 -7 19 -25v-32h-362c-12 0 -19 4 -24 11c-6 8 -12 22 -15 36l309 430h-284c-12 0 -17 6 -17 19s2 27 5 38h341c12 0 19 -4 24 -11c6 -8 12 -22 15 -36z" />
    <glyph glyph-name="braceleft" unicode="{" horiz-adv-x="404" 
d="M90 279c-17 2 -23 7 -23 24v35c76 0 106 55 106 118v128c0 119 74 166 171 166h19c11 0 16 -7 16 -20c0 -12 -2 -26 -5 -37h-42c-56 0 -93 -40 -93 -107v-124c0 -78 -25 -127 -83 -152c58 -26 83 -74 83 -152v-125c0 -67 40 -106 93 -106h29c15 0 20 -6 20 -24v-33h-33
c-99 0 -175 44 -175 166v128c0 65 -29 107 -83 115z" />
    <glyph glyph-name="bar" unicode="|" horiz-adv-x="309" 
d="M184 -200h-36c-18 0 -24 6 -24 20v943c11 4 26 6 39 6c15 0 21 -6 21 -17v-952z" />
    <glyph glyph-name="braceright" unicode="}" horiz-adv-x="404" 
d="M313 279c-54 -8 -83 -52 -83 -115v-128c0 -122 -76 -166 -175 -166h-33v33c0 18 6 24 20 24h25c56 0 93 39 93 106v125c0 78 25 126 83 152c-58 25 -83 74 -83 152v124c0 68 -41 107 -93 107h-38c-3 11 -5 25 -5 37c0 13 5 20 17 20h19c96 0 170 -48 170 -166v-128
c0 -63 30 -118 106 -118v-35c0 -17 -6 -22 -23 -24z" />
    <glyph glyph-name="asciitilde" unicode="~" horiz-adv-x="659" 
d="M570 380c-16 -78 -71 -117 -134 -117c-42 0 -79 15 -119 47c-42 34 -66 45 -93 45c-34 0 -64 -25 -76 -92c-19 -1 -38 2 -50 9c-8 5 -11 10 -11 18c0 3 1 9 2 12c19 73 70 110 133 110c42 0 79 -15 119 -47c42 -34 66 -45 93 -45c34 0 64 25 76 92l48 -10
c11 -2 15 -8 12 -22z" />
    <glyph glyph-name="periodcentered" unicode="&#xb7;" horiz-adv-x="329" 
d="M208 330c0 -27 -18 -44 -42 -44s-46 18 -46 48c0 26 19 44 43 44s45 -18 45 -48z" />
    <glyph glyph-name="twodotenleader" unicode="&#x2025;" horiz-adv-x="656" 
d="M208 32c0 -27 -18 -44 -42 -44s-46 18 -46 48c0 26 19 44 43 44s45 -18 45 -48zM536 32c0 -27 -18 -44 -42 -44s-46 18 -46 48c0 26 19 44 43 44s45 -18 45 -48z" />
    <glyph glyph-name="ellipsis" unicode="&#x2026;" horiz-adv-x="985" 
d="M208 32c0 -27 -18 -44 -42 -44s-46 18 -46 48c0 26 19 44 43 44s45 -18 45 -48zM865 32c0 -27 -18 -44 -42 -44s-46 18 -46 48c0 26 19 44 43 44s45 -18 45 -48zM536 32c0 -27 -18 -44 -42 -44s-46 18 -46 48c0 26 19 44 43 44s45 -18 45 -48z" />
    <glyph glyph-name="dieresis" unicode="&#xa8;" horiz-adv-x="413" 
d="M163 644c0 -26 -17 -42 -40 -42c-22 0 -43 17 -43 45c0 25 17 41 40 41s43 -17 43 -44zM333 644c0 -26 -17 -42 -40 -42c-22 0 -42 17 -42 45c0 25 17 41 39 41c23 0 43 -17 43 -44z" />
    <glyph glyph-name="uni00AD" unicode="&#xad;" horiz-adv-x="461" 
d="M99 362h260c15 0 20 -7 20 -25v-35h-269c-11 0 -17 8 -17 20c0 13 3 28 6 40z" />
    <glyph glyph-name="afii00208" unicode="&#x2015;" horiz-adv-x="1000" 
d="M105 362h775c15 0 20 -7 20 -25v-35h-784c-11 0 -16 8 -16 20c0 13 2 28 5 40z" />
    <glyph glyph-name="quoteleft" unicode="&#x2018;" horiz-adv-x="329" 
d="M166 533c-24 0 -45 17 -45 51c0 49 18 92 46 124c21 24 41 33 46 31c6 -3 11 -11 13 -18c-28 -27 -48 -62 -52 -97c19 -4 35 -21 35 -47s-19 -44 -43 -44z" />
    <glyph glyph-name="quoteright" unicode="&#x2019;" horiz-adv-x="329" 
d="M163 741c24 0 45 -17 45 -51c0 -49 -18 -92 -46 -124c-21 -24 -41 -33 -46 -31c-6 3 -11 11 -13 18c28 27 48 62 52 97c-19 4 -35 21 -35 47s19 44 43 44z" />
    <glyph glyph-name="quotedblleft" unicode="&#x201c;" horiz-adv-x="469" 
d="M306 533c-24 0 -45 17 -45 51c0 49 18 92 46 124c21 24 41 33 46 31c6 -3 11 -11 13 -18c-28 -27 -48 -62 -52 -97c19 -4 35 -21 35 -47s-19 -44 -43 -44zM166 533c-24 0 -45 17 -45 51c0 49 18 92 46 124c21 24 41 33 46 31c6 -3 11 -11 13 -18c-28 -27 -48 -62 -52 -97
c19 -4 35 -21 35 -47s-19 -44 -43 -44z" />
    <glyph glyph-name="quotedblright" unicode="&#x201d;" horiz-adv-x="469" 
d="M303 741c24 0 45 -17 45 -51c0 -49 -18 -92 -46 -124c-21 -24 -41 -33 -46 -31c-6 3 -11 11 -13 18c28 27 48 62 52 97c-19 4 -35 21 -35 47s19 44 43 44zM163 741c24 0 45 -17 45 -51c0 -49 -18 -92 -46 -124c-21 -24 -41 -33 -46 -31c-6 3 -11 11 -13 18
c28 27 48 62 52 97c-19 4 -35 21 -35 47s19 44 43 44z" />
    <glyph glyph-name="plusminus" unicode="&#xb1;" horiz-adv-x="659" 
d="M362 164h-42c-17 0 -24 5 -24 19v194h-190c-11 0 -16 6 -16 19c0 12 2 28 5 38h201v206c13 5 30 8 45 8s21 -6 21 -17v-197h186c15 0 20 -6 20 -24v-33h-206v-213zM568 0h-462c-11 0 -16 6 -16 19c0 12 2 27 5 38h453c15 0 20 -7 20 -25v-32z" />
    <glyph glyph-name="multiply" unicode="&#xd7;" horiz-adv-x="659" 
d="M152 141l-27 28l161 162l-161 164c7 12 15 24 23 34c7 9 19 11 29 1l152 -156l152 156c7 7 15 9 24 2c10 -8 21 -24 28 -37l-162 -164l162 -162l-26 -26c-9 -9 -20 -15 -32 -3l-146 148l-147 -149c-9 -9 -20 -8 -30 2z" />
    <glyph glyph-name="divide" unicode="&#xf7;" horiz-adv-x="659" 
d="M568 303h-462c-11 0 -16 6 -16 19c0 12 2 28 5 38h453c15 0 20 -6 20 -24v-33zM331 475c-24 0 -46 18 -46 48c0 26 19 44 43 44s45 -18 45 -48c0 -27 -18 -44 -42 -44zM328 188c24 0 45 -18 45 -48c0 -26 -18 -44 -42 -44s-46 18 -46 48c0 27 19 44 43 44z" />
    <glyph glyph-name="notequal" unicode="&#x2260;" horiz-adv-x="659" 
d="M568 194h-279l-75 -145h-35c-15 0 -23 7 -15 22l63 123h-121c-11 0 -16 7 -16 20c0 11 2 27 5 37h162l83 161h-234c-11 0 -16 6 -16 19c0 12 2 27 5 38h274l76 146h35c15 0 23 -7 15 -22l-64 -124h117c15 0 20 -7 20 -24v-33h-167l-83 -161h230c15 0 20 -6 20 -24v-33z
" />
    <glyph glyph-name="lessequal" unicode="&#x2264;" horiz-adv-x="638" 
d="M558 0h-462c-11 0 -16 6 -16 19c0 12 2 27 5 38h453c14 0 20 -7 20 -25v-32zM551 169l-452 197c-14 6 -20 12 -20 29v44l447 195c4 1 7 2 10 2c9 0 15 -7 15 -22c0 -14 -1 -27 -4 -38l-395 -169l378 -162c14 -6 21 -12 21 -29v-47z" />
    <glyph glyph-name="greaterequal" unicode="&#x2265;" horiz-adv-x="638" 
d="M542 0h-462v32c0 18 6 25 20 25h453c3 -11 5 -26 5 -38c0 -13 -5 -19 -16 -19zM539 366l-452 -197v47c0 17 7 23 21 29l378 162l-395 169c-3 11 -4 24 -4 38c0 15 6 22 15 22c3 0 6 -1 10 -2l447 -195v-44c0 -17 -6 -23 -20 -29z" />
    <glyph glyph-name="infinity" unicode="&#x221e;" horiz-adv-x="795" 
d="M232 475c61 0 110 -27 165 -100c51 68 105 100 166 100c75 0 147 -54 147 -142s-72 -143 -147 -143c-62 0 -110 27 -165 100c-51 -68 -105 -100 -166 -100c-75 0 -147 55 -147 143s72 142 147 142zM559 423c-43 0 -76 -16 -129 -90c55 -75 86 -91 129 -91
c50 0 91 33 91 91c0 57 -41 90 -91 90zM236 242c42 0 77 16 128 91c-55 74 -85 90 -128 90c-50 0 -91 -32 -91 -90s41 -91 91 -91z" />
    <glyph glyph-name="degree" unicode="&#xb0;" horiz-adv-x="398" 
d="M202 467c52 0 92 38 92 97c0 63 -45 103 -98 103c-52 0 -92 -38 -92 -97c0 -63 45 -103 98 -103zM199 422c-86 0 -148 63 -148 145s62 145 148 145s148 -63 148 -145s-62 -145 -148 -145z" />
    <glyph glyph-name="minute" unicode="&#x2032;" horiz-adv-x="305" 
d="M137 427h-30c-17 0 -24 6 -20 20l67 253c11 4 26 7 44 7c17 0 25 -8 19 -27z" />
    <glyph glyph-name="second" unicode="&#x2033;" horiz-adv-x="449" 
d="M137 427h-30c-17 0 -24 6 -20 20l67 253c11 4 26 7 44 7c17 0 25 -8 19 -27zM282 427h-30c-17 0 -24 6 -20 20l67 253c11 4 26 7 44 7c17 0 25 -8 19 -27z" />
    <glyph glyph-name="partialdiff" unicode="&#x2202;" horiz-adv-x="640" 
d="M279 652c-67 0 -125 -35 -145 -112c-16 2 -34 6 -46 13c-9 6 -14 12 -14 20c0 7 2 14 5 21c32 74 107 118 203 118c167 0 290 -136 290 -368v-14c0 -213 -113 -342 -283 -342c-141 0 -235 97 -235 221c0 145 111 234 243 234c83 0 158 -31 207 -74
c-6 184 -102 283 -225 283zM308 383c-102 0 -186 -63 -186 -176c0 -93 73 -159 166 -159c121 0 210 96 216 258c-52 48 -119 77 -196 77z" />
    <glyph glyph-name="equivalence" unicode="&#x2261;" horiz-adv-x="638" 
d="M558 303h-462c-11 0 -16 6 -16 19c0 12 2 28 5 38h453c14 0 20 -6 20 -24v-33zM558 126h-462c-11 0 -16 7 -16 20c0 11 2 27 5 37h453c14 0 20 -6 20 -24v-33zM558 480h-462c-11 0 -16 6 -16 19c0 12 2 27 5 38h453c14 0 20 -7 20 -24v-33z" />
    <glyph glyph-name="section" unicode="&#xa7;" horiz-adv-x="504" 
d="M133 305c0 -59 49 -88 154 -110c60 18 88 59 88 97c0 59 -49 88 -154 111c-61 -19 -88 -59 -88 -98zM375 41c0 49 -33 79 -123 100c-132 30 -185 81 -185 162c0 57 34 100 93 124c-63 33 -93 78 -93 137c0 87 73 148 181 148c83 0 149 -35 181 -88c3 -5 5 -11 5 -16
c0 -8 -4 -13 -14 -19c-13 -7 -29 -12 -42 -14c-22 51 -73 79 -132 79c-65 0 -113 -37 -113 -92c0 -54 40 -82 141 -110c116 -33 167 -79 167 -156c0 -56 -33 -99 -89 -124c62 -29 89 -70 89 -127c0 -89 -68 -145 -192 -145c-92 0 -166 37 -166 61c0 11 4 24 10 31
c42 -21 93 -35 149 -35c87 0 133 28 133 84z" />
    <glyph glyph-name="arrowright" unicode="&#x2192;" horiz-adv-x="800" 
d="M565 304h-516c-10 0 -15 6 -15 18s2 27 5 37h526v86l196 -108c3 -2 4 -3 4 -5s-1 -3 -4 -5l-196 -108v85z" />
    <glyph glyph-name="arrowleft" unicode="&#x2190;" horiz-adv-x="800" 
d="M234 445v-86h512c14 0 20 -6 20 -24v-31h-532v-85l-196 108c-3 2 -4 3 -4 5s1 3 4 5z" />
    <glyph glyph-name="arrowup" unicode="&#x2191;" horiz-adv-x="800" 
d="M427 -13h-31c-18 0 -24 6 -24 19v514h-85l108 196c2 3 3 4 5 4s3 -1 5 -4l108 -196h-86v-533z" />
    <glyph glyph-name="arrowdown" unicode="&#x2193;" horiz-adv-x="800" 
d="M427 187h86l-108 -196c-2 -3 -3 -4 -5 -4s-3 1 -5 4l-108 196h85v527c9 3 23 6 35 6c14 0 20 -6 20 -17v-516z" />
    <glyph glyph-name="arrowboth" unicode="&#x2194;" horiz-adv-x="800" 
d="M565 304h-331v-85l-196 108c-3 2 -4 3 -4 5s1 3 4 5l196 108v-86h331v86l196 -108c3 -2 4 -3 4 -5s-1 -3 -4 -5l-196 -108v85z" />
    <glyph glyph-name="radical" unicode="&#x221a;" horiz-adv-x="568" 
d="M510 750l-167 -729c-4 -16 -13 -21 -33 -21h-47l-147 326h-54c-11 0 -17 6 -17 20c0 11 2 24 5 34h83c18 0 25 -6 30 -17l132 -293l161 700h35c16 0 22 -7 19 -20z" />
    <glyph glyph-name="integral" unicode="&#x222b;" horiz-adv-x="523" 
d="M228 -80v650c0 111 60 172 156 172c64 0 116 -27 116 -43c0 -11 -5 -23 -10 -31c-22 10 -58 16 -93 16c-71 0 -103 -38 -103 -109v-650c0 -111 -60 -172 -156 -172c-64 0 -116 27 -116 43c0 11 5 23 10 31c22 -10 58 -16 93 -16c71 0 103 38 103 109z" />
    <glyph glyph-name="intersection" unicode="&#x2229;" horiz-adv-x="763" 
d="M661 299v-299h-44c-18 0 -24 5 -24 20v284c0 165 -88 255 -208 255s-215 -90 -215 -255v-304h-44c-18 0 -24 5 -24 20v279c0 202 121 318 283 318s276 -116 276 -318z" />
    <glyph glyph-name="acute" unicode="&#xb4;" horiz-adv-x="413" 
d="M297 686l-133 -113c-5 -4 -9 -6 -14 -6c-4 0 -8 2 -12 6l-21 22l125 120c6 6 12 9 17 9c6 0 12 -2 17 -7c8 -8 16 -20 21 -31z" />
    <glyph glyph-name="caron" unicode="&#x2c7;" horiz-adv-x="413" 
d="M180 571l-123 118c12 22 25 34 35 34c9 0 17 -8 29 -20l86 -86l109 109l28 -26c4 -4 6 -7 6 -10c0 -5 -2 -8 -8 -14l-118 -115h-19c-12 0 -16 2 -25 10z" />
    <glyph glyph-name="breve" unicode="&#x2d8;" horiz-adv-x="413" 
d="M67 700c11 6 27 11 38 11c14 0 17 -4 20 -18c10 -49 39 -75 82 -75c42 0 77 25 85 93h32c18 0 23 -5 21 -18c-8 -67 -57 -122 -138 -122c-74 0 -129 46 -140 129z" />
    <glyph glyph-name="hungarumlaut" unicode="&#x2dd;" horiz-adv-x="413" 
d="M224 686l-133 -113c-5 -4 -9 -6 -14 -6c-4 0 -8 2 -12 6l-21 22l125 120c6 6 12 9 17 9c6 0 12 -2 17 -7c8 -8 16 -20 21 -31zM370 686l-133 -113c-5 -4 -9 -6 -14 -6c-4 0 -8 2 -12 6l-21 22l125 120c6 6 12 9 17 9c6 0 12 -2 17 -7c8 -8 16 -20 21 -31z" />
    <glyph glyph-name="ring" unicode="&#x2da;" horiz-adv-x="413" 
d="M207 734c52 0 93 -38 93 -89s-41 -89 -93 -89c-53 0 -93 38 -93 89s40 89 93 89zM209 594c27 0 48 20 48 48c0 34 -23 54 -53 54c-27 0 -47 -20 -47 -48c0 -34 22 -54 52 -54z" />
    <glyph glyph-name="dotaccent" unicode="&#x2d9;" horiz-adv-x="413" 
d="M248 644c0 -26 -17 -42 -40 -42c-22 0 -43 17 -43 45c0 25 18 41 40 41c23 0 43 -17 43 -44z" />
    <glyph glyph-name="cedilla" unicode="&#xb8;" horiz-adv-x="413" 
d="M141 -86c-8 3 -12 7 -12 12c0 2 1 4 2 6l37 68h59l-32 -58c63 -9 100 -42 100 -90c0 -57 -44 -90 -113 -90c-23 0 -49 4 -68 11v26c0 11 4 15 13 15c11 0 30 -6 49 -6c39 0 63 16 63 45c0 34 -31 55 -98 61z" />
    <glyph glyph-name="ogonek" unicode="&#x2db;" horiz-adv-x="413" 
d="M274 -166c14 5 21 1 21 -14v-26c-18 -10 -45 -14 -68 -14c-71 0 -111 39 -111 97c0 42 25 91 71 123h61c-54 -38 -76 -81 -76 -118c0 -29 19 -54 63 -54c14 0 28 2 39 6z" />
    <glyph glyph-name="exclamdown" unicode="&#xa1;" horiz-adv-x="280" 
d="M166 339c7 -107 11 -250 11 -372v-131c-15 -4 -33 -7 -51 -7c-17 0 -24 5 -24 17v121c0 122 5 265 12 392h31c16 0 20 -6 21 -20zM139 546c23 0 45 -18 45 -48c0 -26 -18 -43 -43 -43c-24 0 -45 18 -45 47c0 27 18 44 43 44z" />
    <glyph glyph-name="questiondown" unicode="&#xbf;" horiz-adv-x="555" 
d="M289 546c23 0 45 -18 45 -48c0 -26 -18 -43 -43 -43c-23 0 -45 18 -45 47c0 27 18 44 43 44zM275 -178c-122 0 -207 78 -207 191c0 79 35 134 112 197c63 51 76 75 76 117v32h44c18 0 24 -6 24 -20v-16c0 -56 -21 -97 -96 -156c-65 -52 -92 -94 -92 -154
c0 -80 61 -131 140 -131c76 0 138 45 163 136c16 -1 35 -7 47 -14c9 -5 12 -12 12 -18s-1 -12 -4 -18c-38 -89 -109 -146 -219 -146z" />
    <glyph glyph-name="summation" unicode="&#x2211;" horiz-adv-x="604" 
d="M92 740h455c14 0 20 -7 20 -25v-35h-442l234 -335v-14c0 -9 -2 -15 -8 -24l-218 -358h417c14 0 20 -7 20 -25v-35h-496c-14 0 -20 7 -20 25v31l237 387l-246 353c3 16 9 31 18 43c8 10 16 12 29 12z" />
    <glyph glyph-name="product" unicode="&#x220f;" horiz-adv-x="703" 
d="M601 -111h-44c-18 0 -24 6 -24 20v771h-364v-791h-44c-17 0 -24 6 -24 20v831h476c17 0 24 -6 24 -20v-831z" />
    <glyph glyph-name="currency" unicode="&#xa4;" horiz-adv-x="692" 
d="M346 553c51 0 98 -17 136 -45l92 94c11 -5 22 -13 33 -24c9 -9 11 -18 3 -26l-85 -86c29 -37 46 -83 46 -134c0 -52 -17 -99 -45 -134l92 -93c-4 -11 -12 -22 -23 -33c-9 -9 -18 -11 -26 -3l-86 86c-38 -28 -86 -44 -137 -44s-99 16 -136 45l-92 -94c-11 5 -22 13 -33 24
c-9 9 -11 18 -3 26l85 86c-29 36 -46 83 -46 134c0 52 16 98 45 134l-92 93c4 11 12 22 23 33c9 9 18 11 26 3l85 -87c39 28 86 45 138 45zM340 498c-81 0 -156 -64 -156 -160c0 -108 79 -172 168 -172c81 0 156 64 156 160c0 108 -79 172 -168 172z" />
    <glyph glyph-name="uni2109" unicode="&#x2109;" horiz-adv-x="858" 
d="M202 467c52 0 92 38 92 97c0 63 -45 103 -98 103c-52 0 -92 -38 -92 -97c0 -63 45 -103 98 -103zM199 422c-86 0 -148 63 -148 145s62 145 148 145s148 -63 148 -145s-62 -145 -148 -145zM480 0h-44c-17 0 -24 5 -24 19v681h390c11 0 16 -7 16 -20s-2 -28 -5 -40h-333
v-267h264c15 0 20 -6 20 -24v-35h-284v-314z" />
    <glyph glyph-name="perthousand" unicode="&#x2030;" horiz-adv-x="1244" 
d="M379 532c0 -108 -70 -176 -161 -176s-161 68 -161 176c0 107 70 176 161 176s161 -69 161 -176zM118 536c0 -80 41 -127 104 -127c57 0 95 46 95 119c0 80 -40 126 -103 126c-57 0 -96 -45 -96 -118zM314 0h-29c-15 0 -21 6 -21 14c0 3 1 6 2 9l284 677h29
c15 0 21 -6 21 -14c0 -3 -1 -6 -2 -9zM807 168c0 -108 -70 -176 -161 -176s-161 68 -161 176c0 107 70 176 161 176s161 -69 161 -176zM547 172c0 -80 41 -127 103 -127c57 0 95 46 95 119c0 80 -40 126 -103 126c-57 0 -95 -45 -95 -118zM1187 168
c0 -108 -70 -176 -161 -176s-161 68 -161 176c0 107 70 176 161 176s161 -69 161 -176zM927 172c0 -80 41 -127 103 -127c57 0 95 46 95 119c0 80 -40 126 -103 126c-57 0 -95 -45 -95 -118z" />
    <glyph glyph-name="paragraph" unicode="&#xb6;" horiz-adv-x="578" 
d="M261 700h253c14 0 19 -5 19 -24v-21h-83v-786h-26c-18 0 -24 4 -24 18v768h-84v-786h-27c-18 0 -24 4 -24 18v465c-114 0 -208 61 -208 174s95 174 204 174z" />
    <glyph glyph-name="dagger" unicode="&#x2020;" horiz-adv-x="529" 
d="M61 575l175 -7l-6 173c15 4 31 7 48 7c15 0 21 -6 21 -17l-6 -163l159 7c14 1 19 -7 19 -25v-35l-177 7v-653h-35c-18 0 -24 6 -24 20v633l-162 -6c-12 0 -17 5 -17 19c0 12 2 29 5 40z" />
    <glyph glyph-name="daggerdbl" unicode="&#x2021;" horiz-adv-x="540" 
d="M66 575l175 -7l-5 173c14 4 31 7 47 7c14 0 21 -5 21 -15l-5 -165l158 7c15 0 20 -7 20 -25v-35l-177 7v-428l157 7c15 0 20 -7 20 -24v-36l-178 7l5 -162c0 -11 -6 -17 -21 -17c-16 0 -33 3 -47 7l5 172l-163 -6c-11 0 -16 5 -16 19c0 12 2 29 4 40l174 -7v428l-162 -6
c-11 0 -16 5 -16 19c0 12 2 29 4 40z" />
    <glyph glyph-name="arrowupdn" unicode="&#x2195;" horiz-adv-x="800" 
d="M371 187v333h-85l108 196c2 3 3 4 5 4s3 -1 5 -4l108 -196h-86v-333h86l-108 -196c-2 -3 -3 -4 -5 -4s-3 1 -5 4l-108 196h85z" />
    <glyph glyph-name="afii61352" unicode="&#x2116;" horiz-adv-x="938" 
d="M411 8l-244 563v-571h-42c-17 0 -24 5 -24 19v663c17 13 40 23 54 23c10 0 18 -4 22 -14l244 -563v572h42c18 0 24 -6 24 -20v-663c-17 -13 -39 -22 -53 -22c-11 0 -19 4 -23 13zM903 330c0 -122 -71 -198 -176 -198s-176 76 -176 198s71 198 176 198s176 -76 176 -198z
M616 334c0 -98 47 -145 116 -145c64 0 106 48 106 137c0 98 -46 145 -116 145c-65 0 -106 -48 -106 -137zM888 0h-305c-11 0 -16 6 -16 19s2 28 5 38h296c15 0 20 -7 20 -24v-33z" />
    <glyph glyph-name="trademark" unicode="&#x2122;" horiz-adv-x="727" 
d="M188 357h-29c-17 0 -22 5 -22 17v281h-88c-10 0 -16 5 -16 16c0 9 2 21 5 29h236c14 0 19 -6 19 -22v-23h-105v-298zM365 357h-28c-17 0 -24 4 -22 18l33 315c15 9 30 15 39 15c11 0 16 -3 21 -13l89 -176l93 184h34c16 0 22 -6 23 -18l34 -325h-32c-16 0 -21 3 -22 17
l-26 252l-76 -154c-4 -8 -9 -11 -22 -11h-29l-81 165z" />
    <glyph glyph-name="uni2121" unicode="&#x2121;" horiz-adv-x="1000" 
d="M257 0h-42c-18 0 -24 5 -24 19v623h-124c-11 0 -17 6 -17 19s3 27 6 39h322c14 0 19 -7 19 -25v-33h-140v-642zM660 0h-131c-89 0 -136 41 -136 160v360h242c11 0 17 -7 17 -20s-3 -26 -6 -37h-187v-176h126c14 0 20 -6 20 -24v-33h-146v-65c0 -83 19 -108 76 -108h105
c14 0 20 -7 20 -25v-32zM793 508v-343c0 -83 17 -108 75 -108h77c15 0 20 -7 20 -25v-32h-99c-103 0 -138 48 -138 157v361c14 4 29 7 45 7c14 0 20 -6 20 -17z" />
    <glyph glyph-name="Euro" unicode="&#x20ac;" horiz-adv-x="687" 
d="M13 426h52c23 184 160 286 309 286c127 0 220 -62 263 -147c3 -6 4 -11 4 -15c0 -7 -4 -12 -12 -18c-12 -8 -30 -15 -47 -17c-38 87 -114 137 -211 137c-111 0 -218 -80 -238 -226h268c13 0 18 -6 18 -22v-21h-289v-8c0 -25 2 -47 6 -69h265c13 0 18 -6 18 -22v-21h-274
c42 -138 159 -216 296 -216c59 0 119 13 167 41c6 -9 9 -22 9 -32c0 -27 -81 -68 -184 -68c-176 0 -317 104 -359 275h-53c-8 0 -13 5 -13 15c0 9 2 20 5 28h53c-3 21 -4 43 -4 66v11h-41c-8 0 -13 5 -13 15c0 9 2 20 5 28z" />
    <glyph glyph-name="registered" unicode="&#xae;" horiz-adv-x="824" 
d="M50 350c0 200 162 362 362 362s362 -162 362 -362s-162 -362 -362 -362s-362 162 -362 362zM94 350c0 -178 141 -322 318 -322c176 0 317 144 317 322c0 176 -141 321 -317 321c-177 0 -318 -145 -318 -321zM539 157c-14 0 -28 6 -41 18c-25 23 -52 58 -75 106h-22
c-24 0 -46 4 -66 9v-127h-39c-11 0 -16 4 -16 12v368h129c93 0 150 -51 150 -130c0 -60 -31 -104 -84 -122c15 -28 36 -60 58 -78c10 -8 20 -12 30 -12h9c1 -4 3 -14 3 -20c0 -13 -15 -24 -36 -24zM335 497v-163c20 -5 44 -8 66 -8c53 0 103 30 103 87c0 54 -38 84 -102 84
h-67z" />
    <glyph glyph-name="afii61289" unicode="&#x2113;" horiz-adv-x="527" 
d="M395 112l27 -10c17 -6 20 -15 9 -30c-37 -51 -85 -84 -145 -84c-97 0 -150 62 -150 159v27c-25 -12 -51 -23 -77 -32c-12 9 -22 21 -29 35c-4 8 -2 16 10 21c29 11 77 32 96 41v229c0 167 70 244 178 244c87 0 150 -64 150 -169c0 -138 -88 -247 -262 -338v-30
c0 -100 33 -132 86 -132c37 0 76 23 107 69zM202 468v-195c137 77 197 167 197 273c0 72 -37 108 -87 108c-66 0 -110 -55 -110 -186z" />
    <glyph glyph-name="Omega" unicode="&#x2126;" horiz-adv-x="783" 
d="M704 34v-34h-253v37c0 11 5 17 12 21c109 63 183 166 183 301c0 191 -116 293 -255 293s-255 -102 -255 -293c0 -135 74 -238 183 -301c7 -4 12 -10 12 -21v-37h-236c-12 0 -17 6 -17 19s2 28 5 40h148c-103 68 -164 171 -164 302c0 217 138 351 324 351
c185 0 323 -134 323 -351c0 -131 -60 -234 -163 -302h133c14 0 20 -7 20 -25z" />
    <glyph glyph-name="AE" unicode="&#xc6;" horiz-adv-x="880" 
d="M433 700h365c11 0 16 -7 16 -20s-2 -28 -5 -40h-336v-265h268c14 0 19 -7 19 -24v-35h-287v-149c0 -83 20 -108 77 -108h253c14 0 19 -7 19 -25v-34h-280c-97 0 -136 48 -136 160v31h-227l-96 -191h-45c-18 0 -27 8 -19 23l339 661c20 10 45 16 75 16zM406 250v391
l-198 -391h198z" />
    <glyph glyph-name="Eth" unicode="&#xd0;" horiz-adv-x="723" 
d="M34 373h66v327h224c193 0 336 -133 336 -350s-143 -350 -336 -350h-88c-89 0 -136 41 -136 161v165h-53c-12 0 -17 6 -17 16s2 23 4 31zM244 59h76c146 0 271 99 271 291s-125 291 -271 291h-152v-268h205c14 0 19 -6 19 -24v-23h-224v-158c0 -84 19 -109 76 -109z" />
    <glyph glyph-name="ordfeminine" unicode="&#xaa;" horiz-adv-x="444" 
d="M197 661c-38 0 -79 -9 -110 -24c-4 6 -7 17 -7 26c0 15 54 45 128 45c97 0 160 -51 160 -146v-166c0 -27 9 -36 27 -36h11c2 -6 4 -15 4 -21c0 -10 -20 -23 -43 -23c-32 0 -54 21 -54 63c-24 -39 -73 -67 -129 -67c-80 0 -139 49 -139 119c0 74 60 123 148 123
c44 0 87 -11 117 -27v38c0 63 -38 96 -113 96zM310 432v54c-29 15 -69 22 -105 22c-62 0 -102 -27 -102 -77c0 -49 43 -73 90 -73c46 0 88 21 117 74z" />
    <glyph glyph-name="Hbar" unicode="&#x126;" horiz-adv-x="722" 
d="M169 0h-44c-17 0 -24 5 -24 19v501h-54c-12 0 -17 6 -17 16s2 23 4 31h67v130c14 5 31 8 47 8c15 0 21 -6 21 -17v-121h383v133h44c17 0 24 -6 24 -20v-113h51c15 0 20 -6 20 -24v-23h-71v-520h-44c-18 0 -24 5 -24 19v302h-383v-321zM169 520v-140h383v140h-383z" />
    <glyph glyph-name="IJ" unicode="&#x132;" horiz-adv-x="662" 
d="M174 0h-44c-18 0 -24 5 -24 19v678c14 5 31 8 47 8c15 0 21 -6 21 -17v-688zM395 -12c-57 0 -119 25 -119 46c0 12 4 24 10 32c27 -12 63 -18 99 -18c74 0 119 43 119 134v516c14 4 30 7 47 7c15 0 21 -5 21 -16v-507c0 -121 -59 -194 -177 -194z" />
    <glyph glyph-name="Ldot" unicode="&#x13f;" horiz-adv-x="545" 
d="M516 0h-280c-90 0 -137 41 -137 160v537c14 5 31 8 47 8c15 0 21 -6 21 -17v-521c0 -82 25 -108 76 -108h254c14 0 19 -7 19 -25v-34zM423 369c0 -26 -17 -42 -40 -42c-22 0 -43 17 -43 45c0 25 18 41 40 41c23 0 43 -17 43 -44z" />
    <glyph glyph-name="Lslash" unicode="&#x141;" horiz-adv-x="545" 
d="M516 0h-280c-90 0 -137 41 -137 160v129l-57 -27c-10 -5 -17 -2 -22 7s-9 20 -11 32l90 42v354c14 5 31 8 47 8c15 0 21 -6 21 -17v-312l188 89c6 3 13 3 17 -3c7 -10 11 -23 14 -35l-219 -105v-155c0 -82 25 -108 76 -108h254c14 0 19 -7 19 -25v-34z" />
    <glyph glyph-name="Oslash" unicode="&#xd8;" horiz-adv-x="771" 
d="M62 350c0 240 149 362 324 362c84 0 162 -28 220 -85l67 73h36c18 0 23 -11 10 -25l-79 -86c43 -59 69 -139 69 -239c0 -240 -149 -362 -323 -362c-85 0 -163 28 -222 85l-67 -73h-29c-20 0 -28 12 -15 26l78 85c-43 59 -69 138 -69 239zM639 342c0 80 -18 145 -48 194
l-380 -413c47 -50 112 -75 182 -75c127 0 246 93 246 294zM132 358c0 -81 18 -145 48 -194l380 413c-47 50 -112 75 -182 75c-127 0 -246 -93 -246 -294z" />
    <glyph glyph-name="OE" unicode="&#x152;" horiz-adv-x="970" 
d="M912 0h-280c-42 0 -74 9 -97 30c-44 -29 -97 -42 -153 -42c-172 0 -320 122 -320 362c0 237 151 362 310 362c50 0 91 -10 123 -32v20h393c11 0 16 -7 16 -20s-2 -28 -5 -40h-336v-265h267c15 0 20 -7 20 -24v-35h-287v-149c0 -82 25 -108 76 -108h253c15 0 20 -7 20 -25
v-34zM508 75c-9 22 -13 50 -13 85v463c-34 18 -73 29 -117 29c-128 0 -246 -93 -246 -294c0 -208 119 -310 261 -310c41 0 81 7 115 27z" />
    <glyph glyph-name="ordmasculine" unicode="&#xba;" horiz-adv-x="444" 
d="M222 312c-97 0 -186 67 -186 198c0 130 89 198 186 198s186 -68 186 -198c0 -131 -89 -198 -186 -198zM226 360c67 0 124 51 124 146c0 94 -55 154 -132 154c-66 0 -124 -51 -124 -146c0 -94 56 -154 132 -154z" />
    <glyph glyph-name="Thorn" unicode="&#xde;" horiz-adv-x="633" 
d="M169 0h-44c-17 0 -24 5 -24 19v678c14 5 31 8 47 8c15 0 21 -6 21 -17v-88h141c162 0 272 -94 272 -254c0 -163 -119 -250 -266 -250c-48 0 -104 7 -147 21v-117zM308 540h-139v-368c40 -12 89 -17 140 -17c120 0 205 68 205 193c0 128 -86 192 -206 192z" />
    <glyph glyph-name="Tbar" unicode="&#x166;" horiz-adv-x="607" 
d="M337 0h-44c-17 0 -24 5 -24 19v307h-111c-11 0 -16 6 -16 16c0 11 2 23 4 31h123v267h-208c-11 0 -16 7 -16 20s2 28 5 40h492c14 0 20 -7 20 -25v-35h-225v-267h108c14 0 19 -6 19 -24v-23h-127v-326z" />
    <glyph glyph-name="Eng" unicode="&#x14a;" horiz-adv-x="718" 
d="M548 -20v16l-378 594v-590h-44c-18 0 -24 5 -24 20v663c17 13 40 22 53 22c11 0 17 -4 23 -13l370 -582v590h44c18 0 24 -5 24 -20v-702c0 -63 -19 -114 -47 -151c-35 -48 -74 -66 -86 -60c-9 5 -18 15 -21 27c56 50 86 114 86 186z" />
    <glyph glyph-name="onehalf" unicode="&#xbd;" horiz-adv-x="934" 
d="M253 284h-37c-14 0 -19 5 -19 16v336l-99 -63c-8 6 -16 13 -22 21c-3 4 -6 9 -6 13s2 8 9 12l126 81h29c14 0 19 -5 19 -17v-399zM293 23l284 677h29c17 0 24 -8 19 -23l-284 -677h-29c-17 0 -25 8 -19 23zM875 285c0 -93 -78 -176 -176 -237h162c12 0 16 -5 16 -19v-29
h-249c-11 0 -18 3 -23 11c-4 8 -7 19 -8 31c121 64 222 153 222 242c0 61 -40 92 -86 92c-43 0 -77 -24 -96 -79c-13 0 -28 4 -39 10c-7 5 -10 9 -10 15c0 4 1 9 4 15c24 51 75 87 142 87c86 0 141 -57 141 -139z" />
    <glyph glyph-name="onethird" unicode="&#x2153;" horiz-adv-x="934" 
d="M253 284h-37c-14 0 -19 5 -19 16v336l-99 -63c-8 6 -16 13 -22 21c-3 4 -6 9 -6 13s2 8 9 12l126 81h29c14 0 19 -5 19 -17v-399zM293 23l284 677h29c17 0 24 -8 19 -23l-284 -677h-29c-17 0 -25 8 -19 23zM861 374l-118 -128c84 -17 133 -58 133 -130
c0 -77 -67 -124 -161 -124c-75 0 -131 32 -131 51c0 10 3 20 8 27c34 -19 80 -31 119 -31c71 0 110 32 110 75c0 56 -40 82 -116 95c-12 2 -16 5 -20 12s-7 16 -8 23l114 124h-185c-10 0 -14 5 -14 16c0 8 1 21 4 32h234c11 0 18 -3 23 -11c4 -8 7 -19 8 -31z" />
    <glyph glyph-name="twothirds" unicode="&#x2154;" horiz-adv-x="934" 
d="M337 569c0 -93 -78 -176 -176 -237h162c12 0 16 -5 16 -19v-29h-249c-11 0 -18 3 -23 11c-4 8 -7 19 -8 31c121 64 222 153 222 242c0 61 -40 92 -86 92c-43 0 -77 -24 -96 -79c-13 0 -28 4 -39 10c-7 5 -10 9 -10 15c0 4 1 9 4 15c24 51 75 87 142 87
c86 0 141 -57 141 -139zM293 23l284 677h29c17 0 24 -8 19 -23l-284 -677h-29c-17 0 -25 8 -19 23zM861 374l-118 -128c84 -17 133 -58 133 -130c0 -77 -67 -124 -161 -124c-75 0 -131 32 -131 51c0 10 3 20 8 27c34 -19 80 -31 119 -31c71 0 110 32 110 75
c0 56 -40 82 -116 95c-12 2 -16 5 -20 12s-7 16 -8 23l114 124h-185c-10 0 -14 5 -14 16c0 8 1 21 4 32h234c11 0 18 -3 23 -11c4 -8 7 -19 8 -31z" />
    <glyph glyph-name="onequarter" unicode="&#xbc;" horiz-adv-x="934" 
d="M253 284h-37c-14 0 -19 5 -19 16v336l-99 -63c-8 6 -16 13 -22 21c-3 4 -6 9 -6 13s2 8 9 12l126 81h29c14 0 19 -5 19 -17v-399zM293 23l284 677h29c17 0 24 -8 19 -23l-284 -677h-29c-17 0 -25 8 -19 23zM789 133v225c-62 -51 -127 -140 -156 -225h156zM789 85h-185
c-11 0 -18 3 -23 11c-4 8 -7 19 -8 31c32 107 104 207 188 274c16 10 42 20 61 20c17 0 23 -6 23 -20v-268h40c12 0 16 -5 16 -19v-29h-56v-85h-37c-14 0 -19 5 -19 16v69z" />
    <glyph glyph-name="threequarters" unicode="&#xbe;" horiz-adv-x="934" 
d="M322 658l-118 -128c84 -17 133 -58 133 -130c0 -77 -67 -124 -161 -124c-75 0 -131 32 -131 51c0 10 3 20 8 27c34 -19 80 -31 119 -31c71 0 110 32 110 75c0 56 -40 82 -116 95c-12 2 -16 5 -20 12s-7 16 -8 23l114 124h-185c-10 0 -14 5 -14 16c0 8 1 21 4 32h234
c11 0 18 -3 23 -11c4 -8 7 -19 8 -31zM293 23l284 677h29c17 0 24 -8 19 -23l-284 -677h-29c-17 0 -25 8 -19 23zM789 133v225c-62 -51 -127 -140 -156 -225h156zM789 85h-185c-11 0 -18 3 -23 11c-4 8 -7 19 -8 31c32 107 104 207 188 274c16 10 42 20 61 20
c17 0 23 -6 23 -20v-268h40c12 0 16 -5 16 -19v-29h-56v-85h-37c-14 0 -19 5 -19 16v69z" />
    <glyph glyph-name="oneeighth" unicode="&#x215b;" horiz-adv-x="934" 
d="M253 284h-37c-14 0 -19 5 -19 16v336l-99 -63c-8 6 -16 13 -22 21c-3 4 -6 9 -6 13s2 8 9 12l126 81h29c14 0 19 -5 19 -17v-399zM293 23l284 677h29c17 0 24 -8 19 -23l-284 -677h-29c-17 0 -25 8 -19 23zM650 317c0 -27 23 -58 104 -81c40 20 62 49 62 80
c0 35 -36 60 -82 60c-49 0 -84 -25 -84 -59zM836 107c0 37 -25 61 -114 91c-63 -25 -88 -52 -88 -91c0 -40 42 -68 101 -68c64 0 101 32 101 68zM578 108c0 49 33 87 96 109c-54 25 -80 56 -80 99c0 63 56 108 140 108s138 -47 138 -108c0 -41 -28 -77 -71 -99
c64 -29 91 -62 91 -108c0 -67 -60 -117 -157 -117c-93 0 -157 48 -157 116z" />
    <glyph glyph-name="threeeighths" unicode="&#x215c;" horiz-adv-x="934" 
d="M322 658l-118 -128c84 -17 133 -58 133 -130c0 -77 -67 -124 -161 -124c-75 0 -131 32 -131 51c0 10 3 20 8 27c34 -19 80 -31 119 -31c71 0 110 32 110 75c0 56 -40 82 -116 95c-12 2 -16 5 -20 12s-7 16 -8 23l114 124h-185c-10 0 -14 5 -14 16c0 8 1 21 4 32h234
c11 0 18 -3 23 -11c4 -8 7 -19 8 -31zM293 23l284 677h29c17 0 24 -8 19 -23l-284 -677h-29c-17 0 -25 8 -19 23zM650 317c0 -27 23 -58 104 -81c40 20 62 49 62 80c0 35 -36 60 -82 60c-49 0 -84 -25 -84 -59zM836 107c0 37 -25 61 -114 91c-63 -25 -88 -52 -88 -91
c0 -40 42 -68 101 -68c64 0 101 32 101 68zM578 108c0 49 33 87 96 109c-54 25 -80 56 -80 99c0 63 56 108 140 108s138 -47 138 -108c0 -41 -28 -77 -71 -99c64 -29 91 -62 91 -108c0 -67 -60 -117 -157 -117c-93 0 -157 48 -157 116z" />
    <glyph glyph-name="fiveeighths" unicode="&#x215d;" horiz-adv-x="934" 
d="M326 681v-29h-180l-15 -104c16 5 33 8 55 8c83 0 155 -49 155 -140c0 -79 -56 -140 -159 -140c-67 0 -128 29 -128 47c0 10 3 21 8 29c35 -18 74 -29 115 -29c61 0 108 32 108 93c0 60 -47 92 -111 92c-23 0 -42 -4 -61 -9c-6 -2 -12 -3 -17 -3c-4 0 -9 2 -14 5l-10 7
l26 192h212c12 0 16 -5 16 -19zM293 23l284 677h29c17 0 24 -8 19 -23l-284 -677h-29c-17 0 -25 8 -19 23zM650 317c0 -27 23 -58 104 -81c40 20 62 49 62 80c0 35 -36 60 -82 60c-49 0 -84 -25 -84 -59zM836 107c0 37 -25 61 -114 91c-63 -25 -88 -52 -88 -91
c0 -40 42 -68 101 -68c64 0 101 32 101 68zM578 108c0 49 33 87 96 109c-54 25 -80 56 -80 99c0 63 56 108 140 108s138 -47 138 -108c0 -41 -28 -77 -71 -99c64 -29 91 -62 91 -108c0 -67 -60 -117 -157 -117c-93 0 -157 48 -157 116z" />
    <glyph glyph-name="seveneighths" unicode="&#x215e;" horiz-adv-x="934" 
d="M293 23l284 677h29c17 0 24 -8 19 -23l-284 -677h-29c-17 0 -25 8 -19 23zM650 317c0 -27 23 -58 104 -81c40 20 62 49 62 80c0 35 -36 60 -82 60c-49 0 -84 -25 -84 -59zM836 107c0 37 -25 61 -114 91c-63 -25 -88 -52 -88 -91c0 -40 42 -68 101 -68c64 0 101 32 101 68
zM578 108c0 49 33 87 96 109c-54 25 -80 56 -80 99c0 63 56 108 140 108s138 -47 138 -108c0 -41 -28 -77 -71 -99c64 -29 91 -62 91 -108c0 -67 -60 -117 -157 -117c-93 0 -157 48 -157 116zM345 662c-78 -123 -129 -245 -162 -378h-39c-15 0 -18 7 -15 19
c34 131 86 246 150 350h-216c-10 0 -14 4 -14 16c0 8 1 21 4 31h260c11 0 18 -2 23 -11c5 -8 8 -18 9 -27z" />
    <glyph glyph-name="ae" unicode="&#xe6;" horiz-adv-x="944" 
d="M698 46c46 0 95 10 134 32c6 -8 10 -21 10 -30c0 -23 -62 -60 -153 -60c-95 0 -175 47 -221 124c-49 -78 -126 -124 -221 -124c-121 0 -191 71 -191 167c0 109 83 174 209 174c57 0 116 -14 163 -38v57c0 96 -66 140 -167 140c-56 0 -108 -11 -150 -34
c-6 7 -10 20 -10 30c0 24 75 62 174 62c97 0 173 -41 200 -119c41 74 122 119 208 119c124 0 210 -83 210 -198c0 -67 -20 -109 -72 -109h-327c11 -124 101 -193 204 -193zM248 45c69 0 144 35 188 124c-5 22 -7 44 -8 69c-42 22 -106 33 -157 33c-94 0 -149 -46 -149 -115
c0 -71 58 -111 126 -111zM680 488c-95 0 -177 -74 -186 -192h324c7 14 10 32 10 50c0 85 -59 142 -148 142z" />
    <glyph glyph-name="dcroat" unicode="&#x111;" horiz-adv-x="643" 
d="M320 546c62 0 119 -19 161 -58v123h-171c-12 0 -17 5 -17 16c0 10 2 23 4 31h184v72h42c17 0 24 -6 24 -20v-52h42c15 0 20 -7 20 -24v-23h-62v-508c0 -42 14 -56 38 -56h18c2 -7 4 -15 4 -24c0 -14 -19 -30 -48 -30c-41 0 -77 37 -78 106c-36 -64 -107 -111 -198 -111
c-130 0 -227 96 -227 257c0 170 113 301 264 301zM295 45c73 0 146 50 186 151v227c-44 44 -98 65 -154 65c-117 0 -204 -105 -204 -242c0 -128 70 -201 172 -201z" />
    <glyph glyph-name="eth" unicode="&#xf0;" horiz-adv-x="598" 
d="M299 566l105 63c-37 40 -84 55 -133 55c-44 0 -89 -9 -130 -30c-6 6 -10 19 -10 29c0 25 73 59 150 59c66 0 130 -22 178 -79l54 33c13 7 20 5 29 -10l12 -19l-68 -42c34 -60 55 -148 55 -272c0 -240 -100 -365 -266 -365c-129 0 -224 90 -224 222c0 171 124 269 250 269
c62 0 127 -20 172 -66c-3 81 -19 137 -42 179l-98 -59c-10 -6 -17 -4 -22 4c-6 9 -10 21 -12 29zM276 45c118 0 198 96 198 295v10c-46 50 -104 71 -166 71c-100 0 -191 -73 -191 -210c0 -96 65 -166 159 -166z" />
    <glyph glyph-name="hbar" unicode="&#x127;" horiz-adv-x="641" 
d="M344 611h-188v-138c55 45 121 73 193 73c125 0 189 -86 189 -224v-219c0 -42 14 -56 38 -56h18c2 -7 4 -15 4 -24c0 -14 -19 -30 -52 -30c-43 0 -74 32 -74 103v227c0 108 -43 165 -137 165c-60 0 -128 -25 -179 -74v-414h-42c-18 0 -24 5 -24 19v592h-46
c-11 0 -16 5 -16 16c0 10 1 23 4 31h58v70c15 4 31 7 45 7c15 0 21 -6 21 -17v-60h168c14 0 20 -7 20 -24v-23z" />
    <glyph glyph-name="dotlessi" unicode="&#x131;" horiz-adv-x="263" 
d="M90 96v436c15 4 31 7 45 7c15 0 21 -6 21 -17v-419c0 -42 14 -56 38 -56h18c2 -7 4 -15 4 -24c0 -14 -19 -30 -52 -30c-43 0 -74 32 -74 103z" />
    <glyph glyph-name="ij" unicode="&#x133;" horiz-adv-x="495" 
d="M90 96v436c15 4 31 7 45 7c15 0 21 -6 21 -17v-419c0 -42 14 -56 38 -56h18c2 -7 4 -15 4 -24c0 -14 -19 -30 -52 -30c-43 0 -74 32 -74 103zM123 649c-22 0 -43 18 -43 46c0 25 18 42 41 42s43 -18 43 -46c0 -26 -17 -42 -41 -42zM356 -143c-32 -42 -65 -60 -81 -60
c-10 0 -23 14 -26 26c56 51 88 115 88 186v523c15 4 31 7 45 7c15 0 21 -6 21 -17v-514c0 -62 -19 -114 -47 -151zM370 649c-22 0 -43 18 -43 46c0 25 18 42 41 42s43 -18 43 -46c0 -26 -17 -42 -41 -42z" />
    <glyph glyph-name="kgreenlandic" unicode="&#x138;" horiz-adv-x="575" 
d="M156 0h-42c-18 0 -24 5 -24 19v513c15 4 31 7 45 7c15 0 21 -6 21 -17v-259c106 64 224 163 306 276c35 -13 45 -23 45 -37c0 -5 -2 -11 -5 -16c-47 -64 -117 -132 -199 -193c55 -89 119 -169 166 -213c27 -25 42 -33 54 -33h20c2 -7 4 -15 4 -24c0 -14 -19 -30 -49 -30
c-20 0 -43 9 -71 37c-51 50 -119 133 -174 228c-31 -21 -65 -43 -97 -61v-197z" />
    <glyph glyph-name="ldot" unicode="&#x140;" horiz-adv-x="363" 
d="M288 32c0 -15 -33 -39 -83 -39c-72 0 -114 45 -114 137v598c14 5 30 7 45 7c14 0 20 -5 20 -16v-591c0 -56 23 -79 65 -79c19 0 42 4 58 11c6 -8 9 -20 9 -28zM350 378c0 -26 -17 -42 -40 -42c-22 0 -43 17 -43 45c0 25 18 41 40 41c23 0 43 -17 43 -44z" />
    <glyph glyph-name="lslash" unicode="&#x142;" horiz-adv-x="300" 
d="M288 32c0 -15 -33 -39 -83 -39c-72 0 -114 45 -114 137v181l-62 -30c-12 -6 -17 0 -20 4c-5 8 -9 20 -11 34l93 45v364c14 5 30 7 45 7c14 0 20 -5 20 -16v-324l83 40c8 4 17 2 22 -5c6 -9 10 -17 13 -31l-118 -57v-214c0 -56 23 -79 65 -79c19 0 42 4 58 11
c6 -8 9 -20 9 -28z" />
    <glyph glyph-name="oslash" unicode="&#xf8;" horiz-adv-x="628" 
d="M314 546c63 0 122 -22 167 -62l46 50h27c15 0 21 -5 21 -13c0 -3 -1 -7 -5 -11l-56 -61c35 -46 57 -107 57 -182c0 -176 -118 -279 -257 -279c-64 0 -123 22 -168 62l-46 -50h-30c-14 0 -19 5 -19 12c0 3 2 8 7 13l55 60c-35 46 -56 107 -56 182c0 176 118 279 257 279z
M319 46c96 0 186 70 186 215c0 57 -14 103 -36 139l-280 -303c35 -34 82 -51 130 -51zM123 273c0 -57 13 -103 35 -139l280 303c-36 34 -81 51 -129 51c-97 0 -186 -70 -186 -215z" />
    <glyph glyph-name="oe" unicode="&#x153;" horiz-adv-x="1022" 
d="M776 46c46 0 95 10 134 32c6 -8 10 -21 10 -30c0 -23 -62 -60 -153 -60c-104 0 -187 55 -228 145c-39 -94 -129 -145 -225 -145c-140 0 -257 103 -257 279c0 175 117 279 257 279c95 0 184 -53 224 -145c41 91 126 145 223 145c124 0 210 -83 210 -197
c0 -25 -5 -52 -13 -73c-12 -29 -27 -37 -59 -37h-327c11 -124 101 -193 204 -193zM123 273c0 -151 94 -227 196 -227c96 0 185 69 185 215v7c-3 145 -96 220 -196 220c-96 0 -185 -70 -185 -215zM757 488c-94 0 -177 -74 -185 -192h324c6 14 10 32 10 51
c0 85 -59 141 -149 141z" />
    <glyph glyph-name="germandbls" unicode="&#xdf;" horiz-adv-x="631" 
d="M374 -12c-83 0 -152 33 -152 59c0 11 3 23 9 32c37 -21 88 -31 131 -31c94 0 158 53 158 126c0 81 -69 147 -211 168c-5 13 -8 24 -8 34c0 15 7 20 20 23c76 18 122 69 122 128c0 74 -57 125 -137 125c-86 0 -148 -61 -148 -171v-481h-43c-18 0 -24 5 -24 20v456
c0 151 83 236 214 236c124 0 206 -82 206 -181c0 -77 -48 -133 -123 -158c121 -27 200 -105 200 -207c0 -97 -78 -178 -214 -178z" />
    <glyph glyph-name="thorn" unicode="&#xfe;" horiz-adv-x="638" 
d="M156 46v-239h-41c-18 0 -24 5 -24 20v901c14 5 30 7 45 7c14 0 20 -5 20 -16v-284c40 68 108 111 198 111c130 0 227 -96 227 -257c0 -170 -113 -301 -264 -301c-62 0 -119 19 -161 58zM342 489c-73 0 -146 -50 -186 -151v-227c44 -44 98 -65 154 -65
c117 0 204 105 204 242c0 128 -70 201 -172 201z" />
    <glyph glyph-name="tbar" unicode="&#x167;" horiz-adv-x="449" 
d="M305 46c30 0 63 5 89 18c6 -7 10 -20 10 -30c0 -18 -44 -46 -109 -46c-96 0 -159 63 -159 174v85h-55c-11 0 -17 5 -17 16c0 10 2 22 4 30h68v184h-86c-11 0 -16 6 -16 19s2 27 5 38h97v151c14 5 30 7 45 7c14 0 20 -5 20 -16v-142h180c15 0 20 -6 20 -24v-33h-200v-184
h134c14 0 20 -6 20 -24v-22h-154v-86c0 -81 43 -115 104 -115z" />
    <glyph glyph-name="eng" unicode="&#x14b;" horiz-adv-x="634" 
d="M538 322v-344c0 -62 -19 -114 -47 -151c-32 -42 -65 -60 -81 -60c-10 0 -23 14 -26 26c56 51 88 115 88 186v344c0 108 -43 165 -137 165c-60 0 -128 -25 -179 -74v-414h-42c-18 0 -24 5 -24 19v513c15 4 31 7 45 7c15 0 21 -6 21 -17v-49c55 45 121 73 193 73
c125 0 189 -86 189 -224z" />
    <glyph glyph-name="napostrophe" unicode="&#x149;" horiz-adv-x="661" 
d="M491 96v227c0 108 -43 165 -137 165c-60 0 -128 -25 -179 -74v-414h-42c-18 0 -24 5 -24 19v513c15 4 31 7 45 7c15 0 21 -6 21 -17v-49c55 45 121 73 193 73c125 0 189 -86 189 -224v-219c0 -42 14 -56 38 -56h18c2 -7 4 -15 4 -24c0 -14 -19 -30 -52 -30
c-43 0 -74 32 -74 103zM74 735c24 0 45 -17 45 -51c0 -49 -18 -92 -46 -124c-21 -24 -41 -33 -46 -31c-6 3 -11 11 -13 18c28 27 48 62 52 97c-19 4 -35 21 -35 47s19 44 43 44z" />
    <glyph glyph-name="onesuperior" unicode="&#xb9;" 
d="M253 284h-37c-14 0 -19 5 -19 16v336l-99 -63c-8 6 -16 13 -22 21c-3 4 -6 9 -6 13s2 8 9 12l126 81h29c14 0 19 -5 19 -17v-399z" />
    <glyph glyph-name="twosuperior" unicode="&#xb2;" 
d="M337 569c0 -93 -78 -176 -176 -237h162c12 0 16 -5 16 -19v-29h-249c-11 0 -18 3 -23 11c-4 8 -7 19 -8 31c121 64 222 153 222 242c0 61 -40 92 -86 92c-43 0 -77 -24 -96 -79c-13 0 -28 4 -39 10c-7 5 -10 9 -10 15c0 4 1 9 4 15c24 51 75 87 142 87
c86 0 141 -57 141 -139z" />
    <glyph glyph-name="threesuperior" unicode="&#xb3;" 
d="M322 658l-118 -128c84 -17 133 -58 133 -130c0 -77 -67 -124 -161 -124c-75 0 -131 32 -131 51c0 10 3 20 8 27c34 -19 80 -31 119 -31c71 0 110 32 110 75c0 56 -40 82 -116 95c-12 2 -16 5 -20 12s-7 16 -8 23l114 124h-185c-10 0 -14 5 -14 16c0 8 1 21 4 32h234
c11 0 18 -3 23 -11c4 -8 7 -19 8 -31z" />
    <glyph glyph-name="foursuperior" unicode="&#x2074;" 
d="M251 417v225c-62 -51 -127 -140 -156 -225h156zM251 369h-185c-11 0 -18 3 -23 11c-4 8 -7 19 -8 31c32 107 104 207 188 274c16 10 42 20 61 20c17 0 23 -6 23 -20v-268h40c12 0 16 -5 16 -19v-29h-56v-85h-37c-14 0 -19 5 -19 16v69z" />
    <glyph glyph-name="uni207F" unicode="&#x207f;" 
d="M115 283h-35c-14 0 -19 5 -19 15v305c12 3 24 6 35 6c14 0 19 -6 19 -16v-27c29 28 71 46 108 46c74 0 115 -47 115 -136v-125c0 -20 7 -27 20 -27h13c2 -5 3 -14 3 -21c0 -12 -16 -24 -38 -24c-31 0 -52 24 -52 72v124c0 63 -28 91 -73 91c-32 0 -67 -15 -96 -43v-240z
" />
    <glyph glyph-name="oneinferior" unicode="&#x2081;" 
d="M253 -127h-37c-14 0 -19 5 -19 16v336l-99 -63c-8 6 -16 13 -22 21c-3 4 -6 9 -6 13s2 8 9 12l126 81h29c14 0 19 -5 19 -17v-399z" />
    <glyph glyph-name="twoinferior" unicode="&#x2082;" 
d="M337 158c0 -93 -78 -176 -176 -237h162c12 0 16 -5 16 -19v-29h-249c-11 0 -18 3 -23 11c-4 8 -7 19 -8 31c121 64 222 153 222 242c0 61 -40 92 -86 92c-43 0 -77 -24 -96 -79c-13 0 -28 4 -39 10c-7 5 -10 9 -10 15c0 4 1 9 4 15c24 51 75 87 142 87
c86 0 141 -57 141 -139z" />
    <glyph glyph-name="threeinferior" unicode="&#x2083;" 
d="M322 247l-118 -128c84 -17 133 -58 133 -130c0 -77 -67 -124 -161 -124c-75 0 -131 32 -131 51c0 10 3 20 8 27c34 -19 80 -31 119 -31c71 0 110 32 110 75c0 56 -40 82 -116 95c-12 2 -16 5 -20 12s-7 16 -8 23l114 124h-185c-10 0 -14 5 -14 16c0 8 1 21 4 32h234
c11 0 18 -3 23 -11c4 -8 7 -19 8 -31z" />
    <glyph glyph-name="fourinferior" unicode="&#x2084;" 
d="M251 6v225c-62 -51 -127 -140 -156 -225h156zM251 -42h-185c-11 0 -18 3 -23 11c-4 8 -7 19 -8 31c32 107 104 207 188 274c16 10 42 20 61 20c17 0 23 -6 23 -20v-268h40c12 0 16 -5 16 -19v-29h-56v-85h-37c-14 0 -19 5 -19 16v69z" />
    <glyph glyph-name="afii10017" unicode="&#x410;" horiz-adv-x="664" 
d="M92 0h-43c-14 0 -22 5 -22 14c0 3 1 6 2 9l259 669c17 8 39 13 59 13c18 0 25 -6 31 -22l264 -683h-49c-18 0 -25 5 -29 17l-65 174h-335zM477 250l-146 386l-146 -386h292z" />
    <glyph glyph-name="afii10018" unicode="&#x411;" horiz-adv-x="661" 
d="M100 700h396c14 0 19 -7 19 -25v-35h-347v-208c45 19 106 32 176 32c154 0 261 -81 261 -227c0 -155 -112 -237 -287 -237h-81c-90 0 -137 41 -137 160v540zM244 59h63c135 0 228 51 228 174c0 114 -75 171 -204 171c-56 0 -115 -10 -163 -28v-209c0 -82 25 -108 76 -108
z" />
    <glyph glyph-name="afii10019" unicode="&#x412;" horiz-adv-x="651" 
d="M243 59h110c114 0 170 51 170 134c0 88 -60 133 -181 133h-175v-159c0 -83 20 -108 76 -108zM335 640h-168v-255h168c112 0 165 47 165 128c0 76 -61 127 -165 127zM99 700h240c150 0 230 -84 230 -184c0 -77 -40 -131 -110 -157c81 -21 133 -80 133 -167
c0 -111 -81 -192 -241 -192h-115c-89 0 -137 42 -137 160v540z" />
    <glyph glyph-name="afii10020" unicode="&#x413;" horiz-adv-x="550" 
d="M100 700h391c14 0 19 -7 19 -25v-35h-342v-640h-44c-17 0 -24 5 -24 19v681z" />
    <glyph glyph-name="afii10021" unicode="&#x414;" horiz-adv-x="644" 
d="M469 640h-231c-6 -169 -38 -402 -83 -581h314v581zM598 39v-186h-43c-18 0 -24 6 -24 20v127h-430v-147h-43c-18 0 -25 6 -25 20v186h50c52 188 85 415 88 641h342c18 0 24 -6 24 -20v-621h37c18 0 24 -6 24 -20z" />
    <glyph glyph-name="afii10022" unicode="&#x415;" horiz-adv-x="570" 
d="M513 0h-277c-90 0 -137 41 -137 160v540h390c11 0 16 -7 16 -20s-2 -28 -5 -40h-333v-265h264c15 0 20 -7 20 -24v-35h-284v-149c0 -82 25 -108 76 -108h250c15 0 20 -7 20 -25v-34z" />
    <glyph glyph-name="afii10023" unicode="&#x401;" horiz-adv-x="570" 
d="M513 0h-277c-90 0 -137 41 -137 160v540h390c11 0 16 -7 16 -20s-2 -28 -5 -40h-333v-265h264c15 0 20 -7 20 -24v-35h-284v-149c0 -82 25 -108 76 -108h250c15 0 20 -7 20 -25v-34zM254 838c0 -26 -17 -42 -40 -42c-22 0 -43 17 -43 45c0 25 17 41 40 41s43 -17 43 -44z
M424 838c0 -26 -17 -42 -40 -42c-22 0 -42 17 -42 45c0 25 17 41 39 41c23 0 43 -17 43 -44z" />
    <glyph glyph-name="afii10024" unicode="&#x416;" horiz-adv-x="975" 
d="M453 363v334c14 5 31 8 47 8c15 0 21 -6 21 -17v-325c117 81 241 201 332 342c37 -11 48 -23 48 -36c0 -5 -1 -13 -4 -17c-50 -85 -131 -171 -214 -244c57 -139 128 -260 183 -322c24 -27 47 -39 67 -39h15c3 -7 4 -18 4 -26c0 -18 -20 -33 -50 -33c-28 0 -58 16 -87 48
c-63 70 -131 197 -185 329c-35 -29 -72 -56 -109 -81v-284h-44c-17 0 -24 5 -24 19v265c-37 25 -74 52 -109 81c-54 -132 -122 -259 -185 -329c-29 -32 -59 -48 -87 -48c-30 0 -50 15 -50 33c0 8 1 19 4 26h15c20 0 43 12 67 39c55 62 126 183 183 322
c-83 73 -164 159 -214 244c-3 4 -4 12 -4 17c0 13 11 25 48 36c91 -141 215 -261 332 -342z" />
    <glyph glyph-name="afii10025" unicode="&#x417;" horiz-adv-x="596" 
d="M294 712c129 0 219 -75 219 -182c0 -87 -60 -146 -146 -170c98 -21 166 -81 166 -179c0 -124 -107 -193 -255 -193c-113 0 -209 48 -209 75c0 10 4 23 10 31c55 -30 122 -46 194 -46c114 0 193 47 193 134c0 90 -79 148 -232 148h-10c-11 0 -17 6 -17 20c0 12 3 28 6 39
h21c135 0 212 57 212 137s-60 126 -152 126c-78 0 -141 -36 -172 -111c-23 2 -43 11 -53 23c-4 5 -5 9 -5 14c0 4 1 9 4 14c37 67 119 120 226 120z" />
    <glyph glyph-name="afii10026" unicode="&#x418;" horiz-adv-x="718" 
d="M101 17v680c14 5 31 8 47 8c15 0 21 -6 21 -17v-580l371 583c6 10 12 14 22 14c14 0 37 -10 54 -23v-682h-44c-18 0 -24 5 -24 19v572l-371 -583c-6 -9 -12 -13 -22 -13c-14 0 -37 9 -54 22z" />
    <glyph glyph-name="afii10027" unicode="&#x419;" horiz-adv-x="718" 
d="M101 17v680c14 5 31 8 47 8c15 0 21 -6 21 -17v-580l371 583c6 10 12 14 22 14c14 0 37 -10 54 -23v-682h-44c-18 0 -24 5 -24 19v572l-371 -583c-6 -9 -12 -13 -22 -13c-14 0 -37 9 -54 22zM219 895c11 6 27 11 38 11c14 0 17 -4 20 -18c10 -49 39 -75 82 -75
c42 0 77 25 85 93h32c18 0 23 -5 21 -18c-8 -67 -57 -122 -138 -122c-74 0 -129 46 -140 129z" />
    <glyph glyph-name="afii10028" unicode="&#x41a;" horiz-adv-x="658" 
d="M585 647c-58 -90 -142 -181 -234 -259c75 -139 161 -267 223 -319c18 -15 32 -22 47 -22h16c2 -7 4 -18 4 -26c0 -16 -21 -33 -51 -33c-22 0 -42 10 -66 31c-71 62 -155 198 -223 330c-43 -34 -88 -66 -132 -93v-256h-44c-17 0 -24 5 -24 19v678c14 5 31 8 47 8
c15 0 21 -6 21 -17v-356c129 85 269 217 373 373c36 -11 50 -22 50 -37c0 -6 -2 -14 -7 -21z" />
    <glyph glyph-name="afii10029" unicode="&#x41b;" horiz-adv-x="750" 
d="M212 700h412c17 0 24 -6 24 -20v-680h-44c-18 0 -24 5 -24 19v621h-300c-4 -135 -17 -329 -38 -463c-24 -149 -66 -189 -143 -189c-50 0 -88 22 -88 38c0 12 4 25 10 34c19 -9 42 -13 63 -13c45 0 70 27 89 138c22 134 39 330 39 515z" />
    <glyph glyph-name="afii10030" unicode="&#x41c;" horiz-adv-x="897" 
d="M749 20l-60 580l-204 -365c-5 -9 -12 -13 -28 -13h-40l-211 378l-63 -600h-45c-19 0 -24 5 -24 20l73 665c18 12 41 20 55 20c11 0 16 -3 23 -15l222 -396l227 406h49c18 0 23 -6 25 -20l75 -680h-48c-19 0 -25 5 -26 20z" />
    <glyph glyph-name="afii10031" unicode="&#x41d;" horiz-adv-x="722" 
d="M169 0h-44c-17 0 -24 5 -24 19v678c14 5 31 8 47 8c15 0 21 -6 21 -17v-308h383v320h44c17 0 24 -6 24 -20v-680h-44c-18 0 -24 5 -24 19v302h-383v-321z" />
    <glyph glyph-name="afii10032" unicode="&#x41e;" horiz-adv-x="771" 
d="M62 350c0 240 149 362 324 362c174 0 323 -122 323 -362s-149 -362 -323 -362c-175 0 -324 122 -324 362zM132 358c0 -207 119 -310 261 -310c127 0 246 93 246 294c0 207 -118 310 -261 310c-127 0 -246 -93 -246 -294z" />
    <glyph glyph-name="afii10033" unicode="&#x41f;" horiz-adv-x="723" 
d="M623 0h-44c-18 0 -24 5 -24 19v621h-387v-640h-44c-17 0 -24 5 -24 19v681h499c17 0 24 -6 24 -20v-680z" />
    <glyph glyph-name="afii10034" unicode="&#x420;" horiz-adv-x="633" 
d="M170 0h-44c-18 0 -24 5 -24 20v680h208c163 0 272 -93 272 -254c0 -163 -119 -250 -265 -250c-48 0 -104 7 -147 22v-218zM170 641v-369c40 -11 89 -16 140 -16c120 0 204 68 204 192c0 128 -85 193 -206 193h-138z" />
    <glyph glyph-name="afii10035" unicode="&#x421;" horiz-adv-x="687" 
d="M637 565c3 -6 4 -11 4 -15c0 -7 -4 -12 -12 -18c-12 -8 -30 -15 -47 -17c-38 87 -114 137 -211 137c-123 0 -241 -99 -241 -277c0 -206 141 -328 311 -328c59 0 119 13 167 41c6 -9 9 -22 9 -32c0 -27 -81 -68 -184 -68c-210 0 -371 149 -371 384c0 218 149 340 312 340
c127 0 220 -62 263 -147z" />
    <glyph glyph-name="afii10036" unicode="&#x422;" horiz-adv-x="607" 
d="M337 0h-44c-17 0 -24 5 -24 19v621h-208c-11 0 -16 7 -16 20s2 28 5 40h492c14 0 20 -7 20 -25v-35h-225v-640z" />
    <glyph glyph-name="afii10037" unicode="&#x423;" horiz-adv-x="643" 
d="M130 688l204 -408c75 127 147 270 198 420h44c14 0 26 -9 21 -23c-85 -234 -219 -474 -373 -677h-44c-17 0 -26 7 -16 22c41 56 86 121 130 193l-236 458c20 20 36 30 50 30c11 0 16 -4 22 -15z" />
    <glyph glyph-name="afii10038" unicode="&#x424;" horiz-adv-x="754" 
d="M410 0h-43c-18 0 -24 5 -24 19v63c-149 12 -289 101 -289 271c0 168 140 258 289 269v75c14 5 30 8 47 8c14 0 20 -6 20 -17v-66c149 -11 289 -100 289 -269s-140 -260 -289 -271v-82zM630 344c0 128 -93 205 -220 218v-421c120 8 220 77 220 203zM123 362
c0 -129 92 -206 220 -219v420c-121 -8 -220 -77 -220 -201z" />
    <glyph glyph-name="afii10039" unicode="&#x425;" horiz-adv-x="680" 
d="M387 355l246 -322c-18 -26 -34 -38 -47 -38c-9 0 -14 3 -20 11l-231 303c-90 -83 -162 -187 -213 -309h-48c-13 0 -20 4 -20 13c0 3 1 7 3 12c53 123 134 240 240 336l-231 304c18 26 34 38 47 38c9 0 14 -3 20 -11l216 -285c83 80 154 177 202 293h48c12 0 20 -5 20 -15
c0 -3 -1 -7 -3 -11c-50 -117 -131 -226 -229 -319z" />
    <glyph glyph-name="afii10040" unicode="&#x426;" horiz-adv-x="728" 
d="M614 0h-377c-90 0 -137 41 -137 160v538c14 4 30 7 47 7c15 0 21 -5 21 -16v-522c0 -82 25 -108 76 -108h309v641h44c17 0 24 -5 24 -20v-621h37c18 0 24 -5 24 -20v-186h-43c-18 0 -25 5 -25 20v127z" />
    <glyph glyph-name="afii10041" unicode="&#x427;" horiz-adv-x="684" 
d="M156 688v-246c0 -125 75 -187 190 -187c58 0 119 11 168 36v409h43c18 0 24 -6 24 -20v-680h-43c-18 0 -24 5 -24 19v216c-49 -25 -116 -39 -177 -39c-147 0 -249 89 -249 241v260c14 5 31 8 47 8c15 0 21 -6 21 -17z" />
    <glyph glyph-name="afii10042" unicode="&#x428;" horiz-adv-x="913" 
d="M244 59h177v641h44c17 0 24 -6 24 -20v-621h253v641h44c18 0 24 -6 24 -20v-680h-573c-90 0 -137 41 -137 160v537c14 5 31 8 47 8c15 0 21 -6 21 -17v-521c0 -82 25 -108 76 -108z" />
    <glyph glyph-name="afii10043" unicode="&#x429;" horiz-adv-x="917" 
d="M804 0h-567c-90 0 -137 41 -137 160v537c14 5 31 8 47 8c15 0 21 -6 21 -17v-521c0 -82 25 -108 76 -108h177v641h44c17 0 24 -6 24 -20v-621h253v641h44c18 0 24 -6 24 -20v-621h38c18 0 24 -5 24 -20v-186h-44c-17 0 -24 5 -24 20v127z" />
    <glyph glyph-name="afii10044" unicode="&#x42a;" horiz-adv-x="825" 
d="M269 160v480h-208c-11 0 -16 7 -16 20s2 28 5 40h265c16 0 22 -6 22 -23v-245c45 19 106 32 176 32c154 0 260 -81 260 -227c0 -155 -111 -237 -286 -237h-81c-90 0 -137 41 -137 160zM413 59h63c134 0 228 51 228 174c0 114 -75 171 -204 171c-56 0 -115 -10 -163 -28
v-209c0 -82 25 -108 76 -108z" />
    <glyph glyph-name="afii10045" unicode="&#x42b;" horiz-adv-x="885" 
d="M783 0h-44c-17 0 -24 5 -24 19v678c14 5 31 8 47 8c15 0 21 -6 21 -17v-688zM317 0h-81c-90 0 -137 41 -137 160v537c14 5 31 8 47 8c15 0 21 -6 21 -17v-256c45 19 106 32 176 32c154 0 261 -81 261 -227c0 -155 -112 -237 -287 -237zM243 59h63c135 0 228 51 228 174
c0 114 -75 171 -204 171c-56 0 -115 -10 -163 -28v-209c0 -82 25 -108 76 -108z" />
    <glyph glyph-name="afii10046" unicode="&#x42c;" horiz-adv-x="655" 
d="M317 0h-81c-90 0 -137 41 -137 160v537c14 5 31 8 47 8c15 0 21 -6 21 -17v-256c45 19 106 32 176 32c154 0 261 -81 261 -227c0 -155 -112 -237 -287 -237zM243 59h63c135 0 228 51 228 174c0 114 -75 171 -204 171c-56 0 -115 -10 -163 -28v-209c0 -82 25 -108 76 -108
z" />
    <glyph glyph-name="afii10047" unicode="&#x42d;" horiz-adv-x="687" 
d="M61 565c43 85 136 147 263 147c163 0 312 -122 312 -340c0 -235 -161 -384 -371 -384c-103 0 -184 41 -184 68c0 10 3 23 9 32c48 -28 108 -41 167 -41c153 0 283 100 307 271h-340c-11 0 -16 6 -16 19s2 29 5 40h355c-1 176 -119 275 -241 275c-97 0 -173 -50 -211 -137
c-17 2 -35 9 -47 17c-8 6 -12 11 -12 18c0 4 1 9 4 15z" />
    <glyph glyph-name="afii10048" unicode="&#x42e;" horiz-adv-x="1001" 
d="M169 0h-44c-17 0 -24 5 -24 19v678c14 5 31 8 47 8c15 0 21 -6 21 -17v-311h123c10 222 154 335 322 335c175 0 324 -123 324 -362c0 -240 -149 -362 -324 -362c-167 0 -310 111 -322 330h-123v-318zM868 341c0 208 -118 311 -261 311c-127 0 -246 -93 -246 -294
c0 -208 119 -311 261 -311c127 0 246 93 246 294z" />
    <glyph glyph-name="afii10049" unicode="&#x42f;" horiz-adv-x="654" 
d="M553 680v-680h-44c-17 0 -24 5 -24 19v217c-44 -14 -88 -20 -140 -20c-8 0 -16 0 -24 1c-47 -84 -107 -167 -164 -208c-20 -14 -38 -21 -57 -21c-29 0 -48 16 -48 33c0 8 1 16 4 24h14c15 0 30 6 48 19c40 29 89 86 138 164c-101 28 -173 105 -173 230
c0 153 109 242 272 242h174c17 0 24 -6 24 -20zM485 291v349h-127c-121 0 -206 -60 -206 -182c0 -119 83 -183 204 -183c48 0 90 5 129 16z" />
    <glyph glyph-name="afii10065" unicode="&#x430;" horiz-adv-x="595" 
d="M248 45c69 0 137 34 180 111v85c-42 19 -106 30 -157 30c-94 0 -149 -44 -149 -113c0 -73 58 -113 126 -113zM531 47h18c2 -7 4 -15 4 -24c0 -14 -19 -30 -48 -30c-41 0 -72 33 -76 91c-38 -58 -104 -96 -190 -96c-111 0 -183 69 -183 168c0 109 83 173 209 173
c57 0 116 -13 163 -36v55c0 96 -66 140 -167 140c-56 0 -108 -11 -150 -34c-6 7 -10 20 -10 30c0 24 75 62 174 62c132 0 218 -68 218 -202v-241c0 -42 14 -56 38 -56z" />
    <glyph glyph-name="afii10066" unicode="&#x431;" horiz-adv-x="630" 
d="M73 299c0 256 56 346 198 378l128 28c48 11 96 26 117 37c6 -6 14 -17 15 -28c2 -17 -40 -42 -135 -65l-116 -28c-87 -22 -127 -68 -137 -210c54 57 125 95 211 95c129 0 223 -102 223 -239c0 -159 -99 -279 -248 -279c-159 0 -256 117 -256 311zM140 342v-42
c0 -168 76 -255 189 -255c102 0 182 88 182 216c0 122 -78 187 -174 187c-77 0 -146 -41 -197 -106z" />
    <glyph glyph-name="afii10067" unicode="&#x432;" horiz-adv-x="552" 
d="M288 477h-134v-175h134c88 0 122 37 122 87c0 51 -34 88 -122 88zM301 0h-89c-80 0 -124 37 -124 146v388h207c121 0 181 -66 181 -142c0 -52 -28 -94 -77 -114c59 -19 102 -57 102 -127c0 -84 -66 -151 -200 -151zM223 57h76c91 0 136 35 136 95c0 59 -48 93 -147 93
h-134v-89c0 -79 18 -99 69 -99z" />
    <glyph glyph-name="afii10068" unicode="&#x433;" horiz-adv-x="471" 
d="M156 477v-477h-42c-18 0 -24 5 -24 19v515h327c14 0 19 -7 19 -25v-32h-280z" />
    <glyph glyph-name="afii10069" unicode="&#x434;" horiz-adv-x="568" 
d="M147 534h300c17 0 24 -6 24 -20v-457h33c17 0 24 -6 24 -20v-155h-42c-18 0 -24 6 -24 20v98h-368v-118h-42c-18 0 -24 6 -24 20v155h46c47 153 70 319 73 477zM142 57h263v420h-196c-6 -121 -27 -279 -67 -420z" />
    <glyph glyph-name="afii10070" unicode="&#x435;" horiz-adv-x="574" 
d="M328 46c46 0 95 10 134 32c6 -8 10 -21 10 -30c0 -23 -62 -60 -153 -60c-150 0 -262 115 -262 282c0 170 120 276 256 276c124 0 210 -83 210 -197c0 -25 -5 -52 -13 -73c-12 -29 -27 -37 -59 -37h-327c11 -124 101 -193 204 -193zM309 488c-94 0 -177 -74 -185 -192h324
c6 14 10 32 10 51c0 85 -59 141 -149 141z" />
    <glyph glyph-name="afii10071" unicode="&#x451;" horiz-adv-x="574" 
d="M328 46c46 0 95 10 134 32c6 -8 10 -21 10 -30c0 -23 -62 -60 -153 -60c-150 0 -262 115 -262 282c0 170 120 276 256 276c124 0 210 -83 210 -197c0 -25 -5 -52 -13 -73c-12 -29 -27 -37 -59 -37h-327c11 -124 101 -193 204 -193zM309 488c-94 0 -177 -74 -185 -192h324
c6 14 10 32 10 51c0 85 -59 141 -149 141zM258 664c0 -26 -17 -42 -40 -42c-22 0 -43 17 -43 45c0 25 17 41 40 41s43 -17 43 -44zM428 664c0 -26 -17 -42 -40 -42c-22 0 -42 17 -42 45c0 25 17 41 39 41c23 0 43 -17 43 -44z" />
    <glyph glyph-name="afii10072" unicode="&#x436;" horiz-adv-x="795" 
d="M70 486c-3 6 -5 12 -5 17c0 14 10 25 44 37c73 -106 167 -192 256 -253v245c14 5 30 7 45 7s21 -5 21 -16v-236c88 61 182 147 255 253c34 -12 45 -23 45 -37c0 -5 -2 -11 -6 -17c-37 -54 -89 -110 -152 -163c33 -97 71 -182 111 -237c24 -33 42 -39 59 -39h20
c3 -7 4 -15 4 -24c0 -14 -24 -31 -47 -31c-35 0 -62 15 -93 61c-42 63 -76 144 -104 232c-30 -24 -61 -46 -92 -66v-219h-42c-18 0 -24 5 -24 20v199c-33 20 -64 42 -93 66c-28 -88 -63 -169 -104 -232c-30 -46 -58 -61 -92 -61c-24 0 -48 17 -48 31c0 9 2 17 4 24h20
c18 0 35 6 59 39c40 55 78 140 111 237c-63 53 -115 109 -152 163z" />
    <glyph glyph-name="afii10073" unicode="&#x437;" horiz-adv-x="516" 
d="M230 239h-10c-11 0 -16 6 -16 19s2 27 5 38h14c103 0 149 40 149 99c0 58 -52 93 -114 93s-112 -28 -134 -82c-14 1 -30 7 -39 12c-17 10 -21 25 -12 38c36 53 106 90 185 90c107 0 180 -61 180 -148c0 -61 -38 -107 -97 -128c69 -19 112 -65 112 -133
c0 -85 -69 -149 -205 -149c-93 0 -173 42 -173 66c0 10 3 22 9 31c45 -25 101 -40 158 -40c97 0 145 40 145 94c0 61 -54 100 -157 100z" />
    <glyph glyph-name="afii10074" unicode="&#x438;" horiz-adv-x="626" 
d="M535 520v-520h-42c-17 0 -24 5 -24 20v420l-305 -432c-7 -9 -13 -13 -24 -13c-13 0 -34 8 -50 21v518c14 5 30 7 45 7c14 0 21 -6 21 -17v-429l305 433c6 9 13 13 24 13c13 0 34 -8 50 -21z" />
    <glyph glyph-name="afii10075" unicode="&#x439;" horiz-adv-x="626" 
d="M535 520v-520h-42c-17 0 -24 5 -24 20v420l-305 -432c-7 -9 -13 -13 -24 -13c-13 0 -34 8 -50 21v518c14 5 30 7 45 7c14 0 21 -6 21 -17v-429l305 433c6 9 13 13 24 13c13 0 34 -8 50 -21zM172 720c11 6 27 11 38 11c14 0 17 -4 20 -18c10 -49 39 -75 82 -75
c42 0 77 25 85 93h32c18 0 23 -5 21 -18c-8 -67 -57 -122 -138 -122c-74 0 -129 46 -140 129z" />
    <glyph glyph-name="afii10076" unicode="&#x43a;" horiz-adv-x="575" 
d="M156 0h-42c-18 0 -24 5 -24 19v513c15 4 31 7 45 7c15 0 21 -6 21 -17v-259c106 64 224 163 306 276c35 -13 45 -23 45 -37c0 -5 -2 -11 -5 -16c-47 -64 -117 -132 -199 -193c55 -89 119 -169 166 -213c27 -25 42 -33 54 -33h20c2 -7 4 -15 4 -24c0 -14 -19 -30 -49 -30
c-20 0 -43 9 -71 37c-51 50 -119 133 -174 228c-31 -21 -65 -43 -97 -61v-197z" />
    <glyph glyph-name="afii10077" unicode="&#x43b;" horiz-adv-x="649" 
d="M90 -12c-40 0 -79 21 -79 37c0 10 4 23 10 32c18 -9 36 -13 55 -13c38 0 60 22 75 134c13 99 21 224 21 356h364c16 0 22 -6 22 -22v-512h-41c-18 0 -25 5 -25 20v457h-254c-1 -82 -8 -209 -20 -308c-17 -141 -56 -181 -128 -181z" />
    <glyph glyph-name="afii10078" unicode="&#x43c;" horiz-adv-x="757" 
d="M620 514l70 -514h-45c-15 0 -22 5 -24 19l-57 425l-149 -263c-5 -9 -12 -12 -25 -12h-44l-155 275l-60 -444h-40c-16 0 -27 5 -25 20l69 500c17 12 40 19 53 19c10 0 17 -3 23 -14l166 -293l171 302h47c17 0 23 -6 25 -20z" />
    <glyph glyph-name="afii10079" unicode="&#x43d;" horiz-adv-x="612" 
d="M521 0h-42c-18 0 -24 5 -24 19v228h-299v-247h-42c-18 0 -24 5 -24 19v513c15 4 31 7 45 7c15 0 21 -6 21 -17v-218h299v230h42c17 0 24 -6 24 -20v-514z" />
    <glyph glyph-name="afii10080" unicode="&#x43e;" horiz-adv-x="628" 
d="M314 546c139 0 257 -103 257 -279s-118 -279 -257 -279s-257 103 -257 279s118 279 257 279zM319 46c96 0 186 70 186 215c0 150 -94 227 -196 227c-97 0 -186 -70 -186 -215c0 -150 94 -227 196 -227z" />
    <glyph glyph-name="afii10081" unicode="&#x43f;" horiz-adv-x="612" 
d="M521 514v-514h-42c-18 0 -24 5 -24 19v458h-299v-477h-42c-18 0 -24 5 -24 19v515h407c17 0 24 -6 24 -20z" />
    <glyph glyph-name="afii10082" unicode="&#x440;" horiz-adv-x="638" 
d="M156 46v-259h-41c-18 0 -24 5 -24 20v725c14 5 30 7 45 7c14 0 20 -5 20 -16v-88c40 68 108 111 198 111c130 0 227 -96 227 -257c0 -170 -113 -301 -264 -301c-62 0 -119 19 -161 58zM342 489c-73 0 -146 -50 -186 -151v-227c44 -44 98 -65 154 -65
c117 0 204 105 204 242c0 128 -70 201 -172 201z" />
    <glyph glyph-name="afii10083" unicode="&#x441;" horiz-adv-x="551" 
d="M506 437c3 -6 4 -11 4 -15c0 -8 -4 -14 -12 -19c-12 -8 -29 -13 -45 -15c-22 58 -70 100 -147 100c-102 0 -183 -77 -183 -203c0 -160 119 -240 230 -240c49 0 93 10 132 32c6 -9 10 -21 10 -30c0 -24 -66 -59 -153 -59c-144 0 -286 107 -286 296c0 164 113 262 252 262
c96 0 168 -50 198 -109z" />
    <glyph glyph-name="afii10084" unicode="&#x442;" horiz-adv-x="521" 
d="M293 0h-42c-18 0 -24 5 -24 19v458h-175c-11 0 -17 6 -17 19s2 27 5 38h425c14 0 19 -7 19 -25v-32h-191v-477z" />
    <glyph glyph-name="afii10085" unicode="&#x443;" horiz-adv-x="627" 
d="M88 212v320c14 5 31 7 46 7c14 0 20 -5 20 -16v-312c0 -108 43 -165 137 -165c60 0 129 25 179 73v415h42c18 0 24 -6 24 -20v-505c0 -143 -91 -257 -265 -257c-106 0 -176 54 -176 133c0 52 27 95 80 128c-58 35 -87 105 -87 199zM277 -12c-19 0 -36 2 -52 6
c-46 -31 -64 -65 -64 -104c0 -47 44 -81 110 -81c129 0 199 76 199 193v61c-52 -46 -121 -75 -193 -75z" />
    <glyph glyph-name="afii10086" unicode="&#x444;" horiz-adv-x="760" 
d="M343 544v186c14 4 31 7 46 7c14 0 20 -6 20 -17v-176c168 -10 297 -108 297 -277c0 -170 -129 -268 -297 -277v-183h-42c-18 0 -24 6 -24 20v163c-164 11 -289 110 -289 277c0 166 125 264 289 277zM640 259c0 140 -101 216 -231 227v-440c127 6 231 74 231 213zM121 274
c0 -137 95 -213 222 -226v438c-123 -9 -222 -76 -222 -212z" />
    <glyph glyph-name="afii10087" unicode="&#x445;" horiz-adv-x="562" 
d="M510 47h13c2 -7 4 -18 4 -24c0 -15 -18 -30 -49 -30c-27 0 -45 14 -80 60l-128 167c-65 -59 -124 -133 -160 -220h-46c-12 0 -19 5 -19 13c0 3 0 6 2 9c38 90 109 178 187 246l-178 233c16 24 31 36 43 36c15 0 25 -19 35 -32l147 -193c62 59 121 135 157 222h46
c11 0 18 -5 18 -14c0 -2 0 -6 -2 -9c-38 -90 -108 -179 -183 -247l143 -187c16 -21 32 -30 50 -30z" />
    <glyph glyph-name="afii10088" unicode="&#x446;" horiz-adv-x="623" 
d="M517 0h-303c-80 0 -124 37 -124 146v386c14 5 31 7 46 7c14 0 20 -5 20 -16v-367c0 -79 18 -99 69 -99h235v477h42c18 0 24 -5 24 -20v-457h33c18 0 24 -5 24 -20v-155h-41c-18 0 -25 5 -25 20v98z" />
    <glyph glyph-name="afii10089" unicode="&#x447;" horiz-adv-x="612" 
d="M521 0h-42c-18 0 -24 5 -24 19v188c-51 -43 -122 -68 -193 -68c-126 0 -189 86 -189 224v169c15 4 31 7 45 7c15 0 21 -6 21 -17v-160c0 -109 43 -165 137 -165c60 0 128 24 179 72v265h42c17 0 24 -6 24 -20v-514z" />
    <glyph glyph-name="afii10090" unicode="&#x448;" horiz-adv-x="801" 
d="M225 57h142v477h41c18 0 25 -5 25 -20v-457h212v477h42c17 0 24 -5 24 -20v-514h-497c-80 0 -124 37 -124 146v386c14 5 31 7 46 7c14 0 20 -5 20 -16v-367c0 -79 18 -99 69 -99z" />
    <glyph glyph-name="afii10091" unicode="&#x449;" horiz-adv-x="808" 
d="M225 57h142v477h41c18 0 25 -5 25 -20v-457h212v477h42c17 0 24 -5 24 -20v-457h33c17 0 24 -5 24 -20v-155h-42c-18 0 -24 5 -24 20v98h-488c-80 0 -124 37 -124 146v386c14 5 31 7 46 7c14 0 20 -5 20 -16v-367c0 -79 18 -99 69 -99z" />
    <glyph glyph-name="afii10092" unicode="&#x44a;" horiz-adv-x="701" 
d="M405 0h-54c-80 0 -124 37 -124 146v331h-175c-11 0 -17 6 -17 19s2 27 5 38h229c17 0 24 -6 24 -20v-167c38 14 90 23 144 23c133 0 215 -67 215 -179c0 -113 -76 -191 -247 -191zM424 312c-45 0 -91 -6 -131 -19v-137c0 -79 18 -99 69 -99h51c115 0 173 50 173 132
c0 77 -54 123 -162 123z" />
    <glyph glyph-name="afii10093" unicode="&#x44b;" horiz-adv-x="767" 
d="M598 95v437c14 4 30 7 45 7s21 -6 21 -17v-424c0 -38 12 -51 36 -51h20c2 -7 3 -12 3 -19c0 -18 -14 -35 -50 -35c-44 0 -75 25 -75 102zM88 146v386c15 4 31 7 45 7c15 0 21 -6 21 -17v-175c38 14 90 23 144 23c133 0 215 -67 215 -179c0 -113 -76 -191 -247 -191h-54
c-80 0 -124 37 -124 146zM285 312c-45 0 -91 -6 -131 -19v-137c0 -79 18 -99 69 -99h52c114 0 172 50 172 132c0 77 -54 123 -162 123z" />
    <glyph glyph-name="afii10094" unicode="&#x44c;" horiz-adv-x="561" 
d="M88 146v386c15 4 31 7 45 7c15 0 21 -6 21 -17v-175c38 14 90 23 144 23c133 0 215 -67 215 -179c0 -113 -76 -191 -247 -191h-54c-80 0 -124 37 -124 146zM285 312c-45 0 -91 -6 -131 -19v-137c0 -79 18 -99 69 -99h52c114 0 172 50 172 132c0 77 -54 123 -162 123z" />
    <glyph glyph-name="afii10095" unicode="&#x44d;" horiz-adv-x="568" 
d="M61 437c30 59 102 109 198 109c139 0 252 -98 252 -262c0 -189 -142 -296 -286 -296c-87 0 -153 35 -153 59c0 9 4 21 10 30c39 -22 83 -32 132 -32c99 0 204 64 226 192h-237c-11 0 -16 6 -16 19s2 27 5 38h252c-4 120 -84 194 -183 194c-77 0 -125 -42 -147 -100
c-16 2 -33 7 -45 15c-8 5 -12 11 -12 19c0 4 1 9 4 15z" />
    <glyph glyph-name="afii10096" unicode="&#x44e;" horiz-adv-x="825" 
d="M156 0h-42c-18 0 -24 5 -24 19v513c15 4 31 7 45 7c15 0 21 -6 21 -17v-223h98c14 155 125 247 256 247c139 0 258 -104 258 -279c0 -176 -119 -279 -258 -279c-133 0 -246 93 -257 254h-97v-242zM319 273c0 -151 94 -228 196 -228c97 0 186 70 186 216
c0 150 -94 227 -196 227c-96 0 -186 -70 -186 -215z" />
    <glyph glyph-name="afii10097" unicode="&#x44f;" horiz-adv-x="576" 
d="M111 -12c-26 0 -44 14 -44 31c0 7 1 16 4 22h13c11 0 23 4 36 13c34 24 70 64 101 120c-82 23 -135 82 -135 174c0 117 87 186 224 186h151c18 0 24 -6 24 -20v-514h-42c-17 0 -24 5 -24 19v158c-34 -11 -76 -15 -110 -15c-9 0 -17 0 -25 1c-34 -66 -76 -121 -121 -156
c-18 -14 -36 -19 -52 -19zM419 231v246h-96c-106 0 -171 -39 -171 -129c0 -87 64 -128 169 -128c33 0 68 3 98 11z" />
    <glyph glyph-name="AEacute" unicode="&#x1fc;" horiz-adv-x="880" 
d="M433 700h365c11 0 16 -7 16 -20s-2 -28 -5 -40h-336v-265h268c14 0 19 -7 19 -24v-35h-287v-149c0 -83 20 -108 77 -108h253c14 0 19 -7 19 -25v-34h-280c-97 0 -136 48 -136 160v31h-227l-96 -191h-45c-18 0 -27 8 -19 23l339 661c20 10 45 16 75 16zM406 250v391
l-198 -391h198zM659 880l-133 -113c-5 -4 -9 -6 -14 -6c-4 0 -8 2 -12 6l-21 22l125 120c6 6 12 9 17 9c6 0 12 -2 17 -7c8 -8 16 -20 21 -31z" />
    <glyph glyph-name="Aacute" unicode="&#xc1;" horiz-adv-x="664" 
d="M92 0h-43c-14 0 -22 5 -22 14c0 3 1 6 2 9l259 669c17 8 39 13 59 13c18 0 25 -6 31 -22l264 -683h-49c-18 0 -25 5 -29 17l-65 174h-335zM477 250l-146 386l-146 -386h292zM438 881l-133 -113c-5 -4 -9 -6 -14 -6c-4 0 -8 2 -12 6l-21 22l125 120c6 6 12 9 17 9
c6 0 12 -2 17 -7c8 -8 16 -20 21 -31z" />
    <glyph glyph-name="Abreve" unicode="&#x102;" horiz-adv-x="664" 
d="M92 0h-43c-14 0 -22 5 -22 14c0 3 1 6 2 9l259 669c17 8 39 13 59 13c18 0 25 -6 31 -22l264 -683h-49c-18 0 -25 5 -29 17l-65 174h-335zM477 250l-146 386l-146 -386h292zM192 895c11 6 27 11 38 11c14 0 17 -4 20 -18c10 -49 39 -75 82 -75c42 0 77 25 85 93h32
c18 0 23 -5 21 -18c-8 -67 -57 -122 -138 -122c-74 0 -129 46 -140 129z" />
    <glyph glyph-name="Acircumflex" unicode="&#xc2;" horiz-adv-x="664" 
d="M92 0h-43c-14 0 -22 5 -22 14c0 3 1 6 2 9l259 669c17 8 39 13 59 13c18 0 25 -6 31 -22l264 -683h-49c-18 0 -25 5 -29 17l-65 174h-335zM477 250l-146 386l-146 -386h292zM356 907l124 -120l-23 -25c-4 -4 -8 -7 -13 -7c-6 0 -11 3 -18 10l-97 96l-105 -105
c-13 5 -23 11 -29 17c-6 5 -8 10 -8 16c0 4 3 9 7 13l118 115h19c12 0 16 -2 25 -10z" />
    <glyph glyph-name="Adieresis" unicode="&#xc4;" horiz-adv-x="664" 
d="M92 0h-43c-14 0 -22 5 -22 14c0 3 1 6 2 9l259 669c17 8 39 13 59 13c18 0 25 -6 31 -22l264 -683h-49c-18 0 -25 5 -29 17l-65 174h-335zM477 250l-146 386l-146 -386h292zM288 838c0 -26 -17 -42 -40 -42c-22 0 -43 17 -43 45c0 25 17 41 40 41s43 -17 43 -44zM458 838
c0 -26 -17 -42 -40 -42c-22 0 -42 17 -42 45c0 25 17 41 39 41c23 0 43 -17 43 -44z" />
    <glyph glyph-name="Agrave" unicode="&#xc0;" horiz-adv-x="664" 
d="M92 0h-43c-14 0 -22 5 -22 14c0 3 1 6 2 9l259 669c17 8 39 13 59 13c18 0 25 -6 31 -22l264 -683h-49c-18 0 -25 5 -29 17l-65 174h-335zM477 250l-146 386l-146 -386h292zM356 767l-133 113c5 11 13 23 21 31c5 5 11 7 17 7c5 0 11 -3 17 -9l125 -120l-21 -22
c-4 -4 -8 -6 -12 -6c-5 0 -9 2 -14 6z" />
    <glyph glyph-name="Amacron" unicode="&#x100;" horiz-adv-x="664" 
d="M92 0h-43c-14 0 -22 5 -22 14c0 3 1 6 2 9l259 669c17 8 39 13 59 13c18 0 25 -6 31 -22l264 -683h-49c-18 0 -25 5 -29 17l-65 174h-335zM477 250l-146 386l-146 -386h292zM203 864h244c13 0 18 -5 18 -22v-28h-252c-10 0 -14 7 -14 19c0 11 2 23 4 31z" />
    <glyph glyph-name="Aogonek" unicode="&#x104;" horiz-adv-x="664" 
d="M668 -166c14 5 21 1 21 -14v-26c-18 -10 -45 -14 -68 -14c-71 0 -111 39 -111 97c0 42 26 92 72 124c-10 2 -15 7 -18 16l-65 174h-335l-72 -191h-43c-14 0 -22 5 -22 14c0 3 1 6 2 9l259 669c17 8 39 13 59 13c18 0 25 -6 31 -22l264 -683c-54 -38 -76 -81 -76 -118
c0 -29 19 -54 63 -54c14 0 28 2 39 6zM477 250l-146 386l-146 -386h292z" />
    <glyph glyph-name="Aring" unicode="&#xc5;" horiz-adv-x="664" 
d="M92 0h-43c-14 0 -22 5 -22 14c0 3 1 6 2 9l259 669c17 8 39 13 59 13c18 0 25 -6 31 -22l264 -683h-49c-18 0 -25 5 -29 17l-65 174h-335zM477 250l-146 386l-146 -386h292zM332 928c52 0 93 -38 93 -89s-41 -89 -93 -89c-53 0 -93 38 -93 89s40 89 93 89zM334 788
c27 0 48 20 48 48c0 34 -23 54 -53 54c-27 0 -47 -20 -47 -48c0 -34 22 -54 52 -54z" />
    <glyph glyph-name="Aringacute" unicode="&#x1fa;" horiz-adv-x="664" 
d="M331 840c53 0 93 -39 93 -89c0 -33 -17 -61 -43 -76l261 -675h-49c-18 0 -25 5 -29 17l-65 174h-335l-72 -191h-43c-14 0 -22 5 -22 14c0 3 1 6 2 9l252 652c-26 15 -43 43 -43 76c0 50 41 89 93 89zM477 250l-146 386l-146 -386h292zM334 700c26 0 47 20 47 48
c0 33 -22 53 -52 53c-27 0 -48 -20 -48 -48c0 -33 23 -53 53 -53zM408 945l-103 -85c-4 -3 -8 -4 -11 -4c-4 0 -7 2 -10 5l-20 21l93 90c6 6 12 8 17 8s10 -3 13 -6c7 -6 14 -16 21 -29z" />
    <glyph glyph-name="Atilde" unicode="&#xc3;" horiz-adv-x="664" 
d="M92 0h-43c-14 0 -22 5 -22 14c0 3 1 6 2 9l259 669c17 8 39 13 59 13c18 0 25 -6 31 -22l264 -683h-49c-18 0 -25 5 -29 17l-65 174h-335zM477 250l-146 386l-146 -386h292zM189 810c0 8 3 19 5 28c13 37 40 56 77 56c23 0 44 -9 70 -32c23 -20 35 -28 48 -28
c19 0 30 11 34 58l36 -8c13 -3 16 -10 13 -24c-8 -48 -37 -76 -81 -76c-23 0 -46 10 -70 32c-23 22 -36 28 -48 28c-19 0 -30 -12 -34 -57c-15 -1 -29 1 -38 5c-8 3 -12 10 -12 18z" />
    <glyph glyph-name="Cacute" unicode="&#x106;" horiz-adv-x="687" 
d="M637 565c3 -6 4 -11 4 -15c0 -7 -4 -12 -12 -18c-12 -8 -30 -15 -47 -17c-38 87 -114 137 -211 137c-123 0 -241 -99 -241 -277c0 -206 141 -328 311 -328c59 0 119 13 167 41c6 -9 9 -22 9 -32c0 -27 -81 -68 -184 -68c-210 0 -371 149 -371 384c0 218 149 340 312 340
c127 0 220 -62 263 -147zM464 880l-133 -113c-5 -4 -9 -6 -14 -6c-4 0 -8 2 -12 6l-21 22l125 120c6 6 12 9 17 9c6 0 12 -2 17 -7c8 -8 16 -20 21 -31z" />
    <glyph glyph-name="Ccaron" unicode="&#x10c;" horiz-adv-x="687" 
d="M637 565c3 -6 4 -11 4 -15c0 -7 -4 -12 -12 -18c-12 -8 -30 -15 -47 -17c-38 87 -114 137 -211 137c-123 0 -241 -99 -241 -277c0 -206 141 -328 311 -328c59 0 119 13 167 41c6 -9 9 -22 9 -32c0 -27 -81 -68 -184 -68c-210 0 -371 149 -371 384c0 218 149 340 312 340
c127 0 220 -62 263 -147zM353 765l-123 118c12 22 25 34 35 34c9 0 17 -8 29 -20l86 -86l109 109l28 -26c4 -4 6 -7 6 -10c0 -5 -2 -8 -8 -14l-118 -115h-19c-12 0 -16 2 -25 10z" />
    <glyph glyph-name="Ccedilla" unicode="&#xc7;" horiz-adv-x="687" 
d="M353 -86c-8 3 -12 7 -12 12c0 2 1 4 2 6l32 60c-181 24 -313 167 -313 380c0 218 149 340 312 340c127 0 220 -62 263 -147c3 -6 4 -11 4 -15c0 -7 -4 -12 -12 -18c-12 -8 -30 -15 -47 -17c-38 87 -114 137 -211 137c-123 0 -241 -99 -241 -277c0 -206 141 -328 311 -328
c59 0 119 13 167 41c6 -9 9 -22 9 -32c0 -27 -81 -68 -185 -68l-25 -46c63 -9 100 -42 100 -90c0 -57 -44 -90 -113 -90c-23 0 -49 4 -68 11v26c0 11 4 15 13 15c11 0 30 -6 49 -6c39 0 63 16 63 45c0 34 -31 55 -98 61z" />
    <glyph glyph-name="Ccircumflex" unicode="&#x108;" horiz-adv-x="687" 
d="M637 565c3 -6 4 -11 4 -15c0 -7 -4 -12 -12 -18c-12 -8 -30 -15 -47 -17c-38 87 -114 137 -211 137c-123 0 -241 -99 -241 -277c0 -206 141 -328 311 -328c59 0 119 13 167 41c6 -9 9 -22 9 -32c0 -27 -81 -68 -184 -68c-210 0 -371 149 -371 384c0 218 149 340 312 340
c127 0 220 -62 263 -147zM394 907l124 -120l-23 -25c-4 -4 -8 -7 -13 -7c-6 0 -11 3 -18 10l-97 96l-105 -105c-13 5 -23 11 -29 17c-6 5 -8 10 -8 16c0 4 3 9 7 13l118 115h19c12 0 16 -2 25 -10z" />
    <glyph glyph-name="Cdotaccent" unicode="&#x10a;" horiz-adv-x="687" 
d="M637 565c3 -6 4 -11 4 -15c0 -7 -4 -12 -12 -18c-12 -8 -30 -15 -47 -17c-38 87 -114 137 -211 137c-123 0 -241 -99 -241 -277c0 -206 141 -328 311 -328c59 0 119 13 167 41c6 -9 9 -22 9 -32c0 -27 -81 -68 -184 -68c-210 0 -371 149 -371 384c0 218 149 340 312 340
c127 0 220 -62 263 -147zM409 838c0 -26 -17 -42 -40 -42c-22 0 -43 17 -43 45c0 25 18 41 40 41c23 0 43 -17 43 -44z" />
    <glyph glyph-name="Dcaron" unicode="&#x10e;" horiz-adv-x="723" 
d="M244 59h76c146 0 271 99 271 291s-125 291 -271 291h-152v-473c0 -84 19 -109 76 -109zM324 0h-88c-89 0 -136 41 -136 161v539h224c193 0 336 -133 336 -350s-143 -350 -336 -350zM293 765l-123 118c12 22 25 34 35 34c9 0 17 -8 29 -20l86 -86l109 109l28 -26
c4 -4 6 -7 6 -10c0 -5 -2 -8 -8 -14l-118 -115h-19c-12 0 -16 2 -25 10z" />
    <glyph glyph-name="Dcroat" unicode="&#x110;" horiz-adv-x="723" 
d="M34 373h66v327h224c193 0 336 -133 336 -350s-143 -350 -336 -350h-88c-89 0 -136 41 -136 161v165h-53c-12 0 -17 6 -17 16s2 23 4 31zM244 59h76c146 0 271 99 271 291s-125 291 -271 291h-152v-268h205c14 0 19 -6 19 -24v-23h-224v-158c0 -84 19 -109 76 -109z" />
    <glyph glyph-name="Eacute" unicode="&#xc9;" horiz-adv-x="570" 
d="M513 0h-277c-90 0 -137 41 -137 160v540h390c11 0 16 -7 16 -20s-2 -28 -5 -40h-333v-265h264c15 0 20 -7 20 -24v-35h-284v-149c0 -82 25 -108 76 -108h250c15 0 20 -7 20 -25v-34zM393 880l-133 -113c-5 -4 -9 -6 -14 -6c-4 0 -8 2 -12 6l-21 22l125 120c6 6 12 9 17 9
c6 0 12 -2 17 -7c8 -8 16 -20 21 -31z" />
    <glyph glyph-name="Ebreve" unicode="&#x114;" horiz-adv-x="570" 
d="M513 0h-277c-90 0 -137 41 -137 160v540h390c11 0 16 -7 16 -20s-2 -28 -5 -40h-333v-265h264c15 0 20 -7 20 -24v-35h-284v-149c0 -82 25 -108 76 -108h250c15 0 20 -7 20 -25v-34zM158 895c11 6 27 11 38 11c14 0 17 -4 20 -18c10 -49 39 -75 82 -75c42 0 77 25 85 93
h32c18 0 23 -5 21 -18c-8 -67 -57 -122 -138 -122c-74 0 -129 46 -140 129z" />
    <glyph glyph-name="Ecaron" unicode="&#x11a;" horiz-adv-x="570" 
d="M513 0h-277c-90 0 -137 41 -137 160v540h390c11 0 16 -7 16 -20s-2 -28 -5 -40h-333v-265h264c15 0 20 -7 20 -24v-35h-284v-149c0 -82 25 -108 76 -108h250c15 0 20 -7 20 -25v-34zM274 765l-123 118c12 22 25 34 35 34c9 0 17 -8 29 -20l86 -86l109 109l28 -26
c4 -4 6 -7 6 -10c0 -5 -2 -8 -8 -14l-118 -115h-19c-12 0 -16 2 -25 10z" />
    <glyph glyph-name="Ecircumflex" unicode="&#xca;" horiz-adv-x="570" 
d="M513 0h-277c-90 0 -137 41 -137 160v540h390c11 0 16 -7 16 -20s-2 -28 -5 -40h-333v-265h264c15 0 20 -7 20 -24v-35h-284v-149c0 -82 25 -108 76 -108h250c15 0 20 -7 20 -25v-34zM324 907l124 -120l-23 -25c-4 -4 -8 -7 -13 -7c-6 0 -11 3 -18 10l-97 96l-105 -105
c-13 5 -23 11 -29 17c-6 5 -8 10 -8 16c0 4 3 9 7 13l118 115h19c12 0 16 -2 25 -10z" />
    <glyph glyph-name="Edieresis" unicode="&#xcb;" horiz-adv-x="570" 
d="M513 0h-277c-90 0 -137 41 -137 160v540h390c11 0 16 -7 16 -20s-2 -28 -5 -40h-333v-265h264c15 0 20 -7 20 -24v-35h-284v-149c0 -82 25 -108 76 -108h250c15 0 20 -7 20 -25v-34zM254 838c0 -26 -17 -42 -40 -42c-22 0 -43 17 -43 45c0 25 17 41 40 41s43 -17 43 -44z
M424 838c0 -26 -17 -42 -40 -42c-22 0 -42 17 -42 45c0 25 17 41 39 41c23 0 43 -17 43 -44z" />
    <glyph glyph-name="Edotaccent" unicode="&#x116;" horiz-adv-x="570" 
d="M513 0h-277c-90 0 -137 41 -137 160v540h390c11 0 16 -7 16 -20s-2 -28 -5 -40h-333v-265h264c15 0 20 -7 20 -24v-35h-284v-149c0 -82 25 -108 76 -108h250c15 0 20 -7 20 -25v-34zM338 838c0 -26 -17 -42 -40 -42c-22 0 -43 17 -43 45c0 25 18 41 40 41
c23 0 43 -17 43 -44z" />
    <glyph glyph-name="Egrave" unicode="&#xc8;" horiz-adv-x="570" 
d="M513 0h-277c-90 0 -137 41 -137 160v540h390c11 0 16 -7 16 -20s-2 -28 -5 -40h-333v-265h264c15 0 20 -7 20 -24v-35h-284v-149c0 -82 25 -108 76 -108h250c15 0 20 -7 20 -25v-34zM332 767l-133 113c5 11 13 23 21 31c5 5 11 7 17 7c5 0 11 -3 17 -9l125 -120l-21 -22
c-4 -4 -8 -6 -12 -6c-5 0 -9 2 -14 6z" />
    <glyph glyph-name="Emacron" unicode="&#x112;" horiz-adv-x="570" 
d="M513 0h-277c-90 0 -137 41 -137 160v540h390c11 0 16 -7 16 -20s-2 -28 -5 -40h-333v-265h264c15 0 20 -7 20 -24v-35h-284v-149c0 -82 25 -108 76 -108h250c15 0 20 -7 20 -25v-34zM169 864h244c13 0 18 -5 18 -22v-28h-252c-10 0 -14 7 -14 19c0 11 2 23 4 31z" />
    <glyph glyph-name="Eogonek" unicode="&#x118;" horiz-adv-x="570" 
d="M492 -166c14 5 21 1 21 -14v-26c-18 -10 -45 -14 -68 -14c-71 0 -111 39 -111 97c0 42 25 91 71 123h-169c-90 0 -137 41 -137 160v540h390c11 0 16 -7 16 -20s-2 -28 -5 -40h-333v-265h264c15 0 20 -7 20 -24v-35h-284v-149c0 -82 25 -108 76 -108h250
c15 0 20 -7 20 -25v-34h-47c-54 -38 -76 -81 -76 -118c0 -29 19 -54 63 -54c14 0 28 2 39 6z" />
    <glyph glyph-name="Gbreve" unicode="&#x11e;" horiz-adv-x="749" 
d="M594 517c-38 90 -120 135 -214 135c-130 0 -250 -101 -250 -277c0 -205 140 -328 304 -328c110 0 162 42 162 102v135h-158c-11 0 -16 6 -16 19s2 29 5 40h217c14 0 20 -6 20 -24v-168c0 -101 -87 -163 -232 -163c-209 0 -370 151 -370 384c0 216 150 340 318 340
c127 0 223 -60 269 -145c3 -6 4 -11 4 -15c0 -7 -4 -12 -12 -18c-12 -8 -30 -15 -47 -17zM232 895c11 6 27 11 38 11c14 0 17 -4 20 -18c10 -49 39 -75 82 -75c42 0 77 25 85 93h32c18 0 23 -5 21 -18c-8 -67 -57 -122 -138 -122c-74 0 -129 46 -140 129z" />
    <glyph glyph-name="Gcircumflex" unicode="&#x11c;" horiz-adv-x="749" 
d="M594 517c-38 90 -120 135 -214 135c-130 0 -250 -101 -250 -277c0 -205 140 -328 304 -328c110 0 162 42 162 102v135h-158c-11 0 -16 6 -16 19s2 29 5 40h217c14 0 20 -6 20 -24v-168c0 -101 -87 -163 -232 -163c-209 0 -370 151 -370 384c0 216 150 340 318 340
c127 0 223 -60 269 -145c3 -6 4 -11 4 -15c0 -7 -4 -12 -12 -18c-12 -8 -30 -15 -47 -17zM398 907l124 -120l-23 -25c-4 -4 -8 -7 -13 -7c-6 0 -11 3 -18 10l-97 96l-105 -105c-13 5 -23 11 -29 17c-6 5 -8 10 -8 16c0 4 3 9 7 13l118 115h19c12 0 16 -2 25 -10z" />
    <glyph glyph-name="Gcommaaccent" unicode="&#x122;" horiz-adv-x="749" 
d="M594 517c-38 90 -120 135 -214 135c-130 0 -250 -101 -250 -277c0 -205 140 -328 304 -328c110 0 162 42 162 102v135h-158c-11 0 -16 6 -16 19s2 29 5 40h217c14 0 20 -6 20 -24v-168c0 -101 -87 -163 -232 -163c-209 0 -370 151 -370 384c0 216 150 340 318 340
c127 0 223 -60 269 -145c3 -6 4 -11 4 -15c0 -7 -4 -12 -12 -18c-12 -8 -30 -15 -47 -17zM414 -39c23 0 43 -16 43 -46c0 -42 -15 -83 -41 -112c-20 -24 -41 -35 -46 -32c-5 2 -11 10 -12 17c25 25 44 57 48 87c-19 4 -34 20 -34 44c0 25 19 42 42 42z" />
    <glyph glyph-name="Gdotaccent" unicode="&#x120;" horiz-adv-x="749" 
d="M594 517c-38 90 -120 135 -214 135c-130 0 -250 -101 -250 -277c0 -205 140 -328 304 -328c110 0 162 42 162 102v135h-158c-11 0 -16 6 -16 19s2 29 5 40h217c14 0 20 -6 20 -24v-168c0 -101 -87 -163 -232 -163c-209 0 -370 151 -370 384c0 216 150 340 318 340
c127 0 223 -60 269 -145c3 -6 4 -11 4 -15c0 -7 -4 -12 -12 -18c-12 -8 -30 -15 -47 -17zM413 838c0 -26 -17 -42 -40 -42c-22 0 -43 17 -43 45c0 25 18 41 40 41c23 0 43 -17 43 -44z" />
    <glyph glyph-name="Hcircumflex" unicode="&#x124;" horiz-adv-x="722" 
d="M169 0h-44c-17 0 -24 5 -24 19v678c14 5 31 8 47 8c15 0 21 -6 21 -17v-308h383v320h44c17 0 24 -6 24 -20v-680h-44c-18 0 -24 5 -24 19v302h-383v-321zM387 907l124 -120l-23 -25c-4 -4 -8 -7 -13 -7c-6 0 -11 3 -18 10l-97 96l-105 -105c-13 5 -23 11 -29 17
c-6 5 -8 10 -8 16c0 4 3 9 7 13l118 115h19c12 0 16 -2 25 -10z" />
    <glyph glyph-name="Iacute" unicode="&#xcd;" horiz-adv-x="283" 
d="M175 0h-44c-18 0 -24 5 -24 19v678c14 5 31 8 47 8c15 0 21 -6 21 -17v-688zM270 880l-133 -113c-5 -4 -9 -6 -14 -6c-4 0 -8 2 -12 6l-21 22l125 120c6 6 12 9 17 9c6 0 12 -2 17 -7c8 -8 16 -20 21 -31z" />
    <glyph glyph-name="Ibreve" unicode="&#x12c;" horiz-adv-x="283" 
d="M175 0h-44c-18 0 -24 5 -24 19v678c14 5 31 8 47 8c15 0 21 -6 21 -17v-688zM2 895c11 6 27 11 38 11c14 0 17 -4 20 -18c10 -49 39 -75 82 -75c42 0 77 25 85 93h32c18 0 23 -5 21 -18c-8 -67 -57 -122 -138 -122c-74 0 -129 46 -140 129z" />
    <glyph glyph-name="Icircumflex" unicode="&#xce;" horiz-adv-x="283" 
d="M175 0h-44c-18 0 -24 5 -24 19v678c14 5 31 8 47 8c15 0 21 -6 21 -17v-688zM166 907l124 -120l-23 -25c-4 -4 -8 -7 -13 -7c-6 0 -11 3 -18 10l-97 96l-105 -105c-13 5 -23 11 -29 17c-6 5 -8 10 -8 16c0 4 3 9 7 13l118 115h19c12 0 16 -2 25 -10z" />
    <glyph glyph-name="Idieresis" unicode="&#xcf;" horiz-adv-x="283" 
d="M175 0h-44c-18 0 -24 5 -24 19v678c14 5 31 8 47 8c15 0 21 -6 21 -17v-688zM98 838c0 -26 -17 -42 -40 -42c-22 0 -43 17 -43 45c0 25 17 41 40 41s43 -17 43 -44zM268 838c0 -26 -17 -42 -40 -42c-22 0 -42 17 -42 45c0 25 17 41 39 41c23 0 43 -17 43 -44z" />
    <glyph glyph-name="Idotaccent" unicode="&#x130;" horiz-adv-x="283" 
d="M175 0h-44c-18 0 -24 5 -24 19v678c14 5 31 8 47 8c15 0 21 -6 21 -17v-688zM183 838c0 -26 -17 -42 -40 -42c-22 0 -43 17 -43 45c0 25 18 41 40 41c23 0 43 -17 43 -44z" />
    <glyph glyph-name="Igrave" unicode="&#xcc;" horiz-adv-x="283" 
d="M175 0h-44c-18 0 -24 5 -24 19v678c14 5 31 8 47 8c15 0 21 -6 21 -17v-688zM147 767l-133 113c5 11 13 23 21 31c5 5 11 7 17 7c5 0 11 -3 17 -9l125 -120l-21 -22c-4 -4 -8 -6 -12 -6c-5 0 -9 2 -14 6z" />
    <glyph glyph-name="Imacron" unicode="&#x12a;" horiz-adv-x="283" 
d="M175 0h-44c-18 0 -24 5 -24 19v678c14 5 31 8 47 8c15 0 21 -6 21 -17v-688zM13 864h244c13 0 18 -5 18 -22v-28h-252c-10 0 -14 7 -14 19c0 11 2 23 4 31z" />
    <glyph glyph-name="Iogonek" unicode="&#x12e;" horiz-adv-x="283" 
d="M201 -166c14 5 21 1 21 -14v-26c-18 -10 -45 -14 -68 -14c-71 0 -111 39 -111 97c0 42 25 93 75 126c-7 2 -10 7 -10 17v678c14 4 30 7 47 7c14 0 20 -5 20 -16v-689c-54 -38 -76 -81 -76 -118c0 -29 19 -54 64 -54c13 0 27 2 38 6z" />
    <glyph glyph-name="Itilde" unicode="&#x128;" horiz-adv-x="283" 
d="M175 0h-44c-18 0 -24 5 -24 19v678c14 5 31 8 47 8c15 0 21 -6 21 -17v-688zM0 810c0 8 3 19 5 28c13 37 40 56 77 56c23 0 44 -9 70 -32c23 -20 35 -28 48 -28c19 0 30 11 34 58l36 -8c13 -3 16 -10 13 -24c-8 -48 -37 -76 -81 -76c-23 0 -46 10 -70 32
c-23 22 -36 28 -48 28c-19 0 -30 -12 -34 -57c-15 -1 -29 1 -38 5c-8 3 -12 10 -12 18z" />
    <glyph glyph-name="Jcircumflex" unicode="&#x134;" horiz-adv-x="411" 
d="M136 -12c-57 0 -119 25 -119 46c0 12 4 24 10 32c27 -12 63 -18 99 -18c74 0 119 43 119 134v516c14 4 30 7 47 7c15 0 21 -5 21 -16v-507c0 -121 -59 -194 -177 -194zM301 907l124 -120l-23 -25c-4 -4 -8 -7 -13 -7c-6 0 -11 3 -18 10l-97 96l-105 -105
c-13 5 -23 11 -29 17c-6 5 -8 10 -8 16c0 4 3 9 7 13l118 115h19c12 0 16 -2 25 -10z" />
    <glyph glyph-name="Kcommaaccent" unicode="&#x136;" horiz-adv-x="658" 
d="M585 647c-58 -90 -142 -181 -234 -259c75 -139 161 -267 223 -319c18 -15 32 -22 47 -22h16c2 -7 4 -18 4 -26c0 -16 -21 -33 -51 -33c-22 0 -42 10 -66 31c-71 62 -155 198 -223 330c-43 -34 -88 -66 -132 -93v-256h-44c-17 0 -24 5 -24 19v678c14 5 31 8 47 8
c15 0 21 -6 21 -17v-356c129 85 269 217 373 373c36 -11 50 -22 50 -37c0 -6 -2 -14 -7 -21zM341 -39c23 0 43 -16 43 -46c0 -42 -15 -83 -41 -112c-20 -24 -41 -35 -46 -32c-5 2 -11 10 -12 17c25 25 44 57 48 87c-19 4 -34 20 -34 44c0 25 19 42 42 42z" />
    <glyph glyph-name="Lacute" unicode="&#x139;" horiz-adv-x="545" 
d="M516 0h-280c-90 0 -137 41 -137 160v537c14 5 31 8 47 8c15 0 21 -6 21 -17v-521c0 -82 25 -108 76 -108h254c14 0 19 -7 19 -25v-34zM261 880l-133 -113c-5 -4 -9 -6 -14 -6c-4 0 -8 2 -12 6l-21 22l125 120c6 6 12 9 17 9c6 0 12 -2 17 -7c8 -8 16 -20 21 -31z" />
    <glyph glyph-name="Lcaron" unicode="&#x13d;" horiz-adv-x="545" 
d="M516 0h-280c-90 0 -137 41 -137 160v537c14 5 31 8 47 8c15 0 21 -6 21 -17v-521c0 -82 25 -108 76 -108h254c14 0 19 -7 19 -25v-34zM292 735c24 0 45 -17 45 -51c0 -49 -18 -92 -46 -124c-21 -24 -41 -33 -46 -31c-6 3 -11 11 -13 18c28 27 48 62 52 97
c-19 4 -35 21 -35 47s19 44 43 44z" />
    <glyph glyph-name="Lcommaaccent" unicode="&#x13b;" horiz-adv-x="545" 
d="M516 0h-280c-90 0 -137 41 -137 160v537c14 5 31 8 47 8c15 0 21 -6 21 -17v-521c0 -82 25 -108 76 -108h254c14 0 19 -7 19 -25v-34zM331 -39c23 0 43 -16 43 -46c0 -42 -15 -83 -41 -112c-20 -24 -41 -35 -46 -32c-5 2 -11 10 -12 17c25 25 44 57 48 87
c-19 4 -34 20 -34 44c0 25 19 42 42 42z" />
    <glyph glyph-name="Nacute" unicode="&#x143;" horiz-adv-x="718" 
d="M540 8l-370 583v-591h-44c-18 0 -24 5 -24 20v663c17 13 40 22 53 22c11 0 17 -4 23 -13l370 -583v591h44c18 0 24 -5 24 -20v-663c-17 -13 -40 -22 -53 -22c-11 0 -16 4 -23 13zM464 880l-133 -113c-5 -4 -9 -6 -14 -6c-4 0 -8 2 -12 6l-21 22l125 120c6 6 12 9 17 9
c6 0 12 -2 17 -7c8 -8 16 -20 21 -31z" />
    <glyph glyph-name="Ncaron" unicode="&#x147;" horiz-adv-x="718" 
d="M540 8l-370 583v-591h-44c-18 0 -24 5 -24 20v663c17 13 40 22 53 22c11 0 17 -4 23 -13l370 -583v591h44c18 0 24 -5 24 -20v-663c-17 -13 -40 -22 -53 -22c-11 0 -16 4 -23 13zM333 765l-123 118c12 22 25 34 35 34c9 0 17 -8 29 -20l86 -86l109 109l28 -26
c4 -4 6 -7 6 -10c0 -5 -2 -8 -8 -14l-118 -115h-19c-12 0 -16 2 -25 10z" />
    <glyph glyph-name="Ncommaaccent" unicode="&#x145;" horiz-adv-x="718" 
d="M540 8l-370 583v-591h-44c-18 0 -24 5 -24 20v663c17 13 40 22 53 22c11 0 17 -4 23 -13l370 -583v591h44c18 0 24 -5 24 -20v-663c-17 -13 -40 -22 -53 -22c-11 0 -16 4 -23 13zM364 -39c23 0 43 -16 43 -46c0 -42 -15 -83 -41 -112c-20 -24 -41 -35 -46 -32
c-5 2 -11 10 -12 17c25 25 44 57 48 87c-19 4 -34 20 -34 44c0 25 19 42 42 42z" />
    <glyph glyph-name="Ntilde" unicode="&#xd1;" horiz-adv-x="718" 
d="M540 8l-370 583v-591h-44c-18 0 -24 5 -24 20v663c17 13 40 22 53 22c11 0 17 -4 23 -13l370 -583v591h44c18 0 24 -5 24 -20v-663c-17 -13 -40 -22 -53 -22c-11 0 -16 4 -23 13zM217 810c0 8 3 19 5 28c13 37 40 56 77 56c23 0 44 -9 70 -32c23 -20 35 -28 48 -28
c19 0 30 11 34 58l36 -8c13 -3 16 -10 13 -24c-8 -48 -37 -76 -81 -76c-23 0 -46 10 -70 32c-23 22 -36 28 -48 28c-19 0 -30 -12 -34 -57c-15 -1 -29 1 -38 5c-8 3 -12 10 -12 18z" />
    <glyph glyph-name="Oacute" unicode="&#xd3;" horiz-adv-x="771" 
d="M62 350c0 240 149 362 324 362c174 0 323 -122 323 -362s-149 -362 -323 -362c-175 0 -324 122 -324 362zM132 358c0 -207 119 -310 261 -310c127 0 246 93 246 294c0 207 -118 310 -261 310c-127 0 -246 -93 -246 -294zM486 880l-133 -113c-5 -4 -9 -6 -14 -6
c-4 0 -8 2 -12 6l-21 22l125 120c6 6 12 9 17 9c6 0 12 -2 17 -7c8 -8 16 -20 21 -31z" />
    <glyph glyph-name="Obreve" unicode="&#x14e;" horiz-adv-x="771" 
d="M62 350c0 240 149 362 324 362c174 0 323 -122 323 -362s-149 -362 -323 -362c-175 0 -324 122 -324 362zM132 358c0 -207 119 -310 261 -310c127 0 246 93 246 294c0 207 -118 310 -261 310c-127 0 -246 -93 -246 -294zM245 895c11 6 27 11 38 11c14 0 17 -4 20 -18
c10 -49 39 -75 82 -75c42 0 77 25 85 93h32c18 0 23 -5 21 -18c-8 -67 -57 -122 -138 -122c-74 0 -129 46 -140 129z" />
    <glyph glyph-name="Ocircumflex" unicode="&#xd4;" horiz-adv-x="771" 
d="M62 350c0 240 149 362 324 362c174 0 323 -122 323 -362s-149 -362 -323 -362c-175 0 -324 122 -324 362zM132 358c0 -207 119 -310 261 -310c127 0 246 93 246 294c0 207 -118 310 -261 310c-127 0 -246 -93 -246 -294zM410 907l124 -120l-23 -25c-4 -4 -8 -7 -13 -7
c-6 0 -11 3 -18 10l-97 96l-105 -105c-13 5 -23 11 -29 17c-6 5 -8 10 -8 16c0 4 3 9 7 13l118 115h19c12 0 16 -2 25 -10z" />
    <glyph glyph-name="Odieresis" unicode="&#xd6;" horiz-adv-x="771" 
d="M62 350c0 240 149 362 324 362c174 0 323 -122 323 -362s-149 -362 -323 -362c-175 0 -324 122 -324 362zM132 358c0 -207 119 -310 261 -310c127 0 246 93 246 294c0 207 -118 310 -261 310c-127 0 -246 -93 -246 -294zM341 838c0 -26 -17 -42 -40 -42
c-22 0 -43 17 -43 45c0 25 17 41 40 41s43 -17 43 -44zM511 838c0 -26 -17 -42 -40 -42c-22 0 -42 17 -42 45c0 25 17 41 39 41c23 0 43 -17 43 -44z" />
    <glyph glyph-name="Ograve" unicode="&#xd2;" horiz-adv-x="771" 
d="M62 350c0 240 149 362 324 362c174 0 323 -122 323 -362s-149 -362 -323 -362c-175 0 -324 122 -324 362zM132 358c0 -207 119 -310 261 -310c127 0 246 93 246 294c0 207 -118 310 -261 310c-127 0 -246 -93 -246 -294zM410 767l-133 113c5 11 13 23 21 31
c5 5 11 7 17 7c5 0 11 -3 17 -9l125 -120l-21 -22c-4 -4 -8 -6 -12 -6c-5 0 -9 2 -14 6z" />
    <glyph glyph-name="Ohungarumlaut" unicode="&#x150;" horiz-adv-x="771" 
d="M62 350c0 240 149 362 324 362c174 0 323 -122 323 -362s-149 -362 -323 -362c-175 0 -324 122 -324 362zM132 358c0 -207 119 -310 261 -310c127 0 246 93 246 294c0 207 -118 310 -261 310c-127 0 -246 -93 -246 -294zM412 880l-133 -113c-5 -4 -9 -6 -14 -6
c-4 0 -8 2 -12 6l-21 22l125 120c6 6 12 9 17 9c6 0 12 -2 17 -7c8 -8 16 -20 21 -31zM558 880l-133 -113c-5 -4 -9 -6 -14 -6c-4 0 -8 2 -12 6l-21 22l125 120c6 6 12 9 17 9c6 0 12 -2 17 -7c8 -8 16 -20 21 -31z" />
    <glyph glyph-name="Omacron" unicode="&#x14c;" horiz-adv-x="771" 
d="M62 350c0 240 149 362 324 362c174 0 323 -122 323 -362s-149 -362 -323 -362c-175 0 -324 122 -324 362zM132 358c0 -207 119 -310 261 -310c127 0 246 93 246 294c0 207 -118 310 -261 310c-127 0 -246 -93 -246 -294zM256 864h244c13 0 18 -5 18 -22v-28h-252
c-10 0 -14 7 -14 19c0 11 2 23 4 31z" />
    <glyph glyph-name="Oslashacute" unicode="&#x1fe;" horiz-adv-x="771" 
d="M62 350c0 240 149 362 324 362c84 0 162 -28 220 -85l67 73h36c18 0 23 -11 10 -25l-79 -86c43 -59 69 -139 69 -239c0 -240 -149 -362 -323 -362c-85 0 -163 28 -222 85l-67 -73h-29c-20 0 -28 12 -15 26l78 85c-43 59 -69 138 -69 239zM639 342c0 80 -18 145 -48 194
l-380 -413c47 -50 112 -75 182 -75c127 0 246 93 246 294zM132 358c0 -81 18 -145 48 -194l380 413c-47 50 -112 75 -182 75c-127 0 -246 -93 -246 -294zM486 880l-133 -113c-5 -4 -9 -6 -14 -6c-4 0 -8 2 -12 6l-21 22l125 120c6 6 12 9 17 9c6 0 12 -2 17 -7
c8 -8 16 -20 21 -31z" />
    <glyph glyph-name="Otilde" unicode="&#xd5;" horiz-adv-x="771" 
d="M62 350c0 240 149 362 324 362c174 0 323 -122 323 -362s-149 -362 -323 -362c-175 0 -324 122 -324 362zM132 358c0 -207 119 -310 261 -310c127 0 246 93 246 294c0 207 -118 310 -261 310c-127 0 -246 -93 -246 -294zM243 810c0 8 3 19 5 28c13 37 40 56 77 56
c23 0 44 -9 70 -32c23 -20 35 -28 48 -28c19 0 30 11 34 58l36 -8c13 -3 16 -10 13 -24c-8 -48 -37 -76 -81 -76c-23 0 -46 10 -70 32c-23 22 -36 28 -48 28c-19 0 -30 -12 -34 -57c-15 -1 -29 1 -38 5c-8 3 -12 10 -12 18z" />
    <glyph glyph-name="Racute" unicode="&#x154;" horiz-adv-x="654" 
d="M554 -12c-19 0 -37 7 -57 21c-57 41 -117 124 -164 208c-8 -1 -16 -1 -24 -1c-52 0 -96 6 -140 20v-236h-44c-17 0 -24 5 -24 19v681h198c163 0 272 -89 272 -242c0 -125 -72 -202 -173 -230c49 -78 98 -135 138 -164c18 -13 33 -19 48 -19h14c3 -8 4 -16 4 -24
c0 -17 -19 -33 -48 -33zM169 640v-349c39 -11 81 -16 129 -16c121 0 204 64 204 183c0 122 -85 182 -206 182h-127zM400 880l-133 -113c-5 -4 -9 -6 -14 -6c-4 0 -8 2 -12 6l-21 22l125 120c6 6 12 9 17 9c6 0 12 -2 17 -7c8 -8 16 -20 21 -31z" />
    <glyph glyph-name="Rcaron" unicode="&#x158;" horiz-adv-x="654" 
d="M554 -12c-19 0 -37 7 -57 21c-57 41 -117 124 -164 208c-8 -1 -16 -1 -24 -1c-52 0 -96 6 -140 20v-236h-44c-17 0 -24 5 -24 19v681h198c163 0 272 -89 272 -242c0 -125 -72 -202 -173 -230c49 -78 98 -135 138 -164c18 -13 33 -19 48 -19h14c3 -8 4 -16 4 -24
c0 -17 -19 -33 -48 -33zM169 640v-349c39 -11 81 -16 129 -16c121 0 204 64 204 183c0 122 -85 182 -206 182h-127zM284 765l-123 118c12 22 25 34 35 34c9 0 17 -8 29 -20l86 -86l109 109l28 -26c4 -4 6 -7 6 -10c0 -5 -2 -8 -8 -14l-118 -115h-19c-12 0 -16 2 -25 10z" />
    <glyph glyph-name="Rcommaaccent" unicode="&#x156;" horiz-adv-x="654" 
d="M554 -12c-19 0 -37 7 -57 21c-57 41 -117 124 -164 208c-8 -1 -16 -1 -24 -1c-52 0 -96 6 -140 20v-236h-44c-17 0 -24 5 -24 19v681h198c163 0 272 -89 272 -242c0 -125 -72 -202 -173 -230c49 -78 98 -135 138 -164c18 -13 33 -19 48 -19h14c3 -8 4 -16 4 -24
c0 -17 -19 -33 -48 -33zM169 640v-349c39 -11 81 -16 129 -16c121 0 204 64 204 183c0 122 -85 182 -206 182h-127zM327 -39c23 0 43 -16 43 -46c0 -42 -15 -83 -41 -112c-20 -24 -41 -35 -46 -32c-5 2 -11 10 -12 17c25 25 44 57 48 87c-19 4 -34 20 -34 44
c0 25 19 42 42 42z" />
    <glyph glyph-name="Sacute" unicode="&#x15a;" horiz-adv-x="593" 
d="M289 712c110 0 192 -54 227 -117c5 -9 7 -16 7 -22c0 -7 -4 -13 -13 -18c-13 -7 -32 -11 -46 -12c-31 70 -93 109 -175 109c-90 0 -153 -49 -153 -124c0 -71 48 -113 175 -152c145 -45 219 -100 219 -205c0 -110 -90 -183 -234 -183c-112 0 -201 41 -201 71
c0 10 4 23 10 31c53 -27 118 -43 185 -43c117 0 172 52 172 121c0 71 -54 115 -175 149c-142 39 -220 103 -220 208c0 110 92 187 222 187zM387 880l-133 -113c-5 -4 -9 -6 -14 -6c-4 0 -8 2 -12 6l-21 22l125 120c6 6 12 9 17 9c6 0 12 -2 17 -7c8 -8 16 -20 21 -31z" />
    <glyph glyph-name="Scaron" unicode="&#x160;" horiz-adv-x="593" 
d="M289 712c110 0 192 -54 227 -117c5 -9 7 -16 7 -22c0 -7 -4 -13 -13 -18c-13 -7 -32 -11 -46 -12c-31 70 -93 109 -175 109c-90 0 -153 -49 -153 -124c0 -71 48 -113 175 -152c145 -45 219 -100 219 -205c0 -110 -90 -183 -234 -183c-112 0 -201 41 -201 71
c0 10 4 23 10 31c53 -27 118 -43 185 -43c117 0 172 52 172 121c0 71 -54 115 -175 149c-142 39 -220 103 -220 208c0 110 92 187 222 187zM263 765l-123 118c12 22 25 34 35 34c9 0 17 -8 29 -20l86 -86l109 109l28 -26c4 -4 6 -7 6 -10c0 -5 -2 -8 -8 -14l-118 -115h-19
c-12 0 -16 2 -25 10z" />
    <glyph glyph-name="Scedilla" unicode="&#x15e;" horiz-adv-x="593" 
d="M272 -86c-8 3 -12 7 -12 12c0 2 1 4 2 6l30 56c-110 1 -197 41 -197 71c0 10 4 23 10 31c53 -27 118 -43 185 -43c117 0 172 52 172 121c0 71 -54 115 -175 149c-142 39 -220 103 -220 208c0 110 92 187 222 187c110 0 192 -54 227 -117c5 -9 7 -16 7 -22
c0 -7 -4 -13 -13 -18c-13 -7 -32 -11 -46 -12c-31 70 -93 109 -175 109c-90 0 -153 -49 -153 -124c0 -71 48 -113 175 -152c145 -45 219 -100 219 -205c0 -95 -67 -162 -176 -178l-28 -51c63 -9 100 -42 100 -90c0 -57 -44 -90 -113 -90c-23 0 -49 4 -68 11v26
c0 11 4 15 13 15c11 0 30 -6 49 -6c39 0 63 16 63 45c0 34 -31 55 -98 61z" />
    <glyph glyph-name="Scircumflex" unicode="&#x15c;" horiz-adv-x="593" 
d="M289 712c110 0 192 -54 227 -117c5 -9 7 -16 7 -22c0 -7 -4 -13 -13 -18c-13 -7 -32 -11 -46 -12c-31 70 -93 109 -175 109c-90 0 -153 -49 -153 -124c0 -71 48 -113 175 -152c145 -45 219 -100 219 -205c0 -110 -90 -183 -234 -183c-112 0 -201 41 -201 71
c0 10 4 23 10 31c53 -27 118 -43 185 -43c117 0 172 52 172 121c0 71 -54 115 -175 149c-142 39 -220 103 -220 208c0 110 92 187 222 187zM312 907l124 -120l-23 -25c-4 -4 -8 -7 -13 -7c-6 0 -11 3 -18 10l-97 96l-105 -105c-13 5 -23 11 -29 17c-6 5 -8 10 -8 16
c0 4 3 9 7 13l118 115h19c12 0 16 -2 25 -10z" />
    <glyph glyph-name="Tcaron" unicode="&#x164;" horiz-adv-x="607" 
d="M337 0h-44c-17 0 -24 5 -24 19v621h-208c-11 0 -16 7 -16 20s2 28 5 40h492c14 0 20 -7 20 -25v-35h-225v-640zM276 765l-123 118c12 22 25 34 35 34c9 0 17 -8 29 -20l86 -86l109 109l28 -26c4 -4 6 -7 6 -10c0 -5 -2 -8 -8 -14l-118 -115h-19c-12 0 -16 2 -25 10z" />
    <glyph glyph-name="Tcommaaccent" unicode="&#x162;" horiz-adv-x="607" 
d="M251 -86c-8 3 -12 7 -12 12c0 2 1 4 2 6l38 70c-7 2 -10 8 -10 17v621h-208c-11 0 -16 7 -16 20s2 28 5 40h492c14 0 20 -7 20 -25v-35h-225v-640l-32 -58c63 -9 100 -42 100 -90c0 -57 -44 -90 -113 -90c-23 0 -49 4 -68 11v26c0 11 4 15 13 15c11 0 30 -6 49 -6
c39 0 63 16 63 45c0 34 -31 55 -98 61z" />
    <glyph glyph-name="Uacute" unicode="&#xda;" horiz-adv-x="719" 
d="M96 292v405c14 5 30 8 47 8c14 0 21 -6 21 -17v-401c0 -145 77 -240 195 -240s196 95 196 240v413h44c17 0 24 -6 24 -20v-388c0 -187 -103 -304 -264 -304s-263 117 -263 304zM461 880l-133 -113c-5 -4 -9 -6 -14 -6c-4 0 -8 2 -12 6l-21 22l125 120c6 6 12 9 17 9
c6 0 12 -2 17 -7c8 -8 16 -20 21 -31z" />
    <glyph glyph-name="Ubreve" unicode="&#x16c;" horiz-adv-x="719" 
d="M96 292v405c14 5 30 8 47 8c14 0 21 -6 21 -17v-401c0 -145 77 -240 195 -240s196 95 196 240v413h44c17 0 24 -6 24 -20v-388c0 -187 -103 -304 -264 -304s-263 117 -263 304zM219 895c11 6 27 11 38 11c14 0 17 -4 20 -18c10 -49 39 -75 82 -75c42 0 77 25 85 93h32
c18 0 23 -5 21 -18c-8 -67 -57 -122 -138 -122c-74 0 -129 46 -140 129z" />
    <glyph glyph-name="Ucircumflex" unicode="&#xdb;" horiz-adv-x="719" 
d="M96 292v405c14 5 30 8 47 8c14 0 21 -6 21 -17v-401c0 -145 77 -240 195 -240s196 95 196 240v413h44c17 0 24 -6 24 -20v-388c0 -187 -103 -304 -264 -304s-263 117 -263 304zM383 907l124 -120l-23 -25c-4 -4 -8 -7 -13 -7c-6 0 -11 3 -18 10l-97 96l-105 -105
c-13 5 -23 11 -29 17c-6 5 -8 10 -8 16c0 4 3 9 7 13l118 115h19c12 0 16 -2 25 -10z" />
    <glyph glyph-name="Udieresis" unicode="&#xdc;" horiz-adv-x="719" 
d="M96 292v405c14 5 30 8 47 8c14 0 21 -6 21 -17v-401c0 -145 77 -240 195 -240s196 95 196 240v413h44c17 0 24 -6 24 -20v-388c0 -187 -103 -304 -264 -304s-263 117 -263 304zM315 838c0 -26 -17 -42 -40 -42c-22 0 -43 17 -43 45c0 25 17 41 40 41s43 -17 43 -44z
M485 838c0 -26 -17 -42 -40 -42c-22 0 -42 17 -42 45c0 25 17 41 39 41c23 0 43 -17 43 -44z" />
    <glyph glyph-name="Ugrave" unicode="&#xd9;" horiz-adv-x="719" 
d="M96 292v405c14 5 30 8 47 8c14 0 21 -6 21 -17v-401c0 -145 77 -240 195 -240s196 95 196 240v413h44c17 0 24 -6 24 -20v-388c0 -187 -103 -304 -264 -304s-263 117 -263 304zM384 767l-133 113c5 11 13 23 21 31c5 5 11 7 17 7c5 0 11 -3 17 -9l125 -120l-21 -22
c-4 -4 -8 -6 -12 -6c-5 0 -9 2 -14 6z" />
    <glyph glyph-name="Uhungarumlaut" unicode="&#x170;" horiz-adv-x="719" 
d="M96 292v405c14 5 30 8 47 8c14 0 21 -6 21 -17v-401c0 -145 77 -240 195 -240s196 95 196 240v413h44c17 0 24 -6 24 -20v-388c0 -187 -103 -304 -264 -304s-263 117 -263 304zM413 880l-133 -113c-5 -4 -9 -6 -14 -6c-4 0 -8 2 -12 6l-21 22l125 120c6 6 12 9 17 9
c6 0 12 -2 17 -7c8 -8 16 -20 21 -31zM559 880l-133 -113c-5 -4 -9 -6 -14 -6c-4 0 -8 2 -12 6l-21 22l125 120c6 6 12 9 17 9c6 0 12 -2 17 -7c8 -8 16 -20 21 -31z" />
    <glyph glyph-name="Umacron" unicode="&#x16a;" horiz-adv-x="719" 
d="M96 292v405c14 5 30 8 47 8c14 0 21 -6 21 -17v-401c0 -145 77 -240 195 -240s196 95 196 240v413h44c17 0 24 -6 24 -20v-388c0 -187 -103 -304 -264 -304s-263 117 -263 304zM230 864h244c13 0 18 -5 18 -22v-28h-252c-10 0 -14 7 -14 19c0 11 2 23 4 31z" />
    <glyph glyph-name="Uogonek" unicode="&#x172;" horiz-adv-x="719" 
d="M455 -166c14 5 21 1 21 -14v-26c-18 -10 -45 -14 -68 -14c-71 0 -111 39 -111 97c0 37 19 80 55 111c-157 4 -256 119 -256 304v405c14 5 30 8 47 8c14 0 21 -6 21 -17v-401c0 -145 77 -240 195 -240s196 95 196 240v413h44c17 0 24 -6 24 -20v-388
c0 -162 -78 -271 -203 -297c-48 -37 -67 -78 -67 -113c0 -29 19 -54 63 -54c14 0 28 2 39 6z" />
    <glyph glyph-name="Uring" unicode="&#x16e;" horiz-adv-x="719" 
d="M96 292v405c14 5 30 8 47 8c14 0 21 -6 21 -17v-401c0 -145 77 -240 195 -240s196 95 196 240v413h44c17 0 24 -6 24 -20v-388c0 -187 -103 -304 -264 -304s-263 117 -263 304zM359 928c52 0 93 -38 93 -89s-41 -89 -93 -89c-53 0 -93 38 -93 89s40 89 93 89zM361 788
c27 0 48 20 48 48c0 34 -23 54 -53 54c-27 0 -47 -20 -47 -48c0 -34 22 -54 52 -54z" />
    <glyph glyph-name="Utilde" unicode="&#x168;" horiz-adv-x="719" 
d="M96 292v405c14 5 30 8 47 8c14 0 21 -6 21 -17v-401c0 -145 77 -240 195 -240s196 95 196 240v413h44c17 0 24 -6 24 -20v-388c0 -187 -103 -304 -264 -304s-263 117 -263 304zM217 810c0 8 3 19 5 28c13 37 40 56 77 56c23 0 44 -9 70 -32c23 -20 35 -28 48 -28
c19 0 30 11 34 58l36 -8c13 -3 16 -10 13 -24c-8 -48 -37 -76 -81 -76c-23 0 -46 10 -70 32c-23 22 -36 28 -48 28c-19 0 -30 -12 -34 -57c-15 -1 -29 1 -38 5c-8 3 -12 10 -12 18z" />
    <glyph glyph-name="Wcircumflex" unicode="&#x174;" horiz-adv-x="1108" 
d="M1049 679c-47 -231 -116 -440 -224 -661c-7 -13 -15 -18 -32 -18h-59l-179 614c-43 -198 -112 -408 -202 -596c-6 -13 -15 -18 -32 -18h-57l-213 683c17 13 38 21 52 21c11 0 17 -4 21 -17l185 -606c80 167 147 370 198 619h63c18 0 27 -5 32 -20l177 -598
c87 179 157 389 202 618h47c18 0 24 -7 21 -21zM581 907l124 -120l-23 -25c-4 -4 -8 -7 -13 -7c-6 0 -11 3 -18 10l-97 96l-105 -105c-13 5 -23 11 -29 17c-6 5 -8 10 -8 16c0 4 3 9 7 13l118 115h19c12 0 16 -2 25 -10z" />
    <glyph glyph-name="Yacute" unicode="&#xdd;" horiz-adv-x="656" 
d="M289 19v215l-249 439c20 20 38 30 52 30c9 0 14 -3 18 -10l216 -389c87 111 169 249 222 396h44c14 0 23 -5 23 -14c0 -5 -1 -9 -3 -15c-58 -152 -148 -304 -255 -434v-237h-44c-18 0 -24 5 -24 19zM438 880l-133 -113c-5 -4 -9 -6 -14 -6c-4 0 -8 2 -12 6l-21 22
l125 120c6 6 12 9 17 9c6 0 12 -2 17 -7c8 -8 16 -20 21 -31z" />
    <glyph glyph-name="Ycircumflex" unicode="&#x176;" horiz-adv-x="658" 
d="M290 19v215l-249 439c20 20 38 30 52 30c9 0 14 -3 18 -10l216 -389c87 111 169 249 222 396h44c14 0 23 -5 23 -14c0 -5 -1 -9 -3 -15c-58 -152 -148 -304 -255 -434v-237h-44c-18 0 -24 5 -24 19zM358 907l124 -120l-23 -25c-4 -4 -8 -7 -13 -7c-6 0 -11 3 -18 10
l-97 96l-105 -105c-13 5 -23 11 -29 17c-6 5 -8 10 -8 16c0 4 3 9 7 13l118 115h19c12 0 16 -2 25 -10z" />
    <glyph glyph-name="Ydieresis" unicode="&#x178;" horiz-adv-x="656" 
d="M289 19v215l-249 439c20 20 38 30 52 30c9 0 14 -3 18 -10l216 -389c87 111 169 249 222 396h44c14 0 23 -5 23 -14c0 -5 -1 -9 -3 -15c-58 -152 -148 -304 -255 -434v-237h-44c-18 0 -24 5 -24 19zM283 838c0 -26 -17 -42 -40 -42c-22 0 -43 17 -43 45c0 25 17 41 40 41
s43 -17 43 -44zM453 838c0 -26 -17 -42 -40 -42c-22 0 -42 17 -42 45c0 25 17 41 39 41c23 0 43 -17 43 -44z" />
    <glyph glyph-name="Zacute" unicode="&#x179;" horiz-adv-x="606" 
d="M541 652l-393 -593h381c14 0 20 -7 20 -25v-34h-449c-12 0 -20 3 -26 12c-5 8 -10 23 -12 36l393 592h-361c-11 0 -17 7 -17 20s3 28 6 40h420c12 0 20 -3 26 -12c5 -8 10 -23 12 -36zM412 880l-133 -113c-5 -4 -9 -6 -14 -6c-4 0 -8 2 -12 6l-21 22l125 120
c6 6 12 9 17 9c6 0 12 -2 17 -7c8 -8 16 -20 21 -31z" />
    <glyph glyph-name="Zcaron" unicode="&#x17d;" horiz-adv-x="606" 
d="M541 652l-393 -593h381c14 0 20 -7 20 -25v-34h-449c-12 0 -20 3 -26 12c-5 8 -10 23 -12 36l393 592h-361c-11 0 -17 7 -17 20s3 28 6 40h420c12 0 20 -3 26 -12c5 -8 10 -23 12 -36zM280 765l-123 118c12 22 25 34 35 34c9 0 17 -8 29 -20l86 -86l109 109l28 -26
c4 -4 6 -7 6 -10c0 -5 -2 -8 -8 -14l-118 -115h-19c-12 0 -16 2 -25 10z" />
    <glyph glyph-name="Zdotaccent" unicode="&#x17b;" horiz-adv-x="606" 
d="M541 652l-393 -593h381c14 0 20 -7 20 -25v-34h-449c-12 0 -20 3 -26 12c-5 8 -10 23 -12 36l393 592h-361c-11 0 -17 7 -17 20s3 28 6 40h420c12 0 20 -3 26 -12c5 -8 10 -23 12 -36zM340 838c0 -26 -17 -42 -40 -42c-22 0 -43 17 -43 45c0 25 18 41 40 41
c23 0 43 -17 43 -44z" />
    <glyph glyph-name="aacute" unicode="&#xe1;" horiz-adv-x="595" 
d="M248 45c69 0 137 34 180 111v85c-42 19 -106 30 -157 30c-94 0 -149 -44 -149 -113c0 -73 58 -113 126 -113zM531 47h18c2 -7 4 -15 4 -24c0 -14 -19 -30 -48 -30c-41 0 -72 33 -76 91c-38 -58 -104 -96 -190 -96c-111 0 -183 69 -183 168c0 109 83 173 209 173
c57 0 116 -13 163 -36v55c0 96 -66 140 -167 140c-56 0 -108 -11 -150 -34c-6 7 -10 20 -10 30c0 24 75 62 174 62c132 0 218 -68 218 -202v-241c0 -42 14 -56 38 -56zM383 706l-133 -113c-5 -4 -9 -6 -14 -6c-4 0 -8 2 -12 6l-21 22l125 120c6 6 12 9 17 9c6 0 12 -2 17 -7
c8 -8 16 -20 21 -31z" />
    <glyph glyph-name="abreve" unicode="&#x103;" horiz-adv-x="595" 
d="M248 45c69 0 137 34 180 111v85c-42 19 -106 30 -157 30c-94 0 -149 -44 -149 -113c0 -73 58 -113 126 -113zM531 47h18c2 -7 4 -15 4 -24c0 -14 -19 -30 -48 -30c-41 0 -72 33 -76 91c-38 -58 -104 -96 -190 -96c-111 0 -183 69 -183 168c0 109 83 173 209 173
c57 0 116 -13 163 -36v55c0 96 -66 140 -167 140c-56 0 -108 -11 -150 -34c-6 7 -10 20 -10 30c0 24 75 62 174 62c132 0 218 -68 218 -202v-241c0 -42 14 -56 38 -56zM152 720c11 6 27 11 38 11c14 0 17 -4 20 -18c10 -49 39 -75 82 -75c42 0 77 25 85 93h32
c18 0 23 -5 21 -18c-8 -67 -57 -122 -138 -122c-74 0 -129 46 -140 129z" />
    <glyph glyph-name="acircumflex" unicode="&#xe2;" horiz-adv-x="595" 
d="M248 45c69 0 137 34 180 111v85c-42 19 -106 30 -157 30c-94 0 -149 -44 -149 -113c0 -73 58 -113 126 -113zM531 47h18c2 -7 4 -15 4 -24c0 -14 -19 -30 -48 -30c-41 0 -72 33 -76 91c-38 -58 -104 -96 -190 -96c-111 0 -183 69 -183 168c0 109 83 173 209 173
c57 0 116 -13 163 -36v55c0 96 -66 140 -167 140c-56 0 -108 -11 -150 -34c-6 7 -10 20 -10 30c0 24 75 62 174 62c132 0 218 -68 218 -202v-241c0 -42 14 -56 38 -56zM318 733l124 -120l-23 -25c-4 -4 -8 -7 -13 -7c-6 0 -11 3 -18 10l-97 96l-105 -105
c-13 5 -23 11 -29 17c-6 5 -8 10 -8 16c0 4 3 9 7 13l118 115h19c12 0 16 -2 25 -10z" />
    <glyph glyph-name="acutecomb" unicode="&#x301;" horiz-adv-x="0" 
d="M-163 686l-133 -113c-5 -4 -9 -6 -14 -6c-4 0 -8 2 -12 6l-21 22l125 120c6 6 12 9 17 9c6 0 12 -2 17 -7c8 -8 16 -20 21 -31z" />
    <glyph glyph-name="adieresis" unicode="&#xe4;" horiz-adv-x="595" 
d="M248 45c69 0 137 34 180 111v85c-42 19 -106 30 -157 30c-94 0 -149 -44 -149 -113c0 -73 58 -113 126 -113zM531 47h18c2 -7 4 -15 4 -24c0 -14 -19 -30 -48 -30c-41 0 -72 33 -76 91c-38 -58 -104 -96 -190 -96c-111 0 -183 69 -183 168c0 109 83 173 209 173
c57 0 116 -13 163 -36v55c0 96 -66 140 -167 140c-56 0 -108 -11 -150 -34c-6 7 -10 20 -10 30c0 24 75 62 174 62c132 0 218 -68 218 -202v-241c0 -42 14 -56 38 -56zM248 664c0 -26 -17 -42 -40 -42c-22 0 -43 17 -43 45c0 25 17 41 40 41s43 -17 43 -44zM418 664
c0 -26 -17 -42 -40 -42c-22 0 -42 17 -42 45c0 25 17 41 39 41c23 0 43 -17 43 -44z" />
    <glyph glyph-name="aeacute" unicode="&#x1fd;" horiz-adv-x="944" 
d="M698 46c46 0 95 10 134 32c6 -8 10 -21 10 -30c0 -23 -62 -60 -153 -60c-95 0 -175 47 -221 124c-49 -78 -126 -124 -221 -124c-121 0 -191 71 -191 167c0 109 83 174 209 174c57 0 116 -14 163 -38v57c0 96 -66 140 -167 140c-56 0 -108 -11 -150 -34
c-6 7 -10 20 -10 30c0 24 75 62 174 62c97 0 173 -41 200 -119c41 74 122 119 208 119c124 0 210 -83 210 -198c0 -67 -20 -109 -72 -109h-327c11 -124 101 -193 204 -193zM248 45c69 0 144 35 188 124c-5 22 -7 44 -8 69c-42 22 -106 33 -157 33c-94 0 -149 -46 -149 -115
c0 -71 58 -111 126 -111zM680 488c-95 0 -177 -74 -186 -192h324c7 14 10 32 10 50c0 85 -59 142 -148 142zM573 706l-133 -113c-5 -4 -9 -6 -14 -6c-4 0 -8 2 -12 6l-21 22l125 120c6 6 12 9 17 9c6 0 12 -2 17 -7c8 -8 16 -20 21 -31z" />
    <glyph glyph-name="agrave" unicode="&#xe0;" horiz-adv-x="595" 
d="M248 45c69 0 137 34 180 111v85c-42 19 -106 30 -157 30c-94 0 -149 -44 -149 -113c0 -73 58 -113 126 -113zM531 47h18c2 -7 4 -15 4 -24c0 -14 -19 -30 -48 -30c-41 0 -72 33 -76 91c-38 -58 -104 -96 -190 -96c-111 0 -183 69 -183 168c0 109 83 173 209 173
c57 0 116 -13 163 -36v55c0 96 -66 140 -167 140c-56 0 -108 -11 -150 -34c-6 7 -10 20 -10 30c0 24 75 62 174 62c132 0 218 -68 218 -202v-241c0 -42 14 -56 38 -56zM326 593l-133 113c5 11 13 23 21 31c5 5 11 7 17 7c5 0 11 -3 17 -9l125 -120l-21 -22
c-4 -4 -8 -6 -12 -6c-5 0 -9 2 -14 6z" />
    <glyph glyph-name="amacron" unicode="&#x101;" horiz-adv-x="595" 
d="M248 45c69 0 137 34 180 111v85c-42 19 -106 30 -157 30c-94 0 -149 -44 -149 -113c0 -73 58 -113 126 -113zM531 47h18c2 -7 4 -15 4 -24c0 -14 -19 -30 -48 -30c-41 0 -72 33 -76 91c-38 -58 -104 -96 -190 -96c-111 0 -183 69 -183 168c0 109 83 173 209 173
c57 0 116 -13 163 -36v55c0 96 -66 140 -167 140c-56 0 -108 -11 -150 -34c-6 7 -10 20 -10 30c0 24 75 62 174 62c132 0 218 -68 218 -202v-241c0 -42 14 -56 38 -56zM163 689h244c13 0 18 -5 18 -22v-28h-252c-10 0 -14 7 -14 19c0 11 2 23 4 31z" />
    <glyph glyph-name="aogonek" unicode="&#x105;" horiz-adv-x="588" 
d="M538 -166c14 5 21 1 21 -14v-26c-18 -10 -45 -14 -68 -14c-71 0 -111 39 -111 97c0 56 36 102 82 131c-18 15 -31 40 -33 76c-38 -58 -104 -96 -190 -96c-111 0 -183 69 -183 168c0 109 83 173 209 173c57 0 116 -13 163 -36v55c0 96 -66 140 -167 140
c-56 0 -108 -11 -150 -34c-6 7 -10 20 -10 30c0 24 75 62 174 62c132 0 218 -68 218 -202v-241c0 -42 14 -56 38 -56h18c2 -7 4 -15 4 -24c0 -14 -19 -30 -48 -30h-3c-47 -36 -66 -76 -66 -111c0 -29 19 -54 63 -54c14 0 28 2 39 6zM248 45c69 0 137 34 180 111v85
c-42 19 -106 30 -157 30c-94 0 -149 -44 -149 -113c0 -73 58 -113 126 -113z" />
    <glyph glyph-name="approxequal" unicode="&#x2248;" horiz-adv-x="659" 
d="M570 274c-16 -78 -71 -117 -134 -117c-42 0 -79 15 -119 47c-42 34 -66 45 -93 45c-34 0 -64 -25 -76 -92c-19 -1 -38 2 -50 9c-8 5 -11 10 -11 18c0 3 1 9 2 12c19 73 70 110 133 110c42 0 79 -15 119 -47c42 -34 66 -45 93 -45c34 0 64 25 76 92l48 -10
c11 -2 15 -8 12 -22zM570 474c-16 -78 -71 -117 -134 -117c-42 0 -79 15 -119 47c-42 34 -66 45 -93 45c-34 0 -64 -25 -76 -92c-19 -1 -38 2 -50 9c-8 5 -11 10 -11 18c0 3 1 9 2 12c19 73 70 110 133 110c42 0 79 -15 119 -47c42 -34 66 -45 93 -45c34 0 64 25 76 92
l48 -10c11 -2 15 -8 12 -22z" />
    <glyph glyph-name="aring" unicode="&#xe5;" horiz-adv-x="595" 
d="M248 45c69 0 137 34 180 111v85c-42 19 -106 30 -157 30c-94 0 -149 -44 -149 -113c0 -73 58 -113 126 -113zM531 47h18c2 -7 4 -15 4 -24c0 -14 -19 -30 -48 -30c-41 0 -72 33 -76 91c-38 -58 -104 -96 -190 -96c-111 0 -183 69 -183 168c0 109 83 173 209 173
c57 0 116 -13 163 -36v55c0 96 -66 140 -167 140c-56 0 -108 -11 -150 -34c-6 7 -10 20 -10 30c0 24 75 62 174 62c132 0 218 -68 218 -202v-241c0 -42 14 -56 38 -56zM286 754c52 0 93 -38 93 -89s-41 -89 -93 -89c-53 0 -93 38 -93 89s40 89 93 89zM288 614
c27 0 48 20 48 48c0 34 -23 54 -53 54c-27 0 -47 -20 -47 -48c0 -34 22 -54 52 -54z" />
    <glyph glyph-name="aringacute" unicode="&#x1fb;" horiz-adv-x="595" 
d="M363 859l-103 -85c-4 -3 -8 -4 -11 -4c-4 0 -7 2 -10 5l-20 21l93 90c6 6 12 8 17 8s10 -3 13 -6c7 -6 14 -16 21 -29zM248 45c69 0 137 34 180 111v85c-42 19 -106 30 -157 30c-94 0 -149 -44 -149 -113c0 -73 58 -113 126 -113zM531 47h18c2 -7 4 -15 4 -24
c0 -14 -19 -30 -48 -30c-41 0 -72 33 -76 91c-38 -58 -104 -96 -190 -96c-111 0 -183 69 -183 168c0 109 83 173 209 173c57 0 116 -13 163 -36v55c0 96 -66 140 -167 140c-56 0 -108 -11 -150 -34c-6 7 -10 20 -10 30c0 24 75 62 174 62c132 0 218 -68 218 -202v-241
c0 -42 14 -56 38 -56zM286 754c53 0 93 -39 93 -89c0 -51 -40 -89 -93 -89c-52 0 -93 38 -93 89c0 50 41 89 93 89zM289 614c26 0 47 20 47 48c0 33 -22 53 -52 53c-27 0 -48 -20 -48 -48c0 -33 23 -53 53 -53z" />
    <glyph glyph-name="arrowupdnbse" unicode="&#x21a8;" horiz-adv-x="800" 
d="M371 187v333h-85l108 196c2 3 3 4 5 4s3 -1 5 -4l108 -196h-86v-333h86l-103 -187h80c14 0 20 -6 20 -24v-29h-204c-10 0 -15 6 -15 17c0 12 2 26 5 36h94l-103 187h85z" />
    <glyph glyph-name="atilde" unicode="&#xe3;" horiz-adv-x="595" 
d="M248 45c69 0 137 34 180 111v85c-42 19 -106 30 -157 30c-94 0 -149 -44 -149 -113c0 -73 58 -113 126 -113zM531 47h18c2 -7 4 -15 4 -24c0 -14 -19 -30 -48 -30c-41 0 -72 33 -76 91c-38 -58 -104 -96 -190 -96c-111 0 -183 69 -183 168c0 109 83 173 209 173
c57 0 116 -13 163 -36v55c0 96 -66 140 -167 140c-56 0 -108 -11 -150 -34c-6 7 -10 20 -10 30c0 24 75 62 174 62c132 0 218 -68 218 -202v-241c0 -42 14 -56 38 -56zM149 635c0 8 3 19 5 28c13 37 40 56 77 56c23 0 44 -9 70 -32c23 -20 35 -28 48 -28c19 0 30 11 34 58
l36 -8c13 -3 16 -10 13 -24c-8 -48 -37 -76 -81 -76c-23 0 -46 10 -70 32c-23 22 -36 28 -48 28c-19 0 -30 -12 -34 -57c-15 -1 -29 1 -38 5c-8 3 -12 10 -12 18z" />
    <glyph glyph-name="brokenbar" unicode="&#xa6;" horiz-adv-x="309" 
d="M184 365h-36c-18 0 -24 5 -24 19v319c11 4 26 6 39 6c15 0 21 -6 21 -17v-327zM184 -140h-36c-18 0 -24 6 -24 20v318c11 4 26 6 39 6c15 0 21 -6 21 -17v-327z" />
    <glyph glyph-name="bullet" unicode="&#x2022;" horiz-adv-x="406" 
d="M205 240c-48 0 -92 36 -92 96c0 54 36 88 87 88c48 0 92 -36 92 -96c0 -54 -35 -88 -87 -88z" />
    <glyph glyph-name="cacute" unicode="&#x107;" horiz-adv-x="551" 
d="M506 437c3 -6 4 -11 4 -15c0 -8 -4 -14 -12 -19c-12 -8 -29 -13 -45 -15c-22 58 -70 100 -147 100c-102 0 -183 -77 -183 -203c0 -160 119 -240 230 -240c49 0 93 10 132 32c6 -9 10 -21 10 -30c0 -24 -66 -59 -153 -59c-144 0 -286 107 -286 296c0 164 113 262 252 262
c96 0 168 -50 198 -109zM389 706l-133 -113c-5 -4 -9 -6 -14 -6c-4 0 -8 2 -12 6l-21 22l125 120c6 6 12 9 17 9c6 0 12 -2 17 -7c8 -8 16 -20 21 -31z" />
    <glyph glyph-name="ccaron" unicode="&#x10d;" horiz-adv-x="551" 
d="M506 437c3 -6 4 -11 4 -15c0 -8 -4 -14 -12 -19c-12 -8 -29 -13 -45 -15c-22 58 -70 100 -147 100c-102 0 -183 -77 -183 -203c0 -160 119 -240 230 -240c49 0 93 10 132 32c6 -9 10 -21 10 -30c0 -24 -66 -59 -153 -59c-144 0 -286 107 -286 296c0 164 113 262 252 262
c96 0 168 -50 198 -109zM270 591l-123 118c12 22 25 34 35 34c9 0 17 -8 29 -20l86 -86l109 109l28 -26c4 -4 6 -7 6 -10c0 -5 -2 -8 -8 -14l-118 -115h-19c-12 0 -16 2 -25 10z" />
    <glyph glyph-name="ccedilla" unicode="&#xe7;" horiz-adv-x="551" 
d="M269 -86c-8 3 -12 7 -12 12c0 2 1 4 2 6l33 61c-125 21 -236 124 -236 291c0 164 113 262 252 262c96 0 168 -50 198 -109c3 -6 4 -11 4 -15c0 -8 -4 -14 -12 -19c-12 -8 -29 -13 -45 -15c-22 58 -70 100 -147 100c-102 0 -183 -77 -183 -203c0 -160 119 -240 230 -240
c49 0 93 10 132 32c6 -9 10 -21 10 -30c0 -24 -63 -57 -147 -59l-25 -46c63 -9 100 -42 100 -90c0 -57 -44 -90 -113 -90c-23 0 -49 4 -68 11v26c0 11 4 15 13 15c11 0 30 -6 49 -6c39 0 63 16 63 45c0 34 -31 55 -98 61z" />
    <glyph glyph-name="ccircumflex" unicode="&#x109;" horiz-adv-x="551" 
d="M506 437c3 -6 4 -11 4 -15c0 -8 -4 -14 -12 -19c-12 -8 -29 -13 -45 -15c-22 58 -70 100 -147 100c-102 0 -183 -77 -183 -203c0 -160 119 -240 230 -240c49 0 93 10 132 32c6 -9 10 -21 10 -30c0 -24 -66 -59 -153 -59c-144 0 -286 107 -286 296c0 164 113 262 252 262
c96 0 168 -50 198 -109zM318 733l124 -120l-23 -25c-4 -4 -8 -7 -13 -7c-6 0 -11 3 -18 10l-97 96l-105 -105c-13 5 -23 11 -29 17c-6 5 -8 10 -8 16c0 4 3 9 7 13l118 115h19c12 0 16 -2 25 -10z" />
    <glyph glyph-name="cdotaccent" unicode="&#x10b;" horiz-adv-x="551" 
d="M506 437c3 -6 4 -11 4 -15c0 -8 -4 -14 -12 -19c-12 -8 -29 -13 -45 -15c-22 58 -70 100 -147 100c-102 0 -183 -77 -183 -203c0 -160 119 -240 230 -240c49 0 93 10 132 32c6 -9 10 -21 10 -30c0 -24 -66 -59 -153 -59c-144 0 -286 107 -286 296c0 164 113 262 252 262
c96 0 168 -50 198 -109zM338 664c0 -26 -17 -42 -40 -42c-22 0 -43 17 -43 45c0 25 18 41 40 41c23 0 43 -17 43 -44z" />
    <glyph glyph-name="cent" unicode="&#xa2;" horiz-adv-x="551" 
d="M506 437c3 -6 4 -11 4 -15c0 -8 -4 -14 -12 -19c-12 -8 -29 -13 -45 -15c-22 58 -70 100 -147 100c-102 0 -183 -77 -183 -203c0 -160 119 -240 230 -240c49 0 93 10 132 32c6 -9 10 -21 10 -30c0 -24 -66 -59 -153 -59h-4v-100h-39c-17 0 -24 6 -24 20v88
c-118 27 -219 128 -219 288c0 149 93 243 214 259v100c12 4 26 7 42 7c14 0 20 -6 20 -17v-88c84 -8 146 -54 174 -108z" />
    <glyph glyph-name="circumflex" unicode="&#x2c6;" horiz-adv-x="413" 
d="M233 713l124 -120l-23 -25c-4 -4 -8 -7 -13 -7c-6 0 -11 3 -18 10l-97 96l-105 -105c-13 5 -23 11 -29 17c-6 5 -8 10 -8 16c0 4 3 9 7 13l118 115h19c12 0 16 -2 25 -10z" />
    <glyph glyph-name="colonmonetary" unicode="&#x20a1;" horiz-adv-x="687" 
d="M528 773l-20 -88c59 -26 103 -69 129 -120c3 -6 4 -11 4 -15c0 -7 -4 -12 -12 -18c-12 -8 -30 -15 -47 -17c-20 45 -51 81 -89 104l-129 -564c25 -5 50 -8 77 -8c59 0 119 13 167 41c6 -9 9 -22 9 -32c0 -27 -81 -68 -184 -68c-29 0 -56 3 -82 8l-19 -84h-25
c-9 0 -18 5 -15 19l17 76c-25 8 -48 18 -70 30l-28 -125h-25c-9 0 -18 5 -15 19l30 132c-86 66 -139 173 -139 309c0 206 133 326 285 339l18 77h29c10 0 15 -5 13 -15l-14 -62c26 -1 50 -5 73 -11l20 88h29c10 0 15 -5 13 -15zM130 375c0 -101 34 -181 88 -237l115 511
c-108 -18 -203 -115 -203 -274zM255 105c21 -15 43 -27 68 -37l129 571c-23 8 -47 12 -73 13z" />
    <glyph glyph-name="copyright" unicode="&#xa9;" horiz-adv-x="824" 
d="M774 350c0 -200 -162 -362 -362 -362s-362 162 -362 362s162 362 362 362s362 -162 362 -362zM730 350c0 177 -142 321 -318 321s-318 -144 -318 -321c0 -178 142 -321 318 -321s318 143 318 321zM539 222c4 -7 7 -15 7 -24c0 -17 -50 -41 -109 -41
c-103 0 -195 80 -195 205c0 109 73 181 173 181c63 0 111 -28 135 -68c3 -5 5 -11 5 -15c0 -5 -4 -10 -9 -13c-10 -7 -23 -11 -35 -13c-17 40 -51 63 -98 63c-67 0 -116 -50 -116 -134c0 -98 67 -160 157 -160c30 0 63 7 85 19z" />
    <glyph glyph-name="dcaron" unicode="&#x10f;" horiz-adv-x="725" 
d="M320 546c62 0 119 -19 161 -58v242h42c17 0 24 -6 24 -20v-607c0 -42 14 -56 38 -56h18c2 -7 4 -15 4 -24c0 -14 -19 -30 -48 -30c-41 0 -77 37 -78 106c-36 -64 -107 -111 -198 -111c-130 0 -227 96 -227 257c0 170 113 301 264 301zM295 45c73 0 146 50 186 151v227
c-44 44 -98 65 -154 65c-117 0 -204 -105 -204 -242c0 -128 70 -201 172 -201zM671 735c24 0 45 -17 45 -51c0 -49 -18 -92 -46 -124c-21 -24 -41 -33 -46 -31c-6 3 -11 11 -13 18c28 27 48 62 52 97c-19 4 -35 21 -35 47s19 44 43 44z" />
    <glyph glyph-name="dong" unicode="&#x20ab;" horiz-adv-x="643" 
d="M295 45c73 0 145 48 186 151v187c-44 44 -96 65 -154 65c-112 0 -204 -95 -204 -222c0 -116 76 -181 172 -181zM555 -150h-397c-11 0 -16 6 -16 19c0 12 2 25 5 33h388c14 0 20 -6 20 -24v-28zM481 102c-38 -63 -104 -114 -195 -114c-126 0 -230 88 -230 237
c0 160 117 281 264 281c64 0 120 -22 161 -59v134h-178c-11 0 -16 5 -16 16c0 10 1 23 4 31h190v72h42c17 0 24 -6 24 -20v-52h42c15 0 20 -7 20 -24v-23h-62v-478c0 -42 14 -56 38 -56h18c2 -7 4 -15 4 -24c0 -14 -19 -30 -48 -30c-41 0 -76 36 -78 109z" />
    <glyph glyph-name="eacute" unicode="&#xe9;" horiz-adv-x="574" 
d="M328 46c46 0 95 10 134 32c6 -8 10 -21 10 -30c0 -23 -62 -60 -153 -60c-150 0 -262 115 -262 282c0 170 120 276 256 276c124 0 210 -83 210 -197c0 -25 -5 -52 -13 -73c-12 -29 -27 -37 -59 -37h-327c11 -124 101 -193 204 -193zM309 488c-94 0 -177 -74 -185 -192h324
c6 14 10 32 10 51c0 85 -59 141 -149 141zM386 706l-133 -113c-5 -4 -9 -6 -14 -6c-4 0 -8 2 -12 6l-21 22l125 120c6 6 12 9 17 9c6 0 12 -2 17 -7c8 -8 16 -20 21 -31z" />
    <glyph glyph-name="ebreve" unicode="&#x115;" horiz-adv-x="574" 
d="M328 46c46 0 95 10 134 32c6 -8 10 -21 10 -30c0 -23 -62 -60 -153 -60c-150 0 -262 115 -262 282c0 170 120 276 256 276c124 0 210 -83 210 -197c0 -25 -5 -52 -13 -73c-12 -29 -27 -37 -59 -37h-327c11 -124 101 -193 204 -193zM309 488c-94 0 -177 -74 -185 -192h324
c6 14 10 32 10 51c0 85 -59 141 -149 141zM166 720c11 6 27 11 38 11c14 0 17 -4 20 -18c10 -49 39 -75 82 -75c42 0 77 25 85 93h32c18 0 23 -5 21 -18c-8 -67 -57 -122 -138 -122c-74 0 -129 46 -140 129z" />
    <glyph glyph-name="ecaron" unicode="&#x11b;" horiz-adv-x="574" 
d="M328 46c46 0 95 10 134 32c6 -8 10 -21 10 -30c0 -23 -62 -60 -153 -60c-150 0 -262 115 -262 282c0 170 120 276 256 276c124 0 210 -83 210 -197c0 -25 -5 -52 -13 -73c-12 -29 -27 -37 -59 -37h-327c11 -124 101 -193 204 -193zM309 488c-94 0 -177 -74 -185 -192h324
c6 14 10 32 10 51c0 85 -59 141 -149 141zM278 591l-123 118c12 22 25 34 35 34c9 0 17 -8 29 -20l86 -86l109 109l28 -26c4 -4 6 -7 6 -10c0 -5 -2 -8 -8 -14l-118 -115h-19c-12 0 -16 2 -25 10z" />
    <glyph glyph-name="ecircumflex" unicode="&#xea;" horiz-adv-x="574" 
d="M328 46c46 0 95 10 134 32c6 -8 10 -21 10 -30c0 -23 -62 -60 -153 -60c-150 0 -262 115 -262 282c0 170 120 276 256 276c124 0 210 -83 210 -197c0 -25 -5 -52 -13 -73c-12 -29 -27 -37 -59 -37h-327c11 -124 101 -193 204 -193zM309 488c-94 0 -177 -74 -185 -192h324
c6 14 10 32 10 51c0 85 -59 141 -149 141zM326 733l124 -120l-23 -25c-4 -4 -8 -7 -13 -7c-6 0 -11 3 -18 10l-97 96l-105 -105c-13 5 -23 11 -29 17c-6 5 -8 10 -8 16c0 4 3 9 7 13l118 115h19c12 0 16 -2 25 -10z" />
    <glyph glyph-name="edieresis" unicode="&#xeb;" horiz-adv-x="574" 
d="M328 46c46 0 95 10 134 32c6 -8 10 -21 10 -30c0 -23 -62 -60 -153 -60c-150 0 -262 115 -262 282c0 170 120 276 256 276c124 0 210 -83 210 -197c0 -25 -5 -52 -13 -73c-12 -29 -27 -37 -59 -37h-327c11 -124 101 -193 204 -193zM309 488c-94 0 -177 -74 -185 -192h324
c6 14 10 32 10 51c0 85 -59 141 -149 141zM258 664c0 -26 -17 -42 -40 -42c-22 0 -43 17 -43 45c0 25 17 41 40 41s43 -17 43 -44zM428 664c0 -26 -17 -42 -40 -42c-22 0 -42 17 -42 45c0 25 17 41 39 41c23 0 43 -17 43 -44z" />
    <glyph glyph-name="edotaccent" unicode="&#x117;" horiz-adv-x="574" 
d="M328 46c46 0 95 10 134 32c6 -8 10 -21 10 -30c0 -23 -62 -60 -153 -60c-150 0 -262 115 -262 282c0 170 120 276 256 276c124 0 210 -83 210 -197c0 -25 -5 -52 -13 -73c-12 -29 -27 -37 -59 -37h-327c11 -124 101 -193 204 -193zM309 488c-94 0 -177 -74 -185 -192h324
c6 14 10 32 10 51c0 85 -59 141 -149 141zM347 664c0 -26 -17 -42 -40 -42c-22 0 -43 17 -43 45c0 25 18 41 40 41c23 0 43 -17 43 -44z" />
    <glyph glyph-name="egrave" unicode="&#xe8;" horiz-adv-x="574" 
d="M328 46c46 0 95 10 134 32c6 -8 10 -21 10 -30c0 -23 -62 -60 -153 -60c-150 0 -262 115 -262 282c0 170 120 276 256 276c124 0 210 -83 210 -197c0 -25 -5 -52 -13 -73c-12 -29 -27 -37 -59 -37h-327c11 -124 101 -193 204 -193zM309 488c-94 0 -177 -74 -185 -192h324
c6 14 10 32 10 51c0 85 -59 141 -149 141zM335 593l-133 113c5 11 13 23 21 31c5 5 11 7 17 7c5 0 11 -3 17 -9l125 -120l-21 -22c-4 -4 -8 -6 -12 -6c-5 0 -9 2 -14 6z" />
    <glyph glyph-name="emacron" unicode="&#x113;" horiz-adv-x="574" 
d="M328 46c46 0 95 10 134 32c6 -8 10 -21 10 -30c0 -23 -62 -60 -153 -60c-150 0 -262 115 -262 282c0 170 120 276 256 276c124 0 210 -83 210 -197c0 -25 -5 -52 -13 -73c-12 -29 -27 -37 -59 -37h-327c11 -124 101 -193 204 -193zM309 488c-94 0 -177 -74 -185 -192h324
c6 14 10 32 10 51c0 85 -59 141 -149 141zM177 689h244c13 0 18 -5 18 -22v-28h-252c-10 0 -14 7 -14 19c0 11 2 23 4 31z" />
    <glyph glyph-name="emdash" unicode="&#x2014;" horiz-adv-x="1000" 
d="M5 362h975c15 0 20 -7 20 -25v-35h-984c-11 0 -16 8 -16 20c0 13 2 28 5 40z" />
    <glyph glyph-name="endash" unicode="&#x2013;" horiz-adv-x="500" 
d="M5 362h475c15 0 20 -7 20 -25v-35h-484c-11 0 -16 8 -16 20c0 13 2 28 5 40z" />
    <glyph glyph-name="eogonek" unicode="&#x119;" horiz-adv-x="574" 
d="M410 -166c14 5 21 1 21 -14v-26c-18 -10 -45 -14 -68 -14c-71 0 -111 39 -111 97c0 37 19 80 55 111c-144 6 -250 119 -250 282c0 170 120 276 256 276c124 0 210 -83 210 -197c0 -25 -5 -52 -13 -73c-12 -29 -27 -37 -59 -37h-327c11 -124 101 -193 204 -193
c46 0 95 10 134 32c6 -8 10 -21 10 -30c0 -18 -38 -45 -99 -55c-46 -36 -65 -76 -65 -111c0 -29 19 -54 63 -54c14 0 28 2 39 6zM309 488c-94 0 -177 -74 -185 -192h324c6 14 10 32 10 51c0 85 -59 141 -149 141z" />
    <glyph glyph-name="estimated" unicode="&#x212e;" horiz-adv-x="782" 
d="M391 665c-87 0 -157 -31 -198 -80v-215h396v214c-44 52 -113 81 -198 81zM658 97c0 -26 -107 -109 -259 -109c-190 0 -339 138 -339 362c0 198 120 362 335 362c205 0 327 -162 327 -366v-23h-529v-201c48 -58 120 -87 209 -87c92 0 179 30 241 89c8 -8 15 -18 15 -27z
" />
    <glyph glyph-name="exclamdbl" unicode="&#x203c;" horiz-adv-x="460" 
d="M114 195c-7 107 -11 250 -11 372v131c15 4 33 7 51 7c17 0 24 -5 24 -17v-121c0 -122 -5 -265 -12 -392h-31c-16 0 -20 6 -21 20zM141 -12c-23 0 -45 18 -45 48c0 26 18 43 43 43c24 0 45 -18 45 -47c0 -27 -18 -44 -43 -44zM293 195c-7 107 -11 250 -11 372v131
c15 4 33 7 51 7c17 0 24 -5 24 -17v-121c0 -122 -5 -265 -12 -392h-31c-16 0 -20 6 -21 20zM320 -12c-23 0 -45 18 -45 48c0 26 18 43 43 43c24 0 45 -18 45 -47c0 -27 -18 -44 -43 -44z" />
    <glyph glyph-name="florin" unicode="&#x192;" horiz-adv-x="423" 
d="M145 -80v557h-95c-11 0 -17 6 -17 19s2 27 5 38h107v36c0 111 60 172 156 172c64 0 116 -27 116 -43c0 -11 -5 -23 -10 -31c-22 10 -58 16 -93 16c-71 0 -103 -38 -103 -109v-41h170c14 0 20 -7 20 -25v-32h-190v-552c0 -111 -60 -172 -156 -172c-64 0 -116 27 -116 43
c0 11 5 23 10 31c22 -10 58 -16 93 -16c71 0 103 38 103 109z" />
    <glyph glyph-name="fraction" unicode="&#x2044;" horiz-adv-x="162" 
d="M-85 23l284 677h29c17 0 24 -8 19 -23l-284 -677h-29c-17 0 -25 8 -19 23z" />
    <glyph glyph-name="franc" unicode="&#x20a3;" horiz-adv-x="547" 
d="M27 416h71v284h393c11 0 16 -7 16 -20s-2 -28 -5 -40h-336v-224h263c13 0 17 -6 17 -22v-21h-280v-77h263c13 0 17 -5 17 -22v-21h-280v-253h-44c-18 0 -24 5 -24 19v234h-62c-9 0 -13 5 -13 15c0 9 2 20 4 28h71v77h-62c-9 0 -13 5 -13 15c0 9 2 20 4 28z" />
    <glyph glyph-name="gbreve" unicode="&#x11f;" horiz-adv-x="638" 
d="M320 546c62 0 119 -19 161 -57v45h42c17 0 24 -6 24 -20v-502c0 -140 -106 -260 -293 -260c-105 0 -178 53 -178 133c0 50 26 99 90 134c-67 40 -110 118 -110 226c0 170 113 301 264 301zM481 9v90c-36 -64 -107 -111 -198 -111c-25 0 -48 4 -70 10
c-48 -31 -71 -64 -71 -108c0 -47 43 -81 112 -81c134 0 227 83 227 200zM327 488c-117 0 -204 -105 -204 -242c0 -128 70 -201 172 -201c73 0 146 50 186 151v227c-44 44 -98 65 -154 65zM189 720c11 6 27 11 38 11c14 0 17 -4 20 -18c10 -49 39 -75 82 -75
c42 0 77 25 85 93h32c18 0 23 -5 21 -18c-8 -67 -57 -122 -138 -122c-74 0 -129 46 -140 129z" />
    <glyph glyph-name="gcircumflex" unicode="&#x11d;" horiz-adv-x="638" 
d="M320 546c62 0 119 -19 161 -57v45h42c17 0 24 -6 24 -20v-502c0 -140 -106 -260 -293 -260c-105 0 -178 53 -178 133c0 50 26 99 90 134c-67 40 -110 118 -110 226c0 170 113 301 264 301zM481 9v90c-36 -64 -107 -111 -198 -111c-25 0 -48 4 -70 10
c-48 -31 -71 -64 -71 -108c0 -47 43 -81 112 -81c134 0 227 83 227 200zM327 488c-117 0 -204 -105 -204 -242c0 -128 70 -201 172 -201c73 0 146 50 186 151v227c-44 44 -98 65 -154 65zM355 733l124 -120l-23 -25c-4 -4 -8 -7 -13 -7c-6 0 -11 3 -18 10l-97 96l-105 -105
c-13 5 -23 11 -29 17c-6 5 -8 10 -8 16c0 4 3 9 7 13l118 115h19c12 0 16 -2 25 -10z" />
    <glyph glyph-name="gcommaaccent" unicode="&#x123;" horiz-adv-x="638" 
d="M320 546c62 0 119 -19 161 -57v45h42c17 0 24 -6 24 -20v-502c0 -140 -106 -260 -293 -260c-105 0 -178 53 -178 133c0 50 26 99 90 134c-67 40 -110 118 -110 226c0 170 113 301 264 301zM481 9v90c-36 -64 -107 -111 -198 -111c-25 0 -48 4 -70 10
c-48 -31 -71 -64 -71 -108c0 -47 43 -81 112 -81c134 0 227 83 227 200zM327 488c-117 0 -204 -105 -204 -242c0 -128 70 -201 172 -201c73 0 146 50 186 151v227c-44 44 -98 65 -154 65zM329 576c-23 0 -43 16 -43 46c0 42 15 83 41 112c20 24 41 35 46 32
c5 -2 11 -10 12 -17c-25 -25 -44 -57 -48 -87c19 -4 34 -20 34 -44c0 -25 -19 -42 -42 -42z" />
    <glyph glyph-name="gdotaccent" unicode="&#x121;" horiz-adv-x="638" 
d="M320 546c62 0 119 -19 161 -57v45h42c17 0 24 -6 24 -20v-502c0 -140 -106 -260 -293 -260c-105 0 -178 53 -178 133c0 50 26 99 90 134c-67 40 -110 118 -110 226c0 170 113 301 264 301zM481 9v90c-36 -64 -107 -111 -198 -111c-25 0 -48 4 -70 10
c-48 -31 -71 -64 -71 -108c0 -47 43 -81 112 -81c134 0 227 83 227 200zM327 488c-117 0 -204 -105 -204 -242c0 -128 70 -201 172 -201c73 0 146 50 186 151v227c-44 44 -98 65 -154 65zM370 664c0 -26 -17 -42 -40 -42c-22 0 -43 17 -43 45c0 25 18 41 40 41
c23 0 43 -17 43 -44z" />
    <glyph glyph-name="gravecomb" unicode="&#x300;" horiz-adv-x="0" 
d="M-208 573l-133 113c5 11 13 23 21 31c5 5 11 7 17 7c5 0 11 -3 17 -9l125 -120l-21 -22c-4 -4 -8 -6 -12 -6c-5 0 -9 2 -14 6z" />
    <glyph glyph-name="guillemotleft" unicode="&#xab;" horiz-adv-x="585" 
d="M307 121l-227 161c-8 6 -13 13 -13 24v26l211 149c7 5 14 9 19 9c8 0 11 -6 11 -20c0 -12 -2 -26 -5 -37l-176 -121l168 -117c9 -6 12 -12 12 -24v-50zM516 121l-227 161c-8 6 -13 13 -13 24v26l211 149c7 5 14 9 19 9c8 0 11 -6 11 -20c0 -12 -2 -26 -5 -37l-176 -121
l168 -117c9 -6 12 -12 12 -24v-50z" />
    <glyph glyph-name="guillemotright" unicode="&#xbb;" horiz-adv-x="585" 
d="M296 282l-228 -161v50c0 12 4 18 13 24l168 117l-177 121c-2 11 -5 25 -5 37c0 14 5 20 12 20c6 0 11 -3 19 -9l210 -149v-26c0 -11 -4 -18 -12 -24zM505 282l-228 -161v50c0 12 4 18 13 24l168 117l-177 121c-2 11 -5 25 -5 37c0 14 5 20 12 20c6 0 11 -3 19 -9
l210 -149v-26c0 -11 -4 -18 -12 -24z" />
    <glyph glyph-name="guilsinglleft" unicode="&#x2039;" horiz-adv-x="377" 
d="M307 121l-227 161c-8 6 -13 13 -13 24v26l211 149c7 5 14 9 19 9c8 0 11 -6 11 -20c0 -12 -2 -26 -5 -37l-176 -121l168 -117c9 -6 12 -12 12 -24v-50z" />
    <glyph glyph-name="guilsinglright" unicode="&#x203a;" horiz-adv-x="377" 
d="M296 282l-228 -161v50c0 12 4 18 13 24l168 117l-177 121c-2 11 -5 25 -5 37c0 14 5 20 12 20c6 0 11 -3 19 -9l210 -149v-26c0 -11 -4 -18 -12 -24z" />
    <glyph glyph-name="hcircumflex" unicode="&#x125;" horiz-adv-x="641" 
d="M472 96v227c0 108 -43 165 -137 165c-60 0 -128 -25 -179 -74v-414h-42c-18 0 -24 5 -24 19v694c15 4 31 7 45 7c15 0 21 -6 21 -17v-232c53 45 121 75 193 75c125 0 189 -86 189 -224v-219c0 -42 14 -56 38 -56h18c2 -7 4 -15 4 -24c0 -14 -19 -30 -52 -30
c-43 0 -74 32 -74 103zM232 907l124 -120l-23 -25c-4 -4 -8 -7 -13 -7c-6 0 -11 3 -18 10l-97 96l-105 -105c-13 5 -23 11 -29 17c-6 5 -8 10 -8 16c0 4 3 9 7 13l118 115h19c12 0 16 -2 25 -10z" />
    <glyph glyph-name="house" unicode="&#x2302;" horiz-adv-x="647" 
d="M568 0h-356c-86 0 -133 41 -133 157v171l218 235c12 4 23 7 34 7c10 0 17 -5 25 -14l185 -201c21 -23 27 -40 27 -68v-287zM219 59h281v246l-177 191l-176 -191v-141c0 -82 21 -105 72 -105z" />
    <glyph glyph-name="iacute" unicode="&#xed;" horiz-adv-x="263" 
d="M90 96v436c15 4 31 7 45 7c15 0 21 -6 21 -17v-419c0 -42 14 -56 38 -56h18c2 -7 4 -15 4 -24c0 -14 -19 -30 -52 -30c-43 0 -74 32 -74 103zM239 706l-133 -113c-5 -4 -9 -6 -14 -6c-4 0 -8 2 -12 6l-21 22l125 120c6 6 12 9 17 9c6 0 12 -2 17 -7c8 -8 16 -20 21 -31z
" />
    <glyph glyph-name="ibreve" unicode="&#x12d;" horiz-adv-x="263" 
d="M90 96v436c15 4 31 7 45 7c15 0 21 -6 21 -17v-419c0 -42 14 -56 38 -56h18c2 -7 4 -15 4 -24c0 -14 -19 -30 -52 -30c-43 0 -74 32 -74 103zM-16 720c11 6 27 11 38 11c14 0 17 -4 20 -18c10 -49 39 -75 82 -75c42 0 77 25 85 93h32c18 0 23 -5 21 -18
c-8 -67 -57 -122 -138 -122c-74 0 -129 46 -140 129z" />
    <glyph glyph-name="icircumflex" unicode="&#xee;" horiz-adv-x="263" 
d="M90 96v436c15 4 31 7 45 7c15 0 21 -6 21 -17v-419c0 -42 14 -56 38 -56h18c2 -7 4 -15 4 -24c0 -14 -19 -30 -52 -30c-43 0 -74 32 -74 103zM149 733l124 -120l-23 -25c-4 -4 -8 -7 -13 -7c-6 0 -11 3 -18 10l-97 96l-105 -105c-13 5 -23 11 -29 17c-6 5 -8 10 -8 16
c0 4 3 9 7 13l118 115h19c12 0 16 -2 25 -10z" />
    <glyph glyph-name="idieresis" unicode="&#xef;" horiz-adv-x="263" 
d="M90 96v436c15 4 31 7 45 7c15 0 21 -6 21 -17v-419c0 -42 14 -56 38 -56h18c2 -7 4 -15 4 -24c0 -14 -19 -30 -52 -30c-43 0 -74 32 -74 103zM80 664c0 -26 -17 -42 -40 -42c-22 0 -43 17 -43 45c0 25 17 41 40 41s43 -17 43 -44zM250 664c0 -26 -17 -42 -40 -42
c-22 0 -42 17 -42 45c0 25 17 41 39 41c23 0 43 -17 43 -44z" />
    <glyph glyph-name="igrave" unicode="&#xec;" horiz-adv-x="263" 
d="M90 96v436c15 4 31 7 45 7c15 0 21 -6 21 -17v-419c0 -42 14 -56 38 -56h18c2 -7 4 -15 4 -24c0 -14 -19 -30 -52 -30c-43 0 -74 32 -74 103zM136 593l-133 113c5 11 13 23 21 31c5 5 11 7 17 7c5 0 11 -3 17 -9l125 -120l-21 -22c-4 -4 -8 -6 -12 -6c-5 0 -9 2 -14 6z
" />
    <glyph glyph-name="imacron" unicode="&#x12b;" horiz-adv-x="263" 
d="M90 96v436c15 4 31 7 45 7c15 0 21 -6 21 -17v-419c0 -42 14 -56 38 -56h18c2 -7 4 -15 4 -24c0 -14 -19 -30 -52 -30c-43 0 -74 32 -74 103zM-5 689h244c13 0 18 -5 18 -22v-28h-252c-10 0 -14 7 -14 19c0 11 2 23 4 31z" />
    <glyph glyph-name="Delta" unicode="&#x2206;" horiz-adv-x="668" 
d="M110 59h447l-224 577zM380 683l270 -683h-605c-15 0 -25 10 -19 25l264 667c17 8 39 13 59 13c18 0 25 -6 31 -22z" />
    <glyph glyph-name="iogonek" unicode="&#x12f;" horiz-adv-x="263" 
d="M217 -166c14 5 21 1 21 -14v-26c-18 -10 -45 -14 -68 -14c-71 0 -111 39 -111 97c0 42 24 91 72 124c-24 13 -40 41 -40 95v436c14 5 30 7 45 7c14 0 20 -5 20 -16v-424c0 -38 12 -51 36 -51h21c2 -8 4 -16 4 -24c0 -11 -14 -23 -33 -28c-52 -38 -69 -80 -69 -114
c0 -29 19 -54 63 -54c14 0 28 2 39 6zM124 650c-23 0 -43 17 -43 45c0 26 17 42 40 42s44 -17 44 -45c0 -26 -17 -42 -41 -42z" />
    <glyph glyph-name="itilde" unicode="&#x129;" horiz-adv-x="263" 
d="M90 96v436c15 4 31 7 45 7c15 0 21 -6 21 -17v-419c0 -42 14 -56 38 -56h18c2 -7 4 -15 4 -24c0 -14 -19 -30 -52 -30c-43 0 -74 32 -74 103zM-19 635c0 8 3 19 5 28c13 37 40 56 77 56c23 0 44 -9 70 -32c23 -20 35 -28 48 -28c19 0 30 11 34 58l36 -8
c13 -3 16 -10 13 -24c-8 -48 -37 -76 -81 -76c-23 0 -46 10 -70 32c-23 22 -36 28 -48 28c-19 0 -30 -12 -34 -57c-15 -1 -29 1 -38 5c-8 3 -12 10 -12 18z" />
    <glyph glyph-name="jcircumflex" unicode="&#x135;" horiz-adv-x="273" 
d="M114 -143c-32 -42 -65 -60 -81 -60c-10 0 -23 14 -26 26c56 51 88 115 88 186v523c15 4 31 7 45 7c15 0 21 -6 21 -17v-514c0 -62 -19 -114 -47 -151zM152 733l124 -120l-23 -25c-4 -4 -8 -7 -13 -7c-6 0 -11 3 -18 10l-97 96l-105 -105c-13 5 -23 11 -29 17
c-6 5 -8 10 -8 16c0 4 3 9 7 13l118 115h19c12 0 16 -2 25 -10z" />
    <glyph glyph-name="kcommaaccent" unicode="&#x137;" horiz-adv-x="575" 
d="M156 0h-42c-18 0 -24 5 -24 19v709c15 4 31 7 45 7c15 0 21 -6 21 -17v-455c106 64 224 163 306 276c35 -13 45 -23 45 -37c0 -5 -2 -11 -5 -16c-47 -64 -117 -132 -199 -193c55 -89 119 -169 166 -213c27 -25 42 -33 54 -33h20c2 -7 4 -15 4 -24c0 -14 -19 -30 -49 -30
c-20 0 -43 9 -71 37c-51 50 -119 133 -174 228c-31 -21 -65 -43 -97 -61v-197zM295 -39c23 0 43 -16 43 -46c0 -42 -15 -83 -41 -112c-20 -24 -41 -35 -46 -32c-5 2 -11 10 -12 17c25 25 44 57 48 87c-19 4 -34 20 -34 44c0 25 19 42 42 42z" />
    <glyph glyph-name="lacute" unicode="&#x13a;" horiz-adv-x="300" 
d="M288 32c0 -15 -33 -39 -83 -39c-72 0 -114 45 -114 137v583c14 5 30 7 45 7c14 0 20 -5 20 -16v-576c0 -56 23 -79 65 -79c19 0 42 4 58 11c6 -8 9 -20 9 -28zM249 880l-133 -113c-5 -4 -9 -6 -14 -6c-4 0 -8 2 -12 6l-21 22l125 120c6 6 12 9 17 9c6 0 12 -2 17 -7
c8 -8 16 -20 21 -31z" />
    <glyph glyph-name="lcaron" unicode="&#x13e;" horiz-adv-x="334" 
d="M288 32c0 -15 -33 -39 -83 -39c-72 0 -114 45 -114 137v598c14 5 30 7 45 7c14 0 20 -5 20 -16v-591c0 -56 23 -79 65 -79c19 0 42 4 58 11c6 -8 9 -20 9 -28zM280 735c24 0 45 -17 45 -51c0 -49 -18 -92 -46 -124c-21 -24 -41 -33 -46 -31c-6 3 -11 11 -13 18
c28 27 48 62 52 97c-19 4 -35 21 -35 47s19 44 43 44z" />
    <glyph glyph-name="lcommaaccent" unicode="&#x13c;" horiz-adv-x="300" 
d="M288 32c0 -15 -33 -39 -83 -39c-72 0 -114 45 -114 137v598c14 5 30 7 45 7c14 0 20 -5 20 -16v-591c0 -56 23 -79 65 -79c19 0 42 4 58 11c6 -8 9 -20 9 -28zM195 -39c23 0 43 -16 43 -46c0 -42 -15 -83 -41 -112c-20 -24 -41 -35 -46 -32c-5 2 -11 10 -12 17
c25 25 44 57 48 87c-19 4 -34 20 -34 44c0 25 19 42 42 42z" />
    <glyph glyph-name="lira" unicode="&#x20a4;" horiz-adv-x="596" 
d="M531 569c3 -6 5 -14 5 -20c0 -7 -5 -12 -12 -16c-12 -6 -33 -12 -48 -14c-27 93 -82 133 -149 133c-78 0 -133 -58 -133 -161v-95h215c13 0 18 -5 18 -22v-21h-233v-76h215c13 0 18 -6 18 -23v-20h-233v-51c0 -50 -12 -93 -47 -124h384c14 0 19 -7 19 -25v-34h-461
c-14 0 -20 6 -20 24v30c37 32 57 63 57 126v54h-58c-8 0 -13 5 -13 15c0 8 2 20 5 28h66v76h-58c-8 0 -13 5 -13 16c0 8 2 20 5 27h66v90c0 144 85 226 202 226c97 0 167 -60 203 -143z" />
    <glyph glyph-name="logicalnot" unicode="&#xac;" horiz-adv-x="659" 
d="M558 178h-42c-17 0 -24 5 -24 20v196h-386c-11 0 -16 6 -16 19c0 12 2 28 5 38h443c15 0 20 -6 20 -24v-249z" />
    <glyph glyph-name="longs" unicode="&#x17f;" horiz-adv-x="423" 
d="M211 575v-575h-42c-18 0 -24 5 -24 19v458h-95c-11 0 -17 6 -17 19s2 27 5 38h107v36c0 111 60 172 156 172c64 0 116 -27 116 -43c0 -11 -5 -23 -10 -31c-22 10 -58 16 -93 16c-71 0 -103 -38 -103 -109z" />
    <glyph glyph-name="lozenge" unicode="&#x25ca;" horiz-adv-x="517" 
d="M259 626l-145 -273l145 -272l145 272zM290 697l182 -344l-183 -340c-5 -9 -13 -13 -29 -13h-25l-190 353l185 348c11 5 26 8 40 8c12 0 15 -3 20 -12z" />
    <glyph glyph-name="minus" unicode="&#x2212;" horiz-adv-x="659" 
d="M568 303h-462c-11 0 -16 6 -16 19c0 12 2 28 5 38h453c15 0 20 -6 20 -24v-33z" />
    <glyph glyph-name="mu" unicode="&#xb5;" horiz-adv-x="626" 
d="M472 211v323h42c18 0 24 -6 24 -20v-302c0 -138 -64 -224 -189 -224c-72 0 -140 30 -193 75v-291h-42c-18 0 -24 6 -24 20v740c15 4 31 7 45 7c15 0 21 -6 21 -17v-402c51 -49 119 -74 179 -74c94 0 137 57 137 165z" />
    <glyph glyph-name="nacute" unicode="&#x144;" horiz-adv-x="641" 
d="M472 96v227c0 108 -43 165 -137 165c-60 0 -128 -25 -179 -74v-414h-42c-18 0 -24 5 -24 19v513c15 4 31 7 45 7c15 0 21 -6 21 -17v-49c55 45 121 73 193 73c125 0 189 -86 189 -224v-219c0 -42 14 -56 38 -56h18c2 -7 4 -15 4 -24c0 -14 -19 -30 -52 -30
c-43 0 -74 32 -74 103zM418 706l-133 -113c-5 -4 -9 -6 -14 -6c-4 0 -8 2 -12 6l-21 22l125 120c6 6 12 9 17 9c6 0 12 -2 17 -7c8 -8 16 -20 21 -31z" />
    <glyph glyph-name="uni00A0" unicode="&#xa0;" horiz-adv-x="300" 
 />
    <glyph glyph-name="ncaron" unicode="&#x148;" horiz-adv-x="641" 
d="M472 96v227c0 108 -43 165 -137 165c-60 0 -128 -25 -179 -74v-414h-42c-18 0 -24 5 -24 19v513c15 4 31 7 45 7c15 0 21 -6 21 -17v-49c55 45 121 73 193 73c125 0 189 -86 189 -224v-219c0 -42 14 -56 38 -56h18c2 -7 4 -15 4 -24c0 -14 -19 -30 -52 -30
c-43 0 -74 32 -74 103zM287 591l-123 118c12 22 25 34 35 34c9 0 17 -8 29 -20l86 -86l109 109l28 -26c4 -4 6 -7 6 -10c0 -5 -2 -8 -8 -14l-118 -115h-19c-12 0 -16 2 -25 10z" />
    <glyph glyph-name="ncommaaccent" unicode="&#x146;" horiz-adv-x="641" 
d="M472 96v227c0 108 -43 165 -137 165c-60 0 -128 -25 -179 -74v-414h-42c-18 0 -24 5 -24 19v513c15 4 31 7 45 7c15 0 21 -6 21 -17v-49c55 45 121 73 193 73c125 0 189 -86 189 -224v-219c0 -42 14 -56 38 -56h18c2 -7 4 -15 4 -24c0 -14 -19 -30 -52 -30
c-43 0 -74 32 -74 103zM327 -39c23 0 43 -16 43 -46c0 -42 -15 -83 -41 -112c-20 -24 -41 -35 -46 -32c-5 2 -11 10 -12 17c25 25 44 57 48 87c-19 4 -34 20 -34 44c0 25 19 42 42 42z" />
    <glyph glyph-name="ntilde" unicode="&#xf1;" horiz-adv-x="641" 
d="M472 96v227c0 108 -43 165 -137 165c-60 0 -128 -25 -179 -74v-414h-42c-18 0 -24 5 -24 19v513c15 4 31 7 45 7c15 0 21 -6 21 -17v-49c55 45 121 73 193 73c125 0 189 -86 189 -224v-219c0 -42 14 -56 38 -56h18c2 -7 4 -15 4 -24c0 -14 -19 -30 -52 -30
c-43 0 -74 32 -74 103zM171 635c0 8 3 19 5 28c13 37 40 56 77 56c23 0 44 -9 70 -32c23 -20 35 -28 48 -28c19 0 30 11 34 58l36 -8c13 -3 16 -10 13 -24c-8 -48 -37 -76 -81 -76c-23 0 -46 10 -70 32c-23 22 -36 28 -48 28c-19 0 -30 -12 -34 -57c-15 -1 -29 1 -38 5
c-8 3 -12 10 -12 18z" />
    <glyph glyph-name="oacute" unicode="&#xf3;" horiz-adv-x="628" 
d="M314 546c139 0 257 -103 257 -279s-118 -279 -257 -279s-257 103 -257 279s118 279 257 279zM319 46c96 0 186 70 186 215c0 150 -94 227 -196 227c-97 0 -186 -70 -186 -215c0 -150 94 -227 196 -227zM414 706l-133 -113c-5 -4 -9 -6 -14 -6c-4 0 -8 2 -12 6l-21 22
l125 120c6 6 12 9 17 9c6 0 12 -2 17 -7c8 -8 16 -20 21 -31z" />
    <glyph glyph-name="obreve" unicode="&#x14f;" horiz-adv-x="628" 
d="M314 546c139 0 257 -103 257 -279s-118 -279 -257 -279s-257 103 -257 279s118 279 257 279zM319 46c96 0 186 70 186 215c0 150 -94 227 -196 227c-97 0 -186 -70 -186 -215c0 -150 94 -227 196 -227zM174 720c11 6 27 11 38 11c14 0 17 -4 20 -18c10 -49 39 -75 82 -75
c42 0 77 25 85 93h32c18 0 23 -5 21 -18c-8 -67 -57 -122 -138 -122c-74 0 -129 46 -140 129z" />
    <glyph glyph-name="ocircumflex" unicode="&#xf4;" horiz-adv-x="628" 
d="M314 546c139 0 257 -103 257 -279s-118 -279 -257 -279s-257 103 -257 279s118 279 257 279zM319 46c96 0 186 70 186 215c0 150 -94 227 -196 227c-97 0 -186 -70 -186 -215c0 -150 94 -227 196 -227zM340 733l124 -120l-23 -25c-4 -4 -8 -7 -13 -7c-6 0 -11 3 -18 10
l-97 96l-105 -105c-13 5 -23 11 -29 17c-6 5 -8 10 -8 16c0 4 3 9 7 13l118 115h19c12 0 16 -2 25 -10z" />
    <glyph glyph-name="odieresis" unicode="&#xf6;" horiz-adv-x="628" 
d="M314 546c139 0 257 -103 257 -279s-118 -279 -257 -279s-257 103 -257 279s118 279 257 279zM319 46c96 0 186 70 186 215c0 150 -94 227 -196 227c-97 0 -186 -70 -186 -215c0 -150 94 -227 196 -227zM270 664c0 -26 -17 -42 -40 -42c-22 0 -43 17 -43 45
c0 25 17 41 40 41s43 -17 43 -44zM440 664c0 -26 -17 -42 -40 -42c-22 0 -42 17 -42 45c0 25 17 41 39 41c23 0 43 -17 43 -44z" />
    <glyph glyph-name="ograve" unicode="&#xf2;" horiz-adv-x="628" 
d="M314 546c139 0 257 -103 257 -279s-118 -279 -257 -279s-257 103 -257 279s118 279 257 279zM319 46c96 0 186 70 186 215c0 150 -94 227 -196 227c-97 0 -186 -70 -186 -215c0 -150 94 -227 196 -227zM337 593l-133 113c5 11 13 23 21 31c5 5 11 7 17 7c5 0 11 -3 17 -9
l125 -120l-21 -22c-4 -4 -8 -6 -12 -6c-5 0 -9 2 -14 6z" />
    <glyph glyph-name="ohungarumlaut" unicode="&#x151;" horiz-adv-x="628" 
d="M314 546c139 0 257 -103 257 -279s-118 -279 -257 -279s-257 103 -257 279s118 279 257 279zM319 46c96 0 186 70 186 215c0 150 -94 227 -196 227c-97 0 -186 -70 -186 -215c0 -150 94 -227 196 -227zM341 706l-133 -113c-5 -4 -9 -6 -14 -6c-4 0 -8 2 -12 6l-21 22
l125 120c6 6 12 9 17 9c6 0 12 -2 17 -7c8 -8 16 -20 21 -31zM487 706l-133 -113c-5 -4 -9 -6 -14 -6c-4 0 -8 2 -12 6l-21 22l125 120c6 6 12 9 17 9c6 0 12 -2 17 -7c8 -8 16 -20 21 -31z" />
    <glyph glyph-name="omacron" unicode="&#x14d;" horiz-adv-x="628" 
d="M314 546c139 0 257 -103 257 -279s-118 -279 -257 -279s-257 103 -257 279s118 279 257 279zM319 46c96 0 186 70 186 215c0 150 -94 227 -196 227c-97 0 -186 -70 -186 -215c0 -150 94 -227 196 -227zM185 689h244c13 0 18 -5 18 -22v-28h-252c-10 0 -14 7 -14 19
c0 11 2 23 4 31z" />
    <glyph glyph-name="onedotenleader" unicode="&#x2024;" horiz-adv-x="328" 
d="M208 32c0 -27 -18 -44 -42 -44s-46 18 -46 48c0 26 19 44 43 44s45 -18 45 -48z" />
    <glyph glyph-name="orthogonal" unicode="&#x221f;" horiz-adv-x="640" 
d="M617 0h-379c-90 0 -137 41 -137 160v414c14 5 31 8 47 8c15 0 21 -6 21 -17v-398c0 -82 25 -108 76 -108h353c14 0 19 -7 19 -25v-34z" />
    <glyph glyph-name="oslashacute" unicode="&#x1ff;" horiz-adv-x="628" 
d="M314 546c63 0 122 -22 167 -62l46 50h27c15 0 21 -5 21 -13c0 -3 -1 -7 -5 -11l-56 -61c35 -46 57 -107 57 -182c0 -176 -118 -279 -257 -279c-64 0 -123 22 -168 62l-46 -50h-30c-14 0 -19 5 -19 12c0 3 2 8 7 13l55 60c-35 46 -56 107 -56 182c0 176 118 279 257 279z
M319 46c96 0 186 70 186 215c0 57 -14 103 -36 139l-280 -303c35 -34 82 -51 130 -51zM123 273c0 -57 13 -103 35 -139l280 303c-36 34 -81 51 -129 51c-97 0 -186 -70 -186 -215zM414 706l-133 -113c-5 -4 -9 -6 -14 -6c-4 0 -8 2 -12 6l-21 22l125 120c6 6 12 9 17 9
c6 0 12 -2 17 -7c8 -8 16 -20 21 -31z" />
    <glyph glyph-name="otilde" unicode="&#xf5;" horiz-adv-x="628" 
d="M314 546c139 0 257 -103 257 -279s-118 -279 -257 -279s-257 103 -257 279s118 279 257 279zM319 46c96 0 186 70 186 215c0 150 -94 227 -196 227c-97 0 -186 -70 -186 -215c0 -150 94 -227 196 -227zM171 635c0 8 3 19 5 28c13 37 40 56 77 56c23 0 44 -9 70 -32
c23 -20 35 -28 48 -28c19 0 30 11 34 58l36 -8c13 -3 16 -10 13 -24c-8 -48 -37 -76 -81 -76c-23 0 -46 10 -70 32c-23 22 -36 28 -48 28c-19 0 -30 -12 -34 -57c-15 -1 -29 1 -38 5c-8 3 -12 10 -12 18z" />
    <glyph glyph-name="macron" unicode="&#xaf;" horiz-adv-x="413" 
d="M78 670h244c13 0 18 -5 18 -22v-28h-252c-10 0 -14 7 -14 19c0 11 2 23 4 31z" />
    <glyph glyph-name="peseta" unicode="&#x20a7;" horiz-adv-x="1127" 
d="M724 57h155c83 0 125 28 125 82c0 47 -29 79 -105 99c-111 28 -166 76 -166 163c0 29 7 55 21 76h-134v-304c0 -82 43 -116 104 -116zM169 640v-378c20 -5 43 -7 64 -7c100 0 181 68 181 193c0 128 -83 192 -186 192h-59zM784 512c27 21 64 34 111 34
c81 0 132 -34 162 -87c7 -13 6 -23 -3 -30c-10 -8 -28 -16 -48 -20c-22 51 -56 79 -113 79c-50 0 -95 -39 -95 -88c0 -55 40 -83 123 -105c97 -26 149 -75 149 -153c0 -87 -63 -142 -185 -142h-172c-103 0 -159 63 -159 174v303h-74c1 -9 1 -17 1 -25
c0 -168 -110 -256 -241 -256c-24 0 -50 3 -71 9v-205h-44c-17 0 -24 5 -24 19v681h115c123 0 220 -54 254 -166h84v151c14 4 30 7 45 7s21 -6 21 -17v-141h140c18 0 24 -5 24 -22z" />
    <glyph glyph-name="quotedblbase" unicode="&#x201e;" horiz-adv-x="469" 
d="M163 80c24 0 45 -17 45 -51c0 -49 -18 -92 -46 -124c-21 -24 -41 -33 -46 -31c-6 3 -11 11 -13 18c28 27 48 62 52 97c-19 4 -35 21 -35 47s19 44 43 44zM303 80c24 0 45 -17 45 -51c0 -49 -18 -92 -46 -124c-21 -24 -41 -33 -46 -31c-6 3 -11 11 -13 18
c28 27 48 62 52 97c-19 4 -35 21 -35 47s19 44 43 44z" />
    <glyph glyph-name="quotereversed" unicode="&#x201b;" horiz-adv-x="329" 
d="M166 741c24 0 43 -18 43 -44s-16 -43 -35 -47c4 -35 24 -70 52 -97c-2 -7 -7 -15 -13 -18c-5 -2 -25 7 -46 31c-28 32 -46 75 -46 124c0 34 21 51 45 51z" />
    <glyph glyph-name="quotesinglbase" unicode="&#x201a;" horiz-adv-x="329" 
d="M163 80c24 0 45 -17 45 -51c0 -49 -18 -92 -46 -124c-21 -24 -41 -33 -46 -31c-6 3 -11 11 -13 18c28 27 48 62 52 97c-19 4 -35 21 -35 47s19 44 43 44z" />
    <glyph glyph-name="racute" unicode="&#x155;" horiz-adv-x="441" 
d="M411 522c13 -7 18 -14 18 -23c0 -5 -2 -9 -5 -14c-8 -11 -19 -21 -31 -27c-26 20 -61 30 -98 30c-61 0 -112 -40 -139 -125v-363h-42c-18 0 -24 5 -24 19v513c15 4 31 7 45 7c15 0 21 -6 21 -17v-69c34 59 87 93 156 93c42 0 77 -11 99 -24zM336 706l-133 -113
c-5 -4 -9 -6 -14 -6c-4 0 -8 2 -12 6l-21 22l125 120c6 6 12 9 17 9c6 0 12 -2 17 -7c8 -8 16 -20 21 -31z" />
    <glyph glyph-name="rcaron" unicode="&#x159;" horiz-adv-x="441" 
d="M411 522c13 -7 18 -14 18 -23c0 -5 -2 -9 -5 -14c-8 -11 -19 -21 -31 -27c-26 20 -61 30 -98 30c-61 0 -112 -40 -139 -125v-363h-42c-18 0 -24 5 -24 19v513c15 4 31 7 45 7c15 0 21 -6 21 -17v-69c34 59 87 93 156 93c42 0 77 -11 99 -24zM220 591l-123 118
c12 22 25 34 35 34c9 0 17 -8 29 -20l86 -86l109 109l28 -26c4 -4 6 -7 6 -10c0 -5 -2 -8 -8 -14l-118 -115h-19c-12 0 -16 2 -25 10z" />
    <glyph glyph-name="rcommaaccent" unicode="&#x157;" horiz-adv-x="441" 
d="M411 522c13 -7 18 -14 18 -23c0 -5 -2 -9 -5 -14c-8 -11 -19 -21 -31 -27c-26 20 -61 30 -98 30c-61 0 -112 -40 -139 -125v-363h-42c-18 0 -24 5 -24 19v513c15 4 31 7 45 7c15 0 21 -6 21 -17v-69c34 59 87 93 156 93c42 0 77 -11 99 -24zM124 -39c23 0 43 -16 43 -46
c0 -42 -15 -83 -41 -112c-20 -24 -41 -35 -46 -32c-5 2 -11 10 -12 17c25 25 44 57 48 87c-19 4 -34 20 -34 44c0 25 19 42 42 42z" />
    <glyph glyph-name="revlogicalnot" unicode="&#x2310;" horiz-adv-x="659" 
d="M100 197v254h448c14 0 20 -7 20 -25v-32h-402v-216h-42c-17 0 -24 5 -24 19z" />
    <glyph glyph-name="sacute" unicode="&#x15b;" horiz-adv-x="498" 
d="M378 409c-22 51 -73 79 -132 79c-65 0 -113 -37 -113 -92c0 -54 40 -83 141 -109c117 -30 167 -76 167 -154c0 -89 -68 -145 -192 -145c-92 0 -166 37 -166 61c0 11 4 24 10 31c42 -21 93 -35 149 -35c87 0 133 28 133 84c0 47 -31 78 -123 100c-128 30 -185 84 -185 169
c0 87 73 148 181 148c83 0 149 -35 181 -88c3 -5 5 -11 5 -16c0 -8 -4 -13 -14 -19c-13 -7 -29 -12 -42 -14zM340 706l-133 -113c-5 -4 -9 -6 -14 -6c-4 0 -8 2 -12 6l-21 22l125 120c6 6 12 9 17 9c6 0 12 -2 17 -7c8 -8 16 -20 21 -31z" />
    <glyph glyph-name="scaron" unicode="&#x161;" horiz-adv-x="498" 
d="M378 409c-22 51 -73 79 -132 79c-65 0 -113 -37 -113 -92c0 -54 40 -83 141 -109c117 -30 167 -76 167 -154c0 -89 -68 -145 -192 -145c-92 0 -166 37 -166 61c0 11 4 24 10 31c42 -21 93 -35 149 -35c87 0 133 28 133 84c0 47 -31 78 -123 100c-128 30 -185 84 -185 169
c0 87 73 148 181 148c83 0 149 -35 181 -88c3 -5 5 -11 5 -16c0 -8 -4 -13 -14 -19c-13 -7 -29 -12 -42 -14zM223 591l-123 118c12 22 25 34 35 34c9 0 17 -8 29 -20l86 -86l109 109l28 -26c4 -4 6 -7 6 -10c0 -5 -2 -8 -8 -14l-118 -115h-19c-12 0 -16 2 -25 10z" />
    <glyph glyph-name="scedilla" unicode="&#x15f;" horiz-adv-x="498" 
d="M217 -86c-8 3 -12 7 -12 12c0 2 1 4 2 6l30 56c-86 3 -154 38 -154 61c0 11 4 24 10 31c42 -21 93 -35 149 -35c87 0 133 28 133 84c0 47 -31 78 -123 100c-128 30 -185 84 -185 169c0 87 73 148 181 148c83 0 149 -35 181 -88c3 -5 5 -11 5 -16c0 -8 -4 -13 -14 -19
c-13 -7 -29 -12 -42 -14c-22 51 -73 79 -132 79c-65 0 -113 -37 -113 -92c0 -54 40 -83 141 -109c117 -30 167 -76 167 -154c0 -77 -50 -129 -143 -142l-27 -49c63 -9 100 -42 100 -90c0 -57 -44 -90 -113 -90c-23 0 -49 4 -68 11v26c0 11 4 15 13 15c11 0 30 -6 49 -6
c39 0 63 16 63 45c0 34 -31 55 -98 61z" />
    <glyph glyph-name="scircumflex" unicode="&#x15d;" horiz-adv-x="498" 
d="M378 409c-22 51 -73 79 -132 79c-65 0 -113 -37 -113 -92c0 -54 40 -83 141 -109c117 -30 167 -76 167 -154c0 -89 -68 -145 -192 -145c-92 0 -166 37 -166 61c0 11 4 24 10 31c42 -21 93 -35 149 -35c87 0 133 28 133 84c0 47 -31 78 -123 100c-128 30 -185 84 -185 169
c0 87 73 148 181 148c83 0 149 -35 181 -88c3 -5 5 -11 5 -16c0 -8 -4 -13 -14 -19c-13 -7 -29 -12 -42 -14zM271 733l124 -120l-23 -25c-4 -4 -8 -7 -13 -7c-6 0 -11 3 -18 10l-97 96l-105 -105c-13 5 -23 11 -29 17c-6 5 -8 10 -8 16c0 4 3 9 7 13l118 115h19
c12 0 16 -2 25 -10z" />
    <glyph glyph-name="sterling" unicode="&#xa3;" horiz-adv-x="596" 
d="M69 24v30c37 32 57 63 57 126v125h-53c-12 0 -17 6 -17 16s2 23 4 31h66v134c0 144 85 226 202 226c97 0 167 -60 203 -143c3 -6 5 -14 5 -20c0 -7 -5 -12 -12 -16c-12 -6 -33 -12 -48 -14c-27 93 -82 133 -149 133c-78 0 -133 -58 -133 -161v-139h225c14 0 20 -6 20 -24
v-23h-245v-122c0 -50 -12 -93 -47 -124h384c14 0 19 -7 19 -25v-34h-461c-14 0 -20 6 -20 24z" />
    <glyph glyph-name="tcaron" unicode="&#x165;" horiz-adv-x="533" 
d="M305 46c30 0 63 5 89 18c6 -7 10 -20 10 -30c0 -18 -44 -46 -109 -46c-96 0 -159 63 -159 174v315h-86c-11 0 -16 6 -16 19s2 27 5 38h97v151c14 5 30 7 45 7c14 0 20 -5 20 -16v-142h180c15 0 20 -6 20 -24v-33h-200v-316c0 -81 43 -115 104 -115zM479 735
c24 0 45 -17 45 -51c0 -49 -18 -92 -46 -124c-21 -24 -41 -33 -46 -31c-6 3 -11 11 -13 18c28 27 48 62 52 97c-19 4 -35 21 -35 47s19 44 43 44z" />
    <glyph glyph-name="tcommaaccent" unicode="&#x163;" horiz-adv-x="449" 
d="M215 -86c-8 3 -12 7 -12 12c0 2 1 4 2 6l35 64c-65 20 -104 78 -104 166v315h-86c-11 0 -16 6 -16 19s2 27 5 38h97v151c14 5 30 7 45 7c14 0 20 -5 20 -16v-142h180c15 0 20 -6 20 -24v-33h-200v-316c0 -81 43 -115 104 -115c30 0 63 5 89 18c6 -7 10 -20 10 -30
c0 -18 -44 -46 -109 -46h-1l-25 -46c63 -9 100 -42 100 -90c0 -57 -44 -90 -113 -90c-23 0 -49 4 -68 11v26c0 11 4 15 13 15c11 0 30 -6 49 -6c39 0 63 16 63 45c0 34 -31 55 -98 61z" />
    <glyph glyph-name="tilde" unicode="&#x2dc;" horiz-adv-x="413" 
d="M64 616c0 8 3 19 5 28c13 37 40 56 77 56c23 0 44 -9 70 -32c23 -20 35 -28 48 -28c19 0 30 11 34 58l36 -8c13 -3 16 -10 13 -24c-8 -48 -37 -76 -81 -76c-23 0 -46 10 -70 32c-23 22 -36 28 -48 28c-19 0 -30 -12 -34 -57c-15 -1 -29 1 -38 5c-8 3 -12 10 -12 18z" />
    <glyph glyph-name="tildecomb" unicode="&#x303;" horiz-adv-x="0" 
d="M-396 616c0 8 3 19 5 28c13 37 40 56 77 56c23 0 44 -9 70 -32c23 -20 35 -28 48 -28c19 0 30 11 34 58l36 -8c13 -3 16 -10 13 -24c-8 -48 -37 -76 -81 -76c-23 0 -46 10 -70 32c-23 22 -36 28 -48 28c-19 0 -30 -12 -34 -57c-15 -1 -29 1 -38 5c-8 3 -12 10 -12 18z
" />
    <glyph glyph-name="uacute" unicode="&#xfa;" horiz-adv-x="612" 
d="M530 514v-289c0 -147 -94 -237 -224 -237c-131 0 -225 90 -225 237v307c14 4 30 7 45 7c14 0 21 -6 21 -17v-301c0 -109 71 -176 159 -176s159 66 159 176v313h41c18 0 24 -6 24 -20zM406 706l-133 -113c-5 -4 -9 -6 -14 -6c-4 0 -8 2 -12 6l-21 22l125 120
c6 6 12 9 17 9c6 0 12 -2 17 -7c8 -8 16 -20 21 -31z" />
    <glyph glyph-name="ubreve" unicode="&#x16d;" horiz-adv-x="612" 
d="M530 514v-289c0 -147 -94 -237 -224 -237c-131 0 -225 90 -225 237v307c14 4 30 7 45 7c14 0 21 -6 21 -17v-301c0 -109 71 -176 159 -176s159 66 159 176v313h41c18 0 24 -6 24 -20zM166 720c11 6 27 11 38 11c14 0 17 -4 20 -18c10 -49 39 -75 82 -75c42 0 77 25 85 93
h32c18 0 23 -5 21 -18c-8 -67 -57 -122 -138 -122c-74 0 -129 46 -140 129z" />
    <glyph glyph-name="ucircumflex" unicode="&#xfb;" horiz-adv-x="612" 
d="M530 514v-289c0 -147 -94 -237 -224 -237c-131 0 -225 90 -225 237v307c14 4 30 7 45 7c14 0 21 -6 21 -17v-301c0 -109 71 -176 159 -176s159 66 159 176v313h41c18 0 24 -6 24 -20zM331 733l124 -120l-23 -25c-4 -4 -8 -7 -13 -7c-6 0 -11 3 -18 10l-97 96l-105 -105
c-13 5 -23 11 -29 17c-6 5 -8 10 -8 16c0 4 3 9 7 13l118 115h19c12 0 16 -2 25 -10z" />
    <glyph glyph-name="udieresis" unicode="&#xfc;" horiz-adv-x="612" 
d="M530 514v-289c0 -147 -94 -237 -224 -237c-131 0 -225 90 -225 237v307c14 4 30 7 45 7c14 0 21 -6 21 -17v-301c0 -109 71 -176 159 -176s159 66 159 176v313h41c18 0 24 -6 24 -20zM262 664c0 -26 -17 -42 -40 -42c-22 0 -43 17 -43 45c0 25 17 41 40 41s43 -17 43 -44
zM432 664c0 -26 -17 -42 -40 -42c-22 0 -42 17 -42 45c0 25 17 41 39 41c23 0 43 -17 43 -44z" />
    <glyph glyph-name="ugrave" unicode="&#xf9;" horiz-adv-x="612" 
d="M530 514v-289c0 -147 -94 -237 -224 -237c-131 0 -225 90 -225 237v307c14 4 30 7 45 7c14 0 21 -6 21 -17v-301c0 -109 71 -176 159 -176s159 66 159 176v313h41c18 0 24 -6 24 -20zM329 593l-133 113c5 11 13 23 21 31c5 5 11 7 17 7c5 0 11 -3 17 -9l125 -120l-21 -22
c-4 -4 -8 -6 -12 -6c-5 0 -9 2 -14 6z" />
    <glyph glyph-name="uhungarumlaut" unicode="&#x171;" horiz-adv-x="612" 
d="M530 514v-289c0 -147 -94 -237 -224 -237c-131 0 -225 90 -225 237v307c14 4 30 7 45 7c14 0 21 -6 21 -17v-301c0 -109 71 -176 159 -176s159 66 159 176v313h41c18 0 24 -6 24 -20zM340 706l-133 -113c-5 -4 -9 -6 -14 -6c-4 0 -8 2 -12 6l-21 22l125 120
c6 6 12 9 17 9c6 0 12 -2 17 -7c8 -8 16 -20 21 -31zM486 706l-133 -113c-5 -4 -9 -6 -14 -6c-4 0 -8 2 -12 6l-21 22l125 120c6 6 12 9 17 9c6 0 12 -2 17 -7c8 -8 16 -20 21 -31z" />
    <glyph glyph-name="umacron" unicode="&#x16b;" horiz-adv-x="612" 
d="M530 514v-289c0 -147 -94 -237 -224 -237c-131 0 -225 90 -225 237v307c14 4 30 7 45 7c14 0 21 -6 21 -17v-301c0 -109 71 -176 159 -176s159 66 159 176v313h41c18 0 24 -6 24 -20zM177 689h244c13 0 18 -5 18 -22v-28h-252c-10 0 -14 7 -14 19c0 11 2 23 4 31z" />
    <glyph glyph-name="underscoredbl" unicode="&#x2017;" horiz-adv-x="600" 
d="M54 -144h476c15 0 20 -6 20 -24v-29h-484c-11 0 -16 8 -16 20c0 11 2 23 4 33zM54 -33h476c15 0 20 -7 20 -25v-28h-484c-11 0 -16 7 -16 19c0 11 2 23 4 34z" />
    <glyph glyph-name="uni0191" unicode="&#x191;" horiz-adv-x="550" 
d="M169 314v-335c0 -137 -96 -212 -127 -212c-9 0 -23 13 -27 27c56 51 86 114 86 186v720h393c11 0 16 -7 16 -20s-2 -28 -5 -40h-336v-267h268c14 0 19 -6 19 -24v-35h-287z" />
    <glyph glyph-name="uni02C9" unicode="&#x2c9;" horiz-adv-x="413" 
d="M78 670h244c13 0 18 -5 18 -22v-28h-252c-10 0 -14 7 -14 19c0 11 2 23 4 31z" />
    <glyph glyph-name="uni0302" unicode="&#x302;" horiz-adv-x="0" 
d="M-225 713l124 -120l-23 -25c-4 -4 -8 -7 -13 -7c-6 0 -11 3 -18 10l-97 96l-105 -105c-13 5 -23 11 -29 17c-6 5 -8 10 -8 16c0 4 3 9 7 13l118 115h19c12 0 16 -2 25 -10z" />
    <glyph glyph-name="uni0304" unicode="&#x304;" horiz-adv-x="0" 
d="M-381 670h244c13 0 18 -5 18 -22v-28h-252c-10 0 -14 7 -14 19c0 11 2 23 4 31z" />
    <glyph glyph-name="uni0306" unicode="&#x306;" horiz-adv-x="0" 
d="M-393 700c11 6 27 11 38 11c14 0 17 -4 20 -18c10 -49 39 -75 82 -75c42 0 77 25 85 93h32c18 0 23 -5 21 -18c-8 -67 -57 -122 -138 -122c-74 0 -129 46 -140 129z" />
    <glyph glyph-name="uni0307" unicode="&#x307;" horiz-adv-x="0" 
d="M-211 644c0 -26 -17 -42 -40 -42c-22 0 -43 17 -43 45c0 25 18 41 40 41c23 0 43 -17 43 -44z" />
    <glyph glyph-name="uni0308" unicode="&#x308;" horiz-adv-x="0" 
d="M-296 644c0 -26 -17 -42 -40 -42c-22 0 -43 17 -43 45c0 25 17 41 40 41s43 -17 43 -44zM-126 644c0 -26 -17 -42 -40 -42c-22 0 -42 17 -42 45c0 25 17 41 39 41c23 0 43 -17 43 -44z" />
    <glyph glyph-name="uni030A" unicode="&#x30a;" horiz-adv-x="0" 
d="M-252 734c52 0 93 -38 93 -89s-41 -89 -93 -89c-53 0 -93 38 -93 89s40 89 93 89zM-250 594c27 0 48 20 48 48c0 34 -23 54 -53 54c-27 0 -47 -20 -47 -48c0 -34 22 -54 52 -54z" />
    <glyph glyph-name="uni030C" unicode="&#x30c;" horiz-adv-x="0" 
d="M-281 571l-123 118c12 22 25 34 35 34c9 0 17 -8 29 -20l86 -86l109 109l28 -26c4 -4 6 -7 6 -10c0 -5 -2 -8 -8 -14l-118 -115h-19c-12 0 -16 2 -25 10z" />
    <glyph glyph-name="uni0327" unicode="&#x327;" horiz-adv-x="0" 
d="M-318 -86c-8 3 -12 7 -12 12c0 2 1 4 2 6l37 68h59l-32 -58c63 -9 100 -42 100 -90c0 -57 -44 -90 -113 -90c-23 0 -49 4 -68 11v26c0 11 4 15 13 15c11 0 30 -6 49 -6c39 0 63 16 63 45c0 34 -31 55 -98 61z" />
    <glyph glyph-name="uni0400" unicode="&#x400;" horiz-adv-x="570" 
d="M513 0h-277c-90 0 -137 41 -137 160v540h390c11 0 16 -7 16 -20s-2 -28 -5 -40h-333v-265h264c15 0 20 -7 20 -24v-35h-284v-149c0 -82 25 -108 76 -108h250c15 0 20 -7 20 -25v-34zM332 767l-133 113c5 11 13 23 21 31c5 5 11 7 17 7c5 0 11 -3 17 -9l125 -120l-21 -22
c-4 -4 -8 -6 -12 -6c-5 0 -9 2 -14 6z" />
    <glyph glyph-name="afii10051" unicode="&#x402;" horiz-adv-x="771" 
d="M337 0h-44c-17 0 -24 5 -24 19v621h-208c-11 0 -16 7 -16 20s2 28 5 40h492c14 0 20 -7 20 -25v-35h-225v-260c46 40 108 66 170 66c123 0 190 -86 190 -224v-214c0 -62 -20 -112 -45 -147c-30 -42 -66 -70 -83 -64c-11 4 -21 14 -27 27c56 50 87 114 87 185v212
c0 110 -44 165 -136 165c-53 0 -110 -23 -156 -64v-322z" />
    <glyph glyph-name="afii10052" unicode="&#x403;" horiz-adv-x="550" 
d="M100 700h391c14 0 19 -7 19 -25v-35h-342v-640h-44c-17 0 -24 5 -24 19v681zM403 880l-133 -113c-5 -4 -9 -6 -14 -6c-4 0 -8 2 -12 6l-21 22l125 120c6 6 12 9 17 9c6 0 12 -2 17 -7c8 -8 16 -20 21 -31z" />
    <glyph glyph-name="afii10053" unicode="&#x404;" horiz-adv-x="687" 
d="M637 565c3 -6 4 -11 4 -15c0 -7 -4 -12 -12 -18c-12 -8 -30 -15 -47 -17c-38 87 -114 137 -211 137c-123 0 -240 -99 -241 -275h340c14 0 20 -6 20 -24v-35h-356c23 -171 153 -271 307 -271c59 0 119 13 167 41c6 -9 9 -22 9 -32c0 -27 -81 -68 -184 -68
c-210 0 -371 149 -371 384c0 218 149 340 312 340c127 0 220 -62 263 -147z" />
    <glyph glyph-name="afii10054" unicode="&#x405;" horiz-adv-x="593" 
d="M289 712c110 0 192 -54 227 -117c5 -9 7 -16 7 -22c0 -7 -4 -13 -13 -18c-13 -7 -32 -11 -46 -12c-31 70 -93 109 -175 109c-90 0 -153 -49 -153 -124c0 -71 48 -113 175 -152c145 -45 219 -100 219 -205c0 -110 -90 -183 -234 -183c-112 0 -201 41 -201 71
c0 10 4 23 10 31c53 -27 118 -43 185 -43c117 0 172 52 172 121c0 71 -54 115 -175 149c-142 39 -220 103 -220 208c0 110 92 187 222 187z" />
    <glyph glyph-name="afii10055" unicode="&#x406;" horiz-adv-x="283" 
d="M175 0h-44c-18 0 -24 5 -24 19v678c14 5 31 8 47 8c15 0 21 -6 21 -17v-688z" />
    <glyph glyph-name="afii10056" unicode="&#x407;" horiz-adv-x="283" 
d="M175 0h-44c-18 0 -24 5 -24 19v678c14 5 31 8 47 8c15 0 21 -6 21 -17v-688zM98 838c0 -26 -17 -42 -40 -42c-22 0 -43 17 -43 45c0 25 17 41 40 41s43 -17 43 -44zM268 838c0 -26 -17 -42 -40 -42c-22 0 -42 17 -42 45c0 25 17 41 39 41c23 0 43 -17 43 -44z" />
    <glyph glyph-name="afii10057" unicode="&#x408;" horiz-adv-x="411" 
d="M136 -12c-57 0 -119 25 -119 46c0 12 4 24 10 32c27 -12 63 -18 99 -18c74 0 119 43 119 134v516c14 4 30 7 47 7c15 0 21 -5 21 -16v-507c0 -121 -59 -194 -177 -194z" />
    <glyph glyph-name="afii10058" unicode="&#x409;" horiz-adv-x="1116" 
d="M560 160v480h-280c-4 -135 -17 -329 -38 -463c-24 -149 -66 -189 -143 -189c-50 0 -88 22 -88 38c0 12 4 25 10 34c19 -9 42 -13 63 -13c45 0 70 27 89 138c22 134 39 330 39 515h392c17 0 24 -6 24 -20v-248c45 19 105 32 175 32c154 0 261 -81 261 -227
c0 -155 -111 -237 -286 -237h-85c-86 0 -133 37 -133 160zM701 59h66c134 0 228 51 228 174c0 114 -75 171 -205 171c-55 0 -114 -10 -162 -28v-209c0 -87 20 -108 73 -108z" />
    <glyph glyph-name="afii10059" unicode="&#x40a;" horiz-adv-x="1088" 
d="M533 160v161h-364v-321h-44c-17 0 -24 5 -24 19v678c14 5 31 8 47 8c15 0 21 -6 21 -17v-308h364v320h44c17 0 24 -6 24 -20v-248c45 19 105 32 175 32c154 0 261 -81 261 -227c0 -155 -112 -237 -286 -237h-85c-86 0 -133 37 -133 160zM674 59h66c134 0 228 51 228 174
c0 114 -75 171 -205 171c-55 0 -114 -10 -162 -28v-209c0 -87 20 -108 73 -108z" />
    <glyph glyph-name="afii10060" unicode="&#x40b;" horiz-adv-x="783" 
d="M697 222v-119c0 -42 14 -56 38 -56h18c2 -7 4 -15 4 -24c0 -14 -19 -30 -52 -30c-43 0 -76 32 -76 103v125c0 110 -44 165 -136 165c-53 0 -110 -23 -156 -64v-322h-44c-17 0 -24 5 -24 19v621h-208c-11 0 -16 7 -16 20s2 28 5 40h492c14 0 20 -7 20 -25v-35h-225v-260
c46 40 108 66 170 66c123 0 190 -86 190 -224z" />
    <glyph glyph-name="afii10061" unicode="&#x40c;" horiz-adv-x="658" 
d="M585 647c-58 -90 -142 -181 -234 -259c75 -139 161 -267 223 -319c18 -15 32 -22 47 -22h16c2 -7 4 -18 4 -26c0 -16 -21 -33 -51 -33c-22 0 -42 10 -66 31c-71 62 -155 198 -223 330c-43 -34 -88 -66 -132 -93v-256h-44c-17 0 -24 5 -24 19v678c14 5 31 8 47 8
c15 0 21 -6 21 -17v-356c129 85 269 217 373 373c36 -11 50 -22 50 -37c0 -6 -2 -14 -7 -21zM430 880l-133 -113c-5 -4 -9 -6 -14 -6c-4 0 -8 2 -12 6l-21 22l125 120c6 6 12 9 17 9c6 0 12 -2 17 -7c8 -8 16 -20 21 -31z" />
    <glyph glyph-name="uni040D" unicode="&#x40d;" horiz-adv-x="718" 
d="M101 17v680c14 5 31 8 47 8c15 0 21 -6 21 -17v-580l371 583c6 10 12 14 22 14c14 0 37 -10 54 -23v-682h-44c-18 0 -24 5 -24 19v572l-371 -583c-6 -9 -12 -13 -22 -13c-14 0 -37 9 -54 22zM389 767l-133 113c5 11 13 23 21 31c5 5 11 7 17 7c5 0 11 -3 17 -9l125 -120
l-21 -22c-4 -4 -8 -6 -12 -6c-5 0 -9 2 -14 6z" />
    <glyph glyph-name="afii10062" unicode="&#x40e;" horiz-adv-x="643" 
d="M130 688l204 -408c75 127 147 270 198 420h44c14 0 26 -9 21 -23c-85 -234 -219 -474 -373 -677h-44c-17 0 -26 7 -16 22c41 56 86 121 130 193l-236 458c20 20 36 30 50 30c11 0 16 -4 22 -15zM191 895c11 6 27 11 38 11c14 0 17 -4 20 -18c10 -49 39 -75 82 -75
c42 0 77 25 85 93h32c18 0 23 -5 21 -18c-8 -67 -57 -122 -138 -122c-74 0 -129 46 -140 129z" />
    <glyph glyph-name="afii10145" unicode="&#x40f;" horiz-adv-x="723" 
d="M334 0h-97c-90 0 -137 41 -137 160v537c14 5 31 8 47 8c15 0 21 -6 21 -17v-521c0 -82 25 -108 76 -108h312v641h43c18 0 24 -6 24 -20v-680h-221v-147h-44c-18 0 -24 6 -24 20v127z" />
    <glyph glyph-name="uni0450" unicode="&#x450;" horiz-adv-x="574" 
d="M328 46c46 0 95 10 134 32c6 -8 10 -21 10 -30c0 -23 -62 -60 -153 -60c-150 0 -262 115 -262 282c0 170 120 276 256 276c124 0 210 -83 210 -197c0 -25 -5 -52 -13 -73c-12 -29 -27 -37 -59 -37h-327c11 -124 101 -193 204 -193zM309 488c-94 0 -177 -74 -185 -192h324
c6 14 10 32 10 51c0 85 -59 141 -149 141zM335 593l-133 113c5 11 13 23 21 31c5 5 11 7 17 7c5 0 11 -3 17 -9l125 -120l-21 -22c-4 -4 -8 -6 -12 -6c-5 0 -9 2 -14 6z" />
    <glyph glyph-name="afii10099" unicode="&#x452;" horiz-adv-x="626" 
d="M156 611v-138c55 45 121 73 193 73c125 0 189 -86 189 -224v-344c0 -62 -19 -114 -47 -151c-32 -42 -65 -60 -81 -60c-10 0 -23 14 -26 26c56 51 88 115 88 186v344c0 108 -43 165 -137 165c-60 0 -128 -25 -179 -74v-414h-42c-18 0 -24 5 -24 19v592h-46
c-11 0 -16 5 -16 16c0 10 1 23 4 31h58v70c15 4 31 7 45 7c15 0 21 -6 21 -17v-60h175c14 0 19 -7 19 -24v-23h-194z" />
    <glyph glyph-name="afii10100" unicode="&#x453;" horiz-adv-x="471" 
d="M156 477v-477h-42c-18 0 -24 5 -24 19v515h327c14 0 19 -7 19 -25v-32h-280zM367 706l-133 -113c-5 -4 -9 -6 -14 -6c-4 0 -8 2 -12 6l-21 22l125 120c6 6 12 9 17 9c6 0 12 -2 17 -7c8 -8 16 -20 21 -31z" />
    <glyph glyph-name="afii10101" unicode="&#x454;" horiz-adv-x="551" 
d="M506 437c3 -6 4 -11 4 -15c0 -8 -4 -14 -12 -19c-12 -8 -29 -13 -45 -15c-22 58 -70 100 -147 100c-100 0 -180 -74 -183 -194h237c15 0 20 -6 20 -24v-33h-253c21 -128 127 -192 226 -192c49 0 93 10 132 32c6 -9 10 -21 10 -30c0 -24 -66 -59 -153 -59
c-144 0 -286 107 -286 296c0 164 113 262 252 262c96 0 168 -50 198 -109z" />
    <glyph glyph-name="afii10102" unicode="&#x455;" horiz-adv-x="498" 
d="M378 409c-22 51 -73 79 -132 79c-65 0 -113 -37 -113 -92c0 -54 40 -83 141 -109c117 -30 167 -76 167 -154c0 -89 -68 -145 -192 -145c-92 0 -166 37 -166 61c0 11 4 24 10 31c42 -21 93 -35 149 -35c87 0 133 28 133 84c0 47 -31 78 -123 100c-128 30 -185 84 -185 169
c0 87 73 148 181 148c83 0 149 -35 181 -88c3 -5 5 -11 5 -16c0 -8 -4 -13 -14 -19c-13 -7 -29 -12 -42 -14z" />
    <glyph glyph-name="afii10103" unicode="&#x456;" horiz-adv-x="263" 
d="M90 96v436c15 4 31 7 45 7c15 0 21 -6 21 -17v-419c0 -42 14 -56 38 -56h18c2 -7 4 -15 4 -24c0 -14 -19 -30 -52 -30c-43 0 -74 32 -74 103zM123 649c-22 0 -43 18 -43 46c0 25 18 42 41 42s43 -18 43 -46c0 -26 -17 -42 -41 -42z" />
    <glyph glyph-name="afii10104" unicode="&#x457;" horiz-adv-x="263" 
d="M90 96v436c15 4 31 7 45 7c15 0 21 -6 21 -17v-419c0 -42 14 -56 38 -56h18c2 -7 4 -15 4 -24c0 -14 -19 -30 -52 -30c-43 0 -74 32 -74 103zM80 664c0 -26 -17 -42 -40 -42c-22 0 -43 17 -43 45c0 25 17 41 40 41s43 -17 43 -44zM250 664c0 -26 -17 -42 -40 -42
c-22 0 -42 17 -42 45c0 25 17 41 39 41c23 0 43 -17 43 -44z" />
    <glyph glyph-name="afii10105" unicode="&#x458;" horiz-adv-x="253" 
d="M114 -143c-32 -42 -65 -60 -81 -60c-10 0 -23 14 -26 26c56 51 88 115 88 186v523c15 4 31 7 45 7c15 0 21 -6 21 -17v-514c0 -62 -19 -114 -47 -151zM128 649c-22 0 -43 18 -43 46c0 25 18 42 41 42s43 -18 43 -46c0 -26 -17 -42 -41 -42z" />
    <glyph glyph-name="afii10106" unicode="&#x459;" horiz-adv-x="949" 
d="M541 512v-165c38 14 90 23 144 23c133 0 215 -67 215 -179c0 -113 -76 -191 -247 -191h-54c-80 0 -124 37 -124 146v331h-237c-1 -83 -9 -209 -21 -309c-16 -140 -55 -180 -128 -180c-39 0 -78 20 -78 36c0 11 4 23 10 32c18 -8 36 -12 55 -12c38 0 60 21 75 133
c13 99 21 224 21 357h347c16 0 22 -7 22 -22zM672 312c-45 0 -91 -6 -131 -19v-137c0 -79 18 -99 69 -99h52c114 0 172 50 172 132c0 77 -54 123 -162 123z" />
    <glyph glyph-name="afii10107" unicode="&#x45a;" horiz-adv-x="912" 
d="M438 146v101h-282v-247h-42c-18 0 -24 5 -24 19v513c15 4 31 7 45 7c15 0 21 -6 21 -17v-218h282v230h42c18 0 24 -6 24 -20v-167c38 14 90 23 144 23c133 0 215 -67 215 -179c0 -113 -76 -191 -247 -191h-54c-80 0 -124 37 -124 146zM635 312c-45 0 -91 -6 -131 -19
v-137c0 -79 18 -99 69 -99h52c114 0 172 50 172 132c0 77 -54 123 -162 123z" />
    <glyph glyph-name="afii10108" unicode="&#x45b;" horiz-adv-x="641" 
d="M344 611h-188v-138c55 45 121 73 193 73c125 0 189 -86 189 -224v-219c0 -42 14 -56 38 -56h18c2 -7 4 -15 4 -24c0 -14 -19 -30 -52 -30c-43 0 -74 32 -74 103v227c0 108 -43 165 -137 165c-60 0 -128 -25 -179 -74v-414h-42c-18 0 -24 5 -24 19v592h-46
c-11 0 -16 5 -16 16c0 10 1 23 4 31h58v70c15 4 31 7 45 7c15 0 21 -6 21 -17v-60h168c14 0 20 -7 20 -24v-23z" />
    <glyph glyph-name="afii10109" unicode="&#x45c;" horiz-adv-x="575" 
d="M156 0h-42c-18 0 -24 5 -24 19v513c15 4 31 7 45 7c15 0 21 -6 21 -17v-259c106 64 224 163 306 276c35 -13 45 -23 45 -37c0 -5 -2 -11 -5 -16c-47 -64 -117 -132 -199 -193c55 -89 119 -169 166 -213c27 -25 42 -33 54 -33h20c2 -7 4 -15 4 -24c0 -14 -19 -30 -49 -30
c-20 0 -43 9 -71 37c-51 50 -119 133 -174 228c-31 -21 -65 -43 -97 -61v-197zM392 706l-133 -113c-5 -4 -9 -6 -14 -6c-4 0 -8 2 -12 6l-21 22l125 120c6 6 12 9 17 9c6 0 12 -2 17 -7c8 -8 16 -20 21 -31z" />
    <glyph glyph-name="uni045D" unicode="&#x45d;" horiz-adv-x="626" 
d="M535 520v-520h-42c-17 0 -24 5 -24 20v420l-305 -432c-7 -9 -13 -13 -24 -13c-13 0 -34 8 -50 21v518c14 5 30 7 45 7c14 0 21 -6 21 -17v-429l305 433c6 9 13 13 24 13c13 0 34 -8 50 -21zM336 593l-133 113c5 11 13 23 21 31c5 5 11 7 17 7c5 0 11 -3 17 -9l125 -120
l-21 -22c-4 -4 -8 -6 -12 -6c-5 0 -9 2 -14 6z" />
    <glyph glyph-name="afii10110" unicode="&#x45e;" horiz-adv-x="627" 
d="M88 212v320c14 5 31 7 46 7c14 0 20 -5 20 -16v-312c0 -108 43 -165 137 -165c60 0 129 25 179 73v415h42c18 0 24 -6 24 -20v-505c0 -143 -91 -257 -265 -257c-106 0 -176 54 -176 133c0 52 27 95 80 128c-58 35 -87 105 -87 199zM277 -12c-19 0 -36 2 -52 6
c-46 -31 -64 -65 -64 -104c0 -47 44 -81 110 -81c129 0 199 76 199 193v61c-52 -46 -121 -75 -193 -75zM173 720c11 6 27 11 38 11c14 0 17 -4 20 -18c10 -49 39 -75 82 -75c42 0 77 25 85 93h32c18 0 23 -5 21 -18c-8 -67 -57 -122 -138 -122c-74 0 -129 46 -140 129z" />
    <glyph glyph-name="afii10193" unicode="&#x45f;" horiz-adv-x="615" 
d="M225 57h234v477h42c17 0 24 -5 24 -20v-514h-178v-118h-42c-18 0 -24 6 -24 20v98h-67c-80 0 -124 37 -124 146v386c14 5 31 7 46 7c14 0 20 -5 20 -16v-367c0 -79 18 -99 69 -99z" />
    <glyph glyph-name="afii10050" unicode="&#x490;" horiz-adv-x="550" 
d="M443 700v127c14 4 30 7 47 7c15 0 21 -5 21 -16v-177h-341v-641h-44c-18 0 -24 5 -24 20v680h341z" />
    <glyph glyph-name="afii10098" unicode="&#x491;" horiz-adv-x="471" 
d="M156 477v-477h-42c-18 0 -24 5 -24 19v515h280v115c15 4 31 7 46 7c14 0 20 -6 20 -17v-162h-280z" />
    <glyph glyph-name="uni2016" unicode="&#x2016;" horiz-adv-x="431" 
d="M113 -110v853c13 4 27 6 42 6s21 -5 21 -16v-863h-39c-17 0 -24 5 -24 20zM255 -110v853c13 4 27 6 42 6c14 0 20 -5 20 -16v-863h-38c-18 0 -24 5 -24 20z" />
    <glyph glyph-name="uni201F" unicode="&#x201f;" horiz-adv-x="469" 
d="M306 741c24 0 43 -18 43 -44s-16 -43 -35 -47c4 -35 24 -70 52 -97c-2 -7 -7 -15 -13 -18c-5 -2 -25 7 -46 31c-28 32 -46 75 -46 124c0 34 21 51 45 51zM166 741c24 0 43 -18 43 -44s-16 -43 -35 -47c4 -35 24 -70 52 -97c-2 -7 -7 -15 -13 -18c-5 -2 -25 7 -46 31
c-28 32 -46 75 -46 124c0 34 21 51 45 51z" />
    <glyph glyph-name="uni203E" unicode="&#x203e;" horiz-adv-x="413" 
d="M78 670h244c13 0 18 -5 18 -22v-28h-252c-10 0 -14 7 -14 19c0 11 2 23 4 31z" />
    <glyph glyph-name="zerosuperior" unicode="&#x2070;" 
d="M197 276c-97 0 -159 80 -159 216s62 216 159 216s160 -80 160 -216s-63 -216 -160 -216zM193 659c-59 0 -99 -53 -99 -163c0 -111 44 -171 109 -171c59 0 99 53 99 163c0 111 -44 171 -109 171z" />
    <glyph glyph-name="uni2071" unicode="&#x2071;" 
d="M167 349v247c11 3 24 6 36 6c13 0 19 -5 19 -15v-234c0 -22 6 -29 21 -29h14c2 -5 4 -14 4 -21c0 -12 -17 -24 -40 -24c-30 0 -54 18 -54 70zM195 661c-18 0 -33 12 -33 32s14 32 31 32c18 0 33 -13 33 -33s-14 -31 -31 -31z" />
    <glyph glyph-name="fivesuperior" unicode="&#x2075;" 
d="M326 681v-29h-180l-15 -104c16 5 33 8 55 8c83 0 155 -49 155 -140c0 -79 -56 -140 -159 -140c-67 0 -128 29 -128 47c0 10 3 21 8 29c35 -18 74 -29 115 -29c61 0 108 32 108 93c0 60 -47 92 -111 92c-23 0 -42 -4 -61 -9c-6 -2 -12 -3 -17 -3c-4 0 -9 2 -14 5l-10 7
l26 192h212c12 0 16 -5 16 -19z" />
    <glyph glyph-name="sixsuperior" unicode="&#x2076;" 
d="M216 660c-60 0 -111 -47 -117 -143c28 21 67 35 110 35c85 0 145 -59 145 -141c0 -78 -55 -135 -143 -135c-101 0 -170 86 -170 205v8c0 138 75 219 174 219c58 0 102 -25 123 -69c2 -5 4 -10 4 -14c0 -7 -4 -12 -12 -16s-21 -8 -34 -9c-12 40 -40 60 -80 60zM200 504
c-39 0 -74 -14 -102 -36c3 -89 50 -144 114 -144c49 0 86 33 86 84c0 61 -40 96 -98 96z" />
    <glyph glyph-name="sevensuperior" unicode="&#x2077;" 
d="M345 662c-78 -123 -129 -245 -162 -378h-39c-15 0 -18 7 -15 19c34 131 86 246 150 350h-216c-10 0 -14 4 -14 16c0 8 1 21 4 31h260c11 0 18 -2 23 -11c5 -8 8 -18 9 -27z" />
    <glyph glyph-name="eightsuperior" unicode="&#x2078;" 
d="M112 601c0 -27 23 -58 104 -81c40 20 62 49 62 80c0 35 -36 60 -82 60c-49 0 -84 -25 -84 -59zM298 391c0 37 -25 61 -114 91c-63 -25 -88 -52 -88 -91c0 -40 42 -68 101 -68c64 0 101 32 101 68zM40 392c0 49 33 87 96 109c-54 25 -80 56 -80 99c0 63 56 108 140 108
s138 -47 138 -108c0 -41 -28 -77 -71 -99c64 -29 91 -62 91 -108c0 -67 -60 -117 -157 -117c-93 0 -157 48 -157 116z" />
    <glyph glyph-name="ninesuperior" unicode="&#x2079;" 
d="M177 276c-60 0 -112 28 -112 46c0 10 4 22 8 28c28 -16 65 -26 99 -26c65 0 117 45 124 143c-28 -21 -68 -35 -110 -35c-86 0 -146 59 -146 141c0 78 55 135 144 135c100 0 170 -86 170 -205v-8c0 -142 -72 -219 -177 -219zM183 660c-50 0 -87 -33 -87 -84
c0 -61 41 -96 98 -96c39 0 74 14 103 35c-3 90 -51 145 -114 145z" />
    <glyph glyph-name="uni207A" unicode="&#x207a;" 
d="M340 497v-27h-115v-123h-37c-13 0 -18 5 -18 16v107h-102c-9 0 -14 5 -14 16c0 9 1 20 5 30h111v117c10 3 23 6 36 6c14 0 19 -5 19 -15v-108h100c12 0 15 -4 15 -19z" />
    <glyph glyph-name="uni207B" unicode="&#x207b;" 
d="M340 497v-27h-272c-9 0 -14 5 -14 16c0 9 1 20 5 30h266c12 0 15 -4 15 -19z" />
    <glyph glyph-name="uni207C" unicode="&#x207c;" 
d="M340 555v-27h-272c-9 0 -14 5 -14 16c0 9 1 20 5 29h266c12 0 15 -4 15 -18zM340 440v-28h-272c-9 0 -14 5 -14 16c0 10 1 20 5 30h266c12 0 15 -4 15 -18z" />
    <glyph glyph-name="uni207D" unicode="&#x207d;" 
d="M138 492c0 111 37 195 87 248c13 14 24 18 32 14c7 -4 13 -11 17 -21c-52 -60 -81 -142 -81 -241s29 -181 81 -241c-4 -10 -10 -17 -17 -21c-8 -4 -19 0 -32 14c-50 53 -87 137 -87 248z" />
    <glyph glyph-name="uni207E" unicode="&#x207e;" 
d="M257 492c0 -111 -37 -195 -87 -248c-13 -14 -24 -18 -32 -14c-7 4 -13 11 -17 21c52 60 81 142 81 241s-29 181 -81 241c4 10 10 17 17 21c8 4 19 0 32 -14c50 -53 87 -137 87 -248z" />
    <glyph glyph-name="zeroinferior" unicode="&#x2080;" 
d="M197 -135c-97 0 -159 80 -159 216s62 216 159 216s160 -80 160 -216s-63 -216 -160 -216zM193 248c-59 0 -99 -53 -99 -163c0 -111 44 -171 109 -171c59 0 99 53 99 163c0 111 -44 171 -109 171z" />
    <glyph glyph-name="fiveinferior" unicode="&#x2085;" 
d="M326 270v-29h-180l-15 -104c16 5 33 8 55 8c83 0 155 -49 155 -140c0 -79 -56 -140 -159 -140c-67 0 -128 29 -128 47c0 10 3 21 8 29c35 -18 74 -29 115 -29c61 0 108 32 108 93c0 60 -47 92 -111 92c-23 0 -42 -4 -61 -9c-6 -2 -12 -3 -17 -3c-4 0 -9 2 -14 5l-10 7
l26 192h212c12 0 16 -5 16 -19z" />
    <glyph glyph-name="sixinferior" unicode="&#x2086;" 
d="M216 249c-60 0 -111 -47 -117 -143c28 21 67 35 110 35c85 0 145 -59 145 -141c0 -78 -55 -135 -143 -135c-101 0 -170 86 -170 205v8c0 138 75 219 174 219c58 0 102 -25 123 -69c2 -5 4 -10 4 -14c0 -7 -4 -12 -12 -16s-21 -8 -34 -9c-12 40 -40 60 -80 60zM200 93
c-39 0 -74 -14 -102 -36c3 -89 50 -144 114 -144c49 0 86 33 86 84c0 61 -40 96 -98 96z" />
    <glyph glyph-name="seveninferior" unicode="&#x2087;" 
d="M345 251c-78 -123 -129 -245 -162 -378h-39c-15 0 -18 7 -15 19c34 131 86 246 150 350h-216c-10 0 -14 4 -14 16c0 8 1 21 4 31h260c11 0 18 -2 23 -11c5 -8 8 -18 9 -27z" />
    <glyph glyph-name="eightinferior" unicode="&#x2088;" 
d="M112 190c0 -27 23 -58 104 -81c40 20 62 49 62 80c0 35 -36 60 -82 60c-49 0 -84 -25 -84 -59zM298 -20c0 37 -25 61 -114 91c-63 -25 -88 -52 -88 -91c0 -40 42 -68 101 -68c64 0 101 32 101 68zM40 -19c0 49 33 87 96 109c-54 25 -80 56 -80 99c0 63 56 108 140 108
s138 -47 138 -108c0 -41 -28 -77 -71 -99c64 -29 91 -62 91 -108c0 -67 -60 -117 -157 -117c-93 0 -157 48 -157 116z" />
    <glyph glyph-name="nineinferior" unicode="&#x2089;" 
d="M177 -135c-60 0 -112 28 -112 46c0 10 4 22 8 28c28 -16 65 -26 99 -26c65 0 117 45 124 143c-28 -21 -68 -35 -110 -35c-86 0 -146 59 -146 141c0 78 55 135 144 135c100 0 170 -86 170 -205v-8c0 -142 -72 -219 -177 -219zM183 249c-50 0 -87 -33 -87 -84
c0 -61 41 -96 98 -96c39 0 74 14 103 35c-3 90 -51 145 -114 145z" />
    <glyph glyph-name="uni208A" unicode="&#x208a;" 
d="M342 86v-27h-115v-123h-37c-13 0 -18 5 -18 16v107h-102c-9 0 -14 5 -14 16c0 9 1 20 5 30h111v117c10 3 23 6 36 6c14 0 19 -5 19 -15v-108h100c12 0 15 -4 15 -19z" />
    <glyph glyph-name="uni208B" unicode="&#x208b;" 
d="M342 86v-27h-272c-9 0 -14 5 -14 16c0 9 1 20 5 30h266c12 0 15 -4 15 -19z" />
    <glyph glyph-name="uni208C" unicode="&#x208c;" 
d="M342 144v-27h-272c-9 0 -14 5 -14 16c0 9 1 20 5 29h266c12 0 15 -4 15 -18zM342 29v-28h-272c-9 0 -14 5 -14 16c0 10 1 20 5 30h266c12 0 15 -4 15 -18z" />
    <glyph glyph-name="uni208D" unicode="&#x208d;" 
d="M144 81c0 111 37 195 87 248c13 14 24 18 32 14c7 -4 13 -11 17 -21c-52 -60 -81 -142 -81 -241s29 -181 81 -241c-4 -10 -10 -17 -17 -21c-8 -4 -19 0 -32 14c-50 53 -87 137 -87 248z" />
    <glyph glyph-name="uni208E" unicode="&#x208e;" 
d="M256 81c0 -111 -37 -195 -87 -248c-13 -14 -24 -18 -32 -14c-7 4 -13 11 -17 21c52 60 81 142 81 241s-29 181 -81 241c4 10 10 17 17 21c8 4 19 0 32 -14c50 -53 87 -137 87 -248z" />
    <glyph glyph-name="uni2090" unicode="&#x2090;" 
d="M171 154c-31 0 -64 -7 -92 -20c-6 7 -9 15 -9 24c0 17 58 43 109 43c86 0 140 -46 140 -126v-134c0 -20 7 -27 19 -27h13c2 -5 4 -14 4 -21c0 -15 -17 -25 -39 -25c-26 0 -48 17 -50 54c-21 -32 -62 -57 -106 -57c-68 0 -117 43 -117 105c0 65 52 107 131 107
c32 0 67 -6 90 -16v12c0 58 -35 81 -93 81zM165 -88c38 0 74 21 99 65v42c-22 9 -57 13 -87 13c-46 0 -79 -20 -79 -61c0 -37 29 -59 67 -59z" />
    <glyph glyph-name="uni2091" unicode="&#x2091;" 
d="M228 -89c30 0 55 5 79 18c4 -6 7 -14 7 -23c0 -18 -43 -41 -93 -41c-94 0 -166 67 -166 167c0 106 73 169 158 169c78 0 132 -50 132 -118c0 -17 -4 -35 -9 -49c-7 -18 -18 -23 -39 -23h-186c7 -61 53 -100 117 -100zM212 155c-56 0 -93 -42 -100 -98h175c2 8 4 16 4 27
c0 45 -36 71 -79 71z" />
    <glyph glyph-name="uni2092" unicode="&#x2092;" 
d="M197 -135c-86 0 -157 64 -157 169c0 104 71 167 157 167s158 -64 158 -168s-72 -168 -158 -168zM202 -88c55 0 99 40 99 116c0 81 -49 126 -107 126c-55 0 -99 -40 -99 -116c0 -81 49 -126 107 -126z" />
    <glyph glyph-name="uni2093" unicode="&#x2093;" 
d="M106 190l92 -120c35 33 66 76 86 124h38c13 0 16 -8 12 -18c-18 -46 -62 -103 -107 -144l75 -95c12 -15 21 -23 33 -23h11c2 -6 4 -14 4 -21c0 -14 -12 -25 -35 -25c-19 0 -34 13 -51 35l-76 97c-34 -32 -65 -74 -87 -127h-32c-12 0 -18 4 -18 11c0 2 1 6 2 9
c22 53 63 106 106 144l-106 137c14 16 27 24 37 24c8 0 12 -3 16 -8z" />
    <glyph glyph-name="uni2094" unicode="&#x2094;" 
d="M166 155c-29 0 -55 -5 -79 -18c-4 6 -7 14 -7 24c0 17 44 40 94 40c93 0 166 -67 166 -167c0 -105 -74 -169 -159 -169c-77 0 -131 50 -131 118c0 17 4 36 9 49c7 19 18 23 39 23h185c-7 61 -52 100 -117 100zM182 -88c57 0 94 41 101 97h-175c-2 -8 -4 -16 -4 -27
c0 -45 36 -70 78 -70z" />
    <glyph glyph-name="uni20A0" unicode="&#x20a0;" horiz-adv-x="769" 
d="M723 0h-192c-98 0 -137 45 -137 183v36c-23 -10 -55 -15 -92 -15c-145 0 -257 105 -257 269c0 150 102 239 223 239c69 0 137 -27 174 -99c3 -6 4 -12 4 -16c0 -6 -4 -11 -10 -15c-11 -7 -28 -11 -42 -12c-22 55 -64 84 -126 84c-84 0 -156 -70 -156 -180
c0 -143 99 -214 200 -214c29 0 57 2 82 11v220h302c11 0 16 -7 16 -20s-2 -27 -5 -38h-246v-156h194c15 0 20 -6 20 -24v-33h-214v-54c0 -84 20 -109 77 -109h165c15 0 20 -7 20 -24v-33z" />
    <glyph glyph-name="uni20A2" unicode="&#x20a2;" horiz-adv-x="687" 
d="M637 565c3 -6 4 -11 4 -15c0 -7 -4 -12 -12 -18c-12 -8 -30 -15 -47 -17c-38 87 -114 137 -211 137c-123 0 -241 -99 -241 -277c0 -154 78 -260 188 -305v358c12 4 36 6 49 6c12 0 17 -5 17 -15v-63c25 48 73 78 127 78c26 0 49 -5 65 -13c12 -6 17 -11 17 -21
c0 -6 -2 -10 -6 -16c-6 -8 -15 -17 -25 -25c-19 11 -44 17 -68 17c-47 0 -91 -34 -110 -97v-228c18 -3 37 -4 57 -4c59 0 119 13 167 41c6 -9 9 -22 9 -32c0 -27 -81 -68 -184 -68c-210 0 -371 149 -371 384c0 218 149 340 312 340c127 0 220 -62 263 -147z" />
    <glyph glyph-name="uni20A6" unicode="&#x20a6;" horiz-adv-x="718" 
d="M35 315h67v70h-59c-8 0 -13 5 -13 15c0 9 2 21 5 28h67v255c17 13 40 22 53 22c11 0 17 -4 23 -13l167 -264h203v272h44c18 0 24 -5 24 -20v-252h54c13 0 18 -5 18 -22v-21h-72v-70h54c13 0 18 -5 18 -22v-21h-72v-255c-17 -13 -40 -22 -53 -22c-11 0 -16 4 -23 13
l-168 264h-202v-272h-44c-18 0 -24 5 -24 20v252h-59c-8 0 -13 5 -13 15c0 9 2 21 5 28zM170 385v-70h175l-44 70h-131zM373 385l44 -70h131v70h-175zM444 272l104 -163v163h-104zM170 591v-163h103z" />
    <glyph glyph-name="uni20A8" unicode="&#x20a8;" horiz-adv-x="967" 
d="M488 -12c-31 0 -58 18 -85 57c-31 44 -63 107 -91 177c-20 -4 -42 -6 -63 -6c-29 0 -55 2 -80 9v-225h-44c-17 0 -24 5 -24 19v681h141c163 0 273 -89 273 -242c0 -112 -58 -185 -142 -220c25 -59 61 -121 90 -158c22 -28 32 -35 62 -35h13c2 -6 3 -12 3 -19
c0 -20 -17 -38 -53 -38zM845 409c-22 51 -62 79 -112 79c-55 0 -93 -35 -93 -88c0 -56 43 -86 121 -111c99 -31 148 -80 148 -156c0 -84 -61 -145 -171 -145c-84 0 -147 37 -147 59c0 11 3 24 9 31c42 -21 84 -33 132 -33c73 0 112 31 112 84c0 48 -30 80 -105 102
c-108 32 -164 86 -164 170c0 85 62 145 160 145c78 0 131 -36 161 -89c8 -14 5 -26 -9 -34c-11 -7 -28 -12 -42 -14zM169 640v-357c23 -6 47 -8 73 -8c120 0 203 64 203 183c0 122 -85 182 -205 182h-71z" />
    <glyph glyph-name="uni20A9" unicode="&#x20a9;" horiz-adv-x="1108" 
d="M34 300h136l-22 70h-105c-9 0 -13 5 -13 15c0 8 2 20 4 28h101l-84 270c17 13 38 21 52 21c11 0 17 -4 21 -17l84 -274h227c27 88 51 183 72 287h63c18 0 27 -5 32 -20l79 -267h228c28 91 52 187 72 287h47c18 0 24 -7 21 -21c-19 -92 -41 -180 -67 -266h83
c13 0 18 -6 18 -22v-21h-115c-7 -24 -15 -47 -24 -70h121c13 0 18 -6 18 -22v-21h-155c-30 -79 -64 -159 -103 -239c-7 -13 -15 -18 -32 -18h-59l-75 257h-207c-29 -82 -62 -162 -99 -239c-6 -13 -15 -18 -32 -18h-57l-80 257h-141c-9 0 -13 5 -13 15c0 8 2 20 4 28z
M399 300c8 23 16 46 23 70h-201l21 -70h157zM871 300c8 23 16 46 24 70h-201l20 -70h157zM309 81c26 54 51 113 74 176h-128zM779 82c27 55 52 114 76 175h-128zM490 370c-7 -24 -15 -47 -23 -70h179l-20 70h-136zM555 614c-15 -66 -32 -134 -52 -201h110z" />
    <glyph glyph-name="afii57636" unicode="&#x20aa;" horiz-adv-x="901" 
d="M589 252h-44c-17 0 -24 5 -24 19v137c0 176 -70 232 -190 232h-162v-640h-44c-17 0 -24 5 -24 19v681h233c175 0 255 -94 255 -286v-162zM311 286v154c14 5 30 8 47 8c14 0 20 -6 20 -17v-140c0 -174 65 -232 190 -232h162v641h44c18 0 24 -6 24 -20v-680h-232
c-175 0 -255 94 -255 286z" />
    <glyph glyph-name="afii61248" unicode="&#x2105;" horiz-adv-x="1030" 
d="M396 625c3 -7 4 -17 -4 -23c-9 -7 -26 -13 -41 -16c-19 48 -60 72 -110 72c-71 0 -134 -54 -134 -148c0 -116 86 -177 172 -177c34 0 72 9 98 25c7 -9 10 -19 10 -28c0 -19 -52 -50 -119 -50c-114 0 -223 87 -223 229c0 128 92 203 197 203c74 0 131 -38 154 -87z
M579 208c0 137 96 216 202 216c108 0 204 -79 204 -216c0 -138 -96 -216 -204 -216c-106 0 -202 78 -202 216zM922 202c0 107 -65 168 -145 168c-72 0 -136 -55 -136 -157c0 -107 66 -168 145 -168c72 0 136 54 136 157zM328 23l284 677h29c17 0 24 -8 19 -23l-284 -677h-29
c-17 0 -25 8 -19 23z" />
    <glyph glyph-name="uni2117" unicode="&#x2117;" horiz-adv-x="824" 
d="M50 350c0 200 162 362 362 362s362 -162 362 -362s-162 -362 -362 -362s-362 162 -362 362zM94 350c0 -178 141 -322 318 -322c176 0 317 144 317 322c0 176 -141 321 -317 321c-177 0 -318 -145 -318 -321zM345 158h-39c-11 0 -16 4 -16 12v368h131
c94 0 156 -49 156 -137c0 -87 -61 -137 -148 -137c-32 0 -60 3 -84 10v-116zM345 492v-174c20 -6 44 -9 68 -9c66 0 109 32 109 93s-44 90 -108 90h-69z" />
    </font>
</defs>
</svg>
