<?xml version="1.0" standalone="no"?>
<!DOCTYPE svg PUBLIC "-//W3C//DTD SVG 1.1//EN" "http://www.w3.org/Graphics/SVG/1.1/DTD/svg11.dtd" >
<svg xmlns="http://www.w3.org/2000/svg" xmlns:xlink="http://www.w3.org/1999/xlink" version="1.1">
<metadata>
Created by FontForge 20141024 at Mon Sep 28 14:09:24 2015
 By Jimmy Warting
Copyright (c) 2014 by S-Core Co., Ltd.. All rights reserved.
</metadata>
<defs>
<font id="CoreRhino45Regular-Italic" horiz-adv-x="397" >
  <font-face 
    font-family="Core Rhino 45 Regular"
    font-weight="400"
    font-style="italic"
    font-stretch="normal"
    units-per-em="1000"
    panose-1="2 1 5 3 3 3 2 2 2 4"
    ascent="800"
    descent="-200"
    x-height="534"
    cap-height="700"
    bbox="-432 -248.606 1201.15 983"
    underline-thickness="24"
    underline-position="-183"
    slope="-11"
    stemh="78"
    stemv="87"
    unicode-range="U+0008-FB04"
  />
<missing-glyph horiz-adv-x="500" 
d="M448 0h-360v750h360v-750zM163 65h210v620h-210v-620z" />
    <glyph glyph-name="f_i" unicode="fi" horiz-adv-x="653" 
d="M593 628c-28 0 -50 22 -44 56c7 32 33 53 62 53c28 0 49 -22 43 -57c-7 -32 -31 -52 -61 -52zM612 505l-76 -389c-7 -38 1 -53 25 -53h22c2 -9 1 -19 -1 -31c-4 -18 -32 -39 -71 -39c-47 0 -81 27 -63 116l68 351h-242l-89 -460h-59c-21 0 -27 6 -24 22l85 438h-86
c-14 0 -20 8 -16 26c3 15 8 33 15 48h101l6 30c22 115 97 178 188 178c68 0 109 -31 105 -48c-2 -14 -12 -31 -20 -40c-18 8 -49 13 -77 13c-56 0 -95 -31 -108 -99l-7 -34h307c16 0 21 -8 17 -29z" />
    <glyph glyph-name="f_l" unicode="fl" horiz-adv-x="704" 
d="M660 40c-3 -18 -43 -47 -101 -47c-82 0 -114 54 -96 149l98 503c-33 14 -82 22 -126 22c-94 0 -127 -32 -141 -106l-6 -27h159c16 0 22 -8 18 -29l-9 -45h-182l-89 -460h-59c-21 0 -27 6 -24 22l85 438h-86c-14 0 -20 8 -16 26c3 15 8 33 15 48h101l5 24
c23 121 96 184 222 184c52 0 111 -14 145 -35l4 21c21 5 43 8 62 8s25 -7 22 -21l-111 -576c-11 -53 6 -75 46 -75c19 0 43 4 60 11c4 -9 6 -24 4 -35z" />
    <glyph glyph-name="f_f" unicode="ff" horiz-adv-x="768" 
d="M613 460l-89 -460h-58c-21 0 -27 6 -24 22l85 438h-253l-89 -460h-59c-21 0 -27 6 -24 22l85 438h-86c-14 0 -20 8 -16 26c3 15 8 33 15 48h101l6 30c23 118 96 178 203 178c77 0 122 -35 118 -53c-2 -14 -11 -30 -20 -39c-26 11 -56 17 -98 17c-65 0 -101 -28 -115 -99
l-7 -34h253l6 30c23 118 98 178 197 178c65 0 116 -30 112 -50c-3 -14 -11 -31 -20 -40c-20 9 -53 15 -87 15c-66 0 -101 -28 -115 -99l-7 -34h160c16 0 21 -8 17 -29l-9 -45h-182z" />
    <glyph glyph-name="f_f_i" unicode="ffi" horiz-adv-x="993" 
d="M952 505l-76 -389c-7 -38 1 -53 25 -53h22c2 -9 1 -19 -1 -31c-4 -18 -32 -39 -71 -39c-47 0 -81 27 -63 116l68 351h-242l-89 -460h-59c-21 0 -27 6 -24 22l85 438h-253l-89 -460h-59c-21 0 -27 6 -24 22l85 438h-86c-14 0 -20 8 -16 26c3 15 8 33 15 48h101l6 30
c23 118 98 178 198 178c68 0 120 -32 116 -51c-3 -14 -12 -31 -21 -40c-21 10 -56 16 -91 16c-68 0 -101 -33 -114 -99l-7 -34h253l6 30c22 115 97 178 188 178c68 0 109 -31 105 -48c-2 -14 -12 -31 -20 -40c-18 8 -49 13 -77 13c-56 0 -95 -31 -108 -99l-7 -34h307
c16 0 21 -8 17 -29zM933 628c-28 0 -50 22 -44 56c7 32 33 53 62 53c28 0 49 -22 43 -57c-7 -32 -31 -52 -61 -52z" />
    <glyph glyph-name="f_f_l" unicode="ffl" horiz-adv-x="1044" 
d="M999 40c-3 -18 -43 -47 -101 -47c-82 0 -114 54 -96 149l98 503c-33 14 -82 22 -126 22c-94 0 -127 -32 -141 -106l-6 -27h159c16 0 22 -8 18 -29l-9 -45h-182l-89 -460h-59c-21 0 -27 6 -24 22l85 438h-252l-89 -460h-59c-21 0 -27 6 -24 22l85 438h-86
c-14 0 -20 8 -16 26c3 15 8 33 15 48h101l6 30c23 118 96 178 202 178c76 0 122 -35 118 -53c-2 -14 -11 -30 -20 -39c-26 11 -56 17 -98 17c-64 0 -100 -28 -114 -99l-7 -34h252l5 24c23 121 96 184 222 184c52 0 111 -14 145 -35l4 21c21 5 43 8 62 8s25 -7 22 -21
l-111 -576c-11 -53 6 -75 46 -75c19 0 43 4 60 11c4 -9 6 -24 4 -35z" />
    <glyph glyph-name=".notdef" horiz-adv-x="500" 
d="M448 0h-360v750h360v-750zM163 65h210v620h-210v-620z" />
    <glyph glyph-name="quotesingle" unicode="'" horiz-adv-x="292" 
d="M223 417h-49c-20 0 -25 6 -23 21l39 258c21 6 47 10 72 10c21 0 29 -8 25 -23z" />
    <glyph glyph-name="parenleft" unicode="(" horiz-adv-x="382" 
d="M127 310c32 167 113 315 214 409c37 33 58 40 69 34c9 -6 16 -19 18 -33c-110 -109 -182 -248 -213 -410c-32 -162 -14 -301 54 -410c-8 -14 -20 -27 -31 -33c-14 -6 -32 1 -56 34c-64 94 -88 242 -55 409z" />
    <glyph glyph-name="parenright" unicode=")" horiz-adv-x="382" 
d="M296 310c-33 -167 -114 -315 -216 -409c-36 -33 -58 -40 -68 -34c-9 6 -17 19 -19 33c110 109 183 248 215 410c31 162 12 301 -56 410c8 14 21 27 32 33c13 6 32 -1 55 -34c65 -94 89 -242 57 -409z" />
    <glyph glyph-name="asterisk" unicode="*" horiz-adv-x="605" 
d="M284 370l-12 185c20 5 42 10 65 10c20 0 28 -7 28 -21l-12 -175l173 68c12 -16 23 -36 30 -58c5 -18 2 -29 -11 -32l-170 -44l118 -143c-11 -16 -27 -33 -45 -46c-17 -11 -27 -11 -36 1l-94 149l-100 -156c-19 6 -40 16 -58 29c-16 12 -18 21 -10 33l111 134l-179 46
c0 21 3 44 10 64s15 25 29 21z" />
    <glyph glyph-name="plus" unicode="+" horiz-adv-x="649" 
d="M385 90h-59c-20 0 -28 6 -28 22v183h-175c-14 0 -20 7 -20 25c0 14 2 35 6 48h189v196c17 6 39 10 60 10c19 0 27 -7 27 -21v-185h173c16 0 23 -7 23 -28v-45h-196v-205z" />
    <glyph glyph-name="comma" unicode="," horiz-adv-x="329" 
d="M143 105c30 0 54 -22 45 -65c-10 -52 -37 -96 -77 -134c-30 -30 -59 -43 -66 -40c-6 4 -12 14 -12 24c35 28 64 64 76 100c-23 7 -38 28 -32 59c7 34 34 56 66 56z" />
    <glyph glyph-name="hyphen" unicode="-" horiz-adv-x="467" 
d="M129 371h257c16 0 21 -8 17 -28l-10 -50h-266c-14 0 -18 9 -14 27c3 15 9 35 16 51z" />
    <glyph glyph-name="period" unicode="." horiz-adv-x="329" 
d="M189 44c-7 -34 -34 -56 -66 -56c-30 0 -53 23 -46 61c7 34 34 56 66 56c30 0 53 -23 46 -61z" />
    <glyph glyph-name="slash" unicode="/" horiz-adv-x="494" 
d="M519 753h60c17 0 24 -7 22 -17c-1 -3 -3 -6 -5 -10l-578 -836h-59c-17 0 -24 7 -22 17c1 3 3 6 5 10z" />
    <glyph glyph-name="zero" unicode="0" horiz-adv-x="659" 
d="M624 350c-45 -228 -171 -362 -337 -362s-241 133 -196 362c44 228 170 362 336 362c167 0 241 -133 197 -362zM184 358c-34 -176 5 -291 125 -291c106 0 187 98 221 275c34 176 -3 291 -123 291c-107 0 -189 -98 -223 -275z" />
    <glyph glyph-name="one" unicode="1" horiz-adv-x="659" 
d="M442 700h55c20 0 26 -7 23 -23l-131 -677h-63c-21 0 -27 6 -24 22l112 575l-188 -107c-15 8 -27 22 -34 35c-3 6 -5 12 -4 19c2 9 9 17 23 25z" />
    <glyph glyph-name="two" unicode="2" horiz-adv-x="659" 
d="M614 477c-31 -163 -181 -293 -370 -399h275c16 0 21 -8 17 -29l-9 -49h-420c-17 0 -25 4 -30 16c-5 11 -9 29 -8 47c217 109 422 251 454 418c18 95 -30 152 -121 152c-76 0 -142 -49 -183 -131c-21 2 -44 8 -58 18c-11 7 -14 15 -12 24c2 8 7 17 11 23
c53 84 144 145 259 145c142 0 223 -92 195 -235z" />
    <glyph glyph-name="three" unicode="3" horiz-adv-x="659" 
d="M302 343c-16 1 -24 4 -30 16c-5 11 -7 32 -6 49l236 214h-303c-14 0 -19 8 -16 26c4 16 10 36 18 52h382c16 0 24 -4 29 -16c5 -11 9 -30 7 -47l-251 -230c131 -22 215 -87 191 -211c-25 -127 -149 -208 -306 -208c-121 0 -202 50 -196 79c2 15 11 31 20 42
c49 -27 111 -42 181 -42c112 0 193 47 209 129c17 88 -40 136 -165 147z" />
    <glyph glyph-name="four" unicode="4" horiz-adv-x="659" 
d="M432 221l76 390c-130 -80 -281 -246 -349 -390h273zM417 143h-323c-17 0 -24 4 -30 16c-4 11 -8 29 -7 47c87 183 257 376 431 483c28 11 56 18 94 18c28 0 35 -7 30 -30l-89 -456h71c16 0 21 -8 17 -28l-10 -50h-93l-27 -143h-63c-20 0 -27 6 -24 22z" />
    <glyph glyph-name="five" unicode="5" horiz-adv-x="659" 
d="M474 216c20 98 -44 150 -155 150c-38 0 -89 -5 -122 -12c-9 -2 -15 -3 -21 -3c-7 0 -12 2 -18 8l-9 10l109 331h355c16 0 20 -8 16 -28l-10 -50h-303l-63 -192c25 8 64 14 102 14c152 0 238 -88 210 -228c-25 -130 -138 -228 -307 -228c-126 0 -206 50 -200 79
c2 15 11 31 20 42c50 -28 110 -42 182 -42c112 0 196 52 214 149z" />
    <glyph glyph-name="six" unicode="6" horiz-adv-x="659" 
d="M450 633c-107 0 -212 -82 -254 -257c53 39 128 67 203 67c135 0 227 -89 200 -231c-25 -126 -139 -224 -285 -224c-170 0 -260 127 -219 339l3 16c45 230 194 369 364 369c97 0 164 -43 185 -117c3 -8 3 -20 2 -28c-2 -10 -9 -17 -23 -25c-17 -10 -43 -16 -65 -18
c-1 73 -45 109 -111 109zM368 364c-66 0 -133 -23 -187 -64c-23 -148 42 -233 153 -233c81 0 156 55 173 142c19 99 -45 155 -139 155z" />
    <glyph glyph-name="seven" unicode="7" horiz-adv-x="659" 
d="M654 637c-168 -210 -294 -415 -389 -637h-63c-23 0 -27 11 -20 28c97 211 221 414 365 594h-366c-14 0 -19 8 -16 26c4 16 10 36 18 52h434c17 0 24 -4 29 -16c5 -11 9 -29 8 -47z" />
    <glyph glyph-name="eight" unicode="8" horiz-adv-x="659" 
d="M61 186c15 80 78 144 186 178c-81 40 -106 94 -93 164c20 101 124 184 269 184c147 0 216 -84 196 -184c-13 -67 -67 -125 -141 -166c89 -42 125 -98 110 -175c-23 -117 -140 -199 -302 -199c-159 0 -248 80 -225 198zM152 184c-14 -71 54 -118 149 -118
c98 0 181 50 194 118c13 67 -28 110 -171 148c-110 -35 -160 -87 -172 -148zM527 529c12 62 -40 104 -119 104s-150 -42 -161 -103c-12 -61 27 -96 159 -138c70 38 111 84 121 137z" />
    <glyph glyph-name="nine" unicode="9" horiz-adv-x="659" 
d="M250 67c112 0 228 68 275 256c-54 -39 -128 -66 -202 -66c-135 0 -227 89 -200 231c25 126 139 224 285 224c170 0 260 -127 219 -339l-3 -16c-49 -250 -202 -369 -374 -369c-93 0 -173 47 -167 78c3 15 11 31 20 42c39 -27 93 -41 147 -41zM354 336c66 0 133 23 187 63
c22 149 -41 234 -152 234c-81 0 -157 -55 -174 -142c-19 -99 45 -155 139 -155z" />
    <glyph glyph-name="colon" unicode=":" horiz-adv-x="329" 
d="M189 44c-7 -34 -34 -56 -66 -56c-30 0 -53 23 -46 61c7 34 34 56 66 56c30 0 53 -23 46 -61zM275 485c-7 -34 -34 -56 -66 -56c-30 0 -54 23 -46 61c6 34 34 56 66 56c30 0 53 -23 46 -61z" />
    <glyph glyph-name="semicolon" unicode=";" horiz-adv-x="329" 
d="M275 485c-7 -34 -34 -56 -66 -56c-30 0 -54 23 -46 61c6 34 34 56 66 56c30 0 53 -23 46 -61zM143 105c30 0 54 -22 45 -65c-10 -52 -37 -96 -77 -134c-30 -30 -59 -43 -66 -40c-6 4 -12 14 -12 24c35 28 64 64 76 100c-23 7 -38 28 -32 59c7 34 34 56 66 56z" />
    <glyph glyph-name="less" unicode="&#x3c;" horiz-adv-x="649" 
d="M581 84l-458 197c-13 5 -20 13 -20 32v61l444 191c5 2 10 3 14 3c12 0 20 -10 20 -31c0 -17 -2 -32 -5 -48l-375 -157l359 -151c13 -6 21 -15 21 -32v-65z" />
    <glyph glyph-name="equal" unicode="=" horiz-adv-x="649" 
d="M581 405h-458c-14 0 -20 8 -20 26c0 13 2 34 6 48h449c16 0 23 -8 23 -28v-46zM581 184h-458c-14 0 -20 8 -20 26c0 13 2 34 6 48h449c16 0 23 -8 23 -28v-46z" />
    <glyph glyph-name="greater" unicode="&#x3e;" horiz-adv-x="649" 
d="M560 281l-457 -197v65c0 18 7 26 21 32l359 151l-376 157c-3 16 -4 31 -4 48c0 21 7 31 19 31c4 0 9 -1 14 -3l445 -191v-61c0 -18 -7 -27 -21 -32z" />
    <glyph glyph-name="question" unicode="?" horiz-adv-x="557" 
d="M223 -12c-31 0 -53 23 -46 61c7 34 34 56 65 56s53 -23 46 -61c-7 -35 -34 -56 -65 -56zM376 712c127 0 200 -79 177 -194c-15 -80 -62 -133 -154 -200c-63 -46 -82 -68 -90 -111l-6 -28h-62c-21 0 -27 6 -23 22l2 15c12 60 44 101 126 159c73 51 103 88 114 143
c14 69 -28 115 -99 115c-67 0 -136 -46 -172 -131c-22 2 -45 8 -58 18c-11 7 -15 15 -13 24c2 7 5 16 10 23c50 86 138 145 248 145z" />
    <glyph glyph-name="at" unicode="@" horiz-adv-x="1021" 
d="M446 124c54 0 110 25 155 69l76 196c-16 27 -52 40 -95 40c-91 0 -191 -77 -213 -190c-14 -71 17 -115 77 -115zM461 -99c86 0 170 21 249 73c9 -6 15 -16 15 -29c-3 -23 -110 -107 -280 -107c-254 0 -405 189 -357 437c49 251 279 437 520 437c253 0 402 -176 356 -412
c-28 -143 -130 -253 -249 -253c-60 0 -104 34 -113 91c-53 -56 -117 -86 -187 -86c-93 0 -153 76 -131 185c32 168 183 262 314 262c83 0 141 -40 167 -93l-79 -206c-20 -54 -4 -90 46 -90c67 0 139 75 161 188c39 199 -78 351 -297 351c-199 0 -396 -157 -438 -373
c-41 -213 85 -375 303 -375z" />
    <glyph glyph-name="A" unicode="A" horiz-adv-x="671" 
d="M75 0h-62c-16 0 -26 7 -24 19c1 4 3 7 4 10l376 660c24 10 57 17 84 17c25 0 32 -7 37 -30l123 -676h-69c-23 0 -30 6 -33 20l-26 162h-310zM473 259l-59 355l-197 -355h256z" />
    <glyph glyph-name="B" unicode="B" horiz-adv-x="655" 
d="M230 77h99c104 0 159 45 174 122c15 78 -32 118 -141 118h-157l-26 -135c-16 -80 -3 -105 51 -105zM414 622h-150l-44 -228h150c100 0 156 42 170 114c14 70 -30 114 -126 114zM189 700h248c152 0 217 -83 197 -186c-14 -74 -64 -128 -132 -153c71 -22 110 -82 93 -166
c-22 -117 -121 -195 -282 -195h-108c-98 0 -144 46 -119 174z" />
    <glyph glyph-name="C" unicode="C" horiz-adv-x="687" 
d="M707 565c2 -6 3 -12 2 -17c-3 -16 -13 -26 -34 -34c-14 -6 -34 -11 -53 -13c-17 83 -76 132 -169 132c-113 0 -238 -91 -271 -259c-38 -195 69 -308 236 -308c56 0 118 12 170 38c5 -11 6 -27 4 -42c-6 -30 -98 -74 -203 -74c-212 0 -345 147 -299 383
c42 218 214 341 383 341c126 0 209 -61 234 -147z" />
    <glyph glyph-name="D" unicode="D" horiz-adv-x="722" 
d="M231 78h64c136 0 268 92 303 272s-62 272 -198 272h-135l-85 -440c-15 -79 -3 -104 51 -104zM291 0h-86c-99 0 -143 46 -117 175l102 525h237c189 0 307 -133 265 -350c-43 -217 -212 -350 -401 -350z" />
    <glyph glyph-name="E" unicode="E" horiz-adv-x="574" 
d="M477 0h-272c-100 0 -144 46 -119 174l103 526h396c14 0 18 -8 15 -26c-4 -16 -9 -36 -17 -52h-319l-45 -236h249c16 0 20 -8 16 -28l-10 -50h-271l-24 -126c-15 -79 1 -105 51 -105h239c16 0 21 -8 17 -28z" />
    <glyph glyph-name="F" unicode="F" horiz-adv-x="549" 
d="M146 0h-63c-20 0 -27 6 -24 22l132 678h396c14 0 18 -8 15 -26c-4 -16 -9 -36 -17 -52h-319l-46 -240h249c16 0 20 -7 16 -28l-9 -49h-271z" />
    <glyph glyph-name="G" unicode="G" horiz-adv-x="749" 
d="M637 508c-16 81 -79 125 -170 125c-125 0 -253 -95 -285 -259c-37 -192 70 -308 222 -308c100 0 154 37 164 91l23 118h-142c-14 0 -20 7 -16 25c3 16 10 37 17 52h224c16 0 22 -7 17 -28l-32 -166c-19 -101 -123 -170 -272 -170c-210 0 -342 151 -297 383
c41 214 214 341 391 341c124 0 210 -56 242 -140c2 -6 2 -12 1 -17c-3 -16 -13 -26 -33 -34c-14 -6 -34 -11 -54 -13z" />
    <glyph glyph-name="H" unicode="H" horiz-adv-x="722" 
d="M146 0h-63c-20 0 -27 6 -24 22l131 674c20 6 43 10 66 10c19 0 25 -7 23 -21l-58 -296h349l61 311h63c20 0 26 -7 23 -23l-131 -677h-63c-21 0 -27 6 -24 22l56 290h-349z" />
    <glyph glyph-name="I" unicode="I" horiz-adv-x="293" 
d="M152 0h-63c-21 0 -27 6 -24 22l131 674c20 6 43 10 65 10c20 0 26 -7 24 -21z" />
    <glyph glyph-name="J" unicode="J" horiz-adv-x="422" 
d="M102 -12c-66 0 -123 31 -118 55c3 15 12 31 20 42c26 -11 61 -18 94 -18c75 0 121 40 137 122l99 508c20 6 43 9 65 9c20 0 26 -7 24 -21l-97 -498c-25 -126 -103 -199 -224 -199z" />
    <glyph glyph-name="K" unicode="K" horiz-adv-x="660" 
d="M670 630c-69 -84 -169 -174 -272 -249c42 -121 99 -236 146 -290c15 -17 33 -25 48 -25h19c1 -10 0 -25 -2 -36c-4 -20 -33 -42 -72 -42c-29 0 -58 16 -81 46c-49 64 -97 174 -137 295c-40 -28 -83 -54 -124 -76l-49 -253h-63c-20 0 -27 6 -24 22l131 674
c20 6 43 10 66 10c19 0 25 -7 23 -21l-65 -331c134 80 287 205 413 352c46 -16 60 -29 56 -50c-2 -8 -5 -17 -13 -26z" />
    <glyph glyph-name="L" unicode="L" horiz-adv-x="546" 
d="M479 0h-274c-100 0 -144 46 -119 174l102 522c20 6 43 10 66 10c19 0 25 -7 23 -21l-98 -503c-15 -79 1 -105 51 -105h241c15 0 21 -8 17 -28z" />
    <glyph glyph-name="M" unicode="M" horiz-adv-x="896" 
d="M693 23l51 539l-243 -324c-8 -11 -18 -16 -38 -16h-52l-122 340l-167 -562h-64c-21 0 -29 8 -24 24l200 658c26 14 57 24 75 24c14 0 20 -4 25 -18l134 -373l288 385h64c21 0 25 -7 24 -23l-57 -677h-67c-21 0 -28 6 -27 23z" />
    <glyph glyph-name="N" unicode="N" horiz-adv-x="718" 
d="M489 9l-236 539l-106 -548h-63c-20 0 -27 7 -24 22l127 656c24 16 56 28 73 28c13 0 19 -5 24 -15l236 -539l107 548h63c20 0 26 -7 23 -22l-127 -656c-24 -16 -56 -28 -73 -28c-13 0 -19 5 -24 15z" />
    <glyph glyph-name="O" unicode="O" horiz-adv-x="773" 
d="M87 350c46 239 220 362 397 362c178 0 304 -123 258 -362c-47 -239 -221 -362 -399 -362c-177 0 -303 123 -256 362zM181 359c-36 -189 53 -292 185 -292c116 0 244 85 281 274s-52 292 -184 292c-117 0 -245 -85 -282 -274z" />
    <glyph glyph-name="P" unicode="P" horiz-adv-x="638" 
d="M147 0h-63c-20 0 -27 7 -24 22l132 678h220c166 0 255 -95 224 -255s-165 -249 -314 -249c-41 0 -98 7 -134 19zM267 622l-65 -334c34 -9 76 -13 121 -13c111 0 198 59 221 173c22 116 -41 174 -153 174h-124z" />
    <glyph glyph-name="Q" unicode="Q" horiz-adv-x="773" 
d="M87 350c46 239 220 362 397 362c178 0 304 -123 258 -362c-31 -158 -117 -265 -224 -320c29 -73 66 -97 108 -97h19c2 -10 1 -21 -1 -32c-3 -19 -31 -39 -73 -39c-60 0 -105 50 -125 141c-34 -10 -69 -15 -103 -15c-177 0 -303 123 -256 362zM181 359
c-36 -189 54 -292 185 -292c116 0 244 85 281 274s-52 292 -184 292c-117 0 -245 -85 -282 -274z" />
    <glyph glyph-name="R" unicode="R" horiz-adv-x="653" 
d="M498 -12c-26 0 -49 10 -70 31c-44 44 -82 121 -109 197c-44 0 -90 4 -128 17l-45 -233h-63c-20 0 -27 6 -24 22l132 678h205c167 0 256 -90 227 -242c-24 -121 -107 -198 -211 -228c30 -69 63 -119 94 -147c16 -15 32 -21 48 -21h18c1 -10 0 -21 -2 -32
c-4 -20 -32 -42 -72 -42zM266 622l-61 -316c31 -8 67 -12 106 -12c111 0 197 56 218 164s-43 164 -155 164h-108z" />
    <glyph glyph-name="S" unicode="S" horiz-adv-x="594" 
d="M389 712c106 0 181 -48 207 -119c2 -7 4 -14 2 -24c-2 -9 -10 -16 -23 -23c-20 -10 -44 -16 -65 -17c-14 66 -60 104 -136 104c-79 0 -144 -44 -157 -111c-12 -62 26 -100 143 -140c138 -48 187 -110 169 -206c-22 -112 -130 -188 -278 -188c-117 0 -194 45 -188 77
c3 14 11 31 20 41c46 -25 108 -40 172 -40c108 0 169 45 181 106c12 63 -25 102 -128 131c-137 39 -206 106 -184 217c22 113 131 192 265 192z" />
    <glyph glyph-name="T" unicode="T" horiz-adv-x="611" 
d="M310 0h-63c-20 0 -27 6 -24 22l116 600h-196c-14 0 -19 8 -16 26c3 15 10 36 18 52h496c16 0 21 -8 17 -29l-10 -49h-218z" />
    <glyph glyph-name="U" unicode="U" horiz-adv-x="719" 
d="M107 294l78 402c20 6 43 10 66 10c19 0 25 -7 23 -21l-78 -398c-26 -133 25 -221 135 -221c109 0 195 88 221 221l81 413h63c20 0 26 -7 23 -23l-74 -383c-37 -187 -161 -306 -329 -306s-246 119 -209 306z" />
    <glyph glyph-name="V" unicode="V" horiz-adv-x="715" 
d="M758 675c-96 -225 -225 -451 -378 -652c-12 -16 -21 -23 -44 -23h-79l-123 679c25 15 56 26 76 26c15 0 20 -6 22 -18l102 -579c119 153 245 374 337 592h65c21 0 29 -8 22 -25z" />
    <glyph glyph-name="W" unicode="W" horiz-adv-x="1113" 
d="M1149 675c-86 -219 -196 -433 -340 -652c-11 -17 -23 -23 -45 -23h-79l-54 586c-72 -176 -176 -382 -295 -563c-10 -16 -23 -23 -45 -23h-75l-77 679c26 15 56 26 76 26c14 0 21 -4 23 -18l57 -580c105 161 206 362 296 593h83c24 0 33 -7 35 -24l53 -569
c111 167 215 372 299 593h66c22 0 28 -8 22 -25z" />
    <glyph glyph-name="X" unicode="X" horiz-adv-x="685" 
d="M433 354l176 -311c-34 -36 -59 -50 -76 -50c-11 0 -15 3 -21 14l-159 284c-94 -79 -180 -177 -248 -291h-69c-17 0 -25 5 -22 17c1 4 3 10 7 17c73 117 176 233 293 326l-164 295c34 36 59 50 76 50c11 0 15 -3 21 -14l149 -267c87 76 170 168 234 276h69
c16 0 22 -6 20 -18c-1 -4 -3 -10 -7 -17c-68 -110 -168 -221 -279 -311z" />
    <glyph glyph-name="Y" unicode="Y" horiz-adv-x="661" 
d="M246 22l41 213l-160 430c31 27 59 40 76 40c11 0 16 -4 20 -16l129 -366c101 109 203 242 277 377h65c21 0 27 -12 18 -27c-86 -153 -204 -304 -333 -434l-46 -239h-63c-21 0 -27 6 -24 22z" />
    <glyph glyph-name="Z" unicode="Z" horiz-adv-x="610" 
d="M178 700h417c17 0 24 -4 29 -16c5 -11 9 -29 8 -47l-485 -560h361c16 0 22 -8 18 -28l-9 -49h-449c-17 0 -25 4 -30 16c-5 11 -9 29 -8 47l484 559h-338c-14 0 -19 8 -16 26c3 15 10 36 18 52z" />
    <glyph glyph-name="bracketleft" unicode="[" horiz-adv-x="419" 
d="M305 676l-121 -620c-16 -85 0 -112 53 -112h77c16 0 21 -8 17 -28l-9 -46h-107c-104 0 -144 51 -118 183l135 697h244c14 0 20 -8 16 -26c-3 -15 -9 -33 -15 -48h-172z" />
    <glyph glyph-name="backslash" unicode="\" horiz-adv-x="494" 
d="M126 753h60l252 -836c2 -4 2 -7 1 -10c-2 -10 -11 -17 -28 -17h-60l-252 836c-2 4 -2 7 -1 10c2 10 11 17 28 17z" />
    <glyph glyph-name="bracketright" unicode="]" horiz-adv-x="419" 
d="M174 56l121 620h-172c0 15 0 33 3 48c4 18 12 26 26 26h216c20 0 27 -7 24 -23l-131 -674c-26 -132 -85 -183 -190 -183h-107l9 46c4 20 13 28 29 28h77c55 0 79 26 95 112z" />
    <glyph glyph-name="asciicircum" unicode="^" horiz-adv-x="622" 
d="M471 381l-146 239l-157 -257c-18 0 -41 7 -55 15c-9 5 -15 13 -15 20c0 8 3 14 8 22l172 280h65c19 0 34 -7 45 -25l172 -280l-45 -27c-8 -5 -13 -7 -20 -7c-10 0 -16 6 -24 20z" />
    <glyph glyph-name="underscore" unicode="_" horiz-adv-x="500" 
d="M-56 -107h473c15 0 20 -7 16 -28l-6 -30h-478c-14 0 -19 7 -16 25c2 10 7 24 11 33z" />
    <glyph glyph-name="grave" unicode="`" horiz-adv-x="417" 
d="M312 573l-108 105c11 16 26 31 39 41c8 6 16 9 24 9c6 0 12 -3 19 -11l94 -116l-32 -29c-6 -5 -12 -8 -18 -8s-11 3 -18 9z" />
    <glyph glyph-name="a" unicode="a" horiz-adv-x="593" 
d="M224 62c62 0 131 33 177 97l15 73c-31 14 -89 22 -131 22c-87 0 -143 -36 -155 -96c-12 -63 32 -96 94 -96zM508 63h20c1 -9 1 -19 -1 -31c-4 -18 -32 -39 -73 -39c-42 0 -68 33 -65 87c-46 -56 -118 -92 -198 -92c-108 0 -168 68 -148 167c21 110 116 174 245 174
c51 0 106 -12 140 -31l9 44c17 86 -32 129 -133 129c-50 0 -103 -10 -149 -32c-6 8 -7 25 -5 38c6 28 89 69 190 69c138 0 210 -70 183 -208l-43 -220c-8 -42 4 -55 28 -55z" />
    <glyph glyph-name="b" unicode="b" horiz-adv-x="638" 
d="M426 546c125 0 206 -98 174 -258c-32 -169 -171 -300 -329 -300c-143 0 -213 94 -183 244l96 496c21 5 43 8 62 8s25 -7 22 -21l-49 -257c54 53 129 88 207 88zM389 472c-60 0 -132 -36 -185 -90l-29 -150c-23 -116 35 -169 113 -169c98 0 199 93 224 222
s-35 187 -123 187z" />
    <glyph glyph-name="c" unicode="c" horiz-adv-x="552" 
d="M554 439c2 -6 2 -14 1 -18c-2 -11 -7 -18 -21 -25c-16 -9 -41 -15 -62 -17c-7 56 -44 92 -117 92c-91 0 -177 -71 -199 -186c-29 -147 63 -223 171 -223c48 0 92 10 138 31c5 -10 7 -26 4 -38c-5 -28 -78 -67 -171 -67c-146 0 -267 107 -230 295c31 164 161 263 306 263
c98 0 162 -46 180 -107z" />
    <glyph glyph-name="d" unicode="d" horiz-adv-x="652" 
d="M523 493l46 237h59c20 0 27 -7 24 -23l-115 -589c-8 -42 4 -55 28 -55h20c1 -9 1 -19 -1 -31c-4 -18 -32 -39 -73 -39c-44 0 -71 33 -65 99c-47 -63 -125 -104 -208 -104c-129 0 -209 97 -178 258c35 176 178 300 324 300c60 0 108 -19 139 -53zM272 62
c64 0 140 45 195 139l42 216c-32 37 -77 54 -127 54c-109 0 -208 -95 -233 -223c-23 -116 26 -186 123 -186z" />
    <glyph glyph-name="e" unicode="e" horiz-adv-x="575" 
d="M304 63c47 0 93 9 139 31c5 -9 7 -26 4 -39c-5 -27 -76 -67 -172 -67c-152 0 -242 115 -211 279c34 174 177 279 317 279c126 0 195 -83 174 -196c-6 -29 -18 -58 -31 -78c-20 -32 -40 -41 -77 -41h-300c-10 -110 59 -168 157 -168zM362 471c-89 0 -170 -63 -200 -166
h291c7 11 13 27 16 41c15 76 -25 125 -107 125z" />
    <glyph glyph-name="f" unicode="f" horiz-adv-x="428" 
d="M274 460l-89 -460h-59c-21 0 -27 6 -24 22l85 438h-86c-14 0 -20 8 -16 26c3 15 8 33 15 48h101l6 30c23 118 98 178 197 178c66 0 117 -30 113 -50c-3 -14 -12 -31 -21 -40c-20 9 -53 15 -87 15c-67 0 -101 -32 -114 -99l-7 -34h159c16 0 22 -8 18 -29l-9 -45h-182z" />
    <glyph glyph-name="g" unicode="g" horiz-adv-x="640" 
d="M523 493l8 41h59c20 0 27 -7 24 -23l-98 -501c-25 -133 -152 -258 -342 -258c-118 0 -179 58 -164 136c9 48 47 96 118 130l4 -2c-63 39 -93 120 -72 230c35 176 178 300 324 300c60 0 108 -19 139 -53zM272 62c64 0 140 45 195 139l42 216c-32 37 -77 54 -127 54
c-109 0 -208 -95 -233 -223c-23 -116 26 -186 123 -186zM191 -174c112 0 216 69 238 181l16 83c-48 -62 -125 -102 -207 -102c-22 0 -42 3 -61 8c-46 -28 -71 -58 -78 -98c-8 -42 24 -72 92 -72z" />
    <glyph glyph-name="h" unicode="h" horiz-adv-x="641" 
d="M132 0h-59c-21 0 -27 6 -24 22l137 705c21 6 43 9 62 9s25 -7 22 -21l-46 -239c53 41 127 70 196 70c123 0 173 -86 145 -231l-39 -199c-7 -38 1 -53 25 -53h22c2 -9 1 -19 -1 -31c-4 -18 -32 -39 -71 -39c-47 0 -81 27 -63 116l41 212c19 98 -11 150 -97 150
c-54 0 -120 -23 -171 -64z" />
    <glyph glyph-name="i" unicode="i" horiz-adv-x="270" 
d="M210 628c-28 0 -50 22 -44 56c7 32 33 53 62 53s49 -22 43 -57c-7 -32 -31 -52 -61 -52zM66 109l82 422c21 6 42 9 61 9s26 -7 23 -21l-78 -403c-7 -38 1 -53 25 -53h22c2 -9 1 -19 -1 -31c-4 -18 -32 -39 -71 -39c-47 0 -81 27 -63 116z" />
    <glyph glyph-name="j" unicode="j" horiz-adv-x="263" 
d="M54 -146c-41 -41 -79 -58 -95 -58c-14 0 -25 20 -27 35c62 52 107 115 120 184l101 516c21 6 42 9 61 9s26 -7 23 -21l-99 -510c-12 -61 -44 -117 -84 -155zM215 628c-28 0 -50 22 -44 56c7 32 33 53 62 53s49 -22 43 -57c-7 -32 -31 -52 -61 -52z" />
    <glyph glyph-name="k" unicode="k" horiz-adv-x="579" 
d="M132 0h-59c-21 0 -27 6 -24 22l137 705c21 6 43 9 62 9s25 -7 22 -21l-84 -436c109 59 242 158 333 261c43 -16 54 -30 50 -49c-9 -45 -135 -141 -233 -204c35 -78 83 -153 118 -195c17 -20 33 -29 45 -29h20c1 -9 1 -19 -1 -31c-4 -18 -33 -39 -70 -39
c-22 0 -45 11 -66 35c-43 48 -89 128 -121 214c-30 -17 -63 -35 -92 -49z" />
    <glyph glyph-name="l" unicode="l" horiz-adv-x="313" 
d="M269 40c-3 -18 -43 -47 -101 -47c-82 0 -114 54 -96 149l114 586c21 5 43 8 62 8s25 -7 22 -21l-111 -576c-11 -53 6 -75 46 -75c19 0 43 4 60 11c4 -9 6 -24 4 -35z" />
    <glyph glyph-name="m" unicode="m" horiz-adv-x="916" 
d="M712 109l48 249c16 80 -19 113 -78 113c-49 0 -104 -23 -153 -67c-1 -16 -2 -32 -6 -50l-68 -354h-59c-20 0 -27 6 -24 22l65 335c15 79 -18 114 -77 114c-48 0 -101 -21 -150 -69l-78 -402h-59c-21 0 -27 6 -24 22l99 509c21 6 42 9 61 9s26 -7 23 -21l-8 -45
c51 47 113 72 171 72c63 0 108 -26 126 -80c59 50 130 80 195 80c97 0 156 -58 131 -191l-47 -239c-7 -38 1 -53 25 -53h22c2 -9 1 -19 -1 -31c-4 -18 -32 -39 -71 -39c-47 0 -81 27 -63 116z" />
    <glyph glyph-name="n" unicode="n" horiz-adv-x="641" 
d="M132 0h-59c-21 0 -27 6 -24 22l99 509c21 6 42 9 61 9s26 -7 23 -21l-8 -43c53 41 127 70 196 70c123 0 173 -86 145 -231l-39 -199c-7 -38 1 -53 25 -53h22c2 -9 1 -19 -1 -31c-4 -18 -32 -39 -71 -39c-47 0 -81 27 -63 116l41 212c19 98 -11 150 -97 150
c-54 0 -120 -23 -171 -64z" />
    <glyph glyph-name="o" unicode="o" horiz-adv-x="628" 
d="M380 546c141 0 241 -102 206 -279c-34 -177 -174 -279 -315 -279s-241 102 -207 279c35 177 175 279 316 279zM291 63c88 0 179 62 205 198c27 138 -44 210 -136 210c-88 0 -179 -62 -205 -198c-27 -138 44 -210 136 -210z" />
    <glyph glyph-name="p" unicode="p" horiz-adv-x="640" 
d="M139 41l-49 -254h-59c-20 0 -27 7 -24 22l141 723c21 5 42 8 61 8s26 -7 23 -21l-14 -76c47 62 124 103 207 103c129 0 209 -97 177 -258c-34 -176 -177 -300 -323 -300c-60 0 -108 19 -140 53zM391 472c-64 0 -140 -45 -195 -139l-42 -216c32 -37 77 -54 127 -54
c109 0 208 95 233 223c23 116 -26 186 -123 186z" />
    <glyph glyph-name="q" unicode="q" horiz-adv-x="640" 
d="M523 493l8 41h59c20 0 27 -7 24 -23l-141 -724h-59c-21 0 -27 7 -23 23l54 280c-48 -62 -125 -102 -207 -102c-129 0 -209 97 -178 258c35 176 178 300 324 300c60 0 108 -19 139 -53zM272 62c64 0 140 45 195 139l42 216c-32 37 -77 54 -127 54
c-109 0 -208 -95 -233 -223c-23 -116 26 -186 123 -186z" />
    <glyph glyph-name="r" unicode="r" horiz-adv-x="454" 
d="M481 525c15 -11 20 -18 18 -31c-2 -7 -6 -15 -14 -22c-11 -12 -27 -23 -41 -30c-22 20 -55 29 -89 29c-63 0 -118 -39 -155 -119l-68 -352h-59c-21 0 -27 6 -24 22l99 509c21 6 42 9 61 9s26 -7 23 -21l-12 -64c43 55 104 91 174 91c39 0 68 -8 87 -21z" />
    <glyph glyph-name="s" unicode="s" horiz-adv-x="499" 
d="M402 393c-8 50 -48 78 -102 78c-60 0 -105 -33 -114 -78c-10 -50 24 -75 110 -98c110 -29 151 -77 135 -157c-17 -91 -97 -150 -223 -150c-98 0 -165 42 -159 69c2 14 12 31 20 39c39 -21 90 -34 143 -34c77 0 122 24 132 72c8 42 -13 67 -93 86
c-125 30 -169 86 -152 173c17 90 105 153 218 153c83 0 145 -35 165 -90c2 -6 4 -12 3 -18c-2 -10 -9 -17 -19 -24c-15 -10 -39 -18 -64 -21z" />
    <glyph glyph-name="t" unicode="t" horiz-adv-x="453" 
d="M285 63c28 0 61 5 87 16c5 -8 8 -25 5 -38c-4 -23 -55 -53 -127 -53c-98 0 -153 62 -129 183l56 289h-75c-14 0 -20 8 -16 26c3 16 9 34 15 48h90l30 151c21 5 42 8 61 8s26 -7 23 -21l-27 -138h170c15 0 21 -8 17 -28l-9 -46h-192l-57 -295c-15 -73 22 -102 78 -102z
" />
    <glyph glyph-name="u" unicode="u" horiz-adv-x="614" 
d="M596 511l-56 -286c-29 -148 -140 -237 -276 -237c-137 0 -214 89 -185 237l60 306c21 6 42 9 61 9s26 -7 23 -21l-58 -300c-19 -98 35 -157 114 -157c80 0 154 59 173 157l61 315h59c20 0 27 -7 24 -23z" />
    <glyph glyph-name="v" unicode="v" horiz-adv-x="589" 
d="M310 18c-11 -13 -22 -18 -38 -18h-77l-95 514c26 16 55 27 73 27c12 0 17 -4 19 -16l75 -438c88 113 191 288 256 447h58c21 0 30 -8 22 -25c-70 -165 -180 -349 -293 -491z" />
    <glyph glyph-name="w" unicode="w" horiz-adv-x="874" 
d="M802 534h60c20 0 27 -8 20 -25c-56 -155 -138 -327 -244 -489c-8 -14 -19 -20 -36 -20h-82l-37 429c-48 -130 -123 -281 -204 -411c-9 -14 -19 -18 -35 -18h-80l-60 513c26 16 56 28 75 28c11 0 16 -4 17 -17l41 -436c75 118 149 273 210 446h75c19 0 29 -7 30 -25
l42 -421c76 122 151 281 208 446z" />
    <glyph glyph-name="x" unicode="x" horiz-adv-x="566" 
d="M487 63h15c1 -9 0 -17 -2 -28c-4 -20 -29 -42 -69 -42c-29 0 -49 16 -75 63l-84 151c-70 -58 -137 -130 -183 -207h-64c-15 0 -22 6 -20 16c0 3 2 7 5 11c51 84 137 174 226 243l-127 223c29 33 53 46 68 46c10 0 15 -3 18 -10l114 -202c66 58 133 129 179 207h65
c13 0 21 -6 19 -17c-1 -3 -2 -7 -5 -11c-51 -83 -136 -173 -223 -242l94 -166c14 -26 27 -35 49 -35z" />
    <glyph glyph-name="y" unicode="y" horiz-adv-x="627" 
d="M85 219l61 313c21 5 42 8 61 8s26 -7 23 -21l-59 -306c-19 -98 11 -150 97 -150c54 0 120 23 171 64l79 408h59c20 0 27 -6 24 -22l-99 -510c-26 -134 -138 -251 -317 -251c-114 0 -174 57 -158 135c9 48 43 92 108 126c-52 35 -69 106 -50 206zM413 -6l13 64
c-53 -41 -127 -70 -196 -70c-16 0 -29 2 -43 4c-44 -27 -65 -59 -72 -95c-8 -42 23 -72 86 -72c105 0 192 63 212 169z" />
    <glyph glyph-name="z" unicode="z" horiz-adv-x="505" 
d="M505 473l-367 -400h276c15 0 20 -8 16 -28l-8 -45h-361c-16 0 -24 3 -29 14c-5 12 -8 30 -8 47l367 399h-260c-15 0 -20 8 -16 26c3 15 8 33 15 48h339c16 0 24 -3 29 -14c5 -12 8 -30 7 -47z" />
    <glyph glyph-name="braceleft" unicode="{" horiz-adv-x="410" 
d="M99 270c-17 2 -22 9 -18 29l9 48c75 0 115 46 127 109l25 128c24 123 109 166 210 166h20c14 0 19 -8 15 -26c-3 -15 -8 -33 -15 -48h-50c-46 0 -81 -32 -93 -93l-24 -121c-15 -78 -50 -126 -116 -152c56 -27 72 -74 57 -152l-24 -122c-12 -62 16 -92 58 -92h35
c16 0 20 -8 16 -28l-9 -46h-33c-105 0 -179 37 -154 166l25 128c13 65 -11 99 -61 106z" />
    <glyph glyph-name="bar" unicode="|" horiz-adv-x="309" 
d="M210 -200h-47c-21 0 -28 7 -28 23v940c13 4 32 6 47 6c20 0 28 -7 28 -21v-948z" />
    <glyph glyph-name="braceright" unicode="}" horiz-adv-x="410" 
d="M334 270c-53 -7 -90 -43 -103 -106l-25 -128c-25 -129 -113 -166 -218 -166h-32l8 46c4 20 13 28 28 28h27c45 0 81 31 92 92l24 122c15 78 51 125 117 152c-56 26 -73 74 -58 152l24 121c12 63 -15 93 -57 93h-42c-1 15 0 33 3 48c4 18 11 26 26 26h20
c100 0 169 -43 145 -166l-25 -128c-12 -63 10 -109 85 -109l-9 -48c-4 -20 -13 -27 -30 -29z" />
    <glyph glyph-name="asciitilde" unicode="~" horiz-adv-x="649" 
d="M116 263c-14 6 -19 15 -19 24c0 7 2 17 4 23c17 62 60 105 135 105c39 0 75 -13 109 -37c57 -40 74 -50 97 -50c30 0 55 21 66 88l62 -13c13 -3 19 -11 17 -23c-13 -75 -59 -126 -140 -126c-39 0 -75 13 -109 37c-57 40 -74 50 -97 50c-30 0 -55 -21 -66 -87
c-18 -1 -43 2 -59 9z" />
    <glyph glyph-name="periodcentered" unicode="&#xb7;" horiz-adv-x="329" 
d="M244 329c-6 -34 -33 -56 -65 -56c-30 0 -54 23 -47 61c7 34 34 56 66 56c30 0 54 -23 46 -61z" />
    <glyph glyph-name="twodotenleader" unicode="&#x2025;" horiz-adv-x="658" 
d="M189 44c-7 -34 -34 -56 -66 -56c-30 0 -53 23 -46 61c7 34 34 56 66 56c30 0 53 -23 46 -61zM518 44c-7 -34 -34 -56 -66 -56c-30 0 -53 23 -46 61c7 34 34 56 66 56c30 0 53 -23 46 -61z" />
    <glyph glyph-name="ellipsis" unicode="&#x2026;" horiz-adv-x="987" 
d="M189 44c-7 -34 -34 -56 -66 -56c-30 0 -53 23 -46 61c7 34 34 56 66 56c30 0 53 -23 46 -61zM847 44c-7 -34 -34 -56 -66 -56c-30 0 -53 23 -46 61c7 34 34 56 66 56c30 0 53 -23 46 -61zM518 44c-7 -34 -34 -56 -66 -56c-30 0 -53 23 -46 61c7 34 34 56 66 56
c30 0 53 -23 46 -61z" />
    <glyph glyph-name="dieresis" unicode="&#xa8;" horiz-adv-x="417" 
d="M254 643c-6 -31 -30 -51 -58 -51s-49 21 -43 55c6 31 31 51 60 51c27 0 48 -21 41 -55zM432 643c-6 -31 -30 -51 -58 -51s-49 21 -43 55c6 31 31 51 60 51c27 0 48 -21 41 -55z" />
    <glyph glyph-name="uni00AD" unicode="&#xad;" horiz-adv-x="434" 
d="M123 371h257c16 0 21 -8 17 -28l-10 -50h-266c-14 0 -18 9 -14 27c3 15 9 35 16 51z" />
    <glyph glyph-name="afii00208" unicode="&#x2015;" horiz-adv-x="1000" 
d="M139 371h771c15 0 20 -8 16 -28l-10 -50h-779c-14 0 -19 9 -15 27c3 15 10 35 17 51z" />
    <glyph glyph-name="quoteleft" unicode="&#x2018;" horiz-adv-x="329" 
d="M222 499c-30 0 -53 22 -45 65c10 52 38 96 77 134c30 30 60 43 66 40c6 -4 12 -14 12 -24c-34 -28 -63 -64 -75 -100c22 -7 37 -28 31 -59c-6 -34 -34 -56 -66 -56z" />
    <glyph glyph-name="quoteright" unicode="&#x2019;" horiz-adv-x="329" 
d="M267 742c30 0 53 -22 45 -65c-10 -52 -38 -96 -77 -134c-30 -30 -59 -43 -66 -40c-6 4 -12 14 -12 24c34 28 63 64 75 100c-22 7 -37 28 -31 59c6 34 34 56 66 56z" />
    <glyph glyph-name="quotedblleft" unicode="&#x201c;" horiz-adv-x="491" 
d="M384 499c-30 0 -53 22 -45 65c10 52 38 96 77 134c30 30 60 43 66 40c6 -4 12 -14 12 -24c-34 -28 -63 -64 -75 -100c22 -7 37 -28 31 -59c-6 -34 -34 -56 -66 -56zM222 499c-30 0 -53 22 -45 65c10 52 38 96 77 134c30 30 60 43 66 40c6 -4 12 -14 12 -24
c-34 -28 -63 -64 -75 -100c22 -7 37 -28 31 -59c-6 -34 -34 -56 -66 -56z" />
    <glyph glyph-name="quotedblright" unicode="&#x201d;" horiz-adv-x="491" 
d="M267 742c30 0 53 -22 45 -65c-10 -52 -38 -96 -77 -134c-30 -30 -59 -43 -66 -40c-6 4 -12 14 -12 24c34 28 63 64 75 100c-22 7 -37 28 -31 59c6 34 34 56 66 56zM429 742c30 0 53 -22 45 -65c-10 -52 -38 -96 -77 -134c-30 -30 -59 -43 -66 -40c-6 4 -12 14 -12 24
c34 28 63 64 75 100c-22 7 -37 28 -31 59c6 34 34 56 66 56z" />
    <glyph glyph-name="plusminus" unicode="&#xb1;" horiz-adv-x="649" 
d="M385 164h-59c-20 0 -28 6 -28 22v183h-175c-14 0 -20 7 -20 25c0 14 2 35 6 48h189v196c17 6 39 10 60 10c19 0 27 -7 27 -21v-185h173c16 0 23 -7 23 -28v-45h-196v-205zM581 0h-458c-14 0 -20 7 -20 25c0 14 2 34 6 48h449c16 0 23 -8 23 -28v-45z" />
    <glyph glyph-name="multiply" unicode="&#xd7;" horiz-adv-x="649" 
d="M477 135l-136 138l-136 -138c-5 -5 -10 -8 -15 -8c-6 0 -13 4 -20 11l-39 39l154 153l-154 154c12 24 34 55 53 55c6 0 12 -4 18 -10l139 -142l139 142c6 6 12 10 18 10c19 0 41 -31 53 -55l-154 -154l154 -153l-39 -39c-7 -7 -14 -11 -20 -11c-5 0 -10 3 -15 8z" />
    <glyph glyph-name="divide" unicode="&#xf7;" horiz-adv-x="649" 
d="M581 295h-458c-14 0 -20 7 -20 25c0 14 2 35 6 48h449c16 0 23 -7 23 -28v-45zM344 463c-30 0 -58 23 -58 61c0 34 23 56 55 56c30 0 58 -23 58 -61c0 -35 -23 -56 -55 -56zM341 200c30 0 58 -23 58 -61c0 -34 -23 -56 -55 -56c-30 0 -58 23 -58 61c0 35 23 56 55 56z
" />
    <glyph glyph-name="notequal" unicode="&#x2260;" horiz-adv-x="649" 
d="M234 49h-41c-17 0 -26 4 -26 13c0 3 1 7 4 12l56 110h-104c-14 0 -20 8 -20 26c0 13 2 34 6 48h156l76 147h-218c-14 0 -20 8 -20 26c0 13 2 34 6 48h270l71 136h41c17 0 25 -5 25 -14c0 -4 -1 -8 -3 -12l-57 -110h102c16 0 23 -8 23 -28v-46h-163l-76 -147h216
c16 0 23 -8 23 -28v-46h-278z" />
    <glyph glyph-name="lessequal" unicode="&#x2264;" horiz-adv-x="638" 
d="M576 0h-458c-14 0 -20 7 -20 25c0 14 2 34 6 48h449c16 0 23 -8 23 -28v-45zM567 161l-449 197c-13 5 -20 13 -20 32v61l435 191c5 2 10 3 14 3c12 0 20 -10 20 -31c0 -17 -2 -32 -5 -48l-366 -157l350 -151c13 -6 21 -15 21 -32v-65z" />
    <glyph glyph-name="greaterequal" unicode="&#x2265;" horiz-adv-x="638" 
d="M556 0h-458v45c0 20 7 28 23 28h449c4 -14 6 -34 6 -48c0 -18 -6 -25 -20 -25zM556 358l-449 -197v65c0 17 8 26 21 32l350 151l-366 157c-3 16 -5 31 -5 48c0 21 8 31 20 31c4 0 9 -1 14 -3l435 -191v-61c0 -19 -7 -27 -20 -32z" />
    <glyph glyph-name="infinity" unicode="&#x221e;" horiz-adv-x="786" 
d="M250 479c58 0 110 -31 161 -96c46 63 102 96 161 96c80 0 152 -59 152 -147s-72 -145 -152 -145c-59 0 -110 30 -161 95c-47 -64 -102 -95 -161 -95c-80 0 -152 58 -152 146s72 146 152 146zM566 410c-38 0 -72 -18 -116 -78c46 -59 78 -77 116 -77c43 0 78 28 78 77
s-35 78 -78 78zM255 255c38 0 72 18 117 77c-47 60 -79 78 -117 78c-42 0 -78 -28 -78 -77s36 -78 78 -78z" />
    <glyph glyph-name="degree" unicode="&#xb0;" horiz-adv-x="396" 
d="M218 478c47 0 80 35 80 87c0 53 -37 91 -84 91s-80 -35 -80 -87c0 -53 37 -91 84 -91zM216 422c-87 0 -150 63 -150 145s63 145 150 145s150 -63 150 -145s-63 -145 -150 -145z" />
    <glyph glyph-name="minute" unicode="&#x2032;" horiz-adv-x="314" 
d="M192 427h-42c-20 0 -29 7 -22 22l110 249c18 6 40 9 63 9c22 0 33 -9 21 -32z" />
    <glyph glyph-name="second" unicode="&#x2033;" horiz-adv-x="481" 
d="M192 427h-42c-20 0 -29 7 -22 22l110 249c18 6 40 9 63 9c22 0 33 -9 21 -32zM353 427h-42c-20 0 -29 7 -22 22l116 249c18 6 40 9 63 9c22 0 33 -9 21 -32z" />
    <glyph glyph-name="partialdiff" unicode="&#x2202;" horiz-adv-x="642" 
d="M300 633c-66 0 -117 -36 -133 -109c-21 2 -46 8 -61 18c-13 8 -18 15 -18 25c0 8 3 20 7 28c36 74 111 117 208 117c170 0 292 -139 292 -369v-16c0 -212 -115 -339 -285 -339c-146 0 -241 98 -241 224c0 142 110 231 245 231c75 0 144 -28 190 -67
c-8 175 -97 257 -204 257zM329 364c-94 0 -169 -56 -169 -155c0 -87 65 -142 146 -142c111 0 192 85 198 233c-46 41 -109 64 -175 64z" />
    <glyph glyph-name="equivalence" unicode="&#x2261;" horiz-adv-x="638" 
d="M576 295h-458c-14 0 -20 7 -20 25c0 14 2 35 6 48h449c16 0 23 -7 23 -28v-45zM576 116h-458c-14 0 -20 8 -20 26c0 13 2 34 6 48h449c16 0 23 -8 23 -28v-46zM576 473h-458c-14 0 -20 8 -20 26c0 13 2 34 6 48h449c16 0 23 -8 23 -28v-46z" />
    <glyph glyph-name="section" unicode="&#xa7;" horiz-adv-x="504" 
d="M431 559c-7 51 -45 78 -99 78c-60 0 -105 -33 -114 -78c-10 -50 25 -73 110 -100c105 -34 150 -82 135 -158c-11 -57 -51 -99 -110 -122c54 -29 72 -72 61 -129c-17 -90 -97 -150 -223 -150c-99 0 -165 41 -159 70c2 13 12 30 20 38c39 -20 90 -33 143 -33
c77 0 122 24 131 71c9 43 -17 67 -92 86c-126 32 -170 84 -153 167c11 56 53 98 113 122c-56 34 -74 80 -63 138c18 90 105 153 218 153c83 0 145 -35 165 -90c2 -6 3 -12 2 -18c-2 -11 -7 -17 -18 -24c-15 -10 -39 -18 -67 -21zM169 304c-12 -59 37 -80 110 -97
c59 16 89 54 96 87c11 58 -38 80 -110 97c-60 -17 -90 -54 -96 -87z" />
    <glyph glyph-name="arrowright" unicode="&#x2192;" horiz-adv-x="800" 
d="M58 367h498v93c75 -41 148 -82 222 -123c4 -2 6 -4 6 -5c0 -2 -2 -4 -6 -6c-74 -41 -147 -82 -222 -123v93h-486c-12 0 -18 7 -18 23c0 15 2 34 6 48z" />
    <glyph glyph-name="arrowleft" unicode="&#x2190;" horiz-adv-x="800" 
d="M279 203c-75 41 -148 82 -222 123c-4 2 -5 4 -5 6c0 1 1 3 5 5c74 41 147 82 222 123v-93h482c16 0 23 -8 23 -28v-43h-505v-93z" />
    <glyph glyph-name="arrowup" unicode="&#x2191;" horiz-adv-x="800" 
d="M423 714c41 -74 82 -147 123 -222h-93v-505h-43c-20 0 -28 7 -28 22v483h-93c41 75 82 148 123 222c2 4 4 6 6 6c1 0 3 -2 5 -6z" />
    <glyph glyph-name="arrowdown" unicode="&#x2193;" horiz-adv-x="800" 
d="M412 -7c-41 73 -82 146 -123 221h93v499c12 4 30 7 45 7c17 0 26 -7 26 -21v-485h93c-41 -75 -82 -148 -123 -221c-2 -4 -4 -6 -5 -6c-2 0 -4 2 -6 6z" />
    <glyph glyph-name="arrowboth" unicode="&#x2194;" horiz-adv-x="800" 
d="M279 367h277v93c75 -41 148 -82 222 -123c4 -2 6 -4 6 -5c0 -2 -2 -4 -6 -6c-74 -41 -147 -82 -222 -123v93h-277v-93c-75 41 -148 82 -222 123c-4 2 -5 4 -5 6c0 1 1 3 5 5c74 41 147 82 222 123v-93z" />
    <glyph glyph-name="radical" unicode="&#x221a;" horiz-adv-x="570" 
d="M534 747l-157 -721c-4 -17 -16 -26 -41 -26h-68l-135 313h-52c-14 0 -20 7 -20 25c0 13 2 28 4 42h91c23 0 32 -5 38 -19l117 -274l151 683h49c18 0 26 -8 23 -23z" />
    <glyph glyph-name="integral" unicode="&#x222b;" horiz-adv-x="525" 
d="M39 -197c0 14 6 30 12 39c22 -9 56 -14 90 -14c66 0 96 28 96 99v637c0 117 65 178 162 178c65 0 123 -30 123 -50c0 -14 -6 -30 -13 -39c-22 9 -56 14 -90 14c-66 0 -95 -28 -95 -99v-637c0 -117 -65 -178 -163 -178c-65 0 -122 30 -122 50z" />
    <glyph glyph-name="intersection" unicode="&#x2229;" horiz-adv-x="759" 
d="M681 285v-285h-63c-20 0 -28 7 -28 22v268c0 164 -77 251 -190 251c-114 0 -195 -87 -195 -251v-290h-63c-20 0 -28 7 -28 22v263c0 214 116 332 286 332c169 0 281 -118 281 -332z" />
    <glyph glyph-name="acute" unicode="&#xb4;" horiz-adv-x="417" 
d="M395 678l-148 -105c-9 -6 -16 -9 -22 -9s-10 3 -14 8l-22 29l140 116c9 8 17 11 23 11c8 0 14 -3 20 -9c9 -10 18 -25 23 -41z" />
    <glyph glyph-name="caron" unicode="&#x2c7;" horiz-adv-x="417" 
d="M243 573l-95 112c24 29 42 41 54 41c8 0 14 -3 22 -13l67 -83l119 100l30 -33c4 -4 5 -9 4 -13c-1 -6 -5 -11 -12 -17l-129 -105c-9 -1 -18 -1 -28 -1c-16 0 -23 3 -32 12z" />
    <glyph glyph-name="breve" unicode="&#x2d8;" horiz-adv-x="417" 
d="M162 700c15 8 35 15 52 15s21 -6 22 -20c-1 -43 20 -65 54 -65c42 0 71 27 88 85h44c20 0 28 -7 24 -20c-23 -64 -79 -124 -168 -124c-72 0 -121 44 -116 129z" />
    <glyph glyph-name="hungarumlaut" unicode="&#x2dd;" horiz-adv-x="417" 
d="M314 678l-148 -105c-9 -6 -16 -9 -22 -9s-10 3 -14 8l-22 29l140 116c9 8 17 11 23 11c8 0 14 -3 20 -9c9 -10 18 -25 23 -41zM476 678l-148 -105c-9 -6 -16 -9 -22 -9s-10 3 -14 8l-22 29l140 116c9 8 17 11 23 11c8 0 14 -3 20 -9c9 -10 18 -25 23 -41z" />
    <glyph glyph-name="ring" unicode="&#x2da;" horiz-adv-x="417" 
d="M310 734c54 0 86 -39 76 -89s-56 -89 -110 -89c-53 0 -86 39 -76 89s57 89 110 89zM287 601c23 0 44 17 48 42c6 28 -10 46 -36 46c-23 0 -44 -17 -49 -42c-5 -28 11 -46 37 -46z" />
    <glyph glyph-name="dotaccent" unicode="&#x2d9;" horiz-adv-x="417" 
d="M343 643c-6 -31 -30 -51 -58 -51s-49 21 -43 55c6 31 31 51 60 51c27 0 48 -21 41 -55z" />
    <glyph glyph-name="cedilla" unicode="&#xb8;" horiz-adv-x="417" 
d="M80 -90c-7 4 -11 7 -10 12c1 2 2 4 4 6l52 72h77l-45 -59c53 -9 81 -40 72 -86c-11 -58 -65 -93 -136 -93c-22 0 -49 3 -68 10l7 35c2 12 8 18 18 18c11 0 28 -6 45 -6c32 0 56 13 61 38c6 31 -19 49 -77 53z" />
    <glyph glyph-name="ogonek" unicode="&#x2db;" horiz-adv-x="417" 
d="M204 -153c16 6 24 1 20 -17l-6 -35c-21 -10 -49 -15 -73 -15c-77 0 -107 43 -96 98c8 42 45 92 96 122h75c-56 -34 -88 -76 -95 -113c-5 -25 7 -46 45 -46c11 0 24 2 34 6z" />
    <glyph glyph-name="exclamdown" unicode="&#xa1;" horiz-adv-x="294" 
d="M209 333c-13 -104 -34 -245 -58 -366l-25 -131c-21 -5 -47 -8 -71 -8c-22 0 -30 7 -27 22l23 117c24 122 56 262 90 388h46c20 0 23 -7 22 -22zM212 546c31 0 53 -23 46 -61c-7 -34 -34 -56 -65 -56s-55 23 -47 61c7 35 35 56 66 56z" />
    <glyph glyph-name="questiondown" unicode="&#xbf;" horiz-adv-x="557" 
d="M357 546c31 0 53 -23 46 -61c-7 -34 -34 -56 -65 -56s-54 23 -46 61c7 35 34 56 65 56zM204 -178c-127 0 -200 79 -177 194c15 80 61 133 153 200c63 46 83 68 91 111l6 28h62c21 0 26 -6 23 -22l-3 -15c-11 -60 -43 -101 -126 -159c-73 -51 -103 -88 -113 -143
c-14 -69 28 -115 99 -115c67 0 136 46 172 131c21 -2 45 -8 58 -18c11 -7 14 -15 13 -24c-2 -7 -6 -16 -10 -23c-51 -86 -138 -145 -248 -145z" />
    <glyph glyph-name="summation" unicode="&#x2211;" horiz-adv-x="609" 
d="M113 740h459c16 0 23 -8 23 -28v-50h-432c73 -104 147 -209 220 -312v-21c0 -12 -3 -20 -10 -31c-68 -109 -133 -222 -200 -331h399c16 0 23 -8 23 -28v-50h-503c-16 0 -23 8 -23 29v47c76 122 151 244 227 367c-79 110 -157 221 -236 332c3 20 12 46 20 60
c7 12 16 16 33 16z" />
    <glyph glyph-name="product" unicode="&#x220f;" horiz-adv-x="703" 
d="M625 -111h-63c-21 0 -28 7 -28 23v750h-330v-773h-63c-20 0 -28 7 -28 23v828h484c20 0 28 -7 28 -23v-828z" />
    <glyph glyph-name="currency" unicode="&#xa4;" horiz-adv-x="692" 
d="M364 553c47 0 91 -14 127 -38l92 92c14 -7 28 -17 42 -31c13 -13 14 -24 4 -34l-81 -82c26 -36 41 -80 41 -128c0 -49 -15 -92 -39 -127l91 -91c-8 -14 -18 -28 -32 -42c-13 -13 -24 -14 -34 -4l-82 82c-36 -25 -81 -39 -129 -39c-47 0 -91 14 -127 38l-92 -92
c-14 7 -28 17 -42 31c-13 13 -14 24 -4 34l81 82c-26 36 -41 80 -41 128c0 49 14 91 39 127l-91 91c8 14 18 28 32 42c13 13 24 14 34 4l82 -82c36 25 80 39 129 39zM358 479c-72 0 -134 -57 -134 -141c0 -96 67 -153 146 -153c72 0 134 57 134 141c0 96 -67 153 -146 153z
" />
    <glyph glyph-name="uni2109" unicode="&#x2109;" horiz-adv-x="865" 
d="M218 478c47 0 80 35 80 87c0 53 -37 91 -84 91s-80 -35 -80 -87c0 -53 37 -91 84 -91zM216 422c-87 0 -150 63 -150 145s63 145 150 145s150 -63 150 -145s-63 -145 -150 -145zM520 0h-63c-20 0 -28 6 -28 22v678h396c14 0 20 -8 20 -26c0 -16 -2 -36 -6 -52h-319v-240
h249c16 0 22 -7 22 -28v-49h-271v-305z" />
    <glyph glyph-name="perthousand" unicode="&#x2030;" horiz-adv-x="1258" 
d="M447 532c-21 -109 -108 -176 -200 -176s-152 67 -131 176c21 108 107 176 199 176s153 -68 132 -176zM195 536c-14 -71 15 -113 70 -113c49 0 90 41 102 106c14 70 -14 112 -69 112c-50 0 -91 -40 -103 -105zM644 700h38c18 0 24 -6 23 -15c-1 -4 -3 -7 -5 -11l-413 -674
h-38c-18 0 -25 6 -24 15c1 4 3 7 6 11zM814 168c-21 -109 -108 -176 -200 -176s-152 67 -131 176c21 108 107 176 199 176s153 -68 132 -176zM562 172c-14 -71 15 -113 70 -113c49 0 90 41 103 106c13 70 -15 112 -70 112c-50 0 -90 -40 -103 -105zM1197 168
c-21 -109 -108 -176 -200 -176s-152 67 -131 176c21 108 107 176 199 176s153 -68 132 -176zM945 172c-14 -71 15 -113 70 -113c49 0 90 41 103 106c13 70 -15 112 -70 112c-50 0 -90 -40 -103 -105z" />
    <glyph glyph-name="paragraph" unicode="&#xb6;" horiz-adv-x="590" 
d="M282 700h265c14 0 19 -6 19 -25v-24h-83v-782h-30c-19 0 -25 5 -25 19v763h-84v-782h-32c-20 0 -25 5 -25 19v451c-120 0 -216 62 -216 181c0 118 96 180 211 180z" />
    <glyph glyph-name="dagger" unicode="&#x2020;" horiz-adv-x="521" 
d="M129 576l166 -9l25 173c19 5 40 8 61 8c20 0 28 -7 24 -21l-39 -160l150 9c16 0 21 -8 17 -29l-9 -45l-167 9l-125 -642h-47c-20 0 -27 7 -23 23l120 619l-151 -8c-15 0 -19 7 -16 26c3 13 9 33 14 47z" />
    <glyph glyph-name="daggerdbl" unicode="&#x2021;" horiz-adv-x="532" 
d="M134 576l166 -9l26 173c18 5 40 8 60 8c19 0 28 -6 24 -19l-39 -162l150 9c16 0 22 -8 18 -29l-9 -45l-168 9l-79 -406l149 9c16 0 21 -8 17 -28l-9 -46l-170 9l-23 -159c-2 -14 -11 -21 -32 -21c-20 0 -40 3 -56 8l40 172l-153 -8c-14 0 -19 7 -15 26c2 13 8 33 14 47
l163 -9l79 406l-151 -8c-14 0 -19 7 -16 26c3 13 9 33 14 47z" />
    <glyph glyph-name="arrowupdn" unicode="&#x2195;" horiz-adv-x="800" 
d="M546 214c-41 -75 -82 -148 -123 -221c-2 -4 -4 -6 -5 -6c-2 0 -4 2 -6 6c-41 73 -82 146 -123 221h93v278h-93c41 75 82 148 123 222c2 4 4 6 6 6c1 0 3 -2 5 -6c41 -74 82 -147 123 -222h-93v-278h93z" />
    <glyph glyph-name="afii61352" unicode="&#x2116;" horiz-adv-x="948" 
d="M416 9l-215 514v-523h-60c-20 0 -28 6 -28 22v655c21 16 51 29 68 29c12 0 21 -5 26 -16l216 -514v524h59c21 0 28 -7 28 -23v-655c-21 -16 -50 -28 -67 -28c-13 0 -21 5 -27 15zM934 330c0 -122 -77 -198 -182 -198s-181 76 -181 198s76 198 181 198s182 -76 182 -198z
M657 334c0 -83 40 -128 101 -128c55 0 89 44 89 121c0 83 -38 128 -99 128c-57 0 -91 -44 -91 -121zM918 0h-310c-14 0 -21 7 -21 25c0 16 3 36 7 49h302c16 0 22 -8 22 -28v-46z" />
    <glyph glyph-name="trademark" unicode="&#x2122;" horiz-adv-x="737" 
d="M214 357h-40c-18 0 -24 6 -24 18v272h-81c-13 0 -20 5 -20 19c0 10 2 23 5 34h240c15 0 22 -6 22 -23v-30h-102v-290zM646 375l-25 229l-64 -131c-5 -9 -11 -12 -25 -12h-35l-71 143l-26 -247h-38c-18 0 -24 5 -24 19l34 312c15 10 33 17 45 17s17 -3 23 -14l84 -163
l88 172h40c17 0 24 -7 25 -19l35 -324h-42c-17 0 -23 3 -24 18z" />
    <glyph glyph-name="uni2121" unicode="&#x2121;" horiz-adv-x="1012" 
d="M287 0h-60c-20 0 -28 6 -28 22v603h-113c-14 0 -21 7 -21 25c0 16 3 34 7 50h327c15 0 22 -8 22 -29v-46h-134v-625zM688 0h-125c-99 0 -151 46 -151 174v346h247c14 0 21 -8 21 -26c0 -16 -3 -32 -7 -48h-174v-151h118c16 0 23 -7 23 -28v-45h-141v-44
c0 -80 17 -105 72 -105h94c16 0 23 -8 23 -28v-45zM838 504v-326c0 -80 18 -105 72 -105h65c16 0 22 -8 22 -28v-45h-82c-116 0 -163 41 -163 190v326c19 6 39 9 59 9c19 0 27 -7 27 -21z" />
    <glyph glyph-name="Euro" unicode="&#x20ac;" horiz-adv-x="687" 
d="M90 371l2 10h-38c-9 0 -13 5 -11 17c2 10 6 23 11 33h51c59 180 215 281 368 281c126 0 209 -61 234 -147c2 -6 3 -12 2 -17c-3 -16 -13 -26 -34 -34c-14 -6 -34 -11 -53 -13c-17 83 -76 132 -169 132c-100 0 -208 -71 -256 -202h246c13 0 17 -6 14 -24l-5 -26h-268
l-2 -7c-4 -24 -7 -46 -8 -67h245c13 0 17 -5 14 -24l-5 -25h-251c17 -123 110 -192 241 -192c56 0 118 12 170 38c5 -11 6 -27 4 -42c-6 -30 -98 -74 -203 -74c-176 0 -297 101 -307 270h-52c-9 0 -13 5 -11 17c2 9 6 22 11 32h51c1 20 4 42 9 64z" />
    <glyph glyph-name="registered" unicode="&#xae;" horiz-adv-x="824" 
d="M68 350c0 200 162 362 362 362s362 -162 362 -362s-162 -362 -362 -362s-362 162 -362 362zM118 350c0 -176 139 -316 312 -316c172 0 311 140 311 316c0 173 -139 315 -311 315c-173 0 -312 -142 -312 -315zM550 157c-15 0 -30 6 -45 20c-26 24 -53 62 -73 104
c-23 0 -47 2 -66 8v-126h-55c-12 0 -17 4 -17 13v367h135c93 0 150 -53 150 -131c0 -57 -31 -100 -80 -119c15 -26 35 -52 53 -70c9 -9 20 -13 30 -13h10c2 -5 4 -17 4 -24c0 -15 -20 -29 -46 -29zM366 486v-142c16 -4 36 -6 54 -6c50 0 86 24 86 74s-33 74 -93 74h-47z" />
    <glyph glyph-name="afii61289" unicode="&#x2113;" horiz-adv-x="532" 
d="M413 122l34 -14c13 -5 19 -11 19 -19c0 -6 -3 -11 -6 -15c-38 -51 -93 -86 -156 -86c-97 0 -146 58 -153 179c-22 -10 -45 -19 -69 -28c-22 16 -38 41 -38 55c0 9 5 14 13 17c34 12 65 25 94 38v216c0 169 71 247 184 247c87 0 156 -64 156 -173
c0 -135 -88 -244 -254 -332v-27c0 -90 27 -122 75 -122c35 0 71 21 101 64zM237 465v-170c119 72 169 154 169 247c0 66 -32 97 -72 97c-57 0 -97 -50 -97 -174z" />
    <glyph glyph-name="Omega" unicode="&#x2126;" horiz-adv-x="783" 
d="M727 49v-49h-266v49c0 14 6 22 18 29c101 58 165 160 165 281c0 184 -110 274 -235 274s-235 -90 -235 -274c0 -122 63 -222 165 -281c11 -6 18 -15 18 -29v-49h-244c-15 0 -21 7 -21 25c0 16 2 36 6 52h130c-87 61 -147 160 -147 284c0 216 140 351 328 351
s328 -135 328 -351c0 -124 -60 -224 -147 -284h114c16 0 23 -8 23 -28z" />
    <glyph glyph-name="AE" unicode="&#xc6;" horiz-adv-x="891" 
d="M532 700h370c14 0 19 -8 16 -26c-4 -16 -10 -36 -18 -52h-320l-45 -236h251c15 0 20 -8 16 -28l-10 -50h-273l-24 -126c-16 -80 -3 -105 51 -105h241c15 0 21 -8 17 -28l-9 -49h-274c-100 0 -143 46 -116 182h-215l-123 -182h-64c-16 0 -27 7 -25 19c1 3 2 6 5 10
l451 651c28 13 61 20 98 20zM420 259l71 364l-249 -364h178z" />
    <glyph glyph-name="Eth" unicode="&#xd0;" horiz-adv-x="722" 
d="M291 0h-86c-106 0 -143 49 -115 195l25 126h-46c-15 0 -20 6 -17 19c2 12 6 27 11 38h63l63 322h238c189 0 306 -133 264 -350c-43 -217 -211 -350 -400 -350zM217 378h180c16 0 21 -7 17 -28l-6 -29h-202l-27 -139c-16 -80 -3 -105 51 -105h64c135 0 269 93 304 273
c34 179 -63 272 -198 272h-136z" />
    <glyph glyph-name="ordfeminine" unicode="&#xaa;" horiz-adv-x="448" 
d="M278 649c-36 0 -75 -8 -108 -23c-3 7 -5 22 -2 33c3 18 63 49 137 49c99 0 156 -51 137 -149l-30 -156c-5 -24 2 -32 22 -32h9c1 -7 2 -16 0 -24c-4 -18 -26 -31 -55 -31s-52 18 -54 51c-32 -35 -81 -55 -133 -55c-78 0 -130 48 -116 119c14 72 80 123 170 123
c42 0 81 -8 105 -22l6 30c11 58 -17 87 -88 87zM340 429l10 51c-21 11 -54 16 -83 16c-57 0 -95 -21 -104 -64c-8 -42 26 -62 67 -62c39 0 79 16 110 59z" />
    <glyph glyph-name="Hbar" unicode="&#x126;" horiz-adv-x="722" 
d="M146 0h-63c-20 0 -27 6 -24 22l96 493h-48c-15 0 -20 6 -18 19c3 12 7 27 12 38h65l24 124c20 6 43 10 66 10c19 0 25 -7 23 -21l-22 -113h349l25 128h63c20 0 26 -7 23 -23l-20 -105h47c16 0 20 -7 16 -28l-5 -29h-69l-100 -515h-63c-21 0 -27 6 -24 22l56 290h-349z
M246 515l-25 -126h349l25 126h-349z" />
    <glyph glyph-name="IJ" unicode="&#x132;" horiz-adv-x="680" 
d="M149 0h-63c-21 0 -27 6 -24 22l131 674c20 6 43 10 65 10c20 0 26 -7 24 -21zM376 -12c-66 0 -123 31 -118 55c3 15 12 31 20 42c26 -11 61 -18 94 -18c75 0 121 40 137 122l99 508c20 6 43 9 65 9c20 0 26 -7 24 -21l-97 -498c-25 -126 -103 -199 -224 -199z" />
    <glyph glyph-name="Ldot" unicode="&#x13f;" horiz-adv-x="546" 
d="M479 0h-274c-100 0 -144 46 -119 174l102 522c20 6 43 10 66 10c19 0 25 -7 23 -21l-98 -503c-15 -79 1 -105 51 -105h241c15 0 21 -8 17 -28zM473 373c-6 -31 -31 -51 -59 -51s-49 21 -42 55c6 31 31 51 60 51c27 0 48 -21 41 -55z" />
    <glyph glyph-name="Lslash" unicode="&#x141;" horiz-adv-x="546" 
d="M434 425l-227 -99l-28 -144c-16 -80 -3 -105 51 -105h241c15 0 21 -8 17 -28l-9 -49h-261c-115 0 -158 39 -129 187l19 96l-53 -23c-4 -2 -11 -4 -15 -4c-7 0 -12 4 -15 18c-2 7 -4 19 -3 31l98 43l68 348c20 6 43 10 66 10c19 0 25 -7 23 -21l-57 -294l181 79
c4 2 11 4 15 4c7 0 12 -4 15 -18c2 -7 3 -19 3 -31z" />
    <glyph glyph-name="Oslash" unicode="&#xd8;" horiz-adv-x="773" 
d="M87 350c46 239 220 362 397 362c84 0 156 -27 204 -81l77 69h38c21 0 21 -12 8 -24l-95 -85c34 -59 45 -140 26 -241c-47 -239 -221 -362 -399 -362c-83 0 -156 27 -203 81l-76 -69h-38c-21 0 -22 12 -9 24l94 85c-33 59 -44 139 -24 241zM181 359
c-14 -73 -10 -133 8 -179l424 383c-34 46 -87 70 -150 70c-117 0 -245 -85 -282 -274zM647 341c14 72 8 132 -10 178l-423 -383c34 -45 88 -69 152 -69c116 0 244 85 281 274z" />
    <glyph glyph-name="OE" unicode="&#x152;" horiz-adv-x="982" 
d="M885 0h-274c-48 0 -83 11 -104 36c-52 -33 -110 -48 -171 -48c-171 0 -297 122 -250 362c45 235 221 362 384 362c51 0 92 -11 121 -36l5 24h397c14 0 18 -8 15 -26c-4 -16 -9 -36 -17 -52h-320l-45 -236h250c16 0 20 -8 16 -28l-10 -50h-272l-24 -126
c-15 -79 0 -105 50 -105h241c16 0 21 -8 17 -28zM487 96c-2 22 0 47 6 78l83 427c-29 20 -66 32 -114 32c-116 0 -245 -85 -282 -275c-37 -189 53 -292 185 -292c43 0 85 9 122 30z" />
    <glyph glyph-name="ordmasculine" unicode="&#xba;" horiz-adv-x="448" 
d="M244 312c-98 0 -175 67 -149 198c25 130 128 198 226 198s175 -68 150 -198c-26 -131 -129 -198 -227 -198zM260 373c59 0 117 47 134 133c16 84 -20 141 -89 141c-59 0 -116 -47 -133 -133c-16 -84 19 -141 88 -141z" />
    <glyph glyph-name="Thorn" unicode="&#xde;" horiz-adv-x="638" 
d="M146 0h-63c-20 0 -27 6 -24 22l131 674c20 6 43 10 66 10c19 0 25 -7 23 -21l-17 -85h130c166 0 255 -95 223 -256c-31 -159 -164 -248 -313 -248c-42 0 -98 6 -134 19zM372 522h-125l-65 -334c33 -10 76 -14 121 -14c110 0 199 59 221 174s-40 174 -152 174z" />
    <glyph glyph-name="Tbar" unicode="&#x166;" horiz-adv-x="611" 
d="M310 0h-63c-20 0 -27 6 -24 22l58 299h-104c-14 0 -19 7 -16 19c2 13 6 28 11 39h120l47 243h-196c-14 0 -19 8 -16 26c3 15 10 36 18 52h496c16 0 21 -8 17 -29l-10 -49h-218l-47 -243h103c15 0 21 -8 17 -28l-6 -30h-125z" />
    <glyph glyph-name="Eng" unicode="&#x14a;" horiz-adv-x="718" 
d="M488 -15l3 19l-238 542l-106 -546h-63c-20 0 -27 7 -24 22l127 656c24 16 56 28 73 28c13 0 19 -5 24 -15l236 -537l107 546h63c20 0 26 -7 23 -22l-136 -699c-11 -61 -44 -117 -83 -155c-49 -48 -93 -63 -105 -56c-10 5 -18 19 -19 34c63 52 104 113 118 183z" />
    <glyph glyph-name="onehalf" unicode="&#xbd;" horiz-adv-x="947" 
d="M278 284h-49c-17 0 -22 6 -20 19l62 316l-100 -56c-8 5 -18 15 -23 24c-3 6 -5 11 -4 17c1 8 6 13 14 18l140 78h38c17 0 21 -6 19 -20zM728 672l-411 -672h-39c-17 0 -23 6 -21 16c0 3 2 8 5 12l412 672h39c17 0 22 -6 20 -16c0 -3 -2 -8 -5 -12zM907 284
c-18 -90 -100 -165 -204 -225h143c13 0 18 -7 14 -23l-6 -36h-252c-12 0 -20 3 -24 14c-2 7 -5 22 -3 38c122 58 242 142 260 233c10 52 -19 80 -62 80c-38 0 -73 -24 -99 -77c-15 1 -34 5 -46 13c-9 6 -11 12 -9 19c0 4 3 10 7 17c32 50 89 87 160 87
c88 0 137 -56 121 -140z" />
    <glyph glyph-name="onethird" unicode="&#x2153;" horiz-adv-x="947" 
d="M278 284h-49c-17 0 -22 6 -20 19l62 316l-100 -56c-8 5 -18 15 -23 24c-3 6 -5 11 -4 17c1 8 6 13 14 18l140 78h38c17 0 21 -6 19 -20zM728 672l-411 -672h-39c-17 0 -23 6 -21 16c0 3 2 8 5 12l412 672h39c17 0 22 -6 20 -16c0 -3 -2 -8 -5 -12zM715 198
c-16 2 -23 7 -25 19c-2 7 -3 15 -2 25l126 115h-163c-14 0 -18 6 -15 21c2 10 7 26 12 38h230c16 0 23 -5 27 -15c3 -7 5 -18 5 -30l-139 -127c75 -16 116 -56 102 -126c-15 -77 -90 -126 -188 -126c-72 0 -126 33 -121 55c2 12 7 23 15 33c32 -17 74 -29 111 -29
c64 0 104 26 112 66c10 49 -22 73 -87 81z" />
    <glyph glyph-name="twothirds" unicode="&#x2154;" horiz-adv-x="947" 
d="M413 568c-18 -90 -100 -165 -204 -225h143c13 0 18 -7 15 -23l-7 -36h-252c-12 0 -20 3 -24 14c-2 7 -4 22 -3 38c122 58 242 142 260 233c10 52 -18 80 -61 80c-38 0 -74 -24 -99 -77c-16 1 -34 5 -47 13c-9 6 -10 12 -9 19c1 4 3 10 7 17c32 50 89 87 160 87
c88 0 137 -56 121 -140zM728 672l-411 -672h-39c-17 0 -23 6 -21 16c0 3 2 8 5 12l412 672h39c17 0 22 -6 20 -16c0 -3 -2 -8 -5 -12zM715 198c-16 2 -23 7 -25 19c-2 7 -3 15 -2 25l126 115h-163c-14 0 -18 6 -15 21c2 10 7 26 12 38h230c16 0 23 -5 27 -15
c3 -7 5 -18 5 -30l-139 -127c75 -16 116 -56 102 -126c-15 -77 -90 -126 -188 -126c-72 0 -126 33 -121 55c2 12 7 23 15 33c32 -17 74 -29 111 -29c64 0 104 26 112 66c10 49 -22 73 -87 81z" />
    <glyph glyph-name="onequarter" unicode="&#xbc;" horiz-adv-x="947" 
d="M278 284h-49c-17 0 -22 6 -20 19l62 316l-100 -56c-8 5 -18 15 -23 24c-3 6 -5 11 -4 17c1 8 6 13 14 18l140 78h38c17 0 21 -6 19 -20zM728 672l-411 -672h-39c-17 0 -23 6 -21 16c0 3 2 8 5 12l412 672h39c17 0 22 -6 20 -16c0 -3 -2 -8 -5 -12zM779 142l39 202
c-64 -47 -135 -131 -174 -202h135zM900 119l-7 -36h-54l-16 -83h-48c-17 0 -22 6 -20 19l13 64h-175c-14 0 -21 4 -24 13s-5 22 -3 36c48 99 156 224 261 283c16 4 33 6 48 6c23 0 28 -7 25 -24l-50 -255h36c13 0 17 -7 14 -23z" />
    <glyph glyph-name="threequarters" unicode="&#xbe;" horiz-adv-x="947" 
d="M220 482c-15 2 -22 7 -25 19c-2 7 -3 15 -2 25l126 115h-163c-14 0 -18 6 -15 21c2 10 7 26 13 38h230c16 0 23 -5 27 -15c2 -7 4 -18 4 -30l-139 -127c75 -16 116 -56 103 -126c-15 -77 -91 -126 -189 -126c-72 0 -125 33 -121 55c2 12 7 23 15 33
c32 -17 75 -29 112 -29c64 0 104 26 111 66c10 49 -21 73 -87 81zM728 672l-411 -672h-39c-17 0 -23 6 -21 16c0 3 2 8 5 12l412 672h39c17 0 22 -6 20 -16c0 -3 -2 -8 -5 -12zM779 142l39 202c-64 -47 -135 -131 -174 -202h135zM900 119l-7 -36h-54l-16 -83h-48
c-17 0 -22 6 -20 19l13 64h-175c-14 0 -21 4 -24 13s-5 22 -3 36c48 99 156 224 261 283c16 4 33 6 48 6c23 0 28 -7 25 -24l-50 -255h36c13 0 17 -7 14 -23z" />
    <glyph glyph-name="oneeighth" unicode="&#x215b;" horiz-adv-x="947" 
d="M278 284h-49c-17 0 -22 6 -20 19l62 316l-100 -56c-8 5 -18 15 -23 24c-3 6 -5 11 -4 17c1 8 6 13 14 18l140 78h38c17 0 21 -6 19 -20zM728 672l-411 -672h-39c-17 0 -23 6 -21 16c0 3 2 8 5 12l412 672h39c17 0 22 -6 20 -16c0 -3 -2 -8 -5 -12zM694 313
c-5 -28 14 -48 79 -71c36 19 58 44 63 71c6 30 -20 51 -60 51c-42 0 -76 -21 -82 -51zM817 111c6 33 -10 56 -87 81c-57 -22 -85 -49 -91 -81c-7 -35 25 -60 77 -60c55 0 95 27 101 60zM568 112c9 46 48 84 108 103c-44 24 -62 57 -54 97c12 61 76 112 166 112
c89 0 132 -52 120 -112c-7 -37 -39 -71 -82 -92c51 -27 72 -63 63 -107c-13 -71 -85 -121 -184 -121c-97 0 -151 49 -137 120z" />
    <glyph glyph-name="threeeighths" unicode="&#x215c;" horiz-adv-x="947" 
d="M220 482c-15 2 -22 7 -25 19c-2 7 -3 15 -2 25l126 115h-163c-14 0 -18 6 -15 21c2 10 7 26 13 38h230c16 0 23 -5 27 -15c2 -7 4 -18 4 -30l-139 -127c75 -16 116 -56 103 -126c-15 -77 -91 -126 -189 -126c-72 0 -125 33 -121 55c2 12 7 23 15 33
c32 -17 75 -29 112 -29c64 0 104 26 111 66c10 49 -21 73 -87 81zM728 672l-411 -672h-39c-17 0 -23 6 -21 16c0 3 2 8 5 12l412 672h39c17 0 22 -6 20 -16c0 -3 -2 -8 -5 -12zM694 313c-5 -28 14 -48 79 -71c36 19 58 44 63 71c6 30 -20 51 -60 51c-42 0 -76 -21 -82 -51z
M817 111c6 33 -10 56 -87 81c-57 -22 -85 -49 -91 -81c-7 -35 25 -60 77 -60c55 0 95 27 101 60zM568 112c9 46 48 84 108 103c-44 24 -62 57 -54 97c12 61 76 112 166 112c89 0 132 -52 120 -112c-7 -37 -39 -71 -82 -92c51 -27 72 -63 63 -107c-13 -71 -85 -121 -184 -121
c-97 0 -151 49 -137 120z" />
    <glyph glyph-name="fiveeighths" unicode="&#x215d;" horiz-adv-x="947" 
d="M422 677l-7 -36h-174l-31 -91c14 4 30 6 48 6c87 0 145 -52 128 -140c-15 -79 -84 -140 -188 -140c-71 0 -128 31 -124 52c2 11 9 25 17 34c32 -17 71 -27 111 -27c55 0 102 25 113 81c11 54 -27 80 -84 80c-22 0 -41 -2 -57 -6c-11 -3 -16 -4 -22 -4c-5 0 -10 2 -13 5
l-13 9l66 200h216c14 0 17 -6 14 -23zM728 672l-411 -672h-39c-17 0 -23 6 -21 16c0 3 2 8 5 12l412 672h39c17 0 22 -6 20 -16c0 -3 -2 -8 -5 -12zM694 313c-5 -28 14 -48 79 -71c36 19 58 44 63 71c6 30 -20 51 -60 51c-42 0 -76 -21 -82 -51zM817 111c6 33 -10 56 -87 81
c-57 -22 -85 -49 -91 -81c-7 -35 25 -60 77 -60c55 0 95 27 101 60zM568 112c9 46 48 84 108 103c-44 24 -62 57 -54 97c12 61 76 112 166 112c89 0 132 -52 120 -112c-7 -37 -39 -71 -82 -92c51 -27 72 -63 63 -107c-13 -71 -85 -121 -184 -121c-97 0 -151 49 -137 120z
" />
    <glyph glyph-name="seveneighths" unicode="&#x215e;" horiz-adv-x="947" 
d="M317 0h-39c-17 0 -23 6 -22 15c1 4 2 7 5 11c137 224 275 449 413 674h39c17 0 23 -7 21 -17c0 -3 -2 -7 -4 -10c-138 -224 -276 -449 -413 -673zM695 313c-5 -28 13 -48 79 -71c36 19 58 44 63 71c6 30 -20 51 -61 51c-42 0 -75 -21 -81 -51zM818 111
c6 32 -11 58 -88 81c-57 -22 -84 -49 -90 -81c-7 -35 24 -60 76 -60c55 0 96 27 102 60zM568 112c9 46 49 84 108 103c-44 24 -61 57 -53 97c12 61 75 112 165 112s132 -52 120 -112c-7 -37 -39 -71 -82 -92c52 -27 72 -63 63 -107c-13 -71 -85 -121 -184 -121
c-96 0 -151 49 -137 120zM435 655c-99 -124 -171 -240 -229 -371h-48c-15 0 -20 5 -18 15c0 2 2 5 3 9c56 122 125 230 206 333h-201c-14 0 -19 6 -16 21c2 10 8 26 14 38h259c26 0 32 -22 30 -45z" />
    <glyph glyph-name="ae" unicode="&#xe6;" horiz-adv-x="932" 
d="M799 93c5 -8 7 -25 4 -38c-5 -27 -76 -67 -171 -67c-93 0 -163 44 -196 115c-56 -70 -137 -115 -230 -115c-127 0 -182 72 -163 167c21 109 116 174 245 174c51 0 106 -12 140 -32l9 45c17 86 -32 129 -133 129c-53 0 -103 -10 -149 -32c-6 8 -7 25 -5 38
c6 28 89 69 190 69c93 0 159 -37 175 -105c53 64 137 105 223 105c126 0 195 -84 174 -196c-15 -75 -48 -119 -108 -119h-301c-10 -110 59 -169 158 -169c46 0 92 10 138 31zM224 62c62 0 135 33 181 112c4 18 7 36 10 57c-30 15 -88 23 -130 23c-87 0 -143 -37 -155 -97
c-12 -62 32 -95 94 -95zM718 471c-88 0 -169 -64 -200 -167h291c8 13 13 27 16 42c14 75 -25 125 -107 125z" />
    <glyph glyph-name="dcroat" unicode="&#x111;" horiz-adv-x="652" 
d="M523 493l22 112h-157c-15 0 -20 6 -17 19c2 12 6 28 11 39h174l13 67h59c20 0 27 -7 24 -23l-9 -44h38c16 0 21 -8 17 -28l-6 -30h-60l-95 -487c-8 -42 4 -55 28 -55h20c1 -9 1 -19 -1 -31c-4 -18 -32 -39 -73 -39c-44 0 -71 33 -65 99c-47 -63 -125 -104 -208 -104
c-129 0 -209 97 -178 258c35 176 178 300 324 300c60 0 108 -19 139 -53zM272 62c64 0 140 45 195 139l42 216c-32 37 -77 54 -127 54c-109 0 -208 -95 -233 -223c-23 -116 26 -186 123 -186z" />
    <glyph glyph-name="eth" unicode="&#xf0;" horiz-adv-x="601" 
d="M368 568l98 54c-26 32 -65 45 -109 45c-40 0 -88 -9 -134 -30c-4 8 -7 25 -4 38c5 28 87 67 167 67c69 0 128 -21 164 -75l57 31c14 8 24 6 31 -11l9 -27l-74 -40c21 -61 24 -150 0 -272c-46 -235 -166 -360 -339 -360c-131 0 -211 94 -185 224c32 168 175 267 300 267
c59 0 115 -19 149 -61c9 69 7 119 -7 158l-89 -49c-13 -7 -22 -5 -26 6c-5 11 -7 24 -8 35zM251 62c108 0 196 88 231 270l2 9c-31 45 -81 63 -137 63c-95 0 -186 -66 -210 -189c-17 -91 31 -153 114 -153z" />
    <glyph glyph-name="hbar" unicode="&#x127;" horiz-adv-x="641" 
d="M427 605h-178l-25 -129c53 41 127 70 196 70c123 0 173 -86 145 -231l-39 -199c-7 -38 1 -53 25 -53h22c2 -9 1 -19 -1 -31c-4 -18 -32 -39 -71 -39c-47 0 -81 27 -63 116l41 212c19 98 -11 150 -97 150c-54 0 -120 -23 -171 -64l-79 -407h-59c-21 0 -27 6 -24 22
l113 583h-40c-14 0 -20 6 -17 19c2 12 6 28 11 39h57l13 64c21 6 43 9 62 9s25 -7 22 -21l-10 -52h155c16 0 22 -8 18 -28z" />
    <glyph glyph-name="dotlessi" unicode="&#x131;" horiz-adv-x="270" 
d="M66 109l82 422c21 6 42 9 61 9s26 -7 23 -21l-78 -403c-7 -38 1 -53 25 -53h22c2 -9 1 -19 -1 -31c-4 -18 -32 -39 -71 -39c-47 0 -81 27 -63 116z" />
    <glyph glyph-name="ij" unicode="&#x133;" horiz-adv-x="526" 
d="M210 628c-28 0 -50 22 -44 56c7 32 33 53 62 53s49 -22 43 -57c-7 -32 -31 -52 -61 -52zM66 109l82 422c21 6 42 9 61 9s26 -7 23 -21l-78 -403c-7 -38 1 -53 25 -53h22c2 -9 1 -19 -1 -31c-4 -18 -32 -39 -71 -39c-47 0 -81 27 -63 116zM317 -146
c-41 -41 -79 -58 -96 -58c-14 0 -25 20 -27 35c63 52 108 115 121 184l101 516c21 6 42 9 61 9s26 -7 23 -21l-99 -510c-12 -61 -44 -117 -84 -155zM478 628c-28 0 -50 22 -44 56c7 32 33 53 62 53s49 -22 43 -57c-7 -32 -31 -52 -61 -52z" />
    <glyph glyph-name="kgreenlandic" unicode="&#x138;" horiz-adv-x="579" 
d="M132 0h-59c-21 0 -27 6 -24 22l99 509c21 6 42 9 61 9s26 -7 23 -21l-46 -240c109 59 242 158 333 261c43 -16 54 -30 50 -49c-9 -45 -135 -141 -233 -204c35 -78 83 -153 118 -195c17 -20 33 -29 45 -29h20c1 -9 1 -19 -1 -31c-4 -18 -33 -39 -70 -39
c-22 0 -45 11 -66 35c-43 48 -89 128 -121 214c-30 -17 -63 -35 -92 -49z" />
    <glyph glyph-name="ldot" unicode="&#x140;" horiz-adv-x="390" 
d="M269 40c-3 -18 -43 -47 -101 -47c-82 0 -114 54 -96 149l114 586c21 5 43 8 62 8s25 -7 22 -21l-111 -576c-11 -53 6 -75 46 -75c19 0 43 4 60 11c4 -9 6 -24 4 -35zM411 377c-6 -31 -31 -51 -59 -51s-49 21 -42 55c6 31 30 51 59 51c27 0 48 -21 42 -55z" />
    <glyph glyph-name="lslash" unicode="&#x142;" horiz-adv-x="313" 
d="M325 398l-127 -55l-39 -204c-11 -54 6 -75 45 -75c20 0 44 4 61 11c4 -9 6 -24 4 -35c-3 -18 -44 -47 -102 -47c-88 0 -112 59 -91 171l27 137l-53 -23c-5 -2 -11 -4 -15 -4c-7 0 -12 4 -16 18c-1 7 -3 19 -3 31l100 43l70 361c21 6 43 9 62 9s25 -7 22 -21l-59 -307
l81 35c4 2 10 4 14 4c7 0 13 -4 16 -18c2 -7 3 -19 3 -31z" />
    <glyph glyph-name="oslash" unicode="&#xf8;" horiz-adv-x="628" 
d="M380 546c62 0 117 -20 155 -58l51 46h32c22 0 26 -10 11 -24l-66 -59c28 -46 38 -108 23 -184c-34 -177 -174 -279 -315 -279c-63 0 -118 20 -156 58l-50 -46h-32c-22 0 -27 10 -11 24l64 58c-27 46 -36 109 -22 185c35 177 175 279 316 279zM155 273
c-10 -50 -7 -92 5 -124l306 276c-26 30 -64 46 -106 46c-88 0 -179 -62 -205 -198zM291 63c88 0 179 62 205 198c10 50 6 91 -6 124l-307 -277c27 -30 65 -45 108 -45z" />
    <glyph glyph-name="oe" unicode="&#x153;" horiz-adv-x="1009" 
d="M875 93c5 -8 8 -25 5 -38c-5 -27 -76 -67 -172 -67s-170 46 -195 130c-58 -87 -152 -130 -242 -130c-141 0 -241 101 -207 279c35 177 175 279 316 279c89 0 166 -46 191 -130c57 83 153 130 243 130c126 0 195 -84 174 -196c-15 -75 -48 -119 -108 -119h-301
c-9 -110 59 -169 158 -169c47 0 93 10 138 31zM794 471c-88 0 -169 -64 -199 -167h290c8 13 14 27 17 42c14 75 -26 125 -108 125zM291 63c88 0 179 62 205 198c27 138 -44 210 -136 210c-88 0 -179 -62 -205 -198c-27 -138 44 -210 136 -210z" />
    <glyph glyph-name="germandbls" unicode="&#xdf;" horiz-adv-x="637" 
d="M341 -12c-89 0 -141 37 -135 66c3 15 11 31 20 42c30 -20 73 -29 113 -29c82 0 149 47 162 116c15 75 -51 137 -167 148c-5 16 -6 31 -4 44c4 19 13 26 28 30c73 18 121 61 132 117c13 66 -30 111 -100 111c-78 0 -142 -56 -161 -153l-93 -480h-63c-20 0 -27 7 -24 22
l86 443c30 154 131 247 269 247c128 0 196 -85 177 -185c-14 -74 -69 -129 -144 -154c106 -25 171 -102 151 -204c-20 -104 -117 -181 -247 -181z" />
    <glyph glyph-name="thorn" unicode="&#xfe;" horiz-adv-x="644" 
d="M139 41l-45 -234h-59c-20 0 -27 7 -24 22l175 899c21 5 43 8 62 8s25 -7 22 -21l-52 -272c47 62 124 103 207 103c129 0 209 -97 177 -258c-34 -176 -177 -300 -323 -300c-60 0 -108 19 -140 53zM391 472c-64 0 -140 -45 -195 -139l-42 -216c32 -37 77 -54 127 -54
c109 0 208 95 233 223c23 116 -26 186 -123 186z" />
    <glyph glyph-name="tbar" unicode="&#x167;" horiz-adv-x="453" 
d="M285 63c28 0 61 5 87 16c5 -8 8 -25 5 -38c-4 -23 -55 -53 -127 -53c-98 0 -153 62 -129 183l13 70h-49c-14 0 -18 7 -16 19s6 28 12 39h65l31 161h-75c-14 0 -20 8 -16 26c3 16 9 34 15 48h90l30 151c21 5 42 8 61 8s26 -7 23 -21l-27 -138h170c15 0 21 -8 17 -28
l-9 -46h-192l-31 -161h127c16 0 20 -8 16 -28l-6 -30h-149l-14 -76c-15 -73 22 -102 78 -102z" />
    <glyph glyph-name="eng" unicode="&#x14b;" horiz-adv-x="631" 
d="M565 315l-65 -335c-12 -61 -45 -117 -85 -155c-40 -41 -79 -58 -96 -58c-14 0 -25 20 -27 35c63 52 108 115 122 184l65 335c19 98 -11 150 -97 150c-54 0 -120 -23 -171 -64l-79 -407h-59c-21 0 -27 6 -24 22l99 509c21 6 42 9 61 9s26 -7 23 -21l-8 -43
c53 41 127 70 196 70c123 0 173 -86 145 -231z" />
    <glyph glyph-name="napostrophe" unicode="&#x149;" horiz-adv-x="679" 
d="M170 0h-59c-21 0 -27 6 -24 22l99 509c21 6 42 9 61 9s26 -7 23 -21l-8 -43c53 41 127 70 196 70c123 0 173 -86 145 -231l-39 -199c-7 -38 1 -53 25 -53h22c2 -9 1 -19 -1 -31c-4 -18 -32 -39 -71 -39c-47 0 -81 27 -63 116l41 212c19 98 -11 150 -97 150
c-54 0 -120 -23 -171 -64zM173 739c30 0 54 -22 46 -65c-11 -52 -38 -96 -78 -134c-29 -30 -59 -43 -65 -40c-7 4 -13 14 -13 24c35 28 64 64 76 100c-23 7 -38 28 -32 59c7 34 34 56 66 56z" />
    <glyph glyph-name="onesuperior" unicode="&#xb9;" 
d="M278 284h-49c-17 0 -22 6 -20 19l62 316l-100 -56c-8 5 -18 15 -23 24c-3 6 -5 11 -4 17c1 8 6 13 14 18l140 78h38c17 0 21 -6 19 -20z" />
    <glyph glyph-name="twosuperior" unicode="&#xb2;" 
d="M413 568c-18 -90 -100 -165 -204 -225h143c13 0 18 -7 15 -23l-7 -36h-252c-12 0 -20 3 -24 14c-2 7 -4 22 -3 38c122 58 242 142 260 233c10 52 -18 80 -61 80c-38 0 -74 -24 -99 -77c-16 1 -34 5 -47 13c-9 6 -10 12 -9 19c1 4 3 10 7 17c32 50 89 87 160 87
c88 0 137 -56 121 -140z" />
    <glyph glyph-name="threesuperior" unicode="&#xb3;" 
d="M220 482c-15 2 -22 7 -25 19c-2 7 -3 15 -2 25l126 115h-163c-14 0 -18 6 -15 21c2 10 7 26 13 38h230c16 0 23 -5 27 -15c2 -7 4 -18 4 -30l-139 -127c75 -16 116 -56 103 -126c-15 -77 -91 -126 -189 -126c-72 0 -125 33 -121 55c2 12 7 23 15 33
c32 -17 75 -29 112 -29c64 0 104 26 111 66c10 49 -21 73 -87 81z" />
    <glyph glyph-name="foursuperior" unicode="&#x2074;" 
d="M285 426l40 202c-65 -47 -136 -131 -175 -202h135zM406 403l-7 -36h-54l-16 -83h-48c-17 0 -22 6 -20 19l13 64h-175c-14 0 -20 4 -24 13c-3 9 -4 22 -3 36c49 99 156 224 261 283c16 4 34 6 49 6c23 0 27 -7 24 -24l-50 -255h36c13 0 17 -7 14 -23z" />
    <glyph glyph-name="uni207F" unicode="&#x207f;" 
d="M140 283h-45c-17 0 -23 6 -21 18l58 300c17 5 34 8 47 8c18 0 23 -7 20 -19l-4 -21c33 26 69 43 109 43c74 0 106 -47 89 -138l-23 -115c-3 -19 0 -25 13 -25h16c1 -7 1 -17 0 -25c-3 -14 -25 -30 -53 -30c-35 0 -56 21 -44 84l22 112c10 54 -7 80 -48 80
c-28 0 -62 -12 -90 -35z" />
    <glyph glyph-name="oneinferior" unicode="&#x2081;" 
d="M199 -127h-49c-17 0 -22 6 -19 19l61 316l-100 -56c-8 5 -18 15 -23 24c-3 6 -5 11 -4 17c2 8 7 13 15 18l139 78h38c17 0 22 -6 19 -20z" />
    <glyph glyph-name="twoinferior" unicode="&#x2082;" 
d="M334 157c-17 -90 -100 -165 -204 -225h143c13 0 18 -7 15 -23l-7 -36h-252c-12 0 -20 3 -23 14c-3 7 -5 22 -4 38c122 58 243 142 260 233c10 52 -18 80 -61 80c-38 0 -74 -24 -99 -77c-16 1 -34 5 -47 13c-9 6 -10 12 -9 19c1 4 3 10 7 17c32 50 89 87 160 87
c88 0 137 -56 121 -140z" />
    <glyph glyph-name="threeinferior" unicode="&#x2083;" 
d="M141 71c-15 2 -22 7 -25 19c-2 7 -3 15 -2 25l126 115h-163c-14 0 -18 6 -15 21c2 10 7 26 13 38h230c16 0 23 -5 27 -15c2 -7 4 -18 4 -30l-139 -127c75 -16 116 -56 103 -126c-15 -77 -91 -126 -189 -126c-72 0 -125 33 -121 55c2 12 7 23 15 33c32 -17 75 -29 112 -29
c64 0 104 26 112 66c9 49 -22 73 -88 81z" />
    <glyph glyph-name="fourinferior" unicode="&#x2084;" 
d="M206 15l40 202c-64 -47 -136 -131 -175 -202h135zM327 -8l-7 -36h-54l-16 -83h-48c-17 0 -22 6 -19 19l12 64h-175c-14 0 -20 4 -24 13c-3 9 -4 22 -3 36c49 99 156 224 261 283c16 4 34 6 49 6c23 0 27 -7 24 -24l-50 -255h36c13 0 17 -7 14 -23z" />
    <glyph glyph-name="afii10017" unicode="&#x410;" horiz-adv-x="671" 
d="M75 0h-62c-16 0 -26 7 -24 19c1 4 3 7 4 10l376 660c24 10 57 17 84 17c25 0 32 -7 37 -30l123 -676h-69c-23 0 -30 6 -33 20l-26 162h-310zM473 259l-59 355l-197 -355h256z" />
    <glyph glyph-name="afii10018" unicode="&#x411;" horiz-adv-x="660" 
d="M363 385c-48 0 -103 -8 -149 -23l-35 -180c-17 -87 -3 -105 44 -105h59c119 0 214 42 236 155c20 104 -37 153 -155 153zM599 622h-335l-36 -188c45 18 107 30 171 30c152 0 242 -80 214 -227c-31 -155 -160 -237 -335 -237h-80c-93 0 -138 39 -112 174l103 526h403
c16 0 21 -8 17 -28z" />
    <glyph glyph-name="afii10019" unicode="&#x412;" horiz-adv-x="655" 
d="M230 77h99c104 0 159 45 174 122c15 78 -32 118 -141 118h-157l-26 -135c-16 -80 -3 -105 51 -105zM414 622h-150l-44 -228h150c100 0 156 42 170 114c14 70 -30 114 -126 114zM189 700h248c152 0 217 -83 197 -186c-14 -74 -64 -128 -132 -153c71 -22 110 -82 93 -166
c-22 -117 -121 -195 -282 -195h-108c-98 0 -144 46 -119 174z" />
    <glyph glyph-name="afii10020" unicode="&#x413;" horiz-adv-x="551" 
d="M191 700h396c15 0 20 -8 16 -29l-10 -49h-327l-120 -622h-63c-20 0 -27 6 -24 22z" />
    <glyph glyph-name="afii10021" unicode="&#x414;" horiz-adv-x="657" 
d="M536 622h-196c-40 -167 -108 -372 -188 -545h278zM584 55l-39 -202h-63c-20 0 -27 7 -24 23l25 124h-401l-29 -147h-62c-21 0 -28 7 -25 23l39 201h53c89 184 160 391 211 623h346c21 0 26 -7 23 -23l-117 -600h39c20 0 27 -7 24 -22z" />
    <glyph glyph-name="afii10022" unicode="&#x415;" horiz-adv-x="574" 
d="M477 0h-272c-100 0 -144 46 -119 174l103 526h396c14 0 18 -8 15 -26c-4 -16 -9 -36 -17 -52h-319l-45 -236h249c16 0 20 -8 16 -28l-10 -50h-271l-24 -126c-15 -79 1 -105 51 -105h239c16 0 21 -8 17 -28z" />
    <glyph glyph-name="afii10023" unicode="&#x401;" horiz-adv-x="574" 
d="M477 0h-272c-100 0 -144 46 -119 174l103 526h396c14 0 18 -8 15 -26c-4 -16 -9 -36 -17 -52h-319l-45 -236h249c16 0 20 -8 16 -28l-10 -50h-271l-24 -126c-15 -79 1 -105 51 -105h239c16 0 21 -8 17 -28zM381 837c-6 -31 -31 -51 -59 -51s-49 21 -42 55
c6 31 31 51 60 51c27 0 48 -21 41 -55zM559 837c-6 -31 -31 -51 -59 -51s-49 21 -42 55c6 31 31 51 60 51c27 0 48 -21 41 -55z" />
    <glyph glyph-name="afii10024" unicode="&#x416;" horiz-adv-x="983" 
d="M479 382l61 314c20 6 43 10 66 10c19 0 25 -7 23 -21l-59 -303c123 77 259 190 372 324c23 -9 37 -15 45 -23c10 -8 12 -15 10 -28c-1 -5 -4 -11 -7 -15c-55 -75 -158 -168 -250 -237c28 -129 70 -249 117 -307c16 -20 33 -30 53 -30h18c1 -10 0 -25 -2 -36
c-3 -19 -33 -42 -73 -42c-28 0 -50 11 -71 36c-53 62 -97 186 -124 322c-35 -24 -72 -47 -108 -68l-54 -278h-63c-20 0 -27 6 -24 22l50 256c-28 21 -57 44 -82 68c-81 -136 -173 -260 -250 -322c-31 -25 -57 -36 -85 -36c-40 0 -60 23 -57 42c2 11 7 26 12 36h18
c20 0 41 10 65 30c69 58 159 178 237 307c-66 69 -133 162 -158 237c-1 4 -2 10 -1 15c2 13 8 20 20 28s28 14 55 23c61 -134 153 -247 246 -324z" />
    <glyph glyph-name="afii10025" unicode="&#x417;" horiz-adv-x="598" 
d="M198 524c-18 2 -36 7 -48 13c-17 9 -23 19 -21 32c1 6 5 13 9 20c49 70 142 123 253 123c132 0 212 -77 191 -186c-16 -80 -84 -142 -167 -165c89 -24 137 -89 120 -176c-23 -123 -144 -197 -301 -197c-117 0 -202 51 -196 83c3 15 11 31 20 42c50 -30 114 -46 184 -46
c110 0 188 42 203 119c15 80 -44 135 -189 135h-11c-14 0 -19 7 -15 25c3 16 9 36 16 52h22c128 0 208 50 222 123c14 71 -28 112 -114 112c-72 0 -137 -32 -178 -109z" />
    <glyph glyph-name="afii10026" unicode="&#x418;" horiz-adv-x="718" 
d="M59 22l131 674c20 6 43 10 66 10c19 0 25 -7 23 -21l-104 -533l447 538c9 11 15 16 29 16c17 0 44 -13 62 -29l-131 -677h-63c-21 0 -27 6 -24 22l102 525l-447 -538c-8 -10 -16 -15 -29 -15c-17 0 -44 12 -62 28z" />
    <glyph glyph-name="afii10027" unicode="&#x419;" horiz-adv-x="718" 
d="M59 22l131 674c20 6 43 10 66 10c19 0 25 -7 23 -21l-104 -533l447 538c9 11 15 16 29 16c17 0 44 -13 62 -29l-131 -677h-63c-21 0 -27 6 -24 22l102 525l-447 -538c-8 -10 -16 -15 -29 -15c-17 0 -44 12 -62 28zM349 895c16 8 36 15 53 15s21 -6 21 -20
c0 -43 21 -65 55 -65c42 0 71 27 88 85h44c20 0 28 -7 23 -20c-22 -64 -78 -124 -167 -124c-72 0 -121 44 -117 129z" />
    <glyph glyph-name="afii10028" unicode="&#x41a;" horiz-adv-x="660" 
d="M670 630c-69 -84 -169 -174 -272 -249c42 -121 99 -236 146 -290c15 -17 33 -25 48 -25h19c1 -10 0 -25 -2 -36c-4 -20 -33 -42 -72 -42c-29 0 -58 16 -81 46c-49 64 -97 174 -137 295c-40 -28 -83 -54 -124 -76l-49 -253h-63c-20 0 -27 6 -24 22l131 674
c20 6 43 10 66 10c19 0 25 -7 23 -21l-65 -331c134 80 287 205 413 352c46 -16 60 -29 56 -50c-2 -8 -5 -17 -13 -26z" />
    <glyph glyph-name="afii10029" unicode="&#x41b;" horiz-adv-x="760" 
d="M312 700h420c20 0 26 -7 23 -23l-131 -677h-63c-21 0 -27 6 -24 22l116 600h-267c-30 -135 -77 -311 -125 -445c-52 -144 -112 -189 -194 -189c-53 0 -94 28 -91 48c3 15 13 32 22 43c16 -9 40 -13 61 -13c45 0 79 30 113 121c50 135 103 325 140 513z" />
    <glyph glyph-name="afii10030" unicode="&#x41c;" horiz-adv-x="896" 
d="M693 23l51 539l-243 -324c-8 -11 -18 -16 -38 -16h-52l-122 340l-167 -562h-64c-21 0 -29 8 -24 24l200 658c26 14 57 24 75 24c14 0 20 -4 25 -18l134 -373l288 385h64c21 0 25 -7 24 -23l-57 -677h-67c-21 0 -28 6 -27 23z" />
    <glyph glyph-name="afii10031" unicode="&#x41d;" horiz-adv-x="722" 
d="M146 0h-63c-20 0 -27 6 -24 22l131 674c20 6 43 10 66 10c19 0 25 -7 23 -21l-58 -296h349l61 311h63c20 0 26 -7 23 -23l-131 -677h-63c-21 0 -27 6 -24 22l56 290h-349z" />
    <glyph glyph-name="afii10032" unicode="&#x41e;" horiz-adv-x="773" 
d="M87 350c46 239 220 362 397 362c178 0 304 -123 258 -362c-47 -239 -221 -362 -399 -362c-177 0 -303 123 -256 362zM181 359c-36 -189 53 -292 185 -292c116 0 244 85 281 274s-52 292 -184 292c-117 0 -245 -85 -282 -274z" />
    <glyph glyph-name="afii10033" unicode="&#x41f;" horiz-adv-x="723" 
d="M587 0h-63c-21 0 -27 6 -24 22l116 600h-350l-120 -622h-63c-20 0 -27 6 -24 22l132 678h504c20 0 26 -7 23 -23z" />
    <glyph glyph-name="afii10034" unicode="&#x420;" horiz-adv-x="638" 
d="M147 0h-63c-20 0 -27 7 -24 22l132 678h220c166 0 255 -95 224 -255s-165 -249 -314 -249c-41 0 -98 7 -134 19zM267 622l-65 -334c34 -9 76 -13 121 -13c111 0 198 59 221 173c22 116 -41 174 -153 174h-124z" />
    <glyph glyph-name="afii10035" unicode="&#x421;" horiz-adv-x="687" 
d="M707 565c2 -6 3 -12 2 -17c-3 -16 -13 -26 -34 -34c-14 -6 -34 -11 -53 -13c-17 83 -76 132 -169 132c-113 0 -238 -91 -271 -259c-38 -195 69 -308 236 -308c56 0 118 12 170 38c5 -11 6 -27 4 -42c-6 -30 -98 -74 -203 -74c-212 0 -345 147 -299 383
c42 218 214 341 383 341c126 0 209 -61 234 -147z" />
    <glyph glyph-name="afii10036" unicode="&#x422;" horiz-adv-x="611" 
d="M310 0h-63c-20 0 -27 6 -24 22l116 600h-196c-14 0 -19 8 -16 26c3 15 10 36 18 52h496c16 0 21 -8 17 -29l-10 -49h-218z" />
    <glyph glyph-name="afii10037" unicode="&#x423;" horiz-adv-x="651" 
d="M196 0h-62c-13 0 -21 5 -19 14c2 7 6 12 13 21c52 55 110 121 159 181l-143 449c29 27 55 40 74 40c14 0 19 -5 23 -18l114 -385c102 133 192 270 261 398h62c17 0 26 -6 24 -17c0 -3 -2 -7 -4 -10c-117 -214 -313 -478 -502 -673z" />
    <glyph glyph-name="afii10038" unicode="&#x424;" horiz-adv-x="756" 
d="M383 0h-63c-20 0 -27 6 -24 22l12 61c-142 15 -262 102 -229 270c32 166 185 254 333 268l15 75c20 6 43 10 66 10c19 0 25 -7 23 -21l-13 -64c142 -14 262 -101 229 -268c-33 -168 -186 -256 -333 -270zM638 344c22 109 -42 181 -150 197l-74 -380
c106 11 202 70 224 183zM173 362c-22 -110 41 -182 150 -198l74 379c-107 -11 -203 -70 -224 -181z" />
    <glyph glyph-name="afii10039" unicode="&#x425;" horiz-adv-x="685" 
d="M433 354l176 -311c-34 -36 -59 -50 -76 -50c-11 0 -15 3 -21 14l-159 284c-94 -79 -180 -177 -248 -291h-69c-17 0 -25 5 -22 17c1 4 3 10 7 17c73 117 176 233 293 326l-164 295c34 36 59 50 76 50c11 0 15 -3 21 -14l149 -267c87 76 170 168 234 276h69
c16 0 22 -6 20 -18c-1 -4 -3 -10 -7 -17c-68 -110 -168 -221 -279 -311z" />
    <glyph glyph-name="afii10040" unicode="&#x426;" horiz-adv-x="738" 
d="M198 0c-92 0 -137 39 -110 175l101 522c20 6 43 9 65 9c20 0 26 -7 24 -21l-98 -503c-17 -86 -2 -104 45 -104h288l121 622h62c21 0 26 -7 23 -22l-116 -600h39c20 0 26 -7 23 -23l-39 -202h-63c-20 0 -27 7 -24 22l25 125h-366z" />
    <glyph glyph-name="afii10041" unicode="&#x427;" horiz-adv-x="687" 
d="M267 685l-47 -240c-22 -115 38 -171 145 -171c52 0 109 9 154 30l77 396h63c20 0 26 -7 23 -23l-131 -677h-63c-20 0 -27 6 -24 22l41 210c-47 -24 -111 -36 -170 -36c-147 0 -237 90 -207 244l50 256c20 6 43 10 65 10c20 0 26 -7 24 -21z" />
    <glyph glyph-name="afii10042" unicode="&#x428;" horiz-adv-x="909" 
d="M773 0h-575c-93 0 -138 39 -112 174l102 522c20 6 43 10 66 10c19 0 25 -7 23 -21l-98 -503c-17 -87 -3 -105 44 -105h159l122 623h63c20 0 26 -7 23 -23l-117 -600h223l122 623h63c20 0 26 -7 23 -23z" />
    <glyph glyph-name="afii10043" unicode="&#x429;" horiz-adv-x="923" 
d="M198 0c-92 0 -137 39 -110 175l101 522c20 6 43 9 65 9c20 0 26 -7 24 -21l-98 -503c-17 -86 -2 -104 45 -104h158l121 622h63c20 0 26 -7 23 -22l-116 -600h223l121 622h63c21 0 26 -7 23 -22l-116 -600h39c20 0 26 -7 23 -23l-39 -202h-63c-20 0 -27 7 -24 22l25 125
h-551z" />
    <glyph glyph-name="afii10044" unicode="&#x42a;" horiz-adv-x="821" 
d="M339 622h-196c-14 0 -19 8 -16 26c3 15 10 36 18 52h278c16 0 21 -8 17 -28l-46 -238c45 18 107 30 171 30c152 0 241 -80 213 -227c-31 -155 -159 -237 -334 -237h-80c-98 0 -137 44 -108 195zM529 385c-48 0 -103 -8 -149 -23l-35 -180c-17 -87 -3 -105 44 -105h59
c119 0 214 42 236 155c20 104 -37 153 -155 153z" />
    <glyph glyph-name="afii10045" unicode="&#x42b;" horiz-adv-x="902" 
d="M766 0h-63c-20 0 -27 6 -24 22l131 674c20 6 43 10 65 10c20 0 26 -7 24 -21zM363 385c-48 0 -103 -8 -149 -23l-35 -180c-17 -87 -3 -105 44 -105h59c119 0 214 42 236 155c20 104 -37 153 -155 153zM277 685l-49 -251c45 18 107 30 171 30c152 0 242 -80 214 -227
c-31 -155 -160 -237 -335 -237h-80c-92 0 -137 43 -112 174l102 522c20 6 43 10 66 10c19 0 25 -7 23 -21z" />
    <glyph glyph-name="afii10046" unicode="&#x42c;" horiz-adv-x="655" 
d="M363 385c-48 0 -103 -8 -149 -23l-35 -180c-17 -87 -3 -105 44 -105h59c119 0 214 42 236 155c20 104 -37 153 -155 153zM277 685l-49 -251c45 18 107 30 171 30c152 0 242 -80 214 -227c-31 -155 -160 -237 -335 -237h-80c-92 0 -137 43 -112 174l102 522
c20 6 43 10 66 10c19 0 25 -7 23 -21z" />
    <glyph glyph-name="afii10047" unicode="&#x42d;" horiz-adv-x="698" 
d="M250 386h332c26 160 -61 247 -172 247c-93 0 -172 -49 -221 -132c-19 2 -37 7 -49 13c-17 8 -23 18 -20 34c1 5 4 11 8 17c59 86 166 147 292 147c169 0 293 -123 251 -341c-46 -236 -237 -383 -449 -383c-105 0 -179 44 -173 74c2 15 11 31 20 42c42 -26 98 -38 154 -38
c148 0 282 88 339 243h-313c-14 0 -19 7 -16 25c4 16 10 37 17 52z" />
    <glyph glyph-name="afii10048" unicode="&#x42e;" horiz-adv-x="1017" 
d="M146 0h-63c-20 0 -27 6 -24 22l131 674c20 6 43 10 66 10c19 0 25 -7 23 -21l-58 -299h118c56 216 221 326 389 326c177 0 304 -123 258 -362c-47 -240 -222 -362 -399 -362c-167 0 -289 108 -263 321h-118zM891 341c37 189 -52 292 -185 292c-116 0 -245 -85 -282 -275
c-37 -189 53 -292 185 -292c116 0 245 85 282 275z" />
    <glyph glyph-name="afii10049" unicode="&#x42f;" horiz-adv-x="657" 
d="M489 306l61 316h-108c-112 0 -196 -56 -217 -164s43 -164 154 -164c39 0 75 4 110 12zM652 677l-131 -677h-63c-20 0 -27 6 -24 22l41 211c-44 -13 -92 -17 -136 -17c-55 -76 -123 -153 -185 -197c-29 -21 -56 -31 -82 -31c-40 0 -60 22 -56 42c2 11 7 22 12 32h18
c16 0 34 6 56 21c41 28 94 78 150 147c-92 30 -145 107 -121 228c29 152 154 242 321 242h177c21 0 26 -7 23 -23z" />
    <glyph glyph-name="afii10065" unicode="&#x430;" horiz-adv-x="593" 
d="M224 62c62 0 131 33 177 97l15 73c-31 14 -89 22 -131 22c-87 0 -143 -36 -155 -96c-12 -63 32 -96 94 -96zM508 63h20c1 -9 1 -19 -1 -31c-4 -18 -32 -39 -73 -39c-42 0 -68 33 -65 87c-46 -56 -118 -92 -198 -92c-108 0 -168 68 -148 167c21 110 116 174 245 174
c51 0 106 -12 140 -31l9 44c17 86 -32 129 -133 129c-50 0 -103 -10 -149 -32c-6 8 -7 25 -5 38c6 28 89 69 190 69c138 0 210 -70 183 -208l-43 -220c-8 -42 4 -55 28 -55z" />
    <glyph glyph-name="afii10066" unicode="&#x431;" horiz-adv-x="630" 
d="M86 298c54 274 143 353 277 380l109 22c59 12 115 26 147 42c6 -8 16 -24 13 -38c-4 -21 -55 -50 -151 -71l-105 -23c-104 -23 -142 -75 -176 -195c58 56 137 91 215 91c127 0 204 -101 177 -239c-31 -162 -157 -279 -308 -279c-161 0 -235 117 -198 310zM182 338l-8 -42
c-30 -155 22 -234 125 -234c90 0 181 77 204 199c22 112 -39 170 -127 170c-65 0 -138 -38 -194 -93z" />
    <glyph glyph-name="afii10067" unicode="&#x432;" horiz-adv-x="555" 
d="M339 460h-120l-29 -150h120c75 0 111 31 119 75c9 45 -15 75 -90 75zM268 0h-98c-81 0 -120 38 -99 146l75 388h217c119 0 169 -66 154 -145c-10 -51 -44 -90 -92 -110c51 -19 84 -59 71 -126c-17 -90 -99 -153 -228 -153zM201 73h74c80 0 124 28 135 83s-30 81 -115 81
h-119l-16 -78c-13 -70 -1 -86 41 -86z" />
    <glyph glyph-name="afii10068" unicode="&#x433;" horiz-adv-x="471" 
d="M221 460l-89 -460h-59c-21 0 -27 6 -24 22l99 512h332c15 0 21 -8 17 -29l-9 -45h-267z" />
    <glyph glyph-name="afii10069" unicode="&#x434;" horiz-adv-x="575" 
d="M215 534h301c20 0 27 -7 24 -23l-85 -438h34c20 0 26 -7 23 -22l-32 -169h-59c-21 0 -27 7 -24 23l19 95h-343l-23 -118h-59c-20 0 -27 7 -24 23l33 168h50c73 143 127 301 165 461zM138 73h230l75 387h-164c-31 -116 -80 -260 -141 -387z" />
    <glyph glyph-name="afii10070" unicode="&#x435;" horiz-adv-x="575" 
d="M304 63c47 0 93 9 139 31c5 -9 7 -26 4 -39c-5 -27 -76 -67 -172 -67c-152 0 -242 115 -211 279c34 174 177 279 317 279c126 0 195 -83 174 -196c-6 -29 -18 -58 -31 -78c-20 -32 -40 -41 -77 -41h-300c-10 -110 59 -168 157 -168zM362 471c-89 0 -170 -63 -200 -166
h291c7 11 13 27 16 41c15 76 -25 125 -107 125z" />
    <glyph glyph-name="afii10071" unicode="&#x451;" horiz-adv-x="575" 
d="M304 63c47 0 93 9 139 31c5 -9 7 -26 4 -39c-5 -27 -76 -67 -172 -67c-152 0 -242 115 -211 279c34 174 177 279 317 279c126 0 195 -83 174 -196c-6 -29 -18 -58 -31 -78c-20 -32 -40 -41 -77 -41h-300c-10 -110 59 -168 157 -168zM362 471c-89 0 -170 -63 -200 -166
h291c7 11 13 27 16 41c15 76 -25 125 -107 125zM352 663c-6 -31 -31 -51 -59 -51s-48 21 -42 55c6 31 31 51 60 51c27 0 48 -21 41 -55zM530 663c-6 -31 -31 -51 -59 -51s-48 21 -42 55c6 31 31 51 60 51c27 0 48 -21 41 -55z" />
    <glyph glyph-name="afii10072" unicode="&#x436;" horiz-adv-x="801" 
d="M375 302l45 230c21 5 42 8 62 8c18 0 25 -7 22 -21l-42 -217c93 57 199 142 282 238c43 -15 53 -29 49 -48c-1 -6 -4 -13 -9 -20c-38 -47 -100 -103 -175 -157c15 -95 33 -166 59 -212c17 -34 34 -40 53 -40h20c1 -9 1 -19 -1 -31c-4 -18 -36 -39 -68 -39
c-43 0 -68 23 -89 68c-25 59 -42 129 -50 205c-28 -19 -58 -37 -88 -53l-41 -213h-59c-20 0 -27 7 -24 22l37 191c-24 16 -46 34 -68 53c-38 -76 -81 -146 -130 -205c-37 -45 -72 -68 -115 -68c-32 0 -56 21 -52 39c2 12 6 22 11 31h20c19 0 38 6 69 40
c42 46 88 117 141 212c-55 54 -95 110 -115 157c-1 7 -2 14 -1 20c4 19 20 33 67 48c47 -96 119 -181 190 -238z" />
    <glyph glyph-name="afii10073" unicode="&#x437;" horiz-adv-x="521" 
d="M173 388c-20 2 -43 8 -56 17c-10 7 -13 15 -11 26c1 5 5 14 10 21c42 53 115 94 211 94c111 0 174 -62 157 -149c-12 -60 -59 -106 -121 -126c64 -19 99 -65 86 -132c-17 -87 -102 -151 -243 -151c-93 0 -170 43 -164 74c2 13 10 29 19 39c41 -25 92 -39 150 -39
c91 0 141 34 150 82c11 55 -35 87 -128 87h-9c-14 0 -19 7 -16 25c3 16 9 34 16 48h16c95 0 144 32 154 86c10 51 -29 81 -83 81c-59 0 -109 -28 -138 -83z" />
    <glyph glyph-name="afii10074" unicode="&#x438;" horiz-adv-x="626" 
d="M600 514l-99 -514h-59c-20 0 -27 7 -24 22l74 381l-355 -395c-9 -10 -18 -14 -32 -14c-15 0 -40 10 -56 27l99 512c21 5 43 8 62 8s25 -7 23 -21l-76 -388l355 395c9 10 19 14 32 14c15 0 40 -10 56 -27z" />
    <glyph glyph-name="afii10075" unicode="&#x439;" horiz-adv-x="626" 
d="M600 514l-99 -514h-59c-20 0 -27 7 -24 22l74 381l-355 -395c-9 -10 -18 -14 -32 -14c-15 0 -40 10 -56 27l99 512c21 5 43 8 62 8s25 -7 23 -21l-76 -388l355 395c9 10 19 14 32 14c15 0 40 -10 56 -27zM269 720c16 8 36 15 53 15s21 -6 21 -20c0 -43 21 -65 55 -65
c42 0 71 27 88 85h44c20 0 28 -7 23 -20c-22 -64 -78 -124 -167 -124c-72 0 -121 44 -117 129z" />
    <glyph glyph-name="afii10076" unicode="&#x43a;" horiz-adv-x="579" 
d="M132 0h-59c-21 0 -27 6 -24 22l99 509c21 6 42 9 61 9s26 -7 23 -21l-46 -240c109 59 242 158 333 261c43 -16 54 -30 50 -49c-9 -45 -135 -141 -233 -204c35 -78 83 -153 118 -195c17 -20 33 -29 45 -29h20c1 -9 1 -19 -1 -31c-4 -18 -33 -39 -70 -39
c-22 0 -45 11 -66 35c-43 48 -89 128 -121 214c-30 -17 -63 -35 -92 -49z" />
    <glyph glyph-name="afii10077" unicode="&#x43b;" horiz-adv-x="653" 
d="M58 -12c-45 0 -85 24 -81 44c2 13 10 29 19 40c16 -8 34 -12 53 -12c37 0 65 21 95 111c33 100 67 229 93 363h367c20 0 26 -7 23 -23l-99 -511h-59c-20 0 -27 7 -24 22l85 438h-221c-18 -83 -48 -201 -81 -301c-40 -125 -93 -171 -170 -171z" />
    <glyph glyph-name="afii10078" unicode="&#x43c;" horiz-adv-x="756" 
d="M688 511l-34 -511h-62c-20 0 -25 6 -24 21l27 393l-175 -231c-8 -10 -18 -14 -32 -14h-59l-90 245l-132 -414h-59c-21 0 -27 8 -22 22l160 496c24 13 54 22 70 22c13 0 21 -4 25 -17l104 -276l218 287h60c20 0 26 -7 25 -23z" />
    <glyph glyph-name="afii10079" unicode="&#x43d;" horiz-adv-x="612" 
d="M487 0h-59c-21 0 -27 6 -24 22l42 217h-268l-46 -239h-59c-21 0 -27 6 -24 22l99 509c21 6 42 9 61 9s26 -7 23 -21l-40 -207h268l43 222h59c20 0 27 -7 24 -23z" />
    <glyph glyph-name="afii10080" unicode="&#x43e;" horiz-adv-x="628" 
d="M380 546c141 0 241 -102 206 -279c-34 -177 -174 -279 -315 -279s-241 102 -207 279c35 177 175 279 316 279zM291 63c88 0 179 62 205 198c27 138 -44 210 -136 210c-88 0 -179 -62 -205 -198c-27 -138 44 -210 136 -210z" />
    <glyph glyph-name="afii10081" unicode="&#x43f;" horiz-adv-x="612" 
d="M586 511l-99 -511h-59c-21 0 -27 6 -24 22l85 438h-268l-89 -460h-59c-21 0 -27 6 -24 22l99 512h414c20 0 27 -7 24 -23z" />
    <glyph glyph-name="afii10082" unicode="&#x440;" horiz-adv-x="640" 
d="M139 41l-49 -254h-59c-20 0 -27 7 -24 22l141 723c21 5 42 8 61 8s26 -7 23 -21l-14 -76c47 62 124 103 207 103c129 0 209 -97 177 -258c-34 -176 -177 -300 -323 -300c-60 0 -108 19 -140 53zM391 472c-64 0 -140 -45 -195 -139l-42 -216c32 -37 77 -54 127 -54
c109 0 208 95 233 223c23 116 -26 186 -123 186z" />
    <glyph glyph-name="afii10083" unicode="&#x441;" horiz-adv-x="552" 
d="M554 439c2 -6 2 -14 1 -18c-2 -11 -7 -18 -21 -25c-16 -9 -41 -15 -62 -17c-7 56 -44 92 -117 92c-91 0 -177 -71 -199 -186c-29 -147 63 -223 171 -223c48 0 92 10 138 31c5 -10 7 -26 4 -38c-5 -28 -78 -67 -171 -67c-146 0 -267 107 -230 295c31 164 161 263 306 263
c98 0 162 -46 180 -107z" />
    <glyph glyph-name="afii10084" unicode="&#x442;" horiz-adv-x="525" 
d="M266 0h-59c-21 0 -27 6 -24 22l85 438h-165c-14 0 -20 8 -16 26c3 15 8 33 15 48h430c15 0 21 -8 17 -29l-9 -45h-185z" />
    <glyph glyph-name="afii10085" unicode="&#x443;" horiz-adv-x="627" 
d="M85 219l61 313c21 5 42 8 61 8s26 -7 23 -21l-59 -306c-19 -98 11 -150 97 -150c54 0 120 23 171 64l79 408h59c20 0 27 -6 24 -22l-99 -510c-26 -134 -138 -251 -317 -251c-114 0 -174 57 -158 135c9 48 43 92 108 126c-52 35 -69 106 -50 206zM413 -6l13 64
c-53 -41 -127 -70 -196 -70c-16 0 -29 2 -43 4c-44 -27 -65 -59 -72 -95c-8 -42 23 -72 86 -72c105 0 192 63 212 169z" />
    <glyph glyph-name="afii10086" unicode="&#x444;" horiz-adv-x="762" 
d="M398 543l36 185c21 6 43 9 62 9s25 -7 23 -21l-34 -173c165 -13 269 -110 236 -276c-32 -167 -174 -265 -343 -276l-36 -184h-59c-20 0 -27 7 -24 23l32 161c-161 14 -260 112 -229 276c32 163 170 260 336 276zM632 260c24 124 -48 194 -162 208l-78 -404
c118 9 216 71 240 196zM152 273c-24 -121 43 -191 153 -207l78 402c-114 -12 -208 -73 -231 -195z" />
    <glyph glyph-name="afii10087" unicode="&#x445;" horiz-adv-x="567" 
d="M487 63h15c1 -9 0 -17 -2 -28c-4 -20 -29 -42 -69 -42c-29 0 -49 16 -75 63l-84 151c-70 -58 -137 -130 -183 -207h-64c-15 0 -22 6 -20 16c0 3 2 7 5 11c51 84 137 174 226 243l-127 223c29 33 53 46 68 46c10 0 15 -3 18 -10l114 -202c66 58 133 129 179 207h65
c13 0 21 -6 19 -17c-1 -3 -2 -7 -5 -11c-51 -83 -136 -173 -223 -242l94 -166c14 -26 27 -35 49 -35z" />
    <glyph glyph-name="afii10088" unicode="&#x446;" horiz-adv-x="624" 
d="M171 0c-82 0 -121 38 -100 147l75 385c21 5 42 8 61 8s26 -7 23 -21l-70 -360c-13 -69 -1 -86 42 -86h215l89 461h59c20 0 27 -7 24 -22l-85 -439h34c20 0 27 -6 23 -22l-32 -169h-59c-20 0 -27 7 -24 22l19 96h-294z" />
    <glyph glyph-name="afii10089" unicode="&#x447;" horiz-adv-x="613" 
d="M488 0h-59c-21 0 -27 6 -24 22l36 185c-54 -41 -127 -67 -195 -67c-124 0 -174 86 -146 230l32 161c21 6 42 9 61 9s26 -7 23 -21l-30 -155c-19 -98 10 -149 96 -149c55 0 121 22 173 63l49 256h59c20 0 27 -7 24 -23z" />
    <glyph glyph-name="afii10090" unicode="&#x448;" horiz-adv-x="799" 
d="M202 73h127l89 461h59c20 0 27 -7 24 -22l-85 -439h184l89 461h59c21 0 27 -7 24 -22l-99 -512h-502c-82 0 -121 38 -100 147l75 385c21 5 42 8 61 8s26 -7 23 -21l-70 -360c-13 -69 -1 -86 42 -86z" />
    <glyph glyph-name="afii10091" unicode="&#x449;" horiz-adv-x="807" 
d="M171 0c-82 0 -121 38 -100 147l75 385c21 5 42 8 61 8s26 -7 23 -21l-70 -360c-13 -69 -1 -86 42 -86h127l89 461h59c20 0 27 -7 24 -22l-85 -439h184l89 461h59c21 0 27 -7 24 -22l-85 -439h34c21 0 27 -6 23 -22l-32 -169h-58c-21 0 -27 7 -24 22l19 96h-478z" />
    <glyph glyph-name="afii10092" unicode="&#x44a;" horiz-adv-x="697" 
d="M364 0h-58c-81 0 -120 38 -99 146l61 314h-165c-14 0 -20 8 -16 26c3 15 8 33 15 48h239c20 0 27 -7 24 -23l-32 -162c37 12 88 21 140 21c126 0 198 -66 176 -178c-23 -116 -117 -192 -285 -192zM440 295c-40 0 -84 -5 -120 -15l-24 -121c-13 -70 -1 -86 41 -86h49
c100 0 160 43 174 114c13 69 -27 108 -120 108z" />
    <glyph glyph-name="afii10093" unicode="&#x44b;" horiz-adv-x="781" 
d="M71 146l75 385c21 6 42 9 61 9s26 -7 23 -21l-33 -170c37 12 88 21 140 21c126 0 198 -66 176 -178c-23 -116 -117 -192 -285 -192h-58c-81 0 -120 38 -99 146zM304 295c-40 0 -84 -5 -120 -15l-24 -121c-13 -70 -1 -86 41 -86h50c99 0 159 43 173 114
c13 69 -27 108 -120 108zM578 109l82 422c21 6 42 9 61 9s26 -7 23 -21l-78 -403c-7 -38 1 -53 25 -53h22c2 -9 1 -19 -1 -31c-4 -18 -32 -39 -71 -39c-47 0 -81 27 -63 116z" />
    <glyph glyph-name="afii10094" unicode="&#x44c;" horiz-adv-x="561" 
d="M71 146l75 385c21 6 42 9 61 9s26 -7 23 -21l-33 -170c37 12 88 21 140 21c126 0 198 -66 176 -178c-23 -116 -117 -192 -285 -192h-58c-81 0 -120 38 -99 146zM304 295c-40 0 -84 -5 -120 -15l-24 -121c-13 -70 -1 -86 41 -86h50c99 0 159 43 173 114
c13 69 -27 108 -120 108z" />
    <glyph glyph-name="afii10095" unicode="&#x44d;" horiz-adv-x="568" 
d="M215 302h230c14 105 -43 169 -130 169c-73 0 -124 -36 -153 -92c-19 2 -42 8 -56 17c-10 7 -13 14 -11 25c1 4 5 12 9 18c42 61 124 107 222 107c145 0 235 -99 204 -263c-37 -188 -200 -295 -346 -295c-93 0 -150 39 -145 67c3 12 11 28 20 38c36 -21 78 -31 126 -31
c94 0 195 56 240 167h-210c-14 0 -19 7 -15 25c3 16 8 34 15 48z" />
    <glyph glyph-name="afii10096" unicode="&#x44e;" horiz-adv-x="838" 
d="M132 0h-59c-21 0 -27 6 -24 22l99 509c21 6 42 9 61 9s26 -7 23 -21l-41 -212h93c47 152 175 239 305 239c141 0 241 -102 206 -279c-34 -178 -174 -279 -315 -279c-132 0 -228 88 -211 246h-92zM364 273c-27 -139 44 -211 136 -211c89 0 180 63 206 199
c27 138 -45 210 -136 210c-89 0 -180 -63 -206 -198z" />
    <glyph glyph-name="afii10097" unicode="&#x44f;" horiz-adv-x="575" 
d="M74 -12c-33 0 -50 21 -46 39c1 8 5 20 9 27h15c16 0 34 7 53 21c29 22 65 57 99 100c-75 25 -112 84 -95 173c23 116 120 186 254 186h161c21 0 27 -7 24 -23l-99 -511h-59c-20 0 -27 6 -24 22l30 153c-38 -11 -81 -13 -113 -13c-44 -62 -95 -116 -139 -148
c-25 -19 -48 -26 -70 -26zM409 245l42 215h-82c-93 0 -157 -36 -172 -112c-14 -75 37 -111 128 -111c29 0 57 2 84 8z" />
    <glyph glyph-name="AEacute" unicode="&#x1fc;" horiz-adv-x="891" 
d="M532 700h370c14 0 19 -8 16 -26c-4 -16 -10 -36 -18 -52h-320l-45 -236h251c15 0 20 -8 16 -28l-10 -50h-273l-24 -126c-16 -80 -3 -105 51 -105h241c15 0 21 -8 17 -28l-9 -49h-274c-100 0 -143 46 -116 182h-215l-123 -182h-64c-16 0 -27 7 -25 19c1 3 2 6 5 10
l451 651c28 13 61 20 98 20zM420 259l71 364l-249 -364h178zM799 872l-148 -105c-10 -6 -16 -9 -22 -9s-11 3 -15 8l-21 29l140 116c9 8 17 11 23 11c8 0 14 -3 20 -9c9 -10 18 -25 23 -41z" />
    <glyph glyph-name="Aacute" unicode="&#xc1;" horiz-adv-x="671" 
d="M75 0h-62c-16 0 -26 7 -24 19c1 4 3 7 4 10l376 660c24 10 57 17 84 17c25 0 32 -7 37 -30l123 -676h-69c-23 0 -30 6 -33 20l-26 162h-310zM473 259l-59 355l-197 -355h256zM576 873l-148 -105c-9 -6 -16 -9 -22 -9s-10 3 -14 8l-22 29l140 116c9 8 17 11 23 11
c8 0 14 -3 20 -9c9 -10 18 -25 23 -41z" />
    <glyph glyph-name="Abreve" unicode="&#x102;" horiz-adv-x="671" 
d="M75 0h-62c-16 0 -26 7 -24 19c1 4 3 7 4 10l376 660c24 10 57 17 84 17c25 0 32 -7 37 -30l123 -676h-69c-23 0 -30 6 -33 20l-26 162h-310zM473 259l-59 355l-197 -355h256zM326 895c16 8 36 15 53 15s21 -6 21 -20c0 -43 21 -65 55 -65c42 0 71 27 88 85h44
c20 0 28 -7 23 -20c-22 -64 -78 -124 -167 -124c-72 0 -121 44 -117 129z" />
    <glyph glyph-name="Acircumflex" unicode="&#xc2;" horiz-adv-x="671" 
d="M75 0h-62c-16 0 -26 7 -24 19c1 4 3 7 4 10l376 660c24 10 57 17 84 17c25 0 32 -7 37 -30l123 -676h-69c-23 0 -30 6 -33 20l-26 162h-310zM473 259l-59 355l-197 -355h256zM508 906l94 -111l-34 -30c-8 -7 -15 -10 -21 -10c-8 0 -14 4 -22 14l-66 82l-115 -96
c-29 12 -43 26 -40 42c1 5 4 9 9 13l135 110h27c17 0 23 -2 33 -14z" />
    <glyph glyph-name="Adieresis" unicode="&#xc4;" horiz-adv-x="671" 
d="M75 0h-62c-16 0 -26 7 -24 19c1 4 3 7 4 10l376 660c24 10 57 17 84 17c25 0 32 -7 37 -30l123 -676h-69c-23 0 -30 6 -33 20l-26 162h-310zM473 259l-59 355l-197 -355h256zM419 837c-6 -31 -31 -51 -59 -51s-49 21 -42 55c6 31 31 51 60 51c27 0 48 -21 41 -55z
M597 837c-6 -31 -31 -51 -59 -51s-49 21 -42 55c6 31 31 51 60 51c27 0 48 -21 41 -55z" />
    <glyph glyph-name="Agrave" unicode="&#xc0;" horiz-adv-x="671" 
d="M75 0h-62c-16 0 -26 7 -24 19c1 4 3 7 4 10l376 660c24 10 57 17 84 17c25 0 32 -7 37 -30l123 -676h-69c-23 0 -30 6 -33 20l-26 162h-310zM473 259l-59 355l-197 -355h256zM458 767l-108 105c11 16 26 31 39 41c8 6 16 9 24 9c6 0 12 -3 19 -11l94 -116l-33 -29
c-6 -5 -11 -8 -17 -8s-12 3 -18 9z" />
    <glyph glyph-name="Amacron" unicode="&#x100;" horiz-adv-x="671" 
d="M75 0h-62c-16 0 -26 7 -24 19c1 4 3 7 4 10l376 660c24 10 57 17 84 17c25 0 32 -7 37 -30l123 -676h-69c-23 0 -30 6 -33 20l-26 162h-310zM473 259l-59 355l-197 -355h256zM336 872h243c14 0 18 -7 14 -25l-7 -39h-250c-12 0 -17 8 -14 23c3 14 9 30 14 41z" />
    <glyph glyph-name="Aogonek" unicode="&#x104;" horiz-adv-x="671" 
d="M597 -153c16 6 24 1 20 -17l-6 -35c-21 -10 -49 -15 -73 -15c-77 0 -107 43 -96 98c8 42 45 92 96 122c-19 1 -25 7 -27 20l-26 162h-310l-100 -182h-62c-16 0 -26 7 -24 19c1 4 3 7 4 10l376 660c24 10 57 17 84 17c25 0 32 -7 37 -30l123 -676
c-56 -34 -88 -76 -95 -113c-5 -25 7 -46 45 -46c11 0 24 2 34 6zM473 259l-59 355l-197 -355h256z" />
    <glyph glyph-name="Aring" unicode="&#xc5;" horiz-adv-x="671" 
d="M75 0h-62c-16 0 -26 7 -24 19c1 4 3 7 4 10l376 660c24 10 57 17 84 17c25 0 32 -7 37 -30l123 -676h-69c-23 0 -30 6 -33 20l-26 162h-310zM473 259l-59 355l-197 -355h256zM475 928c54 0 85 -39 76 -89c-10 -50 -57 -89 -111 -89c-53 0 -85 39 -75 89
c9 50 57 89 110 89zM452 795c23 0 43 17 48 42c6 28 -10 46 -36 46c-23 0 -44 -17 -49 -42c-5 -28 11 -46 37 -46z" />
    <glyph glyph-name="Aringacute" unicode="&#x1fa;" horiz-adv-x="671" 
d="M458 840c54 0 85 -39 75 -89c-5 -28 -22 -53 -45 -69l2 -6l123 -676h-69c-23 0 -30 6 -33 20l-26 162h-310l-100 -182h-62c-16 0 -26 7 -24 19c1 4 3 7 4 10l372 653c-16 16 -23 41 -18 69c10 50 57 89 111 89zM473 259l-59 355l-197 -355h256zM557 938l-109 -76
c-8 -5 -13 -8 -19 -8c-5 0 -10 3 -13 7l-21 27l103 85c8 7 15 10 20 10c8 0 13 -3 18 -8c8 -9 17 -22 21 -37zM434 706c23 0 44 17 49 42c6 29 -11 47 -36 47c-24 0 -44 -17 -49 -42c-6 -29 11 -47 36 -47z" />
    <glyph glyph-name="Atilde" unicode="&#xc3;" horiz-adv-x="671" 
d="M75 0h-62c-16 0 -26 7 -24 19c1 4 3 7 4 10l376 660c24 10 57 17 84 17c25 0 32 -7 37 -30l123 -676h-69c-23 0 -30 6 -33 20l-26 162h-310zM473 259l-59 355l-197 -355h256zM308 811c2 9 6 19 10 27c21 38 52 59 89 59c26 0 42 -7 63 -27c17 -17 26 -22 37 -22
c17 0 29 10 43 51l43 -12c15 -4 19 -12 11 -29c-19 -47 -53 -77 -98 -77c-25 0 -41 7 -61 27c-19 18 -27 22 -38 22c-17 0 -28 -10 -42 -48c-17 0 -35 3 -45 8s-14 12 -12 21z" />
    <glyph glyph-name="Cacute" unicode="&#x106;" horiz-adv-x="687" 
d="M707 565c2 -6 3 -12 2 -17c-3 -16 -13 -26 -34 -34c-14 -6 -34 -11 -53 -13c-17 83 -76 132 -169 132c-113 0 -238 -91 -271 -259c-38 -195 69 -308 236 -308c56 0 118 12 170 38c5 -11 6 -27 4 -42c-6 -30 -98 -74 -203 -74c-212 0 -345 147 -299 383
c42 218 214 341 383 341c126 0 209 -61 234 -147zM598 872l-148 -105c-10 -6 -16 -9 -22 -9s-11 3 -15 8l-21 29l140 116c9 8 17 11 23 11c8 0 14 -3 20 -9c9 -10 18 -25 23 -41z" />
    <glyph glyph-name="Ccaron" unicode="&#x10c;" horiz-adv-x="687" 
d="M707 565c2 -6 3 -12 2 -17c-3 -16 -13 -26 -34 -34c-14 -6 -34 -11 -53 -13c-17 83 -76 132 -169 132c-113 0 -238 -91 -271 -259c-38 -195 69 -308 236 -308c56 0 118 12 170 38c5 -11 6 -27 4 -42c-6 -30 -98 -74 -203 -74c-212 0 -345 147 -299 383
c42 218 214 341 383 341c126 0 209 -61 234 -147zM452 767l-96 112c25 29 42 41 54 41c8 0 15 -3 23 -13l67 -83l119 100l30 -33c4 -4 5 -9 4 -13c-1 -6 -5 -11 -12 -17l-130 -105c-9 -1 -18 -1 -28 -1c-16 0 -22 3 -31 12z" />
    <glyph glyph-name="Ccedilla" unicode="&#xc7;" horiz-adv-x="687" 
d="M285 -90c-7 4 -11 7 -10 12c1 2 2 4 4 6l46 65c-174 27 -277 166 -235 378c42 218 214 341 383 341c126 0 209 -61 234 -147c2 -6 3 -12 2 -17c-3 -16 -13 -26 -34 -34c-14 -6 -34 -11 -53 -13c-17 83 -76 132 -169 132c-113 0 -238 -91 -271 -259
c-38 -195 69 -308 236 -308c56 0 118 12 170 38c5 -11 6 -27 4 -42c-6 -29 -92 -71 -194 -74l-35 -47c53 -9 81 -40 72 -86c-11 -58 -65 -93 -136 -93c-22 0 -49 3 -68 10l7 35c2 12 8 18 18 18c11 0 28 -6 45 -6c32 0 56 13 61 38c6 31 -19 49 -77 53z" />
    <glyph glyph-name="Ccircumflex" unicode="&#x108;" horiz-adv-x="687" 
d="M707 565c2 -6 3 -12 2 -17c-3 -16 -13 -26 -34 -34c-14 -6 -34 -11 -53 -13c-17 83 -76 132 -169 132c-113 0 -238 -91 -271 -259c-38 -195 69 -308 236 -308c56 0 118 12 170 38c5 -11 6 -27 4 -42c-6 -30 -98 -74 -203 -74c-212 0 -345 147 -299 383
c42 218 214 341 383 341c126 0 209 -61 234 -147zM541 906l94 -111l-34 -30c-8 -7 -15 -10 -21 -10c-8 0 -14 4 -22 14l-66 82l-115 -96c-29 12 -43 26 -40 42c1 5 4 9 9 13l135 110h27c17 0 23 -2 33 -14z" />
    <glyph glyph-name="Cdotaccent" unicode="&#x10a;" horiz-adv-x="687" 
d="M707 565c2 -6 3 -12 2 -17c-3 -16 -13 -26 -34 -34c-14 -6 -34 -11 -53 -13c-17 83 -76 132 -169 132c-113 0 -238 -91 -271 -259c-38 -195 69 -308 236 -308c56 0 118 12 170 38c5 -11 6 -27 4 -42c-6 -30 -98 -74 -203 -74c-212 0 -345 147 -299 383
c42 218 214 341 383 341c126 0 209 -61 234 -147zM540 837c-6 -31 -31 -51 -59 -51s-49 21 -42 55c6 31 31 51 60 51c27 0 48 -21 41 -55z" />
    <glyph glyph-name="Dcaron" unicode="&#x10e;" horiz-adv-x="722" 
d="M231 78h64c136 0 268 92 303 272s-62 272 -198 272h-135l-85 -440c-15 -79 -3 -104 51 -104zM291 0h-86c-99 0 -143 46 -117 175l102 525h237c189 0 307 -133 265 -350c-43 -217 -212 -350 -401 -350zM391 767l-96 112c25 29 42 41 54 41c8 0 15 -3 23 -13l67 -83
l119 100l30 -33c4 -4 5 -9 4 -13c-1 -6 -5 -11 -12 -17l-130 -105c-9 -1 -18 -1 -28 -1c-16 0 -22 3 -31 12z" />
    <glyph glyph-name="Dcroat" unicode="&#x110;" horiz-adv-x="722" 
d="M291 0h-86c-106 0 -143 49 -115 195l25 126h-46c-15 0 -20 6 -17 19c2 12 6 27 11 38h63l63 322h238c189 0 306 -133 264 -350c-43 -217 -211 -350 -400 -350zM217 378h180c16 0 21 -7 17 -28l-6 -29h-202l-27 -139c-16 -80 -3 -105 51 -105h64c135 0 269 93 304 273
c34 179 -63 272 -198 272h-136z" />
    <glyph glyph-name="Eacute" unicode="&#xc9;" horiz-adv-x="574" 
d="M477 0h-272c-100 0 -144 46 -119 174l103 526h396c14 0 18 -8 15 -26c-4 -16 -9 -36 -17 -52h-319l-45 -236h249c16 0 20 -8 16 -28l-10 -50h-271l-24 -126c-15 -79 1 -105 51 -105h239c16 0 21 -8 17 -28zM526 872l-148 -105c-10 -6 -16 -9 -22 -9s-11 3 -15 8l-21 29
l140 116c9 8 17 11 23 11c8 0 14 -3 20 -9c9 -10 18 -25 23 -41z" />
    <glyph glyph-name="Ebreve" unicode="&#x114;" horiz-adv-x="574" 
d="M477 0h-272c-100 0 -144 46 -119 174l103 526h396c14 0 18 -8 15 -26c-4 -16 -9 -36 -17 -52h-319l-45 -236h249c16 0 20 -8 16 -28l-10 -50h-271l-24 -126c-15 -79 1 -105 51 -105h239c16 0 21 -8 17 -28zM288 895c16 8 36 15 53 15s21 -6 21 -20c0 -43 21 -65 55 -65
c42 0 71 27 88 85h44c20 0 28 -7 23 -20c-22 -64 -78 -124 -167 -124c-72 0 -121 44 -117 129z" />
    <glyph glyph-name="Ecaron" unicode="&#x11a;" horiz-adv-x="574" 
d="M477 0h-272c-100 0 -144 46 -119 174l103 526h396c14 0 18 -8 15 -26c-4 -16 -9 -36 -17 -52h-319l-45 -236h249c16 0 20 -8 16 -28l-10 -50h-271l-24 -126c-15 -79 1 -105 51 -105h239c16 0 21 -8 17 -28zM374 767l-96 112c25 29 42 41 54 41c8 0 15 -3 23 -13l67 -83
l119 100l30 -33c4 -4 5 -9 4 -13c-1 -6 -5 -11 -12 -17l-130 -105c-9 -1 -18 -1 -28 -1c-16 0 -22 3 -31 12z" />
    <glyph glyph-name="Ecircumflex" unicode="&#xca;" horiz-adv-x="574" 
d="M477 0h-272c-100 0 -144 46 -119 174l103 526h396c14 0 18 -8 15 -26c-4 -16 -9 -36 -17 -52h-319l-45 -236h249c16 0 20 -8 16 -28l-10 -50h-271l-24 -126c-15 -79 1 -105 51 -105h239c16 0 21 -8 17 -28zM471 906l94 -111l-34 -30c-8 -7 -15 -10 -21 -10
c-8 0 -14 4 -22 14l-66 82l-115 -96c-29 12 -43 26 -40 42c1 5 4 9 9 13l135 110h27c17 0 23 -2 33 -14z" />
    <glyph glyph-name="Edieresis" unicode="&#xcb;" horiz-adv-x="574" 
d="M477 0h-272c-100 0 -144 46 -119 174l103 526h396c14 0 18 -8 15 -26c-4 -16 -9 -36 -17 -52h-319l-45 -236h249c16 0 20 -8 16 -28l-10 -50h-271l-24 -126c-15 -79 1 -105 51 -105h239c16 0 21 -8 17 -28zM381 837c-6 -31 -31 -51 -59 -51s-49 21 -42 55
c6 31 31 51 60 51c27 0 48 -21 41 -55zM559 837c-6 -31 -31 -51 -59 -51s-49 21 -42 55c6 31 31 51 60 51c27 0 48 -21 41 -55z" />
    <glyph glyph-name="Edotaccent" unicode="&#x116;" horiz-adv-x="574" 
d="M477 0h-272c-100 0 -144 46 -119 174l103 526h396c14 0 18 -8 15 -26c-4 -16 -9 -36 -17 -52h-319l-45 -236h249c16 0 20 -8 16 -28l-10 -50h-271l-24 -126c-15 -79 1 -105 51 -105h239c16 0 21 -8 17 -28zM469 837c-6 -31 -31 -51 -59 -51s-49 21 -42 55
c6 31 31 51 60 51c27 0 48 -21 41 -55z" />
    <glyph glyph-name="Egrave" unicode="&#xc8;" horiz-adv-x="574" 
d="M477 0h-272c-100 0 -144 46 -119 174l103 526h396c14 0 18 -8 15 -26c-4 -16 -9 -36 -17 -52h-319l-45 -236h249c16 0 20 -8 16 -28l-10 -50h-271l-24 -126c-15 -79 1 -105 51 -105h239c16 0 21 -8 17 -28zM429 767l-108 105c11 16 26 31 39 41c8 6 16 9 24 9
c6 0 12 -3 19 -11l94 -116l-33 -29c-6 -5 -11 -8 -17 -8s-12 3 -18 9z" />
    <glyph glyph-name="Emacron" unicode="&#x112;" horiz-adv-x="574" 
d="M477 0h-272c-100 0 -144 46 -119 174l103 526h396c14 0 18 -8 15 -26c-4 -16 -9 -36 -17 -52h-319l-45 -236h249c16 0 20 -8 16 -28l-10 -50h-271l-24 -126c-15 -79 1 -105 51 -105h239c16 0 21 -8 17 -28zM298 872h243c14 0 18 -7 14 -25l-7 -39h-250
c-12 0 -17 8 -14 23c3 14 9 30 14 41z" />
    <glyph glyph-name="Eogonek" unicode="&#x118;" horiz-adv-x="574" 
d="M421 -153c16 6 24 1 20 -17l-6 -35c-21 -10 -49 -15 -73 -15c-77 0 -107 43 -96 98c8 42 45 92 96 122h-157c-100 0 -144 46 -119 174l103 526h396c14 0 18 -8 15 -26c-4 -16 -9 -36 -17 -52h-319l-45 -236h249c16 0 20 -8 16 -28l-10 -50h-271l-24 -126
c-15 -79 1 -105 51 -105h239c16 0 21 -8 17 -28l-9 -49h-40c-56 -34 -88 -76 -95 -113c-5 -25 7 -46 45 -46c11 0 24 2 34 6z" />
    <glyph glyph-name="Gbreve" unicode="&#x11e;" horiz-adv-x="749" 
d="M637 508c-16 81 -79 125 -170 125c-125 0 -253 -95 -285 -259c-37 -192 70 -308 222 -308c100 0 154 37 164 91l23 118h-142c-14 0 -20 7 -16 25c3 16 10 37 17 52h224c16 0 22 -7 17 -28l-32 -166c-19 -101 -123 -170 -272 -170c-210 0 -342 151 -297 383
c41 214 214 341 391 341c124 0 210 -56 242 -140c2 -6 2 -12 1 -17c-3 -16 -13 -26 -33 -34c-14 -6 -34 -11 -54 -13zM363 895c16 8 36 15 53 15s21 -6 21 -20c0 -43 21 -65 55 -65c42 0 71 27 88 85h44c20 0 28 -7 23 -20c-22 -64 -78 -124 -167 -124
c-72 0 -121 44 -117 129z" />
    <glyph glyph-name="Gcircumflex" unicode="&#x11c;" horiz-adv-x="749" 
d="M637 508c-16 81 -79 125 -170 125c-125 0 -253 -95 -285 -259c-37 -192 70 -308 222 -308c100 0 154 37 164 91l23 118h-142c-14 0 -20 7 -16 25c3 16 10 37 17 52h224c16 0 22 -7 17 -28l-32 -166c-19 -101 -123 -170 -272 -170c-210 0 -342 151 -297 383
c41 214 214 341 391 341c124 0 210 -56 242 -140c2 -6 2 -12 1 -17c-3 -16 -13 -26 -33 -34c-14 -6 -34 -11 -54 -13zM546 906l94 -111l-34 -30c-8 -7 -15 -10 -21 -10c-8 0 -14 4 -22 14l-66 82l-115 -96c-29 12 -43 26 -40 42c1 5 4 9 9 13l135 110h27c17 0 23 -2 33 -14z
" />
    <glyph glyph-name="Gcommaaccent" unicode="&#x122;" horiz-adv-x="749" 
d="M637 508c-16 81 -79 125 -170 125c-125 0 -253 -95 -285 -259c-37 -192 70 -308 222 -308c100 0 154 37 164 91l23 118h-142c-14 0 -20 7 -16 25c3 16 10 37 17 52h224c16 0 22 -7 17 -28l-32 -166c-19 -101 -123 -170 -272 -170c-210 0 -342 151 -297 383
c41 214 214 341 391 341c124 0 210 -56 242 -140c2 -6 2 -12 1 -17c-3 -16 -13 -26 -33 -34c-14 -6 -34 -11 -54 -13zM365 -39c29 0 51 -20 44 -56c-8 -40 -28 -78 -62 -111c-29 -30 -59 -46 -66 -42c-7 3 -12 13 -13 23c29 23 53 53 63 80c-21 6 -34 26 -28 54
c6 32 35 52 62 52z" />
    <glyph glyph-name="Gdotaccent" unicode="&#x120;" horiz-adv-x="749" 
d="M637 508c-16 81 -79 125 -170 125c-125 0 -253 -95 -285 -259c-37 -192 70 -308 222 -308c100 0 154 37 164 91l23 118h-142c-14 0 -20 7 -16 25c3 16 10 37 17 52h224c16 0 22 -7 17 -28l-32 -166c-19 -101 -123 -170 -272 -170c-210 0 -342 151 -297 383
c41 214 214 341 391 341c124 0 210 -56 242 -140c2 -6 2 -12 1 -17c-3 -16 -13 -26 -33 -34c-14 -6 -34 -11 -54 -13zM545 837c-6 -31 -31 -51 -59 -51s-49 21 -42 55c6 31 31 51 60 51c27 0 48 -21 41 -55z" />
    <glyph glyph-name="Hcircumflex" unicode="&#x124;" horiz-adv-x="722" 
d="M146 0h-63c-20 0 -27 6 -24 22l131 674c20 6 43 10 66 10c19 0 25 -7 23 -21l-58 -296h349l61 311h63c20 0 26 -7 23 -23l-131 -677h-63c-21 0 -27 6 -24 22l56 290h-349zM534 906l94 -111l-34 -30c-8 -7 -15 -10 -21 -10c-8 0 -14 4 -22 14l-66 82l-115 -96
c-29 12 -43 26 -40 42c1 5 4 9 9 13l135 110h27c17 0 23 -2 33 -14z" />
    <glyph glyph-name="Iacute" unicode="&#xcd;" horiz-adv-x="293" 
d="M152 0h-63c-21 0 -27 6 -24 22l131 674c20 6 43 10 65 10c20 0 26 -7 24 -21zM409 872l-148 -105c-10 -6 -16 -9 -22 -9s-11 3 -15 8l-21 29l140 116c9 8 17 11 23 11c8 0 14 -3 20 -9c9 -10 18 -25 23 -41z" />
    <glyph glyph-name="Ibreve" unicode="&#x12c;" horiz-adv-x="293" 
d="M152 0h-63c-21 0 -27 6 -24 22l131 674c20 6 43 10 65 10c20 0 26 -7 24 -21zM138 895c16 8 36 15 53 15s21 -6 21 -20c0 -43 21 -65 55 -65c42 0 71 27 88 85h44c20 0 28 -7 23 -20c-22 -64 -78 -124 -167 -124c-72 0 -121 44 -117 129z" />
    <glyph glyph-name="Icircumflex" unicode="&#xce;" horiz-adv-x="293" 
d="M152 0h-63c-21 0 -27 6 -24 22l131 674c20 6 43 10 65 10c20 0 26 -7 24 -21zM320 906l94 -111l-34 -30c-8 -7 -15 -10 -21 -10c-8 0 -14 4 -22 14l-66 82l-115 -96c-29 12 -43 26 -40 42c1 5 4 9 9 13l135 110h27c17 0 23 -2 33 -14z" />
    <glyph glyph-name="Idieresis" unicode="&#xcf;" horiz-adv-x="293" 
d="M152 0h-63c-21 0 -27 6 -24 22l131 674c20 6 43 10 65 10c20 0 26 -7 24 -21zM231 837c-6 -31 -31 -51 -59 -51s-49 21 -42 55c6 31 31 51 60 51c27 0 48 -21 41 -55zM409 837c-6 -31 -31 -51 -59 -51s-49 21 -42 55c6 31 31 51 60 51c27 0 48 -21 41 -55z" />
    <glyph glyph-name="Idotaccent" unicode="&#x130;" horiz-adv-x="293" 
d="M152 0h-63c-21 0 -27 6 -24 22l131 674c20 6 43 10 65 10c20 0 26 -7 24 -21zM320 837c-6 -31 -31 -51 -59 -51s-49 21 -42 55c6 31 31 51 60 51c27 0 48 -21 41 -55z" />
    <glyph glyph-name="Igrave" unicode="&#xcc;" horiz-adv-x="293" 
d="M152 0h-63c-21 0 -27 6 -24 22l131 674c20 6 43 10 65 10c20 0 26 -7 24 -21zM250 767l-108 105c11 16 26 31 39 41c8 6 16 9 24 9c6 0 12 -3 19 -11l94 -116l-33 -29c-6 -5 -11 -8 -17 -8s-12 3 -18 9z" />
    <glyph glyph-name="Imacron" unicode="&#x12a;" horiz-adv-x="293" 
d="M152 0h-63c-21 0 -27 6 -24 22l131 674c20 6 43 10 65 10c20 0 26 -7 24 -21zM148 872h243c14 0 18 -7 14 -25l-7 -39h-250c-12 0 -17 8 -14 23c3 14 9 30 14 41z" />
    <glyph glyph-name="Iogonek" unicode="&#x12e;" horiz-adv-x="293" 
d="M152 0c-56 -34 -88 -76 -95 -113c-5 -25 7 -46 45 -46c11 0 24 2 34 6c16 6 24 1 20 -17l-6 -35c-21 -10 -49 -15 -73 -15c-77 0 -107 43 -96 98c8 42 46 93 97 123c-11 1 -16 7 -13 21l131 674c20 6 43 10 65 10c20 0 26 -7 24 -21z" />
    <glyph glyph-name="Itilde" unicode="&#x128;" horiz-adv-x="293" 
d="M152 0h-63c-21 0 -27 6 -24 22l131 674c20 6 43 10 65 10c20 0 26 -7 24 -21zM121 811c2 9 6 19 10 27c21 38 52 59 89 59c26 0 42 -7 63 -27c17 -17 26 -22 37 -22c17 0 29 10 43 51l43 -12c15 -4 19 -12 11 -29c-19 -47 -53 -77 -98 -77c-25 0 -41 7 -61 27
c-19 18 -27 22 -38 22c-17 0 -28 -10 -42 -48c-17 0 -35 3 -45 8s-14 12 -12 21z" />
    <glyph glyph-name="Jcircumflex" unicode="&#x134;" horiz-adv-x="422" 
d="M102 -12c-66 0 -123 31 -118 55c3 15 12 31 20 42c26 -11 61 -18 94 -18c75 0 121 40 137 122l99 508c20 6 43 9 65 9c20 0 26 -7 24 -21l-97 -498c-25 -126 -103 -199 -224 -199zM453 906l94 -111l-34 -30c-8 -7 -15 -10 -21 -10c-8 0 -14 4 -22 14l-66 82l-115 -96
c-29 12 -43 26 -40 42c1 5 4 9 9 13l135 110h27c17 0 23 -2 33 -14z" />
    <glyph glyph-name="Kcommaaccent" unicode="&#x136;" horiz-adv-x="660" 
d="M670 630c-69 -84 -169 -174 -272 -249c42 -121 99 -236 146 -290c15 -17 33 -25 48 -25h19c1 -10 0 -25 -2 -36c-4 -20 -33 -42 -72 -42c-29 0 -58 16 -81 46c-49 64 -97 174 -137 295c-40 -28 -83 -54 -124 -76l-49 -253h-63c-20 0 -27 6 -24 22l131 674
c20 6 43 10 66 10c19 0 25 -7 23 -21l-65 -331c134 80 287 205 413 352c46 -16 60 -29 56 -50c-2 -8 -5 -17 -13 -26zM292 -39c29 0 51 -20 44 -56c-8 -40 -28 -78 -62 -111c-29 -30 -59 -46 -66 -42c-7 3 -12 13 -13 23c29 23 53 53 63 80c-21 6 -34 26 -28 54
c6 32 35 52 62 52z" />
    <glyph glyph-name="Lacute" unicode="&#x139;" horiz-adv-x="546" 
d="M479 0h-274c-100 0 -144 46 -119 174l102 522c20 6 43 10 66 10c19 0 25 -7 23 -21l-98 -503c-15 -79 1 -105 51 -105h241c15 0 21 -8 17 -28zM401 872l-148 -105c-10 -6 -16 -9 -22 -9s-11 3 -15 8l-21 29l140 116c9 8 17 11 23 11c8 0 14 -3 20 -9c9 -10 18 -25 23 -41
z" />
    <glyph glyph-name="Lcaron" unicode="&#x13d;" horiz-adv-x="546" 
d="M479 0h-274c-100 0 -144 46 -119 174l102 522c20 6 43 10 66 10c19 0 25 -7 23 -21l-98 -503c-15 -79 1 -105 51 -105h241c15 0 21 -8 17 -28zM421 739c30 0 54 -22 46 -65c-11 -52 -38 -96 -78 -134c-29 -30 -59 -43 -65 -40c-7 4 -13 14 -13 24c35 28 64 64 76 100
c-23 7 -38 28 -32 59c7 34 34 56 66 56z" />
    <glyph glyph-name="Lcommaaccent" unicode="&#x13b;" horiz-adv-x="546" 
d="M479 0h-274c-100 0 -144 46 -119 174l102 522c20 6 43 10 66 10c19 0 25 -7 23 -21l-98 -503c-15 -79 1 -105 51 -105h241c15 0 21 -8 17 -28zM282 -39c29 0 51 -20 44 -56c-8 -40 -28 -78 -62 -111c-29 -30 -59 -46 -66 -42c-7 3 -12 13 -13 23c29 23 53 53 63 80
c-21 6 -34 26 -28 54c6 32 35 52 62 52z" />
    <glyph glyph-name="Nacute" unicode="&#x143;" horiz-adv-x="718" 
d="M489 9l-236 539l-106 -548h-63c-20 0 -27 7 -24 22l127 656c24 16 56 28 73 28c13 0 19 -5 24 -15l236 -539l107 548h63c20 0 26 -7 23 -22l-127 -656c-24 -16 -56 -28 -73 -28c-13 0 -19 5 -24 15zM598 872l-148 -105c-10 -6 -16 -9 -22 -9s-11 3 -15 8l-21 29l140 116
c9 8 17 11 23 11c8 0 14 -3 20 -9c9 -10 18 -25 23 -41z" />
    <glyph glyph-name="Ncaron" unicode="&#x147;" horiz-adv-x="718" 
d="M489 9l-236 539l-106 -548h-63c-20 0 -27 7 -24 22l127 656c24 16 56 28 73 28c13 0 19 -5 24 -15l236 -539l107 548h63c20 0 26 -7 23 -22l-127 -656c-24 -16 -56 -28 -73 -28c-13 0 -19 5 -24 15zM434 767l-96 112c25 29 42 41 54 41c8 0 15 -3 23 -13l67 -83l119 100
l30 -33c4 -4 5 -9 4 -13c-1 -6 -5 -11 -12 -17l-130 -105c-9 -1 -18 -1 -28 -1c-16 0 -22 3 -31 12z" />
    <glyph glyph-name="Ncommaaccent" unicode="&#x145;" horiz-adv-x="718" 
d="M489 9l-236 539l-106 -548h-63c-20 0 -27 7 -24 22l127 656c24 16 56 28 73 28c13 0 19 -5 24 -15l236 -539l107 548h63c20 0 26 -7 23 -22l-127 -656c-24 -16 -56 -28 -73 -28c-13 0 -19 5 -24 15zM315 -39c29 0 51 -20 44 -56c-8 -40 -28 -78 -62 -111
c-29 -30 -59 -46 -66 -42c-7 3 -12 13 -13 23c29 23 53 53 63 80c-21 6 -34 26 -28 54c6 32 35 52 62 52z" />
    <glyph glyph-name="Ntilde" unicode="&#xd1;" horiz-adv-x="718" 
d="M489 9l-236 539l-106 -548h-63c-20 0 -27 7 -24 22l127 656c24 16 56 28 73 28c13 0 19 -5 24 -15l236 -539l107 548h63c20 0 26 -7 23 -22l-127 -656c-24 -16 -56 -28 -73 -28c-13 0 -19 5 -24 15zM332 811c2 9 6 19 10 27c21 38 52 59 89 59c26 0 42 -7 63 -27
c17 -17 26 -22 37 -22c17 0 29 10 43 51l43 -12c15 -4 19 -12 11 -29c-19 -47 -53 -77 -98 -77c-25 0 -41 7 -61 27c-19 18 -27 22 -38 22c-17 0 -28 -10 -42 -48c-17 0 -35 3 -45 8s-14 12 -12 21z" />
    <glyph glyph-name="Oacute" unicode="&#xd3;" horiz-adv-x="773" 
d="M87 350c46 239 220 362 397 362c178 0 304 -123 258 -362c-47 -239 -221 -362 -399 -362c-177 0 -303 123 -256 362zM181 359c-36 -189 53 -292 185 -292c116 0 244 85 281 274s-52 292 -184 292c-117 0 -245 -85 -282 -274zM621 872l-148 -105c-10 -6 -16 -9 -22 -9
s-11 3 -15 8l-21 29l140 116c9 8 17 11 23 11c8 0 14 -3 20 -9c9 -10 18 -25 23 -41z" />
    <glyph glyph-name="Obreve" unicode="&#x14e;" horiz-adv-x="773" 
d="M87 350c46 239 220 362 397 362c178 0 304 -123 258 -362c-47 -239 -221 -362 -399 -362c-177 0 -303 123 -256 362zM181 359c-36 -189 53 -292 185 -292c116 0 244 85 281 274s-52 292 -184 292c-117 0 -245 -85 -282 -274zM376 895c16 8 36 15 53 15s21 -6 21 -20
c0 -43 21 -65 55 -65c42 0 71 27 88 85h44c20 0 28 -7 23 -20c-22 -64 -78 -124 -167 -124c-72 0 -121 44 -117 129z" />
    <glyph glyph-name="Ocircumflex" unicode="&#xd4;" horiz-adv-x="773" 
d="M87 350c46 239 220 362 397 362c178 0 304 -123 258 -362c-47 -239 -221 -362 -399 -362c-177 0 -303 123 -256 362zM181 359c-36 -189 53 -292 185 -292c116 0 244 85 281 274s-52 292 -184 292c-117 0 -245 -85 -282 -274zM559 906l94 -111l-34 -30
c-8 -7 -15 -10 -21 -10c-8 0 -14 4 -22 14l-66 82l-115 -96c-29 12 -43 26 -40 42c1 5 4 9 9 13l135 110h27c17 0 23 -2 33 -14z" />
    <glyph glyph-name="Odieresis" unicode="&#xd6;" horiz-adv-x="773" 
d="M87 350c46 239 220 362 397 362c178 0 304 -123 258 -362c-47 -239 -221 -362 -399 -362c-177 0 -303 123 -256 362zM181 359c-36 -189 53 -292 185 -292c116 0 244 85 281 274s-52 292 -184 292c-117 0 -245 -85 -282 -274zM469 837c-6 -31 -31 -51 -59 -51
s-49 21 -42 55c6 31 31 51 60 51c27 0 48 -21 41 -55zM647 837c-6 -31 -31 -51 -59 -51s-49 21 -42 55c6 31 31 51 60 51c27 0 48 -21 41 -55z" />
    <glyph glyph-name="Ograve" unicode="&#xd2;" horiz-adv-x="773" 
d="M87 350c46 239 220 362 397 362c178 0 304 -123 258 -362c-47 -239 -221 -362 -399 -362c-177 0 -303 123 -256 362zM181 359c-36 -189 53 -292 185 -292c116 0 244 85 281 274s-52 292 -184 292c-117 0 -245 -85 -282 -274zM509 767l-108 105c11 16 26 31 39 41
c8 6 16 9 24 9c6 0 12 -3 19 -11l94 -116l-33 -29c-6 -5 -11 -8 -17 -8s-12 3 -18 9z" />
    <glyph glyph-name="Ohungarumlaut" unicode="&#x150;" horiz-adv-x="773" 
d="M87 350c46 239 220 362 397 362c178 0 304 -123 258 -362c-47 -239 -221 -362 -399 -362c-177 0 -303 123 -256 362zM181 359c-36 -189 53 -292 185 -292c116 0 244 85 281 274s-52 292 -184 292c-117 0 -245 -85 -282 -274zM539 872l-148 -105c-10 -6 -16 -9 -22 -9
s-11 3 -15 8l-21 29l140 116c9 8 17 11 23 11c8 0 14 -3 20 -9c9 -10 18 -25 23 -41zM701 872l-148 -105c-10 -6 -16 -9 -22 -9s-11 3 -15 8l-21 29l140 116c9 8 17 11 23 11c8 0 14 -3 20 -9c9 -10 18 -25 23 -41z" />
    <glyph glyph-name="Omacron" unicode="&#x14c;" horiz-adv-x="773" 
d="M87 350c46 239 220 362 397 362c178 0 304 -123 258 -362c-47 -239 -221 -362 -399 -362c-177 0 -303 123 -256 362zM181 359c-36 -189 53 -292 185 -292c116 0 244 85 281 274s-52 292 -184 292c-117 0 -245 -85 -282 -274zM386 872h243c14 0 18 -7 14 -25l-7 -39h-250
c-12 0 -17 8 -14 23c3 14 9 30 14 41z" />
    <glyph glyph-name="Oslashacute" unicode="&#x1fe;" horiz-adv-x="773" 
d="M87 350c46 239 220 362 397 362c84 0 156 -27 204 -81l77 69h38c21 0 21 -12 8 -24l-95 -85c34 -59 45 -140 26 -241c-47 -239 -221 -362 -399 -362c-83 0 -156 27 -203 81l-76 -69h-38c-21 0 -22 12 -9 24l94 85c-33 59 -44 139 -24 241zM181 359
c-14 -73 -10 -133 8 -179l424 383c-34 46 -87 70 -150 70c-117 0 -245 -85 -282 -274zM647 341c14 72 8 132 -10 178l-423 -383c34 -45 88 -69 152 -69c116 0 244 85 281 274zM621 872l-148 -105c-10 -6 -16 -9 -22 -9s-11 3 -15 8l-21 29l140 116c9 8 17 11 23 11
c8 0 14 -3 20 -9c9 -10 18 -25 23 -41z" />
    <glyph glyph-name="Otilde" unicode="&#xd5;" horiz-adv-x="773" 
d="M87 350c46 239 220 362 397 362c178 0 304 -123 258 -362c-47 -239 -221 -362 -399 -362c-177 0 -303 123 -256 362zM181 359c-36 -189 53 -292 185 -292c116 0 244 85 281 274s-52 292 -184 292c-117 0 -245 -85 -282 -274zM359 811c2 9 6 19 10 27c21 38 52 59 89 59
c26 0 42 -7 63 -27c17 -17 26 -22 37 -22c17 0 29 10 43 51l43 -12c15 -4 19 -12 11 -29c-19 -47 -53 -77 -98 -77c-25 0 -41 7 -61 27c-19 18 -27 22 -38 22c-17 0 -28 -10 -42 -48c-17 0 -35 3 -45 8s-14 12 -12 21z" />
    <glyph glyph-name="Racute" unicode="&#x154;" horiz-adv-x="653" 
d="M498 -12c-26 0 -49 10 -70 31c-44 44 -82 121 -109 197c-44 0 -90 4 -128 17l-45 -233h-63c-20 0 -27 6 -24 22l132 678h205c167 0 256 -90 227 -242c-24 -121 -107 -198 -211 -228c30 -69 63 -119 94 -147c16 -15 32 -21 48 -21h18c1 -10 0 -21 -2 -32
c-4 -20 -32 -42 -72 -42zM266 622l-61 -316c31 -8 67 -12 106 -12c111 0 197 56 218 164s-43 164 -155 164h-108zM532 872l-148 -105c-10 -6 -16 -9 -22 -9s-11 3 -15 8l-21 29l140 116c9 8 17 11 23 11c8 0 14 -3 20 -9c9 -10 18 -25 23 -41z" />
    <glyph glyph-name="Rcaron" unicode="&#x158;" horiz-adv-x="653" 
d="M498 -12c-26 0 -49 10 -70 31c-44 44 -82 121 -109 197c-44 0 -90 4 -128 17l-45 -233h-63c-20 0 -27 6 -24 22l132 678h205c167 0 256 -90 227 -242c-24 -121 -107 -198 -211 -228c30 -69 63 -119 94 -147c16 -15 32 -21 48 -21h18c1 -10 0 -21 -2 -32
c-4 -20 -32 -42 -72 -42zM266 622l-61 -316c31 -8 67 -12 106 -12c111 0 197 56 218 164s-43 164 -155 164h-108zM381 767l-96 112c25 29 42 41 54 41c8 0 15 -3 23 -13l67 -83l119 100l30 -33c4 -4 5 -9 4 -13c-1 -6 -5 -11 -12 -17l-130 -105c-9 -1 -18 -1 -28 -1
c-16 0 -22 3 -31 12z" />
    <glyph glyph-name="Rcommaaccent" unicode="&#x156;" horiz-adv-x="653" 
d="M498 -12c-26 0 -49 10 -70 31c-44 44 -82 121 -109 197c-44 0 -90 4 -128 17l-45 -233h-63c-20 0 -27 6 -24 22l132 678h205c167 0 256 -90 227 -242c-24 -121 -107 -198 -211 -228c30 -69 63 -119 94 -147c16 -15 32 -21 48 -21h18c1 -10 0 -21 -2 -32
c-4 -20 -32 -42 -72 -42zM266 622l-61 -316c31 -8 67 -12 106 -12c111 0 197 56 218 164s-43 164 -155 164h-108zM277 -39c29 0 51 -20 44 -56c-8 -40 -28 -78 -62 -111c-29 -30 -59 -46 -66 -42c-7 3 -12 13 -13 23c29 23 53 53 63 80c-21 6 -34 26 -28 54
c6 32 35 52 62 52z" />
    <glyph glyph-name="Sacute" unicode="&#x15a;" horiz-adv-x="594" 
d="M389 712c106 0 181 -48 207 -119c2 -7 4 -14 2 -24c-2 -9 -10 -16 -23 -23c-20 -10 -44 -16 -65 -17c-14 66 -60 104 -136 104c-79 0 -144 -44 -157 -111c-12 -62 26 -100 143 -140c138 -48 187 -110 169 -206c-22 -112 -130 -188 -278 -188c-117 0 -194 45 -188 77
c3 14 11 31 20 41c46 -25 108 -40 172 -40c108 0 169 45 181 106c12 63 -25 102 -128 131c-137 39 -206 106 -184 217c22 113 131 192 265 192zM521 872l-148 -105c-10 -6 -16 -9 -22 -9s-11 3 -15 8l-21 29l140 116c9 8 17 11 23 11c8 0 14 -3 20 -9c9 -10 18 -25 23 -41z
" />
    <glyph glyph-name="Scaron" unicode="&#x160;" horiz-adv-x="594" 
d="M389 712c106 0 181 -48 207 -119c2 -7 4 -14 2 -24c-2 -9 -10 -16 -23 -23c-20 -10 -44 -16 -65 -17c-14 66 -60 104 -136 104c-79 0 -144 -44 -157 -111c-12 -62 26 -100 143 -140c138 -48 187 -110 169 -206c-22 -112 -130 -188 -278 -188c-117 0 -194 45 -188 77
c3 14 11 31 20 41c46 -25 108 -40 172 -40c108 0 169 45 181 106c12 63 -25 102 -128 131c-137 39 -206 106 -184 217c22 113 131 192 265 192zM364 767l-96 112c25 29 42 41 54 41c8 0 15 -3 23 -13l67 -83l119 100l30 -33c4 -4 5 -9 4 -13c-1 -6 -5 -11 -12 -17l-130 -105
c-9 -1 -18 -1 -28 -1c-16 0 -22 3 -31 12z" />
    <glyph glyph-name="Scedilla" unicode="&#x15e;" horiz-adv-x="594" 
d="M389 712c106 0 181 -48 207 -119c2 -7 4 -14 2 -24c-2 -9 -10 -16 -23 -23c-20 -10 -44 -16 -65 -17c-14 66 -60 104 -136 104c-79 0 -144 -44 -157 -111c-12 -62 26 -100 143 -140c138 -48 187 -110 169 -206c-18 -91 -93 -158 -200 -180l-41 -55c53 -9 81 -40 72 -86
c-11 -58 -65 -93 -136 -93c-22 0 -49 3 -68 10l7 35c2 12 8 18 18 18c11 0 28 -6 45 -6c32 0 56 13 61 38c6 31 -19 49 -77 53c-7 4 -11 7 -10 12c1 2 2 4 4 6l42 60c-114 1 -189 45 -183 77c3 14 11 31 20 41c46 -25 108 -40 172 -40c108 0 169 45 181 106
c12 63 -25 102 -128 131c-137 39 -206 106 -184 217c22 113 131 192 265 192z" />
    <glyph glyph-name="Scircumflex" unicode="&#x15c;" horiz-adv-x="594" 
d="M389 712c106 0 181 -48 207 -119c2 -7 4 -14 2 -24c-2 -9 -10 -16 -23 -23c-20 -10 -44 -16 -65 -17c-14 66 -60 104 -136 104c-79 0 -144 -44 -157 -111c-12 -62 26 -100 143 -140c138 -48 187 -110 169 -206c-22 -112 -130 -188 -278 -188c-117 0 -194 45 -188 77
c3 14 11 31 20 41c46 -25 108 -40 172 -40c108 0 169 45 181 106c12 63 -25 102 -128 131c-137 39 -206 106 -184 217c22 113 131 192 265 192zM460 906l94 -111l-34 -30c-8 -7 -15 -10 -21 -10c-8 0 -14 4 -22 14l-66 82l-115 -96c-29 12 -43 26 -40 42c1 5 4 9 9 13
l135 110h27c17 0 23 -2 33 -14z" />
    <glyph glyph-name="Tcaron" unicode="&#x164;" horiz-adv-x="611" 
d="M310 0h-63c-20 0 -27 6 -24 22l116 600h-196c-14 0 -19 8 -16 26c3 15 10 36 18 52h496c16 0 21 -8 17 -29l-10 -49h-218zM377 767l-96 112c25 29 42 41 54 41c8 0 15 -3 23 -13l67 -83l119 100l30 -33c4 -4 5 -9 4 -13c-1 -6 -5 -11 -12 -17l-130 -105
c-9 -1 -18 -1 -28 -1c-16 0 -22 3 -31 12z" />
    <glyph glyph-name="Tcommaaccent" unicode="&#x162;" horiz-adv-x="611" 
d="M310 0l-45 -59c53 -9 81 -40 72 -86c-11 -58 -65 -93 -136 -93c-22 0 -49 3 -68 10l7 35c2 12 8 18 18 18c11 0 28 -6 45 -6c32 0 56 13 61 38c6 31 -19 49 -77 53c-7 4 -11 7 -10 12c1 2 2 4 4 6l53 74c-8 1 -14 5 -11 20l116 600h-196c-14 0 -19 8 -16 26
c3 15 10 36 18 52h496c16 0 21 -8 17 -29l-10 -49h-218z" />
    <glyph glyph-name="Uacute" unicode="&#xda;" horiz-adv-x="719" 
d="M107 294l78 402c20 6 43 10 66 10c19 0 25 -7 23 -21l-78 -398c-26 -133 25 -221 135 -221c109 0 195 88 221 221l81 413h63c20 0 26 -7 23 -23l-74 -383c-37 -187 -161 -306 -329 -306s-246 119 -209 306zM595 872l-148 -105c-10 -6 -16 -9 -22 -9s-11 3 -15 8l-21 29
l140 116c9 8 17 11 23 11c8 0 14 -3 20 -9c9 -10 18 -25 23 -41z" />
    <glyph glyph-name="Ubreve" unicode="&#x16c;" horiz-adv-x="719" 
d="M107 294l78 402c20 6 43 10 66 10c19 0 25 -7 23 -21l-78 -398c-26 -133 25 -221 135 -221c109 0 195 88 221 221l81 413h63c20 0 26 -7 23 -23l-74 -383c-37 -187 -161 -306 -329 -306s-246 119 -209 306zM349 895c16 8 36 15 53 15s21 -6 21 -20c0 -43 21 -65 55 -65
c42 0 71 27 88 85h44c20 0 28 -7 23 -20c-22 -64 -78 -124 -167 -124c-72 0 -121 44 -117 129z" />
    <glyph glyph-name="Ucircumflex" unicode="&#xdb;" horiz-adv-x="719" 
d="M107 294l78 402c20 6 43 10 66 10c19 0 25 -7 23 -21l-78 -398c-26 -133 25 -221 135 -221c109 0 195 88 221 221l81 413h63c20 0 26 -7 23 -23l-74 -383c-37 -187 -161 -306 -329 -306s-246 119 -209 306zM531 906l94 -111l-34 -30c-8 -7 -15 -10 -21 -10
c-8 0 -14 4 -22 14l-66 82l-115 -96c-29 12 -43 26 -40 42c1 5 4 9 9 13l135 110h27c17 0 23 -2 33 -14z" />
    <glyph glyph-name="Udieresis" unicode="&#xdc;" horiz-adv-x="719" 
d="M107 294l78 402c20 6 43 10 66 10c19 0 25 -7 23 -21l-78 -398c-26 -133 25 -221 135 -221c109 0 195 88 221 221l81 413h63c20 0 26 -7 23 -23l-74 -383c-37 -187 -161 -306 -329 -306s-246 119 -209 306zM442 837c-6 -31 -31 -51 -59 -51s-49 21 -42 55
c6 31 31 51 60 51c27 0 48 -21 41 -55zM620 837c-6 -31 -31 -51 -59 -51s-49 21 -42 55c6 31 31 51 60 51c27 0 48 -21 41 -55z" />
    <glyph glyph-name="Ugrave" unicode="&#xd9;" horiz-adv-x="719" 
d="M107 294l78 402c20 6 43 10 66 10c19 0 25 -7 23 -21l-78 -398c-26 -133 25 -221 135 -221c109 0 195 88 221 221l81 413h63c20 0 26 -7 23 -23l-74 -383c-37 -187 -161 -306 -329 -306s-246 119 -209 306zM482 767l-108 105c11 16 26 31 39 41c8 6 16 9 24 9
c6 0 12 -3 19 -11l94 -116l-33 -29c-6 -5 -11 -8 -17 -8s-12 3 -18 9z" />
    <glyph glyph-name="Uhungarumlaut" unicode="&#x170;" horiz-adv-x="719" 
d="M107 294l78 402c20 6 43 10 66 10c19 0 25 -7 23 -21l-78 -398c-26 -133 25 -221 135 -221c109 0 195 88 221 221l81 413h63c20 0 26 -7 23 -23l-74 -383c-37 -187 -161 -306 -329 -306s-246 119 -209 306zM531 872l-148 -105c-10 -6 -16 -9 -22 -9s-11 3 -15 8l-21 29
l140 116c9 8 17 11 23 11c8 0 14 -3 20 -9c9 -10 18 -25 23 -41zM693 872l-148 -105c-10 -6 -16 -9 -22 -9s-11 3 -15 8l-21 29l140 116c9 8 17 11 23 11c8 0 14 -3 20 -9c9 -10 18 -25 23 -41z" />
    <glyph glyph-name="Umacron" unicode="&#x16a;" horiz-adv-x="719" 
d="M107 294l78 402c20 6 43 10 66 10c19 0 25 -7 23 -21l-78 -398c-26 -133 25 -221 135 -221c109 0 195 88 221 221l81 413h63c20 0 26 -7 23 -23l-74 -383c-37 -187 -161 -306 -329 -306s-246 119 -209 306zM359 872h243c14 0 18 -7 14 -25l-7 -39h-250
c-12 0 -17 8 -14 23c3 14 9 30 14 41z" />
    <glyph glyph-name="Uogonek" unicode="&#x172;" horiz-adv-x="719" 
d="M107 294l78 402c20 6 43 10 66 10c19 0 25 -7 23 -21l-78 -398c-26 -133 25 -221 135 -221c109 0 195 88 221 221l81 413h63c20 0 26 -7 23 -23l-74 -383c-31 -157 -123 -266 -251 -297c-52 -33 -83 -74 -90 -110c-5 -25 7 -46 45 -46c11 0 24 2 34 6c16 6 24 1 20 -17
l-6 -35c-21 -10 -49 -15 -73 -15c-77 0 -107 43 -96 98c7 37 35 80 77 110c-161 5 -234 123 -198 306z" />
    <glyph glyph-name="Uring" unicode="&#x16e;" horiz-adv-x="719" 
d="M107 294l78 402c20 6 43 10 66 10c19 0 25 -7 23 -21l-78 -398c-26 -133 25 -221 135 -221c109 0 195 88 221 221l81 413h63c20 0 26 -7 23 -23l-74 -383c-37 -187 -161 -306 -329 -306s-246 119 -209 306zM498 928c54 0 85 -39 76 -89c-10 -50 -57 -89 -111 -89
c-53 0 -85 39 -75 89c9 50 57 89 110 89zM475 795c23 0 43 17 48 42c6 28 -10 46 -36 46c-23 0 -44 -17 -49 -42c-5 -28 11 -46 37 -46z" />
    <glyph glyph-name="Utilde" unicode="&#x168;" horiz-adv-x="719" 
d="M107 294l78 402c20 6 43 10 66 10c19 0 25 -7 23 -21l-78 -398c-26 -133 25 -221 135 -221c109 0 195 88 221 221l81 413h63c20 0 26 -7 23 -23l-74 -383c-37 -187 -161 -306 -329 -306s-246 119 -209 306zM332 811c2 9 6 19 10 27c21 38 52 59 89 59c26 0 42 -7 63 -27
c17 -17 26 -22 37 -22c17 0 29 10 43 51l43 -12c15 -4 19 -12 11 -29c-19 -47 -53 -77 -98 -77c-25 0 -41 7 -61 27c-19 18 -27 22 -38 22c-17 0 -28 -10 -42 -48c-17 0 -35 3 -45 8s-14 12 -12 21z" />
    <glyph glyph-name="Wcircumflex" unicode="&#x174;" horiz-adv-x="1113" 
d="M1149 675c-86 -219 -196 -433 -340 -652c-11 -17 -23 -23 -45 -23h-79l-54 586c-72 -176 -176 -382 -295 -563c-10 -16 -23 -23 -45 -23h-75l-77 679c26 15 56 26 76 26c14 0 21 -4 23 -18l57 -580c105 161 206 362 296 593h83c24 0 33 -7 35 -24l53 -569
c111 167 215 372 299 593h66c22 0 28 -8 22 -25zM731 906l94 -111l-34 -30c-8 -7 -15 -10 -21 -10c-8 0 -14 4 -22 14l-66 82l-115 -96c-29 12 -43 26 -40 42c1 5 4 9 9 13l135 110h27c17 0 23 -2 33 -14z" />
    <glyph glyph-name="Yacute" unicode="&#xdd;" horiz-adv-x="661" 
d="M246 22l41 213l-160 430c31 27 59 40 76 40c11 0 16 -4 20 -16l129 -366c101 109 203 242 277 377h65c21 0 27 -12 18 -27c-86 -153 -204 -304 -333 -434l-46 -239h-63c-21 0 -27 6 -24 22zM575 872l-148 -105c-10 -6 -16 -9 -22 -9s-11 3 -15 8l-21 29l140 116
c9 8 17 11 23 11c8 0 14 -3 20 -9c9 -10 18 -25 23 -41z" />
    <glyph glyph-name="Ycircumflex" unicode="&#x176;" horiz-adv-x="662" 
d="M246 22l41 213l-160 430c31 27 59 40 76 40c11 0 16 -4 20 -16l129 -366c101 109 203 242 277 377h65c21 0 27 -12 18 -27c-86 -153 -204 -304 -333 -434l-46 -239h-63c-21 0 -27 6 -24 22zM506 906l94 -111l-34 -30c-8 -7 -15 -10 -21 -10c-8 0 -14 4 -22 14l-66 82
l-115 -96c-29 12 -43 26 -40 42c1 5 4 9 9 13l135 110h27c17 0 23 -2 33 -14z" />
    <glyph glyph-name="Ydieresis" unicode="&#x178;" horiz-adv-x="661" 
d="M246 22l41 213l-160 430c31 27 59 40 76 40c11 0 16 -4 20 -16l129 -366c101 109 203 242 277 377h65c21 0 27 -12 18 -27c-86 -153 -204 -304 -333 -434l-46 -239h-63c-21 0 -27 6 -24 22zM414 837c-6 -31 -31 -51 -59 -51s-49 21 -42 55c6 31 31 51 60 51
c27 0 48 -21 41 -55zM592 837c-6 -31 -31 -51 -59 -51s-49 21 -42 55c6 31 31 51 60 51c27 0 48 -21 41 -55z" />
    <glyph glyph-name="Zacute" unicode="&#x179;" horiz-adv-x="610" 
d="M178 700h417c17 0 24 -4 29 -16c5 -11 9 -29 8 -47l-485 -560h361c16 0 22 -8 18 -28l-9 -49h-449c-17 0 -25 4 -30 16c-5 11 -9 29 -8 47l484 559h-338c-14 0 -19 8 -16 26c3 15 10 36 18 52zM549 872l-148 -105c-10 -6 -16 -9 -22 -9s-11 3 -15 8l-21 29l140 116
c9 8 17 11 23 11c8 0 14 -3 20 -9c9 -10 18 -25 23 -41z" />
    <glyph glyph-name="Zcaron" unicode="&#x17d;" horiz-adv-x="610" 
d="M178 700h417c17 0 24 -4 29 -16c5 -11 9 -29 8 -47l-485 -560h361c16 0 22 -8 18 -28l-9 -49h-449c-17 0 -25 4 -30 16c-5 11 -9 29 -8 47l484 559h-338c-14 0 -19 8 -16 26c3 15 10 36 18 52zM382 767l-96 112c25 29 42 41 54 41c8 0 15 -3 23 -13l67 -83l119 100
l30 -33c4 -4 5 -9 4 -13c-1 -6 -5 -11 -12 -17l-130 -105c-9 -1 -18 -1 -28 -1c-16 0 -22 3 -31 12z" />
    <glyph glyph-name="Zdotaccent" unicode="&#x17b;" horiz-adv-x="610" 
d="M178 700h417c17 0 24 -4 29 -16c5 -11 9 -29 8 -47l-485 -560h361c16 0 22 -8 18 -28l-9 -49h-449c-17 0 -25 4 -30 16c-5 11 -9 29 -8 47l484 559h-338c-14 0 -19 8 -16 26c3 15 10 36 18 52zM474 837c-6 -31 -31 -51 -59 -51s-49 21 -42 55c6 31 31 51 60 51
c27 0 48 -21 41 -55z" />
    <glyph glyph-name="aacute" unicode="&#xe1;" horiz-adv-x="593" 
d="M224 62c62 0 131 33 177 97l15 73c-31 14 -89 22 -131 22c-87 0 -143 -36 -155 -96c-12 -63 32 -96 94 -96zM508 63h20c1 -9 1 -19 -1 -31c-4 -18 -32 -39 -73 -39c-42 0 -68 33 -65 87c-46 -56 -118 -92 -198 -92c-108 0 -168 68 -148 167c21 110 116 174 245 174
c51 0 106 -12 140 -31l9 44c17 86 -32 129 -133 129c-50 0 -103 -10 -149 -32c-6 8 -7 25 -5 38c6 28 89 69 190 69c138 0 210 -70 183 -208l-43 -220c-8 -42 4 -55 28 -55zM484 698l-148 -105c-9 -6 -16 -9 -22 -9s-10 3 -14 8l-22 29l140 116c9 8 17 11 23 11
c8 0 14 -3 20 -9c9 -10 18 -25 23 -41z" />
    <glyph glyph-name="abreve" unicode="&#x103;" horiz-adv-x="593" 
d="M224 62c62 0 131 33 177 97l15 73c-31 14 -89 22 -131 22c-87 0 -143 -36 -155 -96c-12 -63 32 -96 94 -96zM508 63h20c1 -9 1 -19 -1 -31c-4 -18 -32 -39 -73 -39c-42 0 -68 33 -65 87c-46 -56 -118 -92 -198 -92c-108 0 -168 68 -148 167c21 110 116 174 245 174
c51 0 106 -12 140 -31l9 44c17 86 -32 129 -133 129c-50 0 -103 -10 -149 -32c-6 8 -7 25 -5 38c6 28 89 69 190 69c138 0 210 -70 183 -208l-43 -220c-8 -42 4 -55 28 -55zM249 720c16 8 36 15 53 15s21 -6 21 -20c0 -43 21 -65 55 -65c42 0 71 27 88 85h44
c20 0 28 -7 23 -20c-22 -64 -78 -124 -167 -124c-72 0 -121 44 -117 129z" />
    <glyph glyph-name="acircumflex" unicode="&#xe2;" horiz-adv-x="593" 
d="M224 62c62 0 131 33 177 97l15 73c-31 14 -89 22 -131 22c-87 0 -143 -36 -155 -96c-12 -63 32 -96 94 -96zM508 63h20c1 -9 1 -19 -1 -31c-4 -18 -32 -39 -73 -39c-42 0 -68 33 -65 87c-46 -56 -118 -92 -198 -92c-108 0 -168 68 -148 167c21 110 116 174 245 174
c51 0 106 -12 140 -31l9 44c17 86 -32 129 -133 129c-50 0 -103 -10 -149 -32c-6 8 -7 25 -5 38c6 28 89 69 190 69c138 0 210 -70 183 -208l-43 -220c-8 -42 4 -55 28 -55zM432 732l94 -111l-34 -30c-8 -7 -15 -10 -21 -10c-8 0 -14 4 -22 14l-66 82l-115 -96
c-29 12 -43 26 -39 42c1 5 3 9 8 13l136 110h27c17 0 22 -2 32 -14z" />
    <glyph glyph-name="acutecomb" unicode="&#x301;" horiz-adv-x="0" 
d="M-66 678l-148 -105c-9 -6 -16 -9 -22 -9s-10 3 -14 8l-22 29l140 116c9 8 17 11 23 11c8 0 14 -3 20 -9c9 -10 18 -25 23 -41z" />
    <glyph glyph-name="adieresis" unicode="&#xe4;" horiz-adv-x="593" 
d="M224 62c62 0 131 33 177 97l15 73c-31 14 -89 22 -131 22c-87 0 -143 -36 -155 -96c-12 -63 32 -96 94 -96zM508 63h20c1 -9 1 -19 -1 -31c-4 -18 -32 -39 -73 -39c-42 0 -68 33 -65 87c-46 -56 -118 -92 -198 -92c-108 0 -168 68 -148 167c21 110 116 174 245 174
c51 0 106 -12 140 -31l9 44c17 86 -32 129 -133 129c-50 0 -103 -10 -149 -32c-6 8 -7 25 -5 38c6 28 89 69 190 69c138 0 210 -70 183 -208l-43 -220c-8 -42 4 -55 28 -55zM342 663c-6 -31 -31 -51 -59 -51s-48 21 -42 55c6 31 31 51 60 51c27 0 48 -21 41 -55zM520 663
c-6 -31 -31 -51 -59 -51s-48 21 -42 55c6 31 31 51 60 51c27 0 48 -21 41 -55z" />
    <glyph glyph-name="aeacute" unicode="&#x1fd;" horiz-adv-x="932" 
d="M799 93c5 -8 7 -25 4 -38c-5 -27 -76 -67 -171 -67c-93 0 -163 44 -196 115c-56 -70 -137 -115 -230 -115c-127 0 -182 72 -163 167c21 109 116 174 245 174c51 0 106 -12 140 -32l9 45c17 86 -32 129 -133 129c-53 0 -103 -10 -149 -32c-6 8 -7 25 -5 38
c6 28 89 69 190 69c93 0 159 -37 175 -105c53 64 137 105 223 105c126 0 195 -84 174 -196c-15 -75 -48 -119 -108 -119h-301c-10 -110 59 -169 158 -169c46 0 92 10 138 31zM224 62c62 0 135 33 181 112c4 18 7 36 10 57c-30 15 -88 23 -130 23c-87 0 -143 -37 -155 -97
c-12 -62 32 -95 94 -95zM718 471c-88 0 -169 -64 -200 -167h291c8 13 13 27 16 42c14 75 -25 125 -107 125zM667 698l-148 -105c-9 -6 -16 -9 -22 -9s-10 3 -14 8l-22 29l140 116c9 8 17 11 23 11c8 0 14 -3 20 -9c9 -10 18 -25 23 -41z" />
    <glyph glyph-name="agrave" unicode="&#xe0;" horiz-adv-x="593" 
d="M224 62c62 0 131 33 177 97l15 73c-31 14 -89 22 -131 22c-87 0 -143 -36 -155 -96c-12 -63 32 -96 94 -96zM508 63h20c1 -9 1 -19 -1 -31c-4 -18 -32 -39 -73 -39c-42 0 -68 33 -65 87c-46 -56 -118 -92 -198 -92c-108 0 -168 68 -148 167c21 110 116 174 245 174
c51 0 106 -12 140 -31l9 44c17 86 -32 129 -133 129c-50 0 -103 -10 -149 -32c-6 8 -7 25 -5 38c6 28 89 69 190 69c138 0 210 -70 183 -208l-43 -220c-8 -42 4 -55 28 -55zM391 593l-108 105c11 16 26 31 39 41c8 6 16 9 24 9c6 0 12 -3 19 -11l94 -116l-32 -29
c-6 -5 -12 -8 -18 -8s-11 3 -18 9z" />
    <glyph glyph-name="amacron" unicode="&#x101;" horiz-adv-x="593" 
d="M224 62c62 0 131 33 177 97l15 73c-31 14 -89 22 -131 22c-87 0 -143 -36 -155 -96c-12 -63 32 -96 94 -96zM508 63h20c1 -9 1 -19 -1 -31c-4 -18 -32 -39 -73 -39c-42 0 -68 33 -65 87c-46 -56 -118 -92 -198 -92c-108 0 -168 68 -148 167c21 110 116 174 245 174
c51 0 106 -12 140 -31l9 44c17 86 -32 129 -133 129c-50 0 -103 -10 -149 -32c-6 8 -7 25 -5 38c6 28 89 69 190 69c138 0 210 -70 183 -208l-43 -220c-8 -42 4 -55 28 -55zM259 697h243c14 0 18 -7 14 -25l-7 -39h-250c-12 0 -17 8 -14 23c3 14 9 30 14 41z" />
    <glyph glyph-name="aogonek" unicode="&#x105;" horiz-adv-x="593" 
d="M467 -153c16 6 24 1 20 -17l-6 -35c-21 -10 -49 -15 -73 -15c-77 0 -107 43 -96 98c7 39 39 87 101 127c-18 14 -27 41 -24 75c-46 -56 -118 -92 -198 -92c-108 0 -168 68 -148 167c21 110 116 174 245 174c51 0 106 -12 140 -31l9 44c17 86 -32 129 -133 129
c-50 0 -103 -10 -149 -32c-6 8 -7 25 -5 38c6 28 89 69 190 69c138 0 210 -70 183 -208l-43 -220c-8 -42 4 -55 28 -55h20c1 -9 1 -19 -1 -31c-3 -15 -23 -32 -52 -37c-51 -33 -81 -73 -87 -108c-5 -25 7 -46 45 -46c11 0 24 2 34 6zM224 62c62 0 131 33 177 97l15 73
c-31 14 -89 22 -131 22c-87 0 -143 -36 -155 -96c-12 -63 32 -96 94 -96z" />
    <glyph glyph-name="approxequal" unicode="&#x2248;" horiz-adv-x="649" 
d="M116 155c-14 6 -19 15 -19 24c0 7 2 17 4 23c17 62 60 105 135 105c39 0 75 -13 109 -37c57 -40 74 -50 97 -50c30 0 55 21 66 88l62 -13c13 -3 19 -11 17 -23c-13 -75 -59 -126 -140 -126c-39 0 -75 13 -109 37c-57 40 -74 50 -97 50c-30 0 -55 -21 -66 -87
c-18 -1 -43 2 -59 9zM116 365c-14 6 -19 15 -19 24c0 7 2 17 4 23c17 62 60 105 135 105c39 0 75 -13 109 -37c57 -40 74 -50 97 -50c30 0 55 21 66 88l62 -13c13 -3 19 -11 17 -23c-13 -75 -59 -126 -140 -126c-39 0 -75 13 -109 37c-57 40 -74 50 -97 50
c-30 0 -55 -21 -66 -87c-18 -1 -43 2 -59 9z" />
    <glyph glyph-name="aring" unicode="&#xe5;" horiz-adv-x="593" 
d="M224 62c62 0 131 33 177 97l15 73c-31 14 -89 22 -131 22c-87 0 -143 -36 -155 -96c-12 -63 32 -96 94 -96zM508 63h20c1 -9 1 -19 -1 -31c-4 -18 -32 -39 -73 -39c-42 0 -68 33 -65 87c-46 -56 -118 -92 -198 -92c-108 0 -168 68 -148 167c21 110 116 174 245 174
c51 0 106 -12 140 -31l9 44c17 86 -32 129 -133 129c-50 0 -103 -10 -149 -32c-6 8 -7 25 -5 38c6 28 89 69 190 69c138 0 210 -70 183 -208l-43 -220c-8 -42 4 -55 28 -55zM392 754c54 0 85 -39 76 -89c-10 -50 -57 -89 -111 -89c-53 0 -85 39 -75 89c9 50 57 89 110 89z
M369 621c23 0 44 17 48 42c6 28 -10 46 -36 46c-23 0 -44 -17 -49 -42c-5 -28 11 -46 37 -46z" />
    <glyph glyph-name="aringacute" unicode="&#x1fb;" horiz-adv-x="593" 
d="M224 62c62 0 131 33 177 97l15 73c-31 14 -89 22 -131 22c-87 0 -143 -36 -155 -96c-12 -63 32 -96 94 -96zM508 63h20c1 -9 1 -19 -1 -31c-4 -18 -32 -39 -73 -39c-42 0 -68 33 -65 87c-46 -56 -118 -92 -198 -92c-108 0 -168 68 -148 167c21 110 116 174 245 174
c51 0 106 -12 140 -31l9 44c17 86 -32 129 -133 129c-50 0 -103 -10 -149 -32c-6 8 -7 25 -5 38c6 28 89 69 190 69c138 0 210 -70 183 -208l-43 -220c-8 -42 4 -55 28 -55zM393 754c54 0 85 -39 76 -89c-10 -51 -57 -89 -111 -89s-85 38 -75 89c9 50 56 89 110 89zM369 620
c23 0 44 17 49 42c6 29 -11 47 -36 47c-24 0 -44 -17 -49 -42c-5 -29 11 -47 36 -47zM492 852l-109 -76c-8 -5 -13 -8 -19 -8c-5 0 -10 3 -13 7l-21 27l103 85c8 7 15 10 20 10c8 0 13 -3 18 -8c9 -9 17 -22 21 -37z" />
    <glyph glyph-name="arrowupdnbse" unicode="&#x21a8;" horiz-adv-x="800" 
d="M536 -67h-219c-12 0 -18 7 -18 22c0 14 3 32 6 45h103c-40 71 -80 143 -119 214h93v278h-93c41 75 82 148 123 222c2 4 4 6 6 6c1 0 3 -2 5 -6c41 -74 82 -147 123 -222h-93v-278h93c-39 -71 -79 -143 -119 -214h86c16 0 23 -7 23 -28v-39z" />
    <glyph glyph-name="atilde" unicode="&#xe3;" horiz-adv-x="593" 
d="M224 62c62 0 131 33 177 97l15 73c-31 14 -89 22 -131 22c-87 0 -143 -36 -155 -96c-12 -63 32 -96 94 -96zM508 63h20c1 -9 1 -19 -1 -31c-4 -18 -32 -39 -73 -39c-42 0 -68 33 -65 87c-46 -56 -118 -92 -198 -92c-108 0 -168 68 -148 167c21 110 116 174 245 174
c51 0 106 -12 140 -31l9 44c17 86 -32 129 -133 129c-50 0 -103 -10 -149 -32c-6 8 -7 25 -5 38c6 28 89 69 190 69c138 0 210 -70 183 -208l-43 -220c-8 -42 4 -55 28 -55zM231 636c2 9 6 19 10 27c21 38 52 59 89 59c26 0 42 -7 63 -27c17 -17 26 -22 37 -22
c17 0 29 10 43 51l43 -12c15 -4 19 -12 11 -29c-19 -47 -53 -77 -98 -77c-25 0 -41 7 -61 27c-19 18 -27 22 -38 22c-17 0 -28 -10 -43 -48c-17 0 -34 3 -44 8s-14 12 -12 21z" />
    <glyph glyph-name="brokenbar" unicode="&#xa6;" horiz-adv-x="309" 
d="M210 365h-47c-21 0 -28 6 -28 22v316c13 4 32 6 47 6c20 0 28 -7 28 -21v-323zM210 -140h-47c-21 0 -28 7 -28 23v315c13 4 32 6 47 6c20 0 28 -7 28 -21v-323z" />
    <glyph glyph-name="bullet" unicode="&#x2022;" horiz-adv-x="432" 
d="M237 219c-58 0 -112 45 -112 118c0 66 44 108 106 108c59 0 113 -45 113 -118c0 -66 -44 -108 -107 -108z" />
    <glyph glyph-name="cacute" unicode="&#x107;" horiz-adv-x="552" 
d="M554 439c2 -6 2 -14 1 -18c-2 -11 -7 -18 -21 -25c-16 -9 -41 -15 -62 -17c-7 56 -44 92 -117 92c-91 0 -177 -71 -199 -186c-29 -147 63 -223 171 -223c48 0 92 10 138 31c5 -10 7 -26 4 -38c-5 -28 -78 -67 -171 -67c-146 0 -267 107 -230 295c31 164 161 263 306 263
c98 0 162 -46 180 -107zM489 698l-148 -105c-9 -6 -16 -9 -22 -9s-10 3 -14 8l-22 29l140 116c9 8 17 11 23 11c8 0 14 -3 20 -9c9 -10 18 -25 23 -41z" />
    <glyph glyph-name="ccaron" unicode="&#x10d;" horiz-adv-x="552" 
d="M554 439c2 -6 2 -14 1 -18c-2 -11 -7 -18 -21 -25c-16 -9 -41 -15 -62 -17c-7 56 -44 92 -117 92c-91 0 -177 -71 -199 -186c-29 -147 63 -223 171 -223c48 0 92 10 138 31c5 -10 7 -26 4 -38c-5 -28 -78 -67 -171 -67c-146 0 -267 107 -230 295c31 164 161 263 306 263
c98 0 162 -46 180 -107zM335 593l-95 112c24 29 42 41 54 41c8 0 14 -3 22 -13l67 -83l119 100l30 -33c4 -4 5 -9 4 -13c-1 -6 -5 -11 -12 -17l-129 -105c-10 -1 -19 -1 -29 -1c-16 0 -22 3 -31 12z" />
    <glyph glyph-name="ccedilla" unicode="&#xe7;" horiz-adv-x="552" 
d="M205 -90c-7 4 -11 7 -10 12c1 2 2 4 4 6l46 65c-120 23 -210 125 -177 290c31 164 161 263 306 263c98 0 162 -46 180 -107c2 -6 2 -14 1 -18c-2 -11 -7 -18 -21 -25c-16 -9 -41 -15 -62 -17c-7 56 -44 92 -117 92c-91 0 -177 -71 -199 -186c-29 -147 63 -223 171 -223
c48 0 92 10 138 31c5 -10 7 -26 4 -38c-5 -26 -68 -61 -151 -66l-35 -48c53 -9 81 -40 72 -86c-11 -58 -65 -93 -136 -93c-22 0 -49 3 -68 10l7 35c2 12 8 18 18 18c11 0 28 -6 45 -6c32 0 56 13 61 38c6 31 -19 49 -77 53z" />
    <glyph glyph-name="ccircumflex" unicode="&#x109;" horiz-adv-x="552" 
d="M554 439c2 -6 2 -14 1 -18c-2 -11 -7 -18 -21 -25c-16 -9 -41 -15 -62 -17c-7 56 -44 92 -117 92c-91 0 -177 -71 -199 -186c-29 -147 63 -223 171 -223c48 0 92 10 138 31c5 -10 7 -26 4 -38c-5 -28 -78 -67 -171 -67c-146 0 -267 107 -230 295c31 164 161 263 306 263
c98 0 162 -46 180 -107zM431 732l94 -111l-34 -30c-8 -7 -15 -10 -21 -10c-8 0 -14 4 -22 14l-66 82l-115 -96c-29 12 -43 26 -39 42c1 5 3 9 8 13l136 110h27c17 0 22 -2 32 -14z" />
    <glyph glyph-name="cdotaccent" unicode="&#x10b;" horiz-adv-x="552" 
d="M554 439c2 -6 2 -14 1 -18c-2 -11 -7 -18 -21 -25c-16 -9 -41 -15 -62 -17c-7 56 -44 92 -117 92c-91 0 -177 -71 -199 -186c-29 -147 63 -223 171 -223c48 0 92 10 138 31c5 -10 7 -26 4 -38c-5 -28 -78 -67 -171 -67c-146 0 -267 107 -230 295c31 164 161 263 306 263
c98 0 162 -46 180 -107zM435 663c-6 -31 -31 -51 -59 -51s-48 21 -42 55c6 31 31 51 60 51c27 0 48 -21 41 -55z" />
    <glyph glyph-name="cent" unicode="&#xa2;" horiz-adv-x="552" 
d="M281 -112h-53c-20 0 -27 7 -24 23l17 88c-108 31 -183 130 -153 284c28 145 132 239 257 259l19 100c16 5 34 8 55 8c19 0 25 -7 23 -21l-17 -85c80 -9 132 -51 149 -105c2 -6 2 -14 1 -18c-2 -11 -7 -18 -21 -25c-16 -9 -41 -15 -62 -17c-7 56 -44 92 -117 92
c-91 0 -177 -71 -199 -186c-29 -147 63 -223 171 -223c48 0 92 10 138 31c5 -10 7 -26 4 -38c-5 -28 -77 -66 -169 -67z" />
    <glyph glyph-name="circumflex" unicode="&#x2c6;" horiz-adv-x="417" 
d="M344 712l94 -111l-34 -30c-8 -7 -14 -10 -20 -10c-8 0 -15 4 -23 14l-66 82l-114 -96c-30 12 -43 26 -40 42c1 5 3 9 8 13l136 110h27c17 0 22 -2 32 -14z" />
    <glyph glyph-name="colonmonetary" unicode="&#x20a1;" horiz-adv-x="687" 
d="M160 -88h-25c-19 0 -22 6 -15 24l52 124c-75 66 -109 173 -82 311c40 207 196 328 357 340l33 77h25c19 0 23 -6 15 -24l-22 -53c19 -2 37 -5 54 -9l37 86h25c19 0 23 -6 15 -24l-33 -77c57 -25 96 -69 111 -122c2 -6 3 -12 2 -17c-3 -16 -13 -26 -34 -34
c-14 -6 -34 -11 -53 -13c-10 44 -30 78 -61 101l-223 -527c25 -6 51 -9 80 -9c56 0 118 12 170 38c5 -11 6 -27 4 -42c-6 -30 -98 -74 -203 -74c-30 0 -58 3 -84 9l-36 -85h-25c-19 0 -22 6 -15 24l30 73c-16 7 -33 14 -48 23zM182 374c-17 -91 -4 -163 32 -215l199 470
c-102 -18 -202 -107 -231 -255zM248 121c14 -12 29 -22 46 -30l225 532c-16 5 -35 8 -55 9z" />
    <glyph glyph-name="copyright" unicode="&#xa9;" horiz-adv-x="824" 
d="M792 350c0 -200 -162 -362 -362 -362s-362 162 -362 362s162 362 362 362s362 -162 362 -362zM742 350c0 174 -139 316 -312 316s-312 -142 -312 -316c0 -175 139 -316 312 -316s312 141 312 316zM558 231c4 -7 8 -17 8 -28c0 -21 -52 -46 -110 -46
c-104 0 -199 79 -199 205c0 110 77 181 176 181c61 0 115 -29 138 -71c3 -6 4 -10 4 -15c0 -6 -3 -11 -10 -16c-12 -8 -28 -13 -44 -16c-16 36 -45 61 -90 61c-59 0 -102 -45 -102 -123c0 -94 64 -149 144 -149c31 0 62 6 85 17z" />
    <glyph glyph-name="dcaron" unicode="&#x10f;" horiz-adv-x="756" 
d="M523 493l46 237h59c20 0 27 -7 24 -23l-115 -589c-8 -42 4 -55 28 -55h20c1 -9 1 -19 -1 -31c-4 -18 -32 -39 -73 -39c-44 0 -71 33 -65 99c-47 -63 -125 -104 -208 -104c-129 0 -209 97 -178 258c35 176 178 300 324 300c60 0 108 -19 139 -53zM272 62
c64 0 140 45 195 139l42 216c-32 37 -77 54 -127 54c-109 0 -208 -95 -233 -223c-23 -116 26 -186 123 -186zM791 739c30 0 54 -22 46 -65c-11 -52 -38 -96 -78 -134c-29 -30 -59 -43 -65 -40c-7 4 -13 14 -13 24c35 28 64 64 76 100c-23 7 -38 28 -32 59c7 34 34 56 66 56z
" />
    <glyph glyph-name="dong" unicode="&#x20ab;" horiz-adv-x="652" 
d="M272 62c67 0 140 43 195 139l34 176c-32 37 -76 54 -127 54c-107 0 -207 -87 -229 -203c-20 -102 33 -166 127 -166zM494 -158h-403c-14 0 -19 8 -15 26c3 15 8 32 14 43h394c16 0 22 -8 18 -28zM446 92c-54 -64 -123 -104 -208 -104c-126 0 -210 91 -182 238
c32 164 176 280 320 280c57 0 106 -19 140 -53l23 122h-161c-14 0 -19 6 -16 19c2 12 6 28 12 39h177l13 67h59c20 0 26 -7 23 -23l-8 -44h38c16 0 20 -8 16 -28l-6 -30h-60l-89 -457c-8 -42 4 -55 28 -55h20c1 -9 1 -19 -1 -31c-4 -18 -32 -39 -73 -39c-44 0 -71 33 -65 99
z" />
    <glyph glyph-name="eacute" unicode="&#xe9;" horiz-adv-x="575" 
d="M304 63c47 0 93 9 139 31c5 -9 7 -26 4 -39c-5 -27 -76 -67 -172 -67c-152 0 -242 115 -211 279c34 174 177 279 317 279c126 0 195 -83 174 -196c-6 -29 -18 -58 -31 -78c-20 -32 -40 -41 -77 -41h-300c-10 -110 59 -168 157 -168zM362 471c-89 0 -170 -63 -200 -166
h291c7 11 13 27 16 41c15 76 -25 125 -107 125zM490 698l-148 -105c-9 -6 -16 -9 -22 -9s-10 3 -14 8l-22 29l140 116c9 8 17 11 23 11c8 0 14 -3 20 -9c9 -10 18 -25 23 -41z" />
    <glyph glyph-name="ebreve" unicode="&#x115;" horiz-adv-x="575" 
d="M304 63c47 0 93 9 139 31c5 -9 7 -26 4 -39c-5 -27 -76 -67 -172 -67c-152 0 -242 115 -211 279c34 174 177 279 317 279c126 0 195 -83 174 -196c-6 -29 -18 -58 -31 -78c-20 -32 -40 -41 -77 -41h-300c-10 -110 59 -168 157 -168zM362 471c-89 0 -170 -63 -200 -166
h291c7 11 13 27 16 41c15 76 -25 125 -107 125zM263 720c16 8 36 15 53 15s21 -6 21 -20c0 -43 21 -65 55 -65c42 0 71 27 88 85h44c20 0 28 -7 23 -20c-22 -64 -78 -124 -167 -124c-72 0 -121 44 -117 129z" />
    <glyph glyph-name="ecaron" unicode="&#x11b;" horiz-adv-x="575" 
d="M304 63c47 0 93 9 139 31c5 -9 7 -26 4 -39c-5 -27 -76 -67 -172 -67c-152 0 -242 115 -211 279c34 174 177 279 317 279c126 0 195 -83 174 -196c-6 -29 -18 -58 -31 -78c-20 -32 -40 -41 -77 -41h-300c-10 -110 59 -168 157 -168zM362 471c-89 0 -170 -63 -200 -166
h291c7 11 13 27 16 41c15 76 -25 125 -107 125zM345 593l-95 112c24 29 42 41 54 41c8 0 14 -3 22 -13l67 -83l119 100l30 -33c4 -4 5 -9 4 -13c-1 -6 -5 -11 -12 -17l-129 -105c-10 -1 -19 -1 -29 -1c-16 0 -22 3 -31 12z" />
    <glyph glyph-name="ecircumflex" unicode="&#xea;" horiz-adv-x="575" 
d="M304 63c47 0 93 9 139 31c5 -9 7 -26 4 -39c-5 -27 -76 -67 -172 -67c-152 0 -242 115 -211 279c34 174 177 279 317 279c126 0 195 -83 174 -196c-6 -29 -18 -58 -31 -78c-20 -32 -40 -41 -77 -41h-300c-10 -110 59 -168 157 -168zM362 471c-89 0 -170 -63 -200 -166
h291c7 11 13 27 16 41c15 76 -25 125 -107 125zM440 732l94 -111l-34 -30c-8 -7 -15 -10 -21 -10c-8 0 -14 4 -22 14l-66 82l-115 -96c-29 12 -43 26 -39 42c1 5 3 9 8 13l136 110h27c17 0 22 -2 32 -14z" />
    <glyph glyph-name="edieresis" unicode="&#xeb;" horiz-adv-x="575" 
d="M304 63c47 0 93 9 139 31c5 -9 7 -26 4 -39c-5 -27 -76 -67 -172 -67c-152 0 -242 115 -211 279c34 174 177 279 317 279c126 0 195 -83 174 -196c-6 -29 -18 -58 -31 -78c-20 -32 -40 -41 -77 -41h-300c-10 -110 59 -168 157 -168zM362 471c-89 0 -170 -63 -200 -166
h291c7 11 13 27 16 41c15 76 -25 125 -107 125zM352 663c-6 -31 -31 -51 -59 -51s-48 21 -42 55c6 31 31 51 60 51c27 0 48 -21 41 -55zM530 663c-6 -31 -31 -51 -59 -51s-48 21 -42 55c6 31 31 51 60 51c27 0 48 -21 41 -55z" />
    <glyph glyph-name="edotaccent" unicode="&#x117;" horiz-adv-x="575" 
d="M304 63c47 0 93 9 139 31c5 -9 7 -26 4 -39c-5 -27 -76 -67 -172 -67c-152 0 -242 115 -211 279c34 174 177 279 317 279c126 0 195 -83 174 -196c-6 -29 -18 -58 -31 -78c-20 -32 -40 -41 -77 -41h-300c-10 -110 59 -168 157 -168zM362 471c-89 0 -170 -63 -200 -166
h291c7 11 13 27 16 41c15 76 -25 125 -107 125zM445 663c-6 -31 -31 -51 -59 -51s-48 21 -42 55c6 31 31 51 60 51c27 0 48 -21 41 -55z" />
    <glyph glyph-name="egrave" unicode="&#xe8;" horiz-adv-x="575" 
d="M304 63c47 0 93 9 139 31c5 -9 7 -26 4 -39c-5 -27 -76 -67 -172 -67c-152 0 -242 115 -211 279c34 174 177 279 317 279c126 0 195 -83 174 -196c-6 -29 -18 -58 -31 -78c-20 -32 -40 -41 -77 -41h-300c-10 -110 59 -168 157 -168zM362 471c-89 0 -170 -63 -200 -166
h291c7 11 13 27 16 41c15 76 -25 125 -107 125zM400 593l-108 105c11 16 26 31 39 41c8 6 16 9 24 9c6 0 12 -3 19 -11l94 -116l-32 -29c-6 -5 -12 -8 -18 -8s-11 3 -18 9z" />
    <glyph glyph-name="emacron" unicode="&#x113;" horiz-adv-x="575" 
d="M304 63c47 0 93 9 139 31c5 -9 7 -26 4 -39c-5 -27 -76 -67 -172 -67c-152 0 -242 115 -211 279c34 174 177 279 317 279c126 0 195 -83 174 -196c-6 -29 -18 -58 -31 -78c-20 -32 -40 -41 -77 -41h-300c-10 -110 59 -168 157 -168zM362 471c-89 0 -170 -63 -200 -166
h291c7 11 13 27 16 41c15 76 -25 125 -107 125zM273 697h243c14 0 18 -7 14 -25l-7 -39h-250c-12 0 -17 8 -14 23c3 14 9 30 14 41z" />
    <glyph glyph-name="emdash" unicode="&#x2014;" horiz-adv-x="1000" 
d="M39 371h971c15 0 20 -8 16 -28l-10 -50h-979c-14 0 -19 9 -15 27c3 15 10 35 17 51z" />
    <glyph glyph-name="endash" unicode="&#x2013;" horiz-adv-x="500" 
d="M39 371h471c15 0 20 -8 16 -28l-10 -50h-479c-14 0 -19 9 -15 27c3 15 10 35 17 51z" />
    <glyph glyph-name="eogonek" unicode="&#x119;" horiz-adv-x="575" 
d="M337 -153c16 6 24 1 20 -17l-6 -35c-21 -10 -49 -15 -73 -15c-77 0 -107 43 -96 98c7 37 36 80 77 111c-142 7 -226 119 -195 278c34 174 177 279 317 279c126 0 195 -83 174 -196c-6 -29 -18 -58 -31 -78c-20 -32 -40 -41 -77 -41h-300c-10 -110 59 -168 157 -168
c47 0 93 9 139 31c5 -9 7 -26 4 -39c-4 -20 -43 -47 -102 -59c-51 -33 -80 -73 -87 -109c-5 -25 7 -46 45 -46c11 0 24 2 34 6zM362 471c-89 0 -170 -63 -200 -166h291c7 11 13 27 16 41c15 76 -25 125 -107 125z" />
    <glyph glyph-name="estimated" unicode="&#x212e;" horiz-adv-x="782" 
d="M409 657c-87 0 -158 -30 -198 -78v-206h396v205c-43 51 -113 79 -198 79zM676 97c0 -26 -107 -109 -259 -109c-190 0 -339 138 -339 362c0 198 120 362 335 362c205 0 327 -162 327 -366v-27h-529v-180c39 -60 120 -97 209 -97c92 0 177 30 238 85c11 -10 18 -21 18 -30z
" />
    <glyph glyph-name="exclamdbl" unicode="&#x203c;" horiz-adv-x="506" 
d="M109 201c13 104 34 245 58 366l25 131c21 5 47 8 71 8c22 0 29 -7 26 -22l-22 -117c-24 -122 -56 -262 -90 -388h-46c-20 0 -23 7 -22 22zM106 -12c-31 0 -53 23 -46 61c7 34 34 56 65 56s54 -23 47 -61c-7 -35 -35 -56 -66 -56zM320 201c13 104 34 245 58 366l25 131
c21 5 47 8 71 8c22 0 29 -7 26 -22l-22 -117c-24 -122 -56 -262 -90 -388h-46c-20 0 -23 7 -22 22zM317 -12c-31 0 -53 23 -46 61c7 34 34 56 65 56s54 -23 47 -61c-7 -35 -35 -56 -66 -56z" />
    <glyph glyph-name="florin" unicode="&#x192;" horiz-adv-x="428" 
d="M-137 -197c3 14 12 31 20 40c20 -9 52 -15 85 -15c66 0 102 28 115 99l104 533h-86c-14 0 -20 8 -16 26c3 15 8 33 15 48h101l6 30c23 116 99 178 197 178c66 0 117 -30 113 -50c-3 -14 -12 -31 -21 -40c-20 9 -53 15 -87 15c-66 0 -100 -28 -114 -99l-7 -34h159
c16 0 22 -8 18 -29l-9 -45h-182l-103 -529c-22 -116 -101 -178 -198 -178c-63 0 -114 30 -110 50z" />
    <glyph glyph-name="fraction" unicode="&#x2044;" horiz-adv-x="171" 
d="M346 672l-411 -672h-39c-17 0 -22 6 -20 16c0 3 2 8 5 12l411 672h39c17 0 22 -6 20 -16c0 -3 -2 -8 -5 -12z" />
    <glyph glyph-name="franc" unicode="&#x20a3;" horiz-adv-x="549" 
d="M66 421h69l55 279h397c14 0 18 -8 15 -26c-4 -16 -9 -36 -17 -52h-320l-39 -201h251c13 0 17 -6 14 -24l-5 -26h-269l-15 -74h251c13 0 17 -5 14 -24l-5 -25h-269l-48 -248h-63c-21 0 -27 6 -24 22l44 226h-60c-9 0 -13 5 -11 17c2 9 6 22 11 32h69l15 74h-60
c-9 0 -13 5 -11 17c2 10 6 23 11 33z" />
    <glyph glyph-name="gbreve" unicode="&#x11f;" horiz-adv-x="640" 
d="M523 493l8 41h59c20 0 27 -7 24 -23l-98 -501c-25 -133 -152 -258 -342 -258c-118 0 -179 58 -164 136c9 48 47 96 118 130l4 -2c-63 39 -93 120 -72 230c35 176 178 300 324 300c60 0 108 -19 139 -53zM272 62c64 0 140 45 195 139l42 216c-32 37 -77 54 -127 54
c-109 0 -208 -95 -233 -223c-23 -116 26 -186 123 -186zM191 -174c112 0 216 69 238 181l16 83c-48 -62 -125 -102 -207 -102c-22 0 -42 3 -61 8c-46 -28 -71 -58 -78 -98c-8 -42 24 -72 92 -72zM288 720c16 8 36 15 53 15s21 -6 21 -20c0 -43 21 -65 55 -65
c42 0 71 27 88 85h44c20 0 28 -7 23 -20c-22 -64 -78 -124 -167 -124c-72 0 -121 44 -117 129z" />
    <glyph glyph-name="gcircumflex" unicode="&#x11d;" horiz-adv-x="640" 
d="M523 493l8 41h59c20 0 27 -7 24 -23l-98 -501c-25 -133 -152 -258 -342 -258c-118 0 -179 58 -164 136c9 48 47 96 118 130l4 -2c-63 39 -93 120 -72 230c35 176 178 300 324 300c60 0 108 -19 139 -53zM272 62c64 0 140 45 195 139l42 216c-32 37 -77 54 -127 54
c-109 0 -208 -95 -233 -223c-23 -116 26 -186 123 -186zM191 -174c112 0 216 69 238 181l16 83c-48 -62 -125 -102 -207 -102c-22 0 -42 3 -61 8c-46 -28 -71 -58 -78 -98c-8 -42 24 -72 92 -72zM471 732l94 -111l-34 -30c-8 -7 -15 -10 -21 -10c-8 0 -14 4 -22 14l-66 82
l-115 -96c-29 12 -43 26 -39 42c1 5 3 9 8 13l136 110h27c17 0 22 -2 32 -14z" />
    <glyph glyph-name="gcommaaccent" unicode="&#x123;" horiz-adv-x="640" 
d="M523 493l8 41h59c20 0 27 -7 24 -23l-98 -501c-25 -133 -152 -258 -342 -258c-118 0 -179 58 -164 136c9 48 47 96 118 130l4 -2c-63 39 -93 120 -72 230c35 176 178 300 324 300c60 0 108 -19 139 -53zM272 62c64 0 140 45 195 139l42 216c-32 37 -77 54 -127 54
c-109 0 -208 -95 -233 -223c-23 -116 26 -186 123 -186zM191 -174c112 0 216 69 238 181l16 83c-48 -62 -125 -102 -207 -102c-22 0 -42 3 -61 8c-46 -28 -71 -58 -78 -98c-8 -42 24 -72 92 -72zM403 576c-29 0 -51 20 -44 56c8 40 29 78 62 111c30 30 60 46 66 42
c8 -3 13 -13 14 -23c-30 -23 -54 -53 -64 -80c21 -6 34 -26 29 -54c-7 -32 -36 -52 -63 -52z" />
    <glyph glyph-name="gdotaccent" unicode="&#x121;" horiz-adv-x="640" 
d="M523 493l8 41h59c20 0 27 -7 24 -23l-98 -501c-25 -133 -152 -258 -342 -258c-118 0 -179 58 -164 136c9 48 47 96 118 130l4 -2c-63 39 -93 120 -72 230c35 176 178 300 324 300c60 0 108 -19 139 -53zM272 62c64 0 140 45 195 139l42 216c-32 37 -77 54 -127 54
c-109 0 -208 -95 -233 -223c-23 -116 26 -186 123 -186zM191 -174c112 0 216 69 238 181l16 83c-48 -62 -125 -102 -207 -102c-22 0 -42 3 -61 8c-46 -28 -71 -58 -78 -98c-8 -42 24 -72 92 -72zM470 663c-6 -31 -31 -51 -59 -51s-48 21 -42 55c6 31 31 51 60 51
c27 0 48 -21 41 -55z" />
    <glyph glyph-name="gravecomb" unicode="&#x300;" horiz-adv-x="0" 
d="M-148 573l-108 105c11 16 26 31 39 41c8 6 16 9 24 9c6 0 12 -3 19 -11l94 -116l-32 -29c-6 -5 -12 -8 -18 -8s-11 3 -18 9z" />
    <glyph glyph-name="guillemotleft" unicode="&#xab;" horiz-adv-x="590" 
d="M284 113l-194 158c-6 7 -12 16 -9 30l8 40l236 147c8 5 15 8 20 8c10 0 13 -8 10 -24c-3 -17 -8 -33 -15 -49l-185 -111l134 -106c9 -8 11 -15 8 -29zM506 113l-194 158c-6 7 -12 16 -9 30l8 40l236 147c8 5 15 8 20 8c10 0 13 -8 10 -24c-3 -17 -8 -33 -15 -49
l-185 -111l134 -106c9 -8 11 -15 8 -29z" />
    <glyph glyph-name="guillemotright" unicode="&#xbb;" horiz-adv-x="590" 
d="M523 271l-256 -158l13 64c3 14 7 21 20 29l174 106l-141 111c-1 16 0 32 3 49c3 16 10 24 20 24c5 0 10 -3 16 -8l180 -147l-8 -40c-3 -14 -11 -23 -21 -30zM301 271l-256 -158l13 64c3 14 7 21 20 29l174 106l-141 111c-1 16 0 32 3 49c3 16 10 24 20 24
c5 0 10 -3 16 -8l180 -147l-8 -40c-3 -14 -11 -23 -21 -30z" />
    <glyph glyph-name="guilsinglleft" unicode="&#x2039;" horiz-adv-x="369" 
d="M284 113l-194 158c-6 7 -12 16 -9 30l8 40l236 147c8 5 15 8 20 8c10 0 13 -8 10 -24c-3 -17 -8 -33 -15 -49l-185 -111l134 -106c9 -8 11 -15 8 -29z" />
    <glyph glyph-name="guilsinglright" unicode="&#x203a;" horiz-adv-x="369" 
d="M301 271l-256 -158l13 64c3 14 7 21 20 29l174 106l-141 111c-1 16 0 32 3 49c3 16 10 24 20 24c5 0 10 -3 16 -8l180 -147l-8 -40c-3 -14 -11 -23 -21 -30z" />
    <glyph glyph-name="hcircumflex" unicode="&#x125;" horiz-adv-x="641" 
d="M132 0h-59c-21 0 -27 6 -24 22l133 685c21 6 43 9 62 9s25 -7 23 -21l-43 -219c53 41 127 70 196 70c123 0 173 -86 145 -231l-39 -199c-7 -38 1 -53 25 -53h22c2 -9 1 -19 -1 -31c-4 -18 -32 -39 -71 -39c-47 0 -81 27 -63 116l41 212c19 98 -11 150 -97 150
c-54 0 -120 -23 -171 -64zM385 906l94 -111l-34 -30c-8 -7 -15 -10 -21 -10c-8 0 -14 4 -22 14l-66 82l-115 -96c-29 12 -43 26 -40 42c1 5 4 9 9 13l135 110h27c17 0 23 -2 33 -14z" />
    <glyph glyph-name="house" unicode="&#x2302;" horiz-adv-x="653" 
d="M596 0h-359c-93 0 -145 46 -145 168v160l209 230c16 6 38 12 56 12c17 0 24 -7 37 -21l171 -188c25 -27 31 -38 31 -64v-297zM248 77h257v221l-161 178l-161 -178v-123c0 -74 21 -98 65 -98z" />
    <glyph glyph-name="iacute" unicode="&#xed;" horiz-adv-x="270" 
d="M66 109l82 422c21 6 42 9 61 9s26 -7 23 -21l-78 -403c-7 -38 1 -53 25 -53h22c2 -9 1 -19 -1 -31c-4 -18 -32 -39 -71 -39c-47 0 -81 27 -63 116zM344 698l-148 -105c-9 -6 -16 -9 -22 -9s-10 3 -14 8l-22 29l140 116c9 8 17 11 23 11c8 0 14 -3 20 -9
c9 -10 18 -25 23 -41z" />
    <glyph glyph-name="ibreve" unicode="&#x12d;" horiz-adv-x="270" 
d="M66 109l82 422c21 6 42 9 61 9s26 -7 23 -21l-78 -403c-7 -38 1 -53 25 -53h22c2 -9 1 -19 -1 -31c-4 -18 -32 -39 -71 -39c-47 0 -81 27 -63 116zM86 720c16 8 36 15 53 15s21 -6 21 -20c0 -43 21 -65 55 -65c42 0 71 27 88 85h44c20 0 28 -7 23 -20
c-22 -64 -78 -124 -167 -124c-72 0 -121 44 -117 129z" />
    <glyph glyph-name="icircumflex" unicode="&#xee;" horiz-adv-x="270" 
d="M66 109l82 422c21 6 42 9 61 9s26 -7 23 -21l-78 -403c-7 -38 1 -53 25 -53h22c2 -9 1 -19 -1 -31c-4 -18 -32 -39 -71 -39c-47 0 -81 27 -63 116zM268 732l94 -111l-34 -30c-8 -7 -15 -10 -21 -10c-8 0 -14 4 -22 14l-66 82l-115 -96c-29 12 -43 26 -39 42c1 5 3 9 8 13
l136 110h27c17 0 22 -2 32 -14z" />
    <glyph glyph-name="idieresis" unicode="&#xef;" horiz-adv-x="270" 
d="M66 109l82 422c21 6 42 9 61 9s26 -7 23 -21l-78 -403c-7 -38 1 -53 25 -53h22c2 -9 1 -19 -1 -31c-4 -18 -32 -39 -71 -39c-47 0 -81 27 -63 116zM179 663c-6 -31 -31 -51 -59 -51s-48 21 -42 55c6 31 31 51 60 51c27 0 48 -21 41 -55zM357 663c-6 -31 -31 -51 -59 -51
s-48 21 -42 55c6 31 31 51 60 51c27 0 48 -21 41 -55z" />
    <glyph glyph-name="igrave" unicode="&#xec;" horiz-adv-x="270" 
d="M66 109l82 422c21 6 42 9 61 9s26 -7 23 -21l-78 -403c-7 -38 1 -53 25 -53h22c2 -9 1 -19 -1 -31c-4 -18 -32 -39 -71 -39c-47 0 -81 27 -63 116zM205 593l-108 105c11 16 26 31 39 41c8 6 16 9 24 9c6 0 12 -3 19 -11l94 -116l-32 -29c-6 -5 -12 -8 -18 -8s-11 3 -18 9
z" />
    <glyph glyph-name="imacron" unicode="&#x12b;" horiz-adv-x="270" 
d="M66 109l82 422c21 6 42 9 61 9s26 -7 23 -21l-78 -403c-7 -38 1 -53 25 -53h22c2 -9 1 -19 -1 -31c-4 -18 -32 -39 -71 -39c-47 0 -81 27 -63 116zM96 697h243c14 0 18 -7 14 -25l-7 -39h-250c-12 0 -17 8 -14 23c3 14 9 30 14 41z" />
    <glyph glyph-name="Delta" unicode="&#x2206;" horiz-adv-x="673" 
d="M158 77h392l-196 537zM418 676l257 -676h-606c-16 0 -27 8 -27 20c0 3 1 6 2 9l251 660c22 10 53 17 80 17c25 0 35 -7 43 -30z" />
    <glyph glyph-name="iogonek" unicode="&#x12f;" horiz-adv-x="270" 
d="M150 -153c16 6 24 1 20 -17l-6 -35c-21 -10 -49 -15 -73 -15c-77 0 -107 43 -96 98c8 41 43 91 97 123c-26 13 -39 45 -26 108l82 422c21 6 42 9 61 9s26 -7 23 -21l-78 -403c-7 -38 1 -53 25 -53h22c2 -9 1 -19 -1 -31c-3 -12 -16 -26 -37 -33c-54 -34 -85 -75 -92 -112
c-5 -25 7 -46 45 -46c11 0 24 2 34 6zM210 628c-28 0 -50 22 -44 56c7 32 33 53 62 53s49 -22 43 -57c-7 -32 -31 -52 -61 -52z" />
    <glyph glyph-name="itilde" unicode="&#x129;" horiz-adv-x="270" 
d="M66 109l82 422c21 6 42 9 61 9s26 -7 23 -21l-78 -403c-7 -38 1 -53 25 -53h22c2 -9 1 -19 -1 -31c-4 -18 -32 -39 -71 -39c-47 0 -81 27 -63 116zM68 636c2 9 6 19 10 27c21 38 52 59 89 59c26 0 42 -7 63 -27c17 -17 26 -22 37 -22c17 0 29 10 43 51l43 -12
c15 -4 19 -12 11 -29c-19 -47 -53 -77 -98 -77c-25 0 -41 7 -61 27c-19 18 -27 22 -38 22c-17 0 -28 -10 -43 -48c-17 0 -34 3 -44 8s-14 12 -12 21z" />
    <glyph glyph-name="jcircumflex" unicode="&#x135;" horiz-adv-x="273" 
d="M54 -146c-41 -41 -79 -58 -95 -58c-14 0 -25 20 -27 35c62 52 107 115 120 184l101 516c21 6 42 9 61 9s26 -7 23 -21l-99 -510c-12 -61 -44 -117 -84 -155zM270 732l94 -111l-34 -30c-8 -7 -15 -10 -21 -10c-8 0 -14 4 -22 14l-66 82l-115 -96c-29 12 -43 26 -39 42
c1 5 3 9 8 13l136 110h27c17 0 22 -2 32 -14z" />
    <glyph glyph-name="kcommaaccent" unicode="&#x137;" horiz-adv-x="579" 
d="M132 0h-59c-21 0 -27 6 -24 22l137 705c21 6 43 9 62 9s25 -7 22 -21l-84 -436c109 59 242 158 333 261c43 -16 54 -30 50 -49c-9 -45 -135 -141 -233 -204c35 -78 83 -153 118 -195c17 -20 33 -29 45 -29h20c1 -9 1 -19 -1 -31c-4 -18 -33 -39 -70 -39
c-22 0 -45 11 -66 35c-43 48 -89 128 -121 214c-30 -17 -63 -35 -92 -49zM247 -39c29 0 51 -20 44 -56c-8 -40 -28 -78 -62 -111c-29 -30 -59 -46 -66 -42c-7 3 -12 13 -13 23c29 23 53 53 63 80c-21 6 -34 26 -28 54c6 32 35 52 62 52z" />
    <glyph glyph-name="lacute" unicode="&#x13a;" horiz-adv-x="313" 
d="M269 40c-3 -18 -43 -47 -101 -47c-82 0 -114 54 -96 149l110 566c21 5 43 8 62 8s25 -7 23 -21l-108 -556c-11 -53 6 -75 46 -75c19 0 43 4 60 11c4 -9 6 -24 4 -35zM389 872l-148 -105c-10 -6 -16 -9 -22 -9s-11 3 -15 8l-21 29l140 116c9 8 17 11 23 11
c8 0 14 -3 20 -9c9 -10 18 -25 23 -41z" />
    <glyph glyph-name="lcaron" unicode="&#x13e;" horiz-adv-x="373" 
d="M269 40c-3 -18 -43 -47 -101 -47c-82 0 -114 54 -96 149l114 586c21 5 43 8 62 8s25 -7 22 -21l-111 -576c-11 -53 6 -75 46 -75c19 0 43 4 60 11c4 -9 6 -24 4 -35zM408 739c30 0 54 -22 46 -65c-11 -52 -38 -96 -78 -134c-29 -30 -59 -43 -65 -40c-7 4 -13 14 -13 24
c35 28 64 64 76 100c-23 7 -38 28 -32 59c7 34 34 56 66 56z" />
    <glyph glyph-name="lcommaaccent" unicode="&#x13c;" horiz-adv-x="313" 
d="M269 40c-3 -18 -43 -47 -101 -47c-82 0 -114 54 -96 149l114 586c21 5 43 8 62 8s25 -7 22 -21l-111 -576c-11 -53 6 -75 46 -75c19 0 43 4 60 11c4 -9 6 -24 4 -35zM150 -39c29 0 51 -20 44 -56c-8 -40 -28 -78 -62 -111c-29 -30 -59 -46 -66 -42c-7 3 -12 13 -13 23
c29 23 53 53 63 80c-21 6 -34 26 -28 54c6 32 35 52 62 52z" />
    <glyph glyph-name="lira" unicode="&#x20a4;" horiz-adv-x="596" 
d="M29 28l8 42c55 39 72 77 88 158h-55c-9 0 -13 5 -11 17c2 9 7 23 12 33h64l14 73h-55c-9 0 -13 5 -11 18c2 9 7 22 11 32h64l16 82c28 144 131 229 254 229c100 0 162 -59 179 -140c2 -9 3 -16 1 -24c-2 -10 -11 -18 -26 -24c-18 -8 -41 -14 -62 -16
c-5 87 -48 125 -107 125c-70 0 -128 -51 -147 -146l-17 -86h199c14 0 18 -6 15 -24l-5 -26h-218l-14 -73h199c14 0 17 -6 14 -25l-5 -25h-218c-17 -79 -40 -122 -78 -151h367c15 0 21 -8 17 -28l-9 -49h-466c-16 0 -22 7 -18 28z" />
    <glyph glyph-name="logicalnot" unicode="&#xac;" horiz-adv-x="649" 
d="M571 175h-59c-20 0 -28 6 -28 22v184h-361c-14 0 -20 7 -20 25c0 14 2 35 6 48h439c16 0 23 -7 23 -28v-251z" />
    <glyph glyph-name="longs" unicode="&#x17f;" horiz-adv-x="428" 
d="M295 568l-110 -568h-59c-21 0 -27 6 -24 22l85 438h-86c-14 0 -20 8 -16 26c3 15 8 33 15 48h101l6 30c23 118 98 178 197 178c66 0 117 -30 113 -50c-3 -14 -12 -31 -21 -40c-20 9 -53 15 -87 15c-67 0 -101 -32 -114 -99z" />
    <glyph glyph-name="lozenge" unicode="&#x25ca;" horiz-adv-x="519" 
d="M277 600l-129 -247l129 -246l130 246zM315 695l179 -342l-178 -337c-6 -11 -15 -16 -33 -16h-36l-186 353l181 347c13 5 32 9 49 9c14 0 19 -4 24 -14z" />
    <glyph glyph-name="minus" unicode="&#x2212;" horiz-adv-x="649" 
d="M581 295h-458c-14 0 -20 7 -20 25c0 14 2 35 6 48h449c16 0 23 -7 23 -28v-45z" />
    <glyph glyph-name="mu" unicode="&#xb5;" horiz-adv-x="621" 
d="M144 63l-57 -291h-59c-21 0 -26 7 -23 23l143 736c21 6 42 9 61 9s26 -7 23 -21l-75 -387c35 -41 93 -64 147 -64c86 0 136 52 155 150l61 316h59c20 0 27 -7 24 -23l-56 -287c-28 -145 -112 -231 -235 -231c-69 0 -131 29 -168 70z" />
    <glyph glyph-name="nacute" unicode="&#x144;" horiz-adv-x="641" 
d="M132 0h-59c-21 0 -27 6 -24 22l99 509c21 6 42 9 61 9s26 -7 23 -21l-8 -43c53 41 127 70 196 70c123 0 173 -86 145 -231l-39 -199c-7 -38 1 -53 25 -53h22c2 -9 1 -19 -1 -31c-4 -18 -32 -39 -71 -39c-47 0 -81 27 -63 116l41 212c19 98 -11 150 -97 150
c-54 0 -120 -23 -171 -64zM520 698l-148 -105c-9 -6 -16 -9 -22 -9s-10 3 -14 8l-22 29l140 116c9 8 17 11 23 11c8 0 14 -3 20 -9c9 -10 18 -25 23 -41z" />
    <glyph glyph-name="uni00A0" unicode="&#xa0;" horiz-adv-x="300" 
 />
    <glyph glyph-name="ncaron" unicode="&#x148;" horiz-adv-x="641" 
d="M132 0h-59c-21 0 -27 6 -24 22l99 509c21 6 42 9 61 9s26 -7 23 -21l-8 -43c53 41 127 70 196 70c123 0 173 -86 145 -231l-39 -199c-7 -38 1 -53 25 -53h22c2 -9 1 -19 -1 -31c-4 -18 -32 -39 -71 -39c-47 0 -81 27 -63 116l41 212c19 98 -11 150 -97 150
c-54 0 -120 -23 -171 -64zM356 593l-95 112c24 29 42 41 54 41c8 0 14 -3 22 -13l67 -83l119 100l30 -33c4 -4 5 -9 4 -13c-1 -6 -5 -11 -12 -17l-129 -105c-10 -1 -19 -1 -29 -1c-16 0 -22 3 -31 12z" />
    <glyph glyph-name="ncommaaccent" unicode="&#x146;" horiz-adv-x="641" 
d="M132 0h-59c-21 0 -27 6 -24 22l99 509c21 6 42 9 61 9s26 -7 23 -21l-8 -43c53 41 127 70 196 70c123 0 173 -86 145 -231l-39 -199c-7 -38 1 -53 25 -53h22c2 -9 1 -19 -1 -31c-4 -18 -32 -39 -71 -39c-47 0 -81 27 -63 116l41 212c19 98 -11 150 -97 150
c-54 0 -120 -23 -171 -64zM279 -39c29 0 51 -20 44 -56c-8 -40 -28 -78 -62 -111c-29 -30 -59 -46 -66 -42c-7 3 -12 13 -13 23c29 23 53 53 63 80c-21 6 -34 26 -28 54c6 32 35 52 62 52z" />
    <glyph glyph-name="ntilde" unicode="&#xf1;" horiz-adv-x="641" 
d="M132 0h-59c-21 0 -27 6 -24 22l99 509c21 6 42 9 61 9s26 -7 23 -21l-8 -43c53 41 127 70 196 70c123 0 173 -86 145 -231l-39 -199c-7 -38 1 -53 25 -53h22c2 -9 1 -19 -1 -31c-4 -18 -32 -39 -71 -39c-47 0 -81 27 -63 116l41 212c19 98 -11 150 -97 150
c-54 0 -120 -23 -171 -64zM253 636c2 9 6 19 10 27c21 38 52 59 89 59c26 0 42 -7 63 -27c17 -17 26 -22 37 -22c17 0 29 10 43 51l43 -12c15 -4 19 -12 11 -29c-19 -47 -53 -77 -98 -77c-25 0 -41 7 -61 27c-19 18 -27 22 -38 22c-17 0 -28 -10 -43 -48c-17 0 -34 3 -44 8
s-14 12 -12 21z" />
    <glyph glyph-name="oacute" unicode="&#xf3;" horiz-adv-x="628" 
d="M380 546c141 0 241 -102 206 -279c-34 -177 -174 -279 -315 -279s-241 102 -207 279c35 177 175 279 316 279zM291 63c88 0 179 62 205 198c27 138 -44 210 -136 210c-88 0 -179 -62 -205 -198c-27 -138 44 -210 136 -210zM514 698l-148 -105c-9 -6 -16 -9 -22 -9
s-10 3 -14 8l-22 29l140 116c9 8 17 11 23 11c8 0 14 -3 20 -9c9 -10 18 -25 23 -41z" />
    <glyph glyph-name="obreve" unicode="&#x14f;" horiz-adv-x="628" 
d="M380 546c141 0 241 -102 206 -279c-34 -177 -174 -279 -315 -279s-241 102 -207 279c35 177 175 279 316 279zM291 63c88 0 179 62 205 198c27 138 -44 210 -136 210c-88 0 -179 -62 -205 -198c-27 -138 44 -210 136 -210zM270 720c16 8 36 15 53 15s21 -6 21 -20
c0 -43 21 -65 55 -65c42 0 71 27 88 85h44c20 0 28 -7 23 -20c-22 -64 -78 -124 -167 -124c-72 0 -121 44 -117 129z" />
    <glyph glyph-name="ocircumflex" unicode="&#xf4;" horiz-adv-x="628" 
d="M380 546c141 0 241 -102 206 -279c-34 -177 -174 -279 -315 -279s-241 102 -207 279c35 177 175 279 316 279zM291 63c88 0 179 62 205 198c27 138 -44 210 -136 210c-88 0 -179 -62 -205 -198c-27 -138 44 -210 136 -210zM453 732l94 -111l-34 -30
c-8 -7 -15 -10 -21 -10c-8 0 -14 4 -22 14l-66 82l-115 -96c-29 12 -43 26 -39 42c1 5 3 9 8 13l136 110h27c17 0 22 -2 32 -14z" />
    <glyph glyph-name="odieresis" unicode="&#xf6;" horiz-adv-x="628" 
d="M380 546c141 0 241 -102 206 -279c-34 -177 -174 -279 -315 -279s-241 102 -207 279c35 177 175 279 316 279zM291 63c88 0 179 62 205 198c27 138 -44 210 -136 210c-88 0 -179 -62 -205 -198c-27 -138 44 -210 136 -210zM363 663c-6 -31 -31 -51 -59 -51s-48 21 -42 55
c6 31 31 51 60 51c27 0 48 -21 41 -55zM541 663c-6 -31 -31 -51 -59 -51s-48 21 -42 55c6 31 31 51 60 51c27 0 48 -21 41 -55z" />
    <glyph glyph-name="ograve" unicode="&#xf2;" horiz-adv-x="628" 
d="M380 546c141 0 241 -102 206 -279c-34 -177 -174 -279 -315 -279s-241 102 -207 279c35 177 175 279 316 279zM291 63c88 0 179 62 205 198c27 138 -44 210 -136 210c-88 0 -179 -62 -205 -198c-27 -138 44 -210 136 -210zM401 593l-108 105c11 16 26 31 39 41
c8 6 16 9 24 9c6 0 12 -3 19 -11l94 -116l-32 -29c-6 -5 -12 -8 -18 -8s-11 3 -18 9z" />
    <glyph glyph-name="ohungarumlaut" unicode="&#x151;" horiz-adv-x="628" 
d="M380 546c141 0 241 -102 206 -279c-34 -177 -174 -279 -315 -279s-241 102 -207 279c35 177 175 279 316 279zM291 63c88 0 179 62 205 198c27 138 -44 210 -136 210c-88 0 -179 -62 -205 -198c-27 -138 44 -210 136 -210zM433 698l-148 -105c-9 -6 -16 -9 -22 -9
s-10 3 -14 8l-22 29l140 116c9 8 17 11 23 11c8 0 14 -3 20 -9c9 -10 18 -25 23 -41zM595 698l-148 -105c-9 -6 -16 -9 -22 -9s-10 3 -14 8l-22 29l140 116c9 8 17 11 23 11c8 0 14 -3 20 -9c9 -10 18 -25 23 -41z" />
    <glyph glyph-name="omacron" unicode="&#x14d;" horiz-adv-x="628" 
d="M380 546c141 0 241 -102 206 -279c-34 -177 -174 -279 -315 -279s-241 102 -207 279c35 177 175 279 316 279zM291 63c88 0 179 62 205 198c27 138 -44 210 -136 210c-88 0 -179 -62 -205 -198c-27 -138 44 -210 136 -210zM280 697h243c14 0 18 -7 14 -25l-7 -39h-250
c-12 0 -17 8 -14 23c3 14 9 30 14 41z" />
    <glyph glyph-name="onedotenleader" unicode="&#x2024;" horiz-adv-x="329" 
d="M189 44c-7 -34 -34 -56 -66 -56c-30 0 -53 23 -46 61c7 34 34 56 66 56c30 0 53 -23 46 -61z" />
    <glyph glyph-name="orthogonal" unicode="&#x221f;" horiz-adv-x="642" 
d="M638 0h-373c-100 0 -152 46 -152 174v398c19 6 41 10 64 10c19 0 27 -7 27 -21v-379c0 -79 22 -105 72 -105h340c15 0 22 -8 22 -28v-49z" />
    <glyph glyph-name="oslashacute" unicode="&#x1ff;" horiz-adv-x="628" 
d="M380 546c62 0 117 -20 155 -58l51 46h32c22 0 26 -10 11 -24l-66 -59c28 -46 38 -108 23 -184c-34 -177 -174 -279 -315 -279c-63 0 -118 20 -156 58l-50 -46h-32c-22 0 -27 10 -11 24l64 58c-27 46 -36 109 -22 185c35 177 175 279 316 279zM155 273
c-10 -50 -7 -92 5 -124l306 276c-26 30 -64 46 -106 46c-88 0 -179 -62 -205 -198zM291 63c88 0 179 62 205 198c10 50 6 91 -6 124l-307 -277c27 -30 65 -45 108 -45zM514 698l-148 -105c-9 -6 -16 -9 -22 -9s-10 3 -14 8l-22 29l140 116c9 8 17 11 23 11c8 0 14 -3 20 -9
c9 -10 18 -25 23 -41z" />
    <glyph glyph-name="otilde" unicode="&#xf5;" horiz-adv-x="628" 
d="M380 546c141 0 241 -102 206 -279c-34 -177 -174 -279 -315 -279s-241 102 -207 279c35 177 175 279 316 279zM291 63c88 0 179 62 205 198c27 138 -44 210 -136 210c-88 0 -179 -62 -205 -198c-27 -138 44 -210 136 -210zM252 636c2 9 6 19 10 27c21 38 52 59 89 59
c26 0 42 -7 63 -27c17 -17 26 -22 37 -22c17 0 29 10 43 51l43 -12c15 -4 19 -12 11 -29c-19 -47 -53 -77 -98 -77c-25 0 -41 7 -61 27c-19 18 -27 22 -38 22c-17 0 -28 -10 -43 -48c-17 0 -34 3 -44 8s-14 12 -12 21z" />
    <glyph glyph-name="macron" unicode="&#xaf;" horiz-adv-x="417" 
d="M171 678h243c14 0 18 -7 14 -25l-7 -39h-250c-12 0 -17 8 -14 23c3 14 9 30 14 41z" />
    <glyph glyph-name="peseta" unicode="&#x20a7;" horiz-adv-x="1157" 
d="M249 196c-23 0 -46 3 -64 8l-39 -204h-63c-20 0 -27 6 -24 22l132 678h118c129 0 217 -47 231 -166h80l29 150c22 6 43 9 62 9s26 -7 23 -21l-27 -138h149c13 0 18 -9 16 -21c32 20 73 33 120 33c80 0 129 -35 149 -89c2 -5 4 -14 3 -19c-2 -10 -9 -17 -19 -24
c-15 -10 -38 -19 -65 -21c-8 50 -36 78 -85 78c-51 0 -89 -34 -97 -75c-10 -52 22 -73 94 -93c92 -26 136 -76 120 -156c-17 -89 -92 -147 -217 -147h-191c-106 0 -154 71 -129 198l51 262h-69l-3 -14c-31 -162 -161 -250 -285 -250zM716 74h163c75 0 116 23 125 70
c8 41 -9 67 -76 85c-109 28 -154 78 -137 166c5 24 14 46 28 65h-126l-55 -283c-14 -74 22 -103 78 -103zM266 622l-66 -343c15 -4 33 -5 50 -5c85 0 171 59 194 174c22 115 -40 174 -128 174h-50z" />
    <glyph glyph-name="quotedblbase" unicode="&#x201e;" horiz-adv-x="491" 
d="M143 105c30 0 54 -22 45 -65c-10 -52 -37 -96 -77 -134c-30 -30 -59 -43 -66 -40c-6 4 -12 14 -12 24c35 28 64 64 76 100c-23 7 -38 28 -32 59c7 34 34 56 66 56zM305 105c30 0 54 -22 45 -65c-10 -52 -37 -96 -77 -134c-30 -30 -59 -43 -66 -40c-6 4 -12 14 -12 24
c35 28 64 64 76 100c-23 7 -38 28 -32 59c7 34 34 56 66 56z" />
    <glyph glyph-name="quotereversed" unicode="&#x201b;" horiz-adv-x="329" 
d="M270 742c32 0 50 -22 44 -56c-6 -31 -29 -52 -55 -59c-2 -36 13 -72 37 -100c-4 -10 -14 -20 -22 -24c-7 -3 -32 10 -50 40c-25 38 -35 82 -25 134c8 43 41 65 71 65z" />
    <glyph glyph-name="quotesinglbase" unicode="&#x201a;" horiz-adv-x="329" 
d="M143 105c30 0 54 -22 45 -65c-10 -52 -37 -96 -77 -134c-30 -30 -59 -43 -66 -40c-6 4 -12 14 -12 24c35 28 64 64 76 100c-23 7 -38 28 -32 59c7 34 34 56 66 56z" />
    <glyph glyph-name="racute" unicode="&#x155;" horiz-adv-x="454" 
d="M481 525c15 -11 20 -18 18 -31c-2 -7 -6 -15 -14 -22c-11 -12 -27 -23 -41 -30c-22 20 -55 29 -89 29c-63 0 -118 -39 -155 -119l-68 -352h-59c-21 0 -27 6 -24 22l99 509c21 6 42 9 61 9s26 -7 23 -21l-12 -64c43 55 104 91 174 91c39 0 68 -8 87 -21zM450 698
l-148 -105c-9 -6 -16 -9 -22 -9s-10 3 -14 8l-22 29l140 116c9 8 17 11 23 11c8 0 14 -3 20 -9c9 -10 18 -25 23 -41z" />
    <glyph glyph-name="rcaron" unicode="&#x159;" horiz-adv-x="454" 
d="M481 525c15 -11 20 -18 18 -31c-2 -7 -6 -15 -14 -22c-11 -12 -27 -23 -41 -30c-22 20 -55 29 -89 29c-63 0 -118 -39 -155 -119l-68 -352h-59c-21 0 -27 6 -24 22l99 509c21 6 42 9 61 9s26 -7 23 -21l-12 -64c43 55 104 91 174 91c39 0 68 -8 87 -21zM291 593l-95 112
c24 29 42 41 54 41c8 0 14 -3 22 -13l67 -83l119 100l30 -33c4 -4 5 -9 4 -13c-1 -6 -5 -11 -12 -17l-129 -105c-10 -1 -19 -1 -29 -1c-16 0 -22 3 -31 12z" />
    <glyph glyph-name="rcommaaccent" unicode="&#x157;" horiz-adv-x="454" 
d="M481 525c15 -11 20 -18 18 -31c-2 -7 -6 -15 -14 -22c-11 -12 -27 -23 -41 -30c-22 20 -55 29 -89 29c-63 0 -118 -39 -155 -119l-68 -352h-59c-21 0 -27 6 -24 22l99 509c21 6 42 9 61 9s26 -7 23 -21l-12 -64c43 55 104 91 174 91c39 0 68 -8 87 -21zM81 -39
c29 0 51 -20 44 -56c-8 -40 -28 -78 -62 -111c-29 -30 -59 -46 -66 -42c-7 3 -12 13 -13 23c29 23 53 53 63 80c-21 6 -34 26 -28 54c6 32 35 52 62 52z" />
    <glyph glyph-name="revlogicalnot" unicode="&#x2310;" horiz-adv-x="649" 
d="M200 175h-59c-20 0 -28 6 -28 22v257h445c16 0 23 -7 23 -28v-45h-381v-206z" />
    <glyph glyph-name="sacute" unicode="&#x15b;" horiz-adv-x="499" 
d="M402 393c-8 50 -48 78 -102 78c-60 0 -105 -33 -114 -78c-10 -50 24 -75 110 -98c110 -29 151 -77 135 -157c-17 -91 -97 -150 -223 -150c-98 0 -165 42 -159 69c2 14 12 31 20 39c39 -21 90 -34 143 -34c77 0 122 24 132 72c8 42 -13 67 -93 86
c-125 30 -169 86 -152 173c17 90 105 153 218 153c83 0 145 -35 165 -90c2 -6 4 -12 3 -18c-2 -10 -9 -17 -19 -24c-15 -10 -39 -18 -64 -21zM440 698l-148 -105c-9 -6 -16 -9 -22 -9s-10 3 -14 8l-22 29l140 116c9 8 17 11 23 11c8 0 14 -3 20 -9c9 -10 18 -25 23 -41z" />
    <glyph glyph-name="scaron" unicode="&#x161;" horiz-adv-x="499" 
d="M402 393c-8 50 -48 78 -102 78c-60 0 -105 -33 -114 -78c-10 -50 24 -75 110 -98c110 -29 151 -77 135 -157c-17 -91 -97 -150 -223 -150c-98 0 -165 42 -159 69c2 14 12 31 20 39c39 -21 90 -34 143 -34c77 0 122 24 132 72c8 42 -13 67 -93 86
c-125 30 -169 86 -152 173c17 90 105 153 218 153c83 0 145 -35 165 -90c2 -6 4 -12 3 -18c-2 -10 -9 -17 -19 -24c-15 -10 -39 -18 -64 -21zM288 593l-95 112c24 29 42 41 54 41c8 0 14 -3 22 -13l67 -83l119 100l30 -33c4 -4 5 -9 4 -13c-1 -6 -5 -11 -12 -17l-129 -105
c-10 -1 -19 -1 -29 -1c-16 0 -22 3 -31 12z" />
    <glyph glyph-name="scedilla" unicode="&#x15f;" horiz-adv-x="499" 
d="M402 393c-8 50 -48 78 -102 78c-60 0 -105 -33 -114 -78c-10 -50 24 -75 110 -98c110 -29 151 -77 135 -157c-14 -75 -71 -129 -162 -144l-39 -53c53 -9 81 -40 72 -86c-11 -58 -65 -93 -136 -93c-22 0 -49 3 -68 10l7 35c2 12 8 18 18 18c11 0 28 -6 45 -6
c32 0 56 13 61 38c6 31 -19 49 -77 53c-7 4 -11 7 -10 12c1 2 2 4 4 6l43 61c-88 5 -145 43 -140 68c2 14 12 31 20 39c39 -21 90 -34 143 -34c77 0 122 24 132 72c8 42 -13 67 -93 86c-125 30 -169 86 -152 173c17 90 105 153 218 153c83 0 145 -35 165 -90
c2 -6 4 -12 3 -18c-2 -10 -9 -17 -19 -24c-15 -10 -39 -18 -64 -21z" />
    <glyph glyph-name="scircumflex" unicode="&#x15d;" horiz-adv-x="499" 
d="M402 393c-8 50 -48 78 -102 78c-60 0 -105 -33 -114 -78c-10 -50 24 -75 110 -98c110 -29 151 -77 135 -157c-17 -91 -97 -150 -223 -150c-98 0 -165 42 -159 69c2 14 12 31 20 39c39 -21 90 -34 143 -34c77 0 122 24 132 72c8 42 -13 67 -93 86
c-125 30 -169 86 -152 173c17 90 105 153 218 153c83 0 145 -35 165 -90c2 -6 4 -12 3 -18c-2 -10 -9 -17 -19 -24c-15 -10 -39 -18 -64 -21zM384 732l94 -111l-34 -30c-8 -7 -15 -10 -21 -10c-8 0 -14 4 -22 14l-66 82l-115 -96c-29 12 -43 26 -39 42c1 5 3 9 8 13l136 110
h27c17 0 22 -2 32 -14z" />
    <glyph glyph-name="sterling" unicode="&#xa3;" horiz-adv-x="596" 
d="M29 28l8 42c56 40 72 78 88 160l14 70h-47c-15 0 -20 6 -17 19c2 12 6 27 11 38h64l24 126c28 144 131 229 254 229c100 0 162 -59 179 -140c2 -9 3 -16 1 -24c-2 -10 -11 -18 -26 -24c-18 -8 -41 -14 -62 -16c-5 87 -48 125 -107 125c-70 0 -128 -51 -147 -146l-25 -130
h206c16 0 22 -7 17 -28l-5 -29h-229l-12 -63c-17 -85 -41 -130 -80 -160h367c15 0 21 -8 17 -28l-9 -49h-466c-16 0 -22 7 -18 28z" />
    <glyph glyph-name="tcaron" unicode="&#x165;" horiz-adv-x="575" 
d="M285 63c28 0 61 5 87 16c5 -8 8 -25 5 -38c-4 -23 -55 -53 -127 -53c-98 0 -153 62 -129 183l56 289h-75c-14 0 -20 8 -16 26c3 16 9 34 15 48h90l30 151c21 5 42 8 61 8s26 -7 23 -21l-27 -138h170c15 0 21 -8 17 -28l-9 -46h-192l-57 -295c-15 -73 22 -102 78 -102z
M610 739c30 0 54 -22 46 -65c-11 -52 -38 -96 -78 -134c-29 -30 -59 -43 -65 -40c-7 4 -13 14 -13 24c35 28 64 64 76 100c-23 7 -38 28 -32 59c7 34 34 56 66 56z" />
    <glyph glyph-name="tcommaaccent" unicode="&#x163;" horiz-adv-x="453" 
d="M285 63c28 0 61 5 87 16c5 -8 8 -25 5 -38c-4 -22 -48 -49 -113 -53l-35 -47c53 -9 81 -40 72 -86c-11 -58 -65 -93 -136 -93c-22 0 -49 3 -68 10l7 35c2 12 8 18 18 18c11 0 28 -6 45 -6c32 0 56 13 61 38c6 31 -19 49 -77 53c-7 4 -11 7 -10 12c1 2 2 4 4 6l49 69
c-61 21 -91 81 -73 174l56 289h-75c-14 0 -20 8 -16 26c3 16 9 34 15 48h90l30 151c21 5 42 8 61 8s26 -7 23 -21l-27 -138h170c15 0 21 -8 17 -28l-9 -46h-192l-57 -295c-15 -73 22 -102 78 -102z" />
    <glyph glyph-name="tilde" unicode="&#x2dc;" horiz-adv-x="417" 
d="M143 617c2 9 6 19 11 27c20 38 51 59 88 59c26 0 43 -7 63 -27c18 -17 27 -22 38 -22c17 0 29 10 43 51l42 -12c15 -4 19 -12 12 -29c-20 -47 -53 -77 -98 -77c-25 0 -42 7 -62 27c-19 18 -27 22 -38 22c-17 0 -28 -10 -42 -48c-17 0 -35 3 -45 8s-13 12 -12 21z" />
    <glyph glyph-name="tildecomb" unicode="&#x303;" horiz-adv-x="0" 
d="M-318 617c2 9 6 19 11 27c20 38 51 59 88 59c26 0 43 -7 63 -27c18 -17 27 -22 38 -22c17 0 29 10 43 51l41 -12c15 -4 19 -12 12 -29c-19 -47 -52 -77 -97 -77c-25 0 -42 7 -62 27c-19 18 -27 22 -38 22c-17 0 -28 -10 -42 -48c-17 0 -35 3 -45 8s-13 12 -12 21z" />
    <glyph glyph-name="uacute" unicode="&#xfa;" horiz-adv-x="614" 
d="M596 511l-56 -286c-29 -148 -140 -237 -276 -237c-137 0 -214 89 -185 237l60 306c21 6 42 9 61 9s26 -7 23 -21l-58 -300c-19 -98 35 -157 114 -157c80 0 154 59 173 157l61 315h59c20 0 27 -7 24 -23zM507 698l-148 -105c-9 -6 -16 -9 -22 -9s-10 3 -14 8l-22 29
l140 116c9 8 17 11 23 11c8 0 14 -3 20 -9c9 -10 18 -25 23 -41z" />
    <glyph glyph-name="ubreve" unicode="&#x16d;" horiz-adv-x="614" 
d="M596 511l-56 -286c-29 -148 -140 -237 -276 -237c-137 0 -214 89 -185 237l60 306c21 6 42 9 61 9s26 -7 23 -21l-58 -300c-19 -98 35 -157 114 -157c80 0 154 59 173 157l61 315h59c20 0 27 -7 24 -23zM263 720c16 8 36 15 53 15s21 -6 21 -20c0 -43 21 -65 55 -65
c42 0 71 27 88 85h44c20 0 28 -7 23 -20c-22 -64 -78 -124 -167 -124c-72 0 -121 44 -117 129z" />
    <glyph glyph-name="ucircumflex" unicode="&#xfb;" horiz-adv-x="614" 
d="M596 511l-56 -286c-29 -148 -140 -237 -276 -237c-137 0 -214 89 -185 237l60 306c21 6 42 9 61 9s26 -7 23 -21l-58 -300c-19 -98 35 -157 114 -157c80 0 154 59 173 157l61 315h59c20 0 27 -7 24 -23zM445 732l94 -111l-34 -30c-8 -7 -15 -10 -21 -10
c-8 0 -14 4 -22 14l-66 82l-115 -96c-29 12 -43 26 -39 42c1 5 3 9 8 13l136 110h27c17 0 22 -2 32 -14z" />
    <glyph glyph-name="udieresis" unicode="&#xfc;" horiz-adv-x="614" 
d="M596 511l-56 -286c-29 -148 -140 -237 -276 -237c-137 0 -214 89 -185 237l60 306c21 6 42 9 61 9s26 -7 23 -21l-58 -300c-19 -98 35 -157 114 -157c80 0 154 59 173 157l61 315h59c20 0 27 -7 24 -23zM356 663c-6 -31 -31 -51 -59 -51s-48 21 -42 55c6 31 31 51 60 51
c27 0 48 -21 41 -55zM534 663c-6 -31 -31 -51 -59 -51s-48 21 -42 55c6 31 31 51 60 51c27 0 48 -21 41 -55z" />
    <glyph glyph-name="ugrave" unicode="&#xf9;" horiz-adv-x="614" 
d="M596 511l-56 -286c-29 -148 -140 -237 -276 -237c-137 0 -214 89 -185 237l60 306c21 6 42 9 61 9s26 -7 23 -21l-58 -300c-19 -98 35 -157 114 -157c80 0 154 59 173 157l61 315h59c20 0 27 -7 24 -23zM394 593l-108 105c11 16 26 31 39 41c8 6 16 9 24 9
c6 0 12 -3 19 -11l94 -116l-32 -29c-6 -5 -12 -8 -18 -8s-11 3 -18 9z" />
    <glyph glyph-name="uhungarumlaut" unicode="&#x171;" horiz-adv-x="614" 
d="M596 511l-56 -286c-29 -148 -140 -237 -276 -237c-137 0 -214 89 -185 237l60 306c21 6 42 9 61 9s26 -7 23 -21l-58 -300c-19 -98 35 -157 114 -157c80 0 154 59 173 157l61 315h59c20 0 27 -7 24 -23zM432 698l-148 -105c-9 -6 -16 -9 -22 -9s-10 3 -14 8l-22 29
l140 116c9 8 17 11 23 11c8 0 14 -3 20 -9c9 -10 18 -25 23 -41zM594 698l-148 -105c-9 -6 -16 -9 -22 -9s-10 3 -14 8l-22 29l140 116c9 8 17 11 23 11c8 0 14 -3 20 -9c9 -10 18 -25 23 -41z" />
    <glyph glyph-name="umacron" unicode="&#x16b;" horiz-adv-x="614" 
d="M596 511l-56 -286c-29 -148 -140 -237 -276 -237c-137 0 -214 89 -185 237l60 306c21 6 42 9 61 9s26 -7 23 -21l-58 -300c-19 -98 35 -157 114 -157c80 0 154 59 173 157l61 315h59c20 0 27 -7 24 -23zM273 697h243c14 0 18 -7 14 -25l-7 -39h-250c-12 0 -17 8 -14 23
c3 14 9 30 14 41z" />
    <glyph glyph-name="underscoredbl" unicode="&#x2017;" horiz-adv-x="600" 
d="M-13 -140h473c15 0 21 -8 17 -28l-8 -38h-479c-14 0 -19 9 -15 27c2 12 7 26 12 39zM10 -24h473c15 0 20 -8 16 -28l-7 -38h-479c-14 0 -19 9 -16 27c3 12 7 26 13 39z" />
    <glyph glyph-name="uni0191" unicode="&#x191;" horiz-adv-x="549" 
d="M52 -15l139 715h396c14 0 18 -8 15 -26c-4 -16 -9 -36 -17 -52h-319l-46 -240h249c16 0 20 -7 16 -28l-9 -49h-271l-64 -326c-11 -61 -44 -117 -83 -155c-49 -48 -93 -63 -104 -56c-10 5 -18 19 -19 34c62 52 103 113 117 183z" />
    <glyph glyph-name="uni02C9" unicode="&#x2c9;" horiz-adv-x="417" 
d="M171 678h243c14 0 18 -7 14 -25l-7 -39h-250c-12 0 -17 8 -14 23c3 14 9 30 14 41z" />
    <glyph glyph-name="uni0302" unicode="&#x302;" horiz-adv-x="0" 
d="M-113 712l93 -111l-33 -30c-8 -7 -14 -10 -20 -10c-8 0 -15 4 -23 14l-66 82l-114 -96c-30 12 -43 26 -40 42c1 5 3 9 8 13l136 110h27c17 0 22 -2 32 -14z" />
    <glyph glyph-name="uni0304" unicode="&#x304;" horiz-adv-x="0" 
d="M-289 678h243c13 0 17 -7 13 -25l-7 -39h-249c-12 0 -17 8 -14 23c3 14 9 30 14 41z" />
    <glyph glyph-name="uni0306" unicode="&#x306;" horiz-adv-x="0" 
d="M-299 700c15 8 35 15 52 15s21 -6 22 -20c-1 -43 20 -65 54 -65c42 0 71 27 88 85h43c20 0 28 -7 24 -20c-23 -64 -78 -124 -167 -124c-72 0 -121 44 -116 129z" />
    <glyph glyph-name="uni0307" unicode="&#x307;" horiz-adv-x="0" 
d="M-117 643c-6 -31 -30 -51 -58 -51s-49 21 -43 55c6 31 31 51 60 51c27 0 48 -21 41 -55z" />
    <glyph glyph-name="uni0308" unicode="&#x308;" horiz-adv-x="0" 
d="M-206 643c-6 -31 -30 -51 -58 -51s-49 21 -43 55c6 31 31 51 60 51c27 0 48 -21 41 -55zM-29 643c-6 -31 -29 -51 -57 -51s-49 21 -43 55c6 31 31 51 60 51c27 0 47 -21 40 -55z" />
    <glyph glyph-name="uni030A" unicode="&#x30a;" horiz-adv-x="0" 
d="M-150 734c54 0 86 -39 76 -89s-56 -89 -110 -89c-53 0 -86 39 -76 89s57 89 110 89zM-173 601c23 0 44 17 48 42c6 28 -10 46 -36 46c-23 0 -44 -17 -49 -42c-5 -28 11 -46 37 -46z" />
    <glyph glyph-name="uni030C" unicode="&#x30c;" horiz-adv-x="0" 
d="M-221 573l-95 112c24 29 42 41 54 41c8 0 14 -3 22 -13l67 -83l119 100l29 -33c4 -4 5 -9 4 -13c-1 -6 -5 -11 -12 -17l-128 -105c-9 -1 -18 -1 -28 -1c-16 0 -23 3 -32 12z" />
    <glyph glyph-name="uni0327" unicode="&#x327;" horiz-adv-x="0" 
d="M-378 -90c-7 4 -11 7 -10 12c1 2 2 4 4 6l51 72h77l-44 -59c53 -9 81 -40 72 -86c-11 -58 -65 -93 -136 -93c-22 0 -49 3 -68 10l7 35c2 12 8 18 18 18c11 0 28 -6 45 -6c32 0 56 13 61 38c6 31 -19 49 -77 53z" />
    <glyph glyph-name="uni0400" unicode="&#x400;" horiz-adv-x="574" 
d="M477 0h-272c-100 0 -144 46 -119 174l103 526h396c14 0 18 -8 15 -26c-4 -16 -9 -36 -17 -52h-319l-45 -236h249c16 0 20 -8 16 -28l-10 -50h-271l-24 -126c-15 -79 1 -105 51 -105h239c16 0 21 -8 17 -28zM429 767l-108 105c11 16 26 31 39 41c8 6 16 9 24 9
c6 0 12 -3 19 -11l94 -116l-33 -29c-6 -5 -11 -8 -17 -8s-12 3 -18 9z" />
    <glyph glyph-name="afii10051" unicode="&#x402;" horiz-adv-x="771" 
d="M702 215l-40 -206c-12 -61 -44 -117 -83 -155c-49 -48 -93 -63 -105 -56c-10 5 -18 19 -19 34c63 52 104 113 117 183l40 203c19 99 -8 150 -93 150c-47 0 -102 -20 -149 -55l-60 -313h-63c-20 0 -27 6 -24 22l116 600h-196c-14 0 -19 8 -16 26c3 15 10 36 18 52h496
c16 0 21 -8 17 -29l-10 -49h-218l-45 -235c52 36 114 59 172 59c122 0 173 -86 145 -231z" />
    <glyph glyph-name="afii10052" unicode="&#x403;" horiz-adv-x="551" 
d="M191 700h396c15 0 20 -8 16 -29l-10 -49h-327l-120 -622h-63c-20 0 -27 6 -24 22zM535 872l-148 -105c-10 -6 -16 -9 -22 -9s-11 3 -15 8l-21 29l140 116c9 8 17 11 23 11c8 0 14 -3 20 -9c9 -10 18 -25 23 -41z" />
    <glyph glyph-name="afii10053" unicode="&#x404;" horiz-adv-x="687" 
d="M707 565c2 -6 3 -12 2 -17c-3 -16 -13 -26 -34 -34c-14 -6 -34 -11 -53 -13c-17 83 -76 132 -169 132c-111 0 -232 -87 -268 -247h316c15 0 20 -7 16 -28l-9 -49h-333c-5 -155 95 -243 243 -243c56 0 118 12 170 38c5 -11 6 -27 4 -42c-6 -30 -98 -74 -203 -74
c-212 0 -345 147 -299 383c42 218 214 341 383 341c126 0 209 -61 234 -147z" />
    <glyph glyph-name="afii10054" unicode="&#x405;" horiz-adv-x="594" 
d="M389 712c106 0 181 -48 207 -119c2 -7 4 -14 2 -24c-2 -9 -10 -16 -23 -23c-20 -10 -44 -16 -65 -17c-14 66 -60 104 -136 104c-79 0 -144 -44 -157 -111c-12 -62 26 -100 143 -140c138 -48 187 -110 169 -206c-22 -112 -130 -188 -278 -188c-117 0 -194 45 -188 77
c3 14 11 31 20 41c46 -25 108 -40 172 -40c108 0 169 45 181 106c12 63 -25 102 -128 131c-137 39 -206 106 -184 217c22 113 131 192 265 192z" />
    <glyph glyph-name="afii10055" unicode="&#x406;" horiz-adv-x="293" 
d="M152 0h-63c-21 0 -27 6 -24 22l131 674c20 6 43 10 65 10c20 0 26 -7 24 -21z" />
    <glyph glyph-name="afii10056" unicode="&#x407;" horiz-adv-x="293" 
d="M152 0h-63c-21 0 -27 6 -24 22l131 674c20 6 43 10 65 10c20 0 26 -7 24 -21zM231 837c-6 -31 -31 -51 -59 -51s-49 21 -42 55c6 31 31 51 60 51c27 0 48 -21 41 -55zM409 837c-6 -31 -31 -51 -59 -51s-49 21 -42 55c6 31 31 51 60 51c27 0 48 -21 41 -55z" />
    <glyph glyph-name="afii10057" unicode="&#x408;" horiz-adv-x="422" 
d="M102 -12c-66 0 -123 31 -118 55c3 15 12 31 20 42c26 -11 61 -18 94 -18c75 0 121 40 137 122l99 508c20 6 43 9 65 9c20 0 26 -7 24 -21l-97 -498c-25 -126 -103 -199 -224 -199z" />
    <glyph glyph-name="afii10058" unicode="&#x409;" horiz-adv-x="1114" 
d="M546 174l87 448h-247c-30 -135 -77 -311 -125 -445c-52 -144 -112 -189 -194 -189c-53 0 -94 28 -91 48c3 15 13 32 22 43c16 -9 40 -13 61 -13c45 0 79 30 113 121c50 135 103 325 140 513h400c20 0 26 -7 23 -23l-47 -243c44 18 106 30 170 30c152 0 242 -80 214 -227
c-31 -155 -159 -237 -334 -237h-81c-92 0 -137 39 -111 174zM683 77h58c119 0 214 42 236 155c20 104 -36 153 -155 153c-48 0 -102 -8 -148 -23l-35 -180c-17 -87 -3 -105 44 -105z" />
    <glyph glyph-name="afii10059" unicode="&#x40a;" horiz-adv-x="1077" 
d="M146 0h-63c-20 0 -27 6 -24 22l131 674c20 6 43 10 66 10c19 0 25 -7 23 -21l-58 -296h330l61 311h63c20 0 26 -7 23 -23l-47 -243c44 18 106 30 170 30c152 0 242 -80 214 -227c-31 -155 -160 -237 -335 -237h-80c-99 0 -136 43 -107 195l23 117h-330zM785 385
c-48 0 -102 -8 -148 -23l-35 -180c-17 -87 -3 -105 43 -105h59c119 0 214 42 236 155c20 104 -36 153 -155 153z" />
    <glyph glyph-name="afii10060" unicode="&#x40b;" horiz-adv-x="788" 
d="M702 215l-19 -99c-7 -38 1 -53 25 -53h22c2 -9 1 -19 -1 -31c-4 -18 -32 -39 -71 -39c-52 0 -84 29 -67 118l21 107c19 99 -8 150 -93 150c-47 0 -102 -20 -149 -55l-60 -313h-63c-20 0 -27 6 -24 22l116 600h-196c-14 0 -19 8 -16 26c3 15 10 36 18 52h496
c16 0 21 -8 17 -29l-10 -49h-218l-45 -235c54 37 114 59 172 59c122 0 173 -86 145 -231z" />
    <glyph glyph-name="afii10061" unicode="&#x40c;" horiz-adv-x="660" 
d="M670 630c-69 -84 -169 -174 -272 -249c42 -121 99 -236 146 -290c15 -17 33 -25 48 -25h19c1 -10 0 -25 -2 -36c-4 -20 -33 -42 -72 -42c-29 0 -58 16 -81 46c-49 64 -97 174 -137 295c-40 -28 -83 -54 -124 -76l-49 -253h-63c-20 0 -27 6 -24 22l131 674
c20 6 43 10 66 10c19 0 25 -7 23 -21l-65 -331c134 80 287 205 413 352c46 -16 60 -29 56 -50c-2 -8 -5 -17 -13 -26zM562 872l-148 -105c-10 -6 -16 -9 -22 -9s-11 3 -15 8l-21 29l140 116c9 8 17 11 23 11c8 0 14 -3 20 -9c9 -10 18 -25 23 -41z" />
    <glyph glyph-name="uni040D" unicode="&#x40d;" horiz-adv-x="718" 
d="M59 22l131 674c20 6 43 10 66 10c19 0 25 -7 23 -21l-104 -533l447 538c9 11 15 16 29 16c17 0 44 -13 62 -29l-131 -677h-63c-21 0 -27 6 -24 22l102 525l-447 -538c-8 -10 -16 -15 -29 -15c-17 0 -44 12 -62 28zM487 767l-108 105c11 16 26 31 39 41c8 6 16 9 24 9
c6 0 12 -3 19 -11l94 -116l-33 -29c-6 -5 -11 -8 -17 -8s-12 3 -18 9z" />
    <glyph glyph-name="afii10062" unicode="&#x40e;" horiz-adv-x="651" 
d="M196 0h-62c-13 0 -21 5 -19 14c2 7 6 12 13 21c52 55 110 121 159 181l-143 449c29 27 55 40 74 40c14 0 19 -5 23 -18l114 -385c102 133 192 270 261 398h62c17 0 26 -6 24 -17c0 -3 -2 -7 -4 -10c-117 -214 -313 -478 -502 -673zM324 895c16 8 36 15 53 15
s21 -6 21 -20c0 -43 21 -65 55 -65c42 0 71 27 88 85h44c20 0 28 -7 23 -20c-22 -64 -78 -124 -167 -124c-72 0 -121 44 -117 129z" />
    <glyph glyph-name="afii10145" unicode="&#x40f;" horiz-adv-x="724" 
d="M259 -124l25 124h-86c-98 0 -137 44 -107 197l97 499c20 6 43 10 66 10c19 0 25 -7 23 -21l-98 -503c-17 -88 4 -105 44 -105h288l122 623h63c20 0 26 -7 23 -23l-131 -677h-213l-29 -147h-63c-21 0 -27 7 -24 23z" />
    <glyph glyph-name="uni0450" unicode="&#x450;" horiz-adv-x="575" 
d="M304 63c47 0 93 9 139 31c5 -9 7 -26 4 -39c-5 -27 -76 -67 -172 -67c-152 0 -242 115 -211 279c34 174 177 279 317 279c126 0 195 -83 174 -196c-6 -29 -18 -58 -31 -78c-20 -32 -40 -41 -77 -41h-300c-10 -110 59 -168 157 -168zM362 471c-89 0 -170 -63 -200 -166
h291c7 11 13 27 16 41c15 76 -25 125 -107 125zM400 593l-108 105c11 16 26 31 39 41c8 6 16 9 24 9c6 0 12 -3 19 -11l94 -116l-32 -29c-6 -5 -12 -8 -18 -8s-11 3 -18 9z" />
    <glyph glyph-name="afii10099" unicode="&#x452;" horiz-adv-x="625" 
d="M565 315l-65 -335c-12 -61 -45 -117 -85 -155c-40 -41 -79 -58 -96 -58c-14 0 -25 20 -27 35c63 52 108 115 122 184l65 335c19 98 -11 150 -97 150c-54 0 -120 -23 -171 -64l-79 -407h-59c-21 0 -27 6 -24 22l113 583h-40c-14 0 -20 6 -17 19c2 12 6 28 11 39h57l13 64
c21 6 43 9 62 9s25 -7 22 -21l-10 -52h155c16 0 22 -8 18 -28l-6 -30h-178l-25 -129c53 41 127 70 196 70c123 0 173 -86 145 -231z" />
    <glyph glyph-name="afii10100" unicode="&#x453;" horiz-adv-x="472" 
d="M223 460l-89 -460h-59c-20 0 -27 6 -24 22l99 512h332c16 0 22 -8 18 -29l-9 -45h-268zM463 697c-51 -35 -148 -112 -169 -112c-6 0 -9 2 -13 6h-2c-7 9 -16 20 -22 30c48 40 138 124 163 124c23 0 34 -26 43 -48z" />
    <glyph glyph-name="afii10101" unicode="&#x454;" horiz-adv-x="552" 
d="M554 439c2 -6 2 -14 1 -18c-2 -11 -7 -18 -21 -25c-16 -9 -41 -15 -62 -17c-7 56 -44 92 -117 92c-87 0 -168 -64 -196 -169h213c16 0 22 -7 18 -28l-9 -45h-230c1 -111 82 -167 176 -167c48 0 92 10 138 31c5 -10 7 -26 4 -38c-5 -28 -78 -67 -171 -67
c-146 0 -267 107 -230 295c31 164 161 263 306 263c98 0 162 -46 180 -107z" />
    <glyph glyph-name="afii10102" unicode="&#x455;" horiz-adv-x="499" 
d="M402 393c-8 50 -48 78 -102 78c-60 0 -105 -33 -114 -78c-10 -50 24 -75 110 -98c110 -29 151 -77 135 -157c-17 -91 -97 -150 -223 -150c-98 0 -165 42 -159 69c2 14 12 31 20 39c39 -21 90 -34 143 -34c77 0 122 24 132 72c8 42 -13 67 -93 86
c-125 30 -169 86 -152 173c17 90 105 153 218 153c83 0 145 -35 165 -90c2 -6 4 -12 3 -18c-2 -10 -9 -17 -19 -24c-15 -10 -39 -18 -64 -21z" />
    <glyph glyph-name="afii10103" unicode="&#x456;" horiz-adv-x="270" 
d="M210 628c-28 0 -50 22 -44 56c7 32 33 53 62 53s49 -22 43 -57c-7 -32 -31 -52 -61 -52zM66 109l82 422c21 6 42 9 61 9s26 -7 23 -21l-78 -403c-7 -38 1 -53 25 -53h22c2 -9 1 -19 -1 -31c-4 -18 -32 -39 -71 -39c-47 0 -81 27 -63 116z" />
    <glyph glyph-name="afii10104" unicode="&#x457;" horiz-adv-x="270" 
d="M66 109l82 422c21 6 42 9 61 9s26 -7 23 -21l-78 -403c-7 -38 1 -53 25 -53h22c2 -9 1 -19 -1 -31c-4 -18 -32 -39 -71 -39c-47 0 -81 27 -63 116zM179 663c-6 -31 -31 -51 -59 -51s-48 21 -42 55c6 31 31 51 60 51c27 0 48 -21 41 -55zM357 663c-6 -31 -31 -51 -59 -51
s-48 21 -42 55c6 31 31 51 60 51c27 0 48 -21 41 -55z" />
    <glyph glyph-name="afii10105" unicode="&#x458;" horiz-adv-x="263" 
d="M54 -146c-41 -41 -79 -58 -95 -58c-14 0 -25 20 -27 35c62 52 107 115 120 184l101 516c21 6 42 9 61 9s26 -7 23 -21l-99 -510c-12 -61 -44 -117 -84 -155zM215 628c-28 0 -50 22 -44 56c7 32 33 53 62 53s49 -22 43 -57c-7 -32 -31 -52 -61 -52z" />
    <glyph glyph-name="afii10106" unicode="&#x459;" horiz-adv-x="946" 
d="M455 146l61 314h-208c-17 -84 -49 -201 -81 -302c-40 -125 -92 -170 -169 -170c-46 0 -86 24 -82 44c2 13 10 29 20 39c15 -7 34 -11 53 -11c37 0 64 21 95 111c33 100 66 229 92 363h354c20 0 26 -8 23 -24l-32 -161c38 12 89 21 140 21c127 0 199 -66 177 -178
c-23 -116 -117 -192 -285 -192h-58c-82 0 -121 38 -100 146zM688 295c-39 0 -84 -5 -120 -15l-24 -121c-13 -70 0 -86 42 -86h49c100 0 159 43 173 114c13 69 -27 108 -120 108z" />
    <glyph glyph-name="afii10107" unicode="&#x45a;" horiz-adv-x="905" 
d="M132 0h-59c-21 0 -27 6 -24 22l99 509c21 6 42 9 61 9s26 -7 23 -21l-40 -207h254l43 222h59c21 0 27 -7 24 -23l-32 -162c38 12 89 21 140 21c127 0 198 -66 176 -178c-23 -116 -116 -192 -284 -192h-58c-82 0 -121 38 -100 146l18 93h-254zM647 295
c-39 0 -84 -5 -120 -15l-24 -121c-13 -70 0 -86 42 -86h49c100 0 159 43 173 114c13 69 -27 108 -120 108z" />
    <glyph glyph-name="afii10108" unicode="&#x45b;" horiz-adv-x="641" 
d="M427 605h-178l-25 -129c53 41 127 70 196 70c123 0 173 -86 145 -231l-39 -199c-7 -38 1 -53 25 -53h22c2 -9 1 -19 -1 -31c-4 -18 -32 -39 -71 -39c-47 0 -81 27 -63 116l41 212c19 98 -11 150 -97 150c-54 0 -120 -23 -171 -64l-79 -407h-59c-21 0 -27 6 -24 22
l113 583h-40c-14 0 -20 6 -17 19c2 12 6 28 11 39h57l13 64c21 6 43 9 62 9s25 -7 22 -21l-10 -52h155c16 0 22 -8 18 -28z" />
    <glyph glyph-name="afii10109" unicode="&#x45c;" horiz-adv-x="579" 
d="M132 0h-59c-21 0 -27 6 -24 22l99 509c21 6 42 9 61 9s26 -7 23 -21l-46 -240c109 59 242 158 333 261c43 -16 54 -30 50 -49c-9 -45 -135 -141 -233 -204c35 -78 83 -153 118 -195c17 -20 33 -29 45 -29h20c1 -9 1 -19 -1 -31c-4 -18 -33 -39 -70 -39
c-22 0 -45 11 -66 35c-43 48 -89 128 -121 214c-30 -17 -63 -35 -92 -49zM492 698l-148 -105c-9 -6 -16 -9 -22 -9s-10 3 -14 8l-22 29l140 116c9 8 17 11 23 11c8 0 14 -3 20 -9c9 -10 18 -25 23 -41z" />
    <glyph glyph-name="uni045D" unicode="&#x45d;" horiz-adv-x="626" 
d="M600 514l-99 -514h-59c-20 0 -27 7 -24 22l74 381l-355 -395c-9 -10 -18 -14 -32 -14c-15 0 -40 10 -56 27l99 512c21 5 43 8 62 8s25 -7 23 -21l-76 -388l355 395c9 10 19 14 32 14c15 0 40 -10 56 -27zM400 593l-108 105c11 16 26 31 39 41c8 6 16 9 24 9
c6 0 12 -3 19 -11l94 -116l-32 -29c-6 -5 -12 -8 -18 -8s-11 3 -18 9z" />
    <glyph glyph-name="afii10110" unicode="&#x45e;" horiz-adv-x="627" 
d="M85 219c-19 -100 -2 -171 50 -206c-65 -34 -99 -78 -108 -126c-16 -78 44 -135 158 -135c179 0 291 117 317 251l99 510c3 16 -4 22 -24 22h-59l-79 -408c-51 -41 -117 -64 -171 -64c-86 0 -116 52 -97 150l59 306c3 14 -4 21 -23 21s-40 -3 -61 -8zM426 58l-13 -64
c-20 -106 -107 -169 -212 -169c-63 0 -94 30 -86 72c7 36 28 68 72 95c14 -2 27 -4 43 -4c69 0 143 29 196 70zM269 720c16 8 36 15 53 15s21 -6 21 -20c0 -43 21 -65 55 -65c42 0 71 27 88 85h44c20 0 28 -7 23 -20c-22 -64 -78 -124 -167 -124c-72 0 -121 44 -117 129z
" />
    <glyph glyph-name="afii10193" unicode="&#x45f;" horiz-adv-x="615" 
d="M296 -118h-59c-21 0 -27 7 -24 23l19 95h-62c-81 0 -120 38 -99 146l75 385c21 6 42 9 61 9s26 -7 23 -21l-70 -360c-13 -70 3 -86 41 -86h216l89 461h59c20 0 27 -7 24 -23l-99 -511h-171z" />
    <glyph glyph-name="afii10050" unicode="&#x490;" horiz-adv-x="551" 
d="M518 700l24 125c21 6 43 9 66 9c19 0 25 -7 23 -21l-38 -191h-326l-120 -622h-63c-20 0 -27 7 -24 22l132 678h326z" />
    <glyph glyph-name="afii10098" unicode="&#x491;" horiz-adv-x="471" 
d="M221 460l-89 -460h-59c-21 0 -27 6 -24 22l99 512h267l22 113c21 6 43 9 62 9s26 -7 23 -21l-34 -175h-267z" />
    <glyph glyph-name="uni2016" unicode="&#x2016;" horiz-adv-x="447" 
d="M46 -108l165 851c17 3 35 6 53 6c20 0 27 -7 24 -21l-167 -858h-52c-21 0 -26 7 -23 22zM199 -108l165 851c17 3 35 6 54 6s26 -7 23 -21l-167 -858h-52c-20 0 -26 7 -23 22z" />
    <glyph glyph-name="uni201F" unicode="&#x201f;" horiz-adv-x="491" 
d="M432 742c32 0 50 -22 44 -56c-6 -31 -29 -52 -55 -59c-2 -36 13 -72 37 -100c-4 -10 -14 -20 -22 -24c-7 -3 -32 10 -50 40c-25 38 -35 82 -25 134c8 43 41 65 71 65zM270 742c32 0 50 -22 44 -56c-6 -31 -29 -52 -55 -59c-2 -36 13 -72 37 -100c-4 -10 -14 -20 -22 -24
c-7 -3 -32 10 -50 40c-25 38 -35 82 -25 134c8 43 41 65 71 65z" />
    <glyph glyph-name="uni203E" unicode="&#x203e;" horiz-adv-x="417" 
d="M171 678h243c14 0 18 -7 14 -25l-7 -39h-250c-12 0 -17 8 -14 23c3 14 9 30 14 41z" />
    <glyph glyph-name="zerosuperior" unicode="&#x2070;" 
d="M212 276c-101 0 -148 80 -122 216c27 136 105 216 206 216s148 -80 121 -216c-26 -136 -104 -216 -205 -216zM279 648c-53 0 -96 -48 -116 -150c-19 -100 3 -162 65 -162c53 0 97 48 117 150c19 100 -4 162 -66 162z" />
    <glyph glyph-name="uni2071" unicode="&#x2071;" 
d="M189 355l45 233c17 4 32 7 46 7c17 0 23 -6 21 -18l-43 -217c-3 -20 0 -26 14 -26h16c2 -7 2 -17 1 -25c-3 -14 -29 -30 -57 -30c-38 0 -54 24 -43 76zM279 646c-20 0 -36 16 -31 40s23 39 44 39s37 -16 32 -41c-4 -24 -23 -38 -45 -38z" />
    <glyph glyph-name="fivesuperior" unicode="&#x2075;" 
d="M422 677l-7 -36h-174l-31 -91c14 4 30 6 48 6c87 0 145 -52 128 -140c-15 -79 -84 -140 -188 -140c-71 0 -128 31 -124 52c2 11 9 25 17 34c32 -17 71 -27 111 -27c55 0 102 25 113 81c11 54 -27 80 -84 80c-22 0 -41 -2 -57 -6c-11 -3 -16 -4 -22 -4c-5 0 -10 2 -13 5
l-13 9l66 200h216c14 0 17 -6 14 -23z" />
    <glyph glyph-name="sixsuperior" unicode="&#x2076;" 
d="M301 649c-52 0 -107 -40 -129 -128c28 19 69 31 108 31c87 0 136 -57 120 -138c-15 -79 -84 -138 -176 -138c-101 0 -157 83 -133 204l1 8c27 137 119 220 219 220c60 0 103 -23 116 -70c1 -5 2 -13 1 -19c-2 -8 -8 -13 -20 -19c-10 -5 -29 -11 -45 -13
c-3 41 -24 62 -62 62zM256 493c-34 0 -69 -11 -96 -29c-12 -82 21 -129 79 -129c42 0 79 29 88 75c10 53 -20 83 -71 83z" />
    <glyph glyph-name="sevensuperior" unicode="&#x2077;" 
d="M437 656c-99 -124 -171 -240 -229 -372h-48c-19 0 -21 10 -15 24c58 126 125 231 206 334h-201c-14 0 -19 5 -16 20c2 11 8 27 14 38h259c13 0 20 -3 24 -12s6 -21 6 -32z" />
    <glyph glyph-name="eightsuperior" unicode="&#x2078;" 
d="M201 597c-6 -28 13 -48 78 -71c36 19 58 44 64 71c5 30 -21 51 -61 51c-42 0 -76 -21 -81 -51zM323 395c7 33 -10 56 -87 81c-57 -22 -84 -49 -91 -81c-7 -35 26 -60 78 -60c55 0 94 27 100 60zM74 396c9 46 48 84 108 103c-44 24 -61 57 -54 97c12 61 76 112 166 112
c89 0 132 -52 120 -112c-7 -37 -38 -71 -82 -92c51 -27 72 -63 64 -107c-14 -71 -86 -121 -185 -121c-97 0 -150 49 -137 120z" />
    <glyph glyph-name="ninesuperior" unicode="&#x2079;" 
d="M190 276c-60 0 -108 31 -104 51c2 12 8 26 17 35c22 -17 58 -27 92 -27c57 0 117 36 141 128c-29 -18 -70 -31 -110 -31c-85 0 -133 58 -118 139c16 79 84 137 175 137c101 0 157 -83 134 -203l-2 -8c-29 -148 -119 -221 -225 -221zM269 649c-41 0 -80 -28 -89 -75
c-10 -53 20 -83 72 -83c33 0 68 11 96 29c12 82 -21 129 -79 129z" />
    <glyph glyph-name="uni207A" unicode="&#x207a;" 
d="M393 498v-33h-110v-119h-46c-18 0 -23 4 -23 17v102h-92c-12 0 -17 6 -17 21c0 13 1 24 4 34h105v114c12 4 29 6 45 6c18 0 24 -6 24 -17v-103h92c13 0 18 -5 18 -22z" />
    <glyph glyph-name="uni207B" unicode="&#x207b;" 
d="M393 498v-33h-271c-12 0 -17 6 -17 21c0 13 1 24 4 34h266c13 0 18 -5 18 -22z" />
    <glyph glyph-name="uni207C" unicode="&#x207c;" 
d="M393 558v-33h-271c-12 0 -17 6 -17 21c0 13 1 24 4 35h266c13 0 18 -5 18 -23zM393 437v-32h-271c-12 0 -17 6 -17 21c0 12 1 24 4 34h266c13 0 18 -5 18 -23z" />
    <glyph glyph-name="uni207D" unicode="&#x207d;" 
d="M192 492c19 99 68 185 128 241c23 23 41 26 49 20s13 -16 15 -26c-63 -65 -104 -144 -122 -235s-7 -170 31 -234c-6 -11 -15 -21 -26 -27c-10 -6 -26 -3 -41 20c-38 56 -53 143 -34 241z" />
    <glyph glyph-name="uni207E" unicode="&#x207e;" 
d="M315 492c-19 -98 -67 -185 -128 -241c-23 -23 -41 -26 -49 -20c-7 6 -12 16 -14 27c62 64 104 143 122 234s6 170 -31 235c6 10 15 20 25 26s26 3 41 -20c39 -56 53 -142 34 -241z" />
    <glyph glyph-name="zeroinferior" unicode="&#x2080;" 
d="M133 -135c-101 0 -148 80 -122 216c27 136 105 216 206 216s148 -80 121 -216c-26 -136 -104 -216 -205 -216zM201 237c-53 0 -97 -48 -117 -150c-19 -100 3 -162 65 -162c53 0 97 48 117 150c20 100 -3 162 -65 162z" />
    <glyph glyph-name="fiveinferior" unicode="&#x2085;" 
d="M343 266l-7 -36h-174l-30 -91c13 4 29 6 47 6c87 0 146 -52 128 -140c-15 -79 -84 -140 -188 -140c-71 0 -128 31 -124 52c3 11 9 25 17 34c32 -17 71 -27 111 -27c55 0 103 25 113 81c11 54 -27 80 -84 80c-22 0 -41 -2 -57 -6c-11 -3 -16 -4 -22 -4c-5 0 -10 2 -13 5
l-13 9l66 200h216c14 0 18 -6 14 -23z" />
    <glyph glyph-name="sixinferior" unicode="&#x2086;" 
d="M222 238c-52 0 -107 -40 -129 -128c29 19 69 31 108 31c87 0 136 -57 120 -138c-15 -79 -84 -138 -176 -138c-101 0 -157 83 -133 204l1 8c27 137 119 220 219 220c60 0 103 -23 116 -70c1 -5 2 -13 1 -19c-2 -8 -8 -13 -20 -19c-10 -5 -29 -11 -45 -13
c-3 41 -24 62 -62 62zM177 82c-34 0 -69 -11 -96 -29c-12 -82 21 -129 79 -129c42 0 79 29 88 75c11 53 -20 83 -71 83z" />
    <glyph glyph-name="seveninferior" unicode="&#x2087;" 
d="M357 245c-99 -124 -171 -240 -229 -372h-48c-19 0 -21 10 -15 24c58 126 125 231 206 334h-201c-14 0 -19 5 -16 20c2 11 9 27 14 38h259c13 0 20 -3 24 -12c5 -9 6 -21 6 -32z" />
    <glyph glyph-name="eightinferior" unicode="&#x2088;" 
d="M122 186c-6 -28 13 -48 78 -71c37 19 58 44 64 71c5 30 -20 51 -60 51c-42 0 -77 -21 -82 -51zM244 -16c7 33 -10 56 -87 81c-57 -22 -84 -49 -91 -81c-6 -35 26 -60 78 -60c55 0 94 27 100 60zM-4 -15c9 46 47 84 108 103c-45 24 -62 57 -55 97c12 61 76 112 166 112
c89 0 132 -52 120 -112c-7 -37 -38 -71 -81 -92c50 -27 71 -63 63 -107c-14 -71 -86 -121 -185 -121c-97 0 -150 49 -136 120z" />
    <glyph glyph-name="nineinferior" unicode="&#x2089;" 
d="M111 -135c-60 0 -108 31 -104 51c3 12 8 26 17 35c22 -17 58 -27 92 -27c57 0 117 36 142 128c-30 -18 -70 -31 -110 -31c-85 0 -134 58 -118 139c15 79 83 137 174 137c101 0 157 -83 134 -203l-2 -8c-29 -148 -119 -221 -225 -221zM190 238c-41 0 -80 -28 -89 -75
c-10 -53 20 -83 72 -83c33 0 68 11 96 29c12 82 -21 129 -79 129z" />
    <glyph glyph-name="uni208A" unicode="&#x208a;" 
d="M317 87v-33h-110v-119h-46c-18 0 -23 4 -23 17v102h-92c-12 0 -17 6 -17 21c0 13 1 24 4 34h105v114c12 4 29 6 45 6c18 0 24 -6 24 -17v-103h92c13 0 18 -5 18 -22z" />
    <glyph glyph-name="uni208B" unicode="&#x208b;" 
d="M317 87v-33h-271c-12 0 -17 6 -17 21c0 13 1 24 4 34h266c13 0 18 -5 18 -22z" />
    <glyph glyph-name="uni208C" unicode="&#x208c;" 
d="M317 147v-33h-271c-12 0 -17 6 -17 21c0 13 1 24 4 35h266c13 0 18 -5 18 -23zM317 26v-32h-271c-12 0 -17 6 -17 21c0 12 1 24 4 34h266c13 0 18 -5 18 -23z" />
    <glyph glyph-name="uni208D" unicode="&#x208d;" 
d="M125 81c19 99 68 185 128 241c24 23 41 26 49 20s13 -16 15 -26c-63 -65 -104 -144 -122 -235c-17 -91 -7 -170 31 -234c-6 -11 -15 -21 -25 -27c-11 -6 -27 -3 -42 20c-38 56 -53 143 -34 241z" />
    <glyph glyph-name="uni208E" unicode="&#x208e;" 
d="M233 81c-19 -98 -67 -185 -128 -241c-23 -23 -41 -26 -48 -20c-8 6 -13 16 -15 27c62 64 105 143 122 234c18 91 6 170 -31 235c6 10 15 20 25 26s27 3 41 -20c39 -56 53 -142 34 -241z" />
    </font>
</defs>
</svg>
